<svg id="aceae47e-6052-4a5e-b692-5d2cbd989ffc" data-name="Object" xmlns="http://www.w3.org/2000/svg" viewBox="0 0 635 635">
  <g>
    <circle cx="317.5" cy="317.5" r="317.5" style="fill: #f6d738"/>
    <circle cx="317.5" cy="317.5" r="269.46" style="fill: #f3cc30"/>
    <path d="M458.48,87.52a268.22,268.22,0,0,1,42.39,145.14c0,148.82-120.64,269.46-269.46,269.46a268.22,268.22,0,0,1-141-39.8A269.24,269.24,0,0,0,317.5,586.64C466.32,586.64,587,466,587,317.18A269.26,269.26,0,0,0,458.48,87.52Z" style="fill: #edbd31"/>
    <path d="M95.24,342.16c0-131.37,106.5-237.87,237.87-237.87a237.46,237.46,0,0,1,188.55,92.87A237.77,237.77,0,0,0,315.4,77.85C184,77.85,77.54,184.34,77.54,315.71a236.84,236.84,0,0,0,49.31,145A236.82,236.82,0,0,1,95.24,342.16Z" style="fill: #f7db5e"/>
    <g>
      <path d="M360.11,200.14c0,22-16.85,115.93-37.63,115.93s-37.63-93.95-37.63-115.93c0-37.64,19.63-55.37,37.63-55.37S360.11,164.69,360.11,200.14Z" style="fill: #d49a34"/>
      <path d="M284.85,442.92c0-22,16.85-115.93,37.63-115.93s37.63,93.95,37.63,115.93c0,37.64-19.63,55.37-37.63,55.37S284.85,478.38,284.85,442.92Z" style="fill: #d49a34"/>
      <path d="M443.87,359.16c-22,0-115.93-16.85-115.93-37.63s93.95-37.63,115.93-37.63c37.64,0,55.37,19.63,55.37,37.63S479.32,359.16,443.87,359.16Z" style="fill: #d49a34"/>
      <path d="M201.09,283.9c22,0,115.94,16.85,115.94,37.63s-93.95,37.63-115.94,37.63c-37.63,0-55.37-19.63-55.37-37.63S165.64,283.9,201.09,283.9Z" style="fill: #d49a34"/>
      <path d="M434.93,262.3c-15.55,15.55-93.9,70.06-108.59,55.37s39.83-93,55.37-108.59c26.61-26.61,53-25.27,65.76-12.54S460,237.23,434.93,262.3Z" style="fill: #d49a34"/>
      <path d="M210,380.76c15.54-15.54,93.89-70.07,108.58-55.37s-39.82,93-55.36,108.59c-26.62,26.61-53,25.27-65.76,12.54S185,405.83,210,380.76Z" style="fill: #d49a34"/>
      <path d="M381.71,434c-15.54-15.55-70.06-93.9-55.37-108.59s93,39.83,108.59,55.37c26.61,26.61,25.27,53,12.54,65.76S406.78,459.05,381.71,434Z" style="fill: #d49a34"/>
      <path d="M263.26,209.08c15.54,15.55,70.06,93.9,55.36,108.59s-93-39.82-108.58-55.37c-26.61-26.61-25.28-53-12.54-65.76S238.19,184,263.26,209.08Z" style="fill: #d49a34"/>
      <path d="M347.58,321.53a25.1,25.1,0,1,1-25.1-25.09A25.1,25.1,0,0,1,347.58,321.53Z" style="fill: #f3cc30"/>
    </g>
  </g>
</svg>
