<svg xmlns="http://www.w3.org/2000/svg" viewBox="0 0 153.82 143.85">
  <g id="b2e3a1d0-2899-4301-85ad-0083d0c61543" data-name="Layer 2">
    <g id="ffc45862-ad84-4b8e-aad9-370b65cbb575" data-name="OBJECTS">
      <g>
        <g>
          <path d="M153.82,81.24a65.37,65.37,0,0,0-36.59-7.34c10.26-9.31,18.22-22.78,17.35-42,0,0-21.15,4.06-37.87,19.09C98.35,22.2,76.47,0,76.47,0,63.23,13.78,58,37,59.1,52.85c-17-16.56-39.86-21-39.86-21-.87,19.22,7.09,32.69,17.35,42A65.37,65.37,0,0,0,0,81.24c9.43,10.61,19.45,16.32,29,19a40.53,40.53,0,0,0-8.19,12.53c42.6,13.82,53.31-9.66,55.6-17.19.12.15.2.23.2.23l.59-.67c2,7,12.26,31.73,55.73,17.63a40.53,40.53,0,0,0-8.19-12.53C134.36,97.56,144.39,91.85,153.82,81.24Z" style="fill: #659300"/>
          <path d="M153.82,81.24a65.37,65.37,0,0,0-36.59-7.34c10.26-9.31,18.22-22.78,17.35-42,0,0-21.15,4.06-37.87,19.09C98.35,22.2,76.47,0,76.47,0V95.65l.18.2.59-.67c2,7,12.26,31.73,55.73,17.63a40.53,40.53,0,0,0-8.19-12.53C134.36,97.56,144.39,91.85,153.82,81.24Z" style="fill: #488600;opacity: 0.8"/>
        </g>
        <g>
          <g>
            <line x1="77" y1="6.64" x2="77" y2="142.92" style="fill: none;stroke: #235117;stroke-linecap: round;stroke-linejoin: round;stroke-width: 1.86671px"/>
            <g>
              <line x1="69.01" y1="20.31" x2="76.58" y2="29.42" style="fill: none;stroke: #235117;stroke-linecap: round;stroke-linejoin: round;stroke-width: 1.86671px"/>
              <line x1="84.46" y1="20.31" x2="76.89" y2="29.42" style="fill: none;stroke: #235117;stroke-linecap: round;stroke-linejoin: round;stroke-width: 1.86671px"/>
            </g>
          </g>
          <g>
            <g>
              <polyline points="26.14 39.81 77 87.28 11.31 83.2" style="fill: none;stroke: #235117;stroke-linecap: round;stroke-linejoin: round;stroke-width: 1.86671px"/>
              <g>
                <line x1="30.85" y1="54.72" x2="42.88" y2="56.01" style="fill: none;stroke: #235117;stroke-linecap: round;stroke-linejoin: round;stroke-width: 1.86671px"/>
                <line x1="41.77" y1="44.2" x2="43.11" y2="55.8" style="fill: none;stroke: #235117;stroke-linecap: round;stroke-linejoin: round;stroke-width: 1.86671px"/>
              </g>
              <g>
                <line x1="19.93" y1="91.67" x2="29.54" y2="84.57" style="fill: none;stroke: #235117;stroke-linecap: round;stroke-linejoin: round;stroke-width: 1.86671px"/>
                <line x1="20.25" y1="76.79" x2="29.55" y2="84.27" style="fill: none;stroke: #235117;stroke-linecap: round;stroke-linejoin: round;stroke-width: 1.86671px"/>
              </g>
            </g>
            <g>
              <line x1="33.03" y1="108.72" x2="77" y2="87.28" style="fill: none;stroke: #235117;stroke-linecap: round;stroke-linejoin: round;stroke-width: 1.86671px"/>
              <g>
                <line x1="42.89" y1="112.71" x2="46.93" y2="101.7" style="fill: none;stroke: #235117;stroke-linecap: round;stroke-linejoin: round;stroke-width: 1.86671px"/>
                <line x1="34.73" y1="100.07" x2="46.76" y2="101.44" style="fill: none;stroke: #235117;stroke-linecap: round;stroke-linejoin: round;stroke-width: 1.86671px"/>
              </g>
            </g>
          </g>
          <g>
            <g>
              <polyline points="127.86 39.81 77 87.28 142.69 83.2" style="fill: none;stroke: #235117;stroke-linecap: round;stroke-linejoin: round;stroke-width: 1.86671px"/>
              <g>
                <line x1="123.16" y1="54.72" x2="111.12" y2="56.01" style="fill: none;stroke: #235117;stroke-linecap: round;stroke-linejoin: round;stroke-width: 1.86671px"/>
                <line x1="112.23" y1="44.2" x2="110.9" y2="55.8" style="fill: none;stroke: #235117;stroke-linecap: round;stroke-linejoin: round;stroke-width: 1.86671px"/>
              </g>
              <g>
                <line x1="134.07" y1="91.67" x2="124.46" y2="84.57" style="fill: none;stroke: #235117;stroke-linecap: round;stroke-linejoin: round;stroke-width: 1.86671px"/>
                <line x1="133.75" y1="76.79" x2="124.45" y2="84.27" style="fill: none;stroke: #235117;stroke-linecap: round;stroke-linejoin: round;stroke-width: 1.86671px"/>
              </g>
            </g>
            <g>
              <line x1="120.97" y1="108.72" x2="77" y2="87.28" style="fill: none;stroke: #235117;stroke-linecap: round;stroke-linejoin: round;stroke-width: 1.86671px"/>
              <g>
                <line x1="111.11" y1="112.71" x2="107.07" y2="101.7" style="fill: none;stroke: #235117;stroke-linecap: round;stroke-linejoin: round;stroke-width: 1.86671px"/>
                <line x1="119.27" y1="100.07" x2="107.24" y2="101.44" style="fill: none;stroke: #235117;stroke-linecap: round;stroke-linejoin: round;stroke-width: 1.86671px"/>
              </g>
            </g>
          </g>
        </g>
      </g>
    </g>
  </g>
</svg>
