<svg xmlns="http://www.w3.org/2000/svg" viewBox="0 0 427.5 427.5">
  <g id="Layer_2" data-name="Layer 2">
    <g id="Capa_1" data-name="Capa 1">
      <g>
        <path d="M303.57,91.8c-10,24.63-68.26,123.59-87.34,115.84s8.22-119.3,18.22-143.92,43.24-54.71,59.76-48S313.57,67.18,303.57,91.8Z" style="fill: #1d1d1b;opacity: 0.4"/>
        <path d="M123.92,335.7c10-24.63,68.26-123.6,87.33-115.84S203,339.16,193,363.78s-43.24,54.71-59.76,48S113.91,360.32,123.92,335.7Z" style="fill: #1d1d1b;opacity: 0.4"/>
        <path d="M335.69,303.57c-24.62-10-123.59-68.26-115.83-87.34s119.3,8.22,143.91,18.22,54.71,43.24,48,59.77S360.32,313.57,335.69,303.57Z" style="fill: #1d1d1b;opacity: 0.4"/>
        <path d="M91.79,123.93c24.63,10,123.61,68.25,115.84,87.33S88.34,203.05,63.71,193s-54.7-43.23-48-59.76S67.17,113.92,91.79,123.93Z" style="fill: #1d1d1b;opacity: 0.4"/>
        <path d="M362.91,187.49c-24.24,10.91-134.69,42.33-143.15,23.56S308,130.38,332.27,119.46s69.05-9.75,76.37,6.52S387.14,176.57,362.91,187.49Z" style="fill: #1d1d1b;opacity: 0.4"/>
        <path d="M64.59,240c24.23-10.91,134.68-42.34,143.14-23.55S119.45,297.12,95.22,308s-69,9.76-76.38-6.51S40.35,250.92,64.59,240Z" style="fill: #1d1d1b;opacity: 0.4"/>
        <path d="M240,362.91c-10.91-24.24-42.34-134.69-23.54-143.14S297.12,308,308,332.28s9.75,69-6.52,76.37S250.91,387.15,240,362.91Z" style="fill: #1d1d1b;opacity: 0.4"/>
        <path d="M187.48,64.59C198.39,88.82,229.82,199.27,211,207.73s-80.67-88.27-91.58-112.51-9.75-69,6.52-76.37S176.57,40.35,187.48,64.59Z" style="fill: #1d1d1b;opacity: 0.4"/>
        <path d="M251.05,67c0,26.58-16.7,140.2-37.31,140.2S176.44,93.53,176.44,67,195.9,0,213.74,0,251.05,40.37,251.05,67Z" style="fill: #1d1d1b;opacity: 0.4"/>
        <path d="M176.44,360.54c0-26.59,16.7-140.2,37.3-140.2S251.05,334,251.05,360.54s-19.47,67-37.31,67S176.44,387.11,176.44,360.54Z" style="fill: #1d1d1b;opacity: 0.4"/>
        <path d="M360.53,251.05c-26.58,0-140.19-16.7-140.19-37.3S334,176.44,360.53,176.44s67,19.46,67,37.31S387.11,251.05,360.53,251.05Z" style="fill: #1d1d1b;opacity: 0.4"/>
        <path d="M67,176.44c26.59,0,140.19,16.7,140.19,37.31S93.54,251.05,67,251.05,0,231.59,0,213.75,40.37,176.44,67,176.44Z" style="fill: #1d1d1b;opacity: 0.4"/>
        <path d="M342.05,133.26C323.7,152.49,233.2,223.19,218.3,209s51.41-108,69.76-127.2,60.29-35,73.2-22.71S360.39,114,342.05,133.26Z" style="fill: #1d1d1b;opacity: 0.4"/>
        <path d="M85.44,294.24c18.35-19.25,108.84-89.93,123.75-75.72s-51.41,108-69.75,127.2-60.3,35-73.21,22.72S67.1,313.47,85.44,294.24Z" style="fill: #1d1d1b;opacity: 0.4"/>
        <path d="M294.23,342.05C275,323.7,204.3,233.21,218.52,218.3s108,51.41,127.2,69.76,35,60.29,22.71,73.2S313.46,360.39,294.23,342.05Z" style="fill: #1d1d1b;opacity: 0.4"/>
        <path d="M133.25,85.44C152.49,103.8,223.19,194.28,209,209.19s-108-51.41-127.2-69.75-35-60.3-22.71-73.21S114,67.1,133.25,85.44Z" style="fill: #1d1d1b;opacity: 0.4"/>
        <path d="M244.09,213.75a30.35,30.35,0,1,1-30.35-30.35A30.34,30.34,0,0,1,244.09,213.75Z" style="fill: #1d1d1b;opacity: 0.4"/>
      </g>
    </g>
  </g>
</svg>
