<svg id="flower" xmlns="http://www.w3.org/2000/svg" viewBox="0 0 776.81 971.43">
  <path d="M1149,429.7c-46.53,20.52-75.18,65.65-89.13,93.5a493.32,493.32,0,0,0-44.67-75.6A503.27,503.27,0,0,0,874.65,315.39l-13.91,22C955.62,397.43,1022,485.13,1055.45,582c-28.52-8.79-85.32-20.94-135.12,1-69.84,30.82-99.42,117.1-99.42,117.1s83.66,36.32,153.51,5.5c47.37-20.89,76.21-67.3,89.87-95,31.38,114.81,17.26,239.64-49.62,345.27l22,13.91a446.82,446.82,0,0,0,64.86-174.07,463.44,463.44,0,0,0-9-181.07,483.34,483.34,0,0,0-19-59.66c29.92,8.5,82.78,17.9,129.46-2.7,69.85-30.81,99.43-117.09,99.43-117.09S1218.8,398.89,1149,429.7Z" transform="translate(-529.39 -2.51)" style="fill: #006837;stroke: #000;stroke-miterlimit: 10;stroke-width: 6px"/>
  <g id="petal">
    <path id="petal3" d="M950.42,137.32c0,61-52.74,110.5-117.81,110.5S714.8,198.35,714.8,137.32,833,6,833,6,950.42,76.3,950.42,137.32Z" transform="translate(-529.39 -2.51)" style="fill: #d3d64c;stroke: #000;stroke-miterlimit: 10;stroke-width: 6px"/>
    <path id="petal2" d="M668.31,180.6c61-2.3,112.4,48.55,114.85,113.57s-45,119.59-106,121.88S533,298,533,298,607.32,182.89,668.31,180.6Z" transform="translate(-529.39 -2.51)" style="fill: #c76fa6;stroke: #000;stroke-miterlimit: 10;stroke-width: 6px"/>
    <path d="M996.94,181.6c-61-2.3-112.4,48.55-114.85,113.57s45,119.59,106,121.88,144.17-118,144.17-118S1057.93,183.89,996.94,181.6Z" transform="translate(-529.39 -2.51)" style="fill: #a5a9d6;stroke: #000;stroke-miterlimit: 10;stroke-width: 6px"/>
    <path d="M832,347.83C767,348.2,714.48,398,714.83,459S833.68,587,833.68,587s117.11-68.32,116.77-129.34S897.07,347.46,832,347.83Z" transform="translate(-529.39 -2.51)" style="fill: #7cefc4;stroke: #000;stroke-miterlimit: 10;stroke-width: 6px"/>
  </g>
  <g id="pistil">
    <path d="M833,299l94,94.05a133,133,0,0,0,0-188.1Z" transform="translate(-529.39 -2.51)" style="fill: #a16ba3;stroke: #000;stroke-miterlimit: 10;stroke-width: 6px"/>
    <path d="M833,299l-94,94.05a133,133,0,0,0,188.1,0Z" transform="translate(-529.39 -2.51)" style="fill: #00bbc9;stroke: #000;stroke-miterlimit: 10;stroke-width: 6px"/>
    <path d="M833,299l94-94.05A133,133,0,0,0,739,205Z" transform="translate(-529.39 -2.51)" style="fill: #aed95b;stroke: #000;stroke-miterlimit: 10;stroke-width: 6px"/>
    <path d="M833,299,739,205a133,133,0,0,0,0,188.1Z" transform="translate(-529.39 -2.51)" style="fill: #ff7bac;stroke: #000;stroke-miterlimit: 10;stroke-width: 6px"/>
  </g>
</svg>
