<svg xmlns="http://www.w3.org/2000/svg" viewBox="0 0 190.81 125.75">
  <g style="isolation: isolate">
    <g id="eb7bb6f7-e49a-4d0e-b0d0-ef616406381d" data-name="Layer 2">
      <g id="bf76bcbc-3061-4b8e-b3d4-12606be6ce33" data-name="OBJECTS">
        <g>
          <path d="M56.65,38.72s1.65-15.3,13.63-14.27c.2-16.4,21.73-25.63,32.49-19C120.2-7.85,145.5,5.4,145.67,21c15-2.71,26.82,9.86,21.18,20.49" style="fill: #b76933"/>
          <g>
            <circle cx="170.23" cy="105.18" r="20.58" transform="translate(7.91 222.2) rotate(-67.5)" style="fill: #f9b050"/>
            <circle cx="170.23" cy="105.18" r="15.32" transform="translate(-19.61 41.92) rotate(-13.28)" style="fill: #ee9347"/>
            <polygon points="176.55 42.4 145.67 80.1 135.63 92.36 50.41 92.36 50.41 42.4 176.55 42.4" style="fill: #3173b2"/>
            <path d="M145.67,80.1l-10,12.26H50.41v-50H80.77C88.52,57.3,106,75.17,145.67,80.1Z" style="fill: #3c4870;opacity: 0.12;mix-blend-mode: multiply"/>
            <path d="M176.08,46.74H51.54a5.06,5.06,0,0,1-5.06-5.06h0a5.07,5.07,0,0,1,5.06-5.06H176.08a5.07,5.07,0,0,1,5.06,5.06h0A5.06,5.06,0,0,1,176.08,46.74Z" style="fill: #438eca"/>
            <path d="M170.23,108.18a3.1,3.1,0,0,1-1-.18L21.34,53.89a3,3,0,0,1,2.06-5.63l147.86,54.1a3,3,0,0,1-1,5.82Z" style="fill: #a65a2c"/>
            <path d="M52,121.36a4.61,4.61,0,0,1-4.62-4.63V61.35a3,3,0,1,1,6,0v52.3L95.14,76.24a3,3,0,0,1,4,4.47l-44,39.47A4.66,4.66,0,0,1,52,121.36Z" style="fill: #a65a2c"/>
            <circle cx="170.23" cy="105.18" r="5.87" style="fill: #e06c36"/>
            <circle cx="50.41" cy="61.35" r="6.24" style="fill: #f9b050"/>
            <path d="M32.87,52l-1.68,4.8A5.19,5.19,0,0,1,24.5,60L19,58,13.7,56l-2.26-.83-5.32-2-1.06-.39a7.73,7.73,0,1,1,5.33-14.51l1.06.39,5.32,2L19,41.5l5.33,2,5.4,2A5.2,5.2,0,0,1,32.87,52Z" style="fill: #ed7a77"/>
            <rect x="3.72" y="44.12" width="15.46" height="5.67" transform="translate(-36.57 41.51) rotate(-69.83)" style="fill: #da564c"/>
            <polygon points="24.36 43.45 19.02 57.96 13.7 56.01 19.03 41.5 24.36 43.45" style="fill: #da564c"/>
          </g>
          <circle cx="83.81" cy="23.83" r="4.19" style="fill: #a65a2c"/>
          <path d="M97.69,15.58a4.06,4.06,0,1,1-4.06-4.06A4.06,4.06,0,0,1,97.69,15.58Z" style="fill: #a65a2c"/>
          <circle cx="114.51" cy="23.24" r="7.66" style="fill: #a65a2c"/>
          <path d="M131.86,13.55a2,2,0,1,1-2-2A2,2,0,0,1,131.86,13.55Z" style="fill: #a65a2c"/>
          <path d="M141.15,28.67a2.23,2.23,0,1,1-2.22-2.22A2.22,2.22,0,0,1,141.15,28.67Z" style="fill: #a65a2c"/>
        </g>
      </g>
    </g>
  </g>
</svg>
