<svg xmlns="http://www.w3.org/2000/svg" xmlns:xlink="http://www.w3.org/1999/xlink" viewBox="0 0 162.3 133.18">
  <defs>
    <filter id="bbb561c7-63e8-4db6-a931-a74d41edace9" x="25.83" y="-8212.71" width="105.18" height="32766" filterUnits="userSpaceOnUse" color-interpolation-filters="sRGB">
      <feFlood flood-color="#fff" result="bg"/>
      <feBlend in="SourceGraphic" in2="bg"/>
    </filter>
    <mask id="a966d278-0d72-4aaf-a440-10b8d5e22b05" x="25.83" y="-8212.71" width="105.18" height="32766" maskUnits="userSpaceOnUse">
      <g style="filter: url(#bbb561c7-63e8-4db6-a931-a74d41edace9)"/>
    </mask>
    <radialGradient id="b7d645c0-ebcd-4ca3-9a4d-0e700c9ccf94" data-name="Áåçûìÿííûé ãðàäèåíò 24" cx="332.31" cy="146.85" r="65.66" gradientTransform="translate(-267.42 -126.67) rotate(-3.89)" gradientUnits="userSpaceOnUse">
      <stop offset="0" stop-color="#fff"/>
      <stop offset="0.24" stop-color="#fdfdfd"/>
      <stop offset="0.38" stop-color="#f4f4f4"/>
      <stop offset="0.49" stop-color="#e7e7e7"/>
      <stop offset="0.59" stop-color="#d3d3d3"/>
      <stop offset="0.67" stop-color="#b9b9b9"/>
      <stop offset="0.76" stop-color="#9a9a9a"/>
      <stop offset="0.83" stop-color="#747474"/>
      <stop offset="0.9" stop-color="#494949"/>
      <stop offset="0.97" stop-color="#191919"/>
      <stop offset="1"/>
    </radialGradient>
    <filter id="be951932-0b56-4504-952f-a75fcf34bbd7" x="116.8" y="-8212.71" width="15.27" height="32766" filterUnits="userSpaceOnUse" color-interpolation-filters="sRGB">
      <feFlood flood-color="#fff" result="bg"/>
      <feBlend in="SourceGraphic" in2="bg"/>
    </filter>
    <mask id="ab469a13-29ba-419c-92b4-30e295485817" x="116.8" y="-8212.71" width="15.27" height="32766" maskUnits="userSpaceOnUse">
      <g style="filter: url(#be951932-0b56-4504-952f-a75fcf34bbd7)"/>
    </mask>
    <linearGradient id="b38c35e1-bf59-48d8-b2e3-80a7a285e2cb" data-name="Áåçûìÿííûé ãðàäèåíò 213" x1="2128.83" y1="312.98" x2="2122.53" y2="288.78" gradientTransform="matrix(-0.97, -0.24, -0.24, 0.97, 2256.86, 312.58)" gradientUnits="userSpaceOnUse">
      <stop offset="0"/>
      <stop offset="0.41" stop-color="#6e6e6e"/>
      <stop offset="0.82" stop-color="#d6d6d6"/>
      <stop offset="1" stop-color="#fff"/>
    </linearGradient>
    <filter id="b5dba5ea-8b37-41a5-a369-4c6d1fc37a1d" x="103.63" y="-8212.71" width="23" height="32766" filterUnits="userSpaceOnUse" color-interpolation-filters="sRGB">
      <feFlood flood-color="#fff" result="bg"/>
      <feBlend in="SourceGraphic" in2="bg"/>
    </filter>
    <mask id="a4ba878a-cdfb-435a-8c85-ce5865aa3a48" x="103.63" y="-8212.71" width="23" height="32766" maskUnits="userSpaceOnUse">
      <g style="filter: url(#b5dba5ea-8b37-41a5-a369-4c6d1fc37a1d)"/>
    </mask>
    <radialGradient id="aef8ffb1-ac52-4dcf-86cd-0a607c8467f9" cx="165.55" cy="80.79" r="21.34" gradientTransform="translate(-51.4 -33.76) rotate(-0.75)" xlink:href="#b7d645c0-ebcd-4ca3-9a4d-0e700c9ccf94"/>
    <filter id="f49d4669-5cc5-4dbe-b237-d3867a2c5d82" x="111.02" y="-8212.71" width="30.04" height="32766" filterUnits="userSpaceOnUse" color-interpolation-filters="sRGB">
      <feFlood flood-color="#fff" result="bg"/>
      <feBlend in="SourceGraphic" in2="bg"/>
    </filter>
    <mask id="f0c2595a-b383-4bb9-a3ff-94c4d1ad9e5b" x="111.02" y="-8212.71" width="30.04" height="32766" maskUnits="userSpaceOnUse">
      <g style="filter: url(#f49d4669-5cc5-4dbe-b237-d3867a2c5d82)"/>
    </mask>
    <linearGradient id="a2729265-11a3-4cbf-a127-a7fe9a30d555" x1="2127.66" y1="278.51" x2="2121.71" y2="264.73" xlink:href="#b38c35e1-bf59-48d8-b2e3-80a7a285e2cb"/>
    <filter id="ea2775e1-56e8-4bec-ad50-6a4a297e499c" x="115.09" y="-8212.71" width="22.57" height="32766" filterUnits="userSpaceOnUse" color-interpolation-filters="sRGB">
      <feFlood flood-color="#fff" result="bg"/>
      <feBlend in="SourceGraphic" in2="bg"/>
    </filter>
    <mask id="f13805be-9836-4ff2-b5fc-e57c64cdc2f1" x="115.09" y="-8212.71" width="22.57" height="32766" maskUnits="userSpaceOnUse">
      <g style="filter: url(#ea2775e1-56e8-4bec-ad50-6a4a297e499c)"/>
    </mask>
    <linearGradient id="f6ef15de-ddb5-4874-a75e-34a33c261227" x1="2125.38" y1="298.31" x2="2113.96" y2="284.91" xlink:href="#b38c35e1-bf59-48d8-b2e3-80a7a285e2cb"/>
    <filter id="b797d946-b2b4-4d59-8b16-3c79e795e65b" x="93.75" y="-8212.71" width="44.77" height="32766" filterUnits="userSpaceOnUse" color-interpolation-filters="sRGB">
      <feFlood flood-color="#fff" result="bg"/>
      <feBlend in="SourceGraphic" in2="bg"/>
    </filter>
    <mask id="b67a1ee1-c1cc-45c5-a921-ce3a35cec74c" x="93.75" y="-8212.71" width="44.77" height="32766" maskUnits="userSpaceOnUse">
      <g style="filter: url(#b797d946-b2b4-4d59-8b16-3c79e795e65b)"/>
    </mask>
    <linearGradient id="bf2787f1-a0af-4730-9409-89b32a55e460" x1="-533.23" y1="122.33" x2="-532.96" y2="101.54" gradientTransform="matrix(0.99, 0.15, -0.15, 0.99, 659.11, 35.01)" xlink:href="#b38c35e1-bf59-48d8-b2e3-80a7a285e2cb"/>
    <radialGradient id="bed9466b-c36e-4089-b896-07e19d0208e6" data-name="Áåçûìÿííûé ãðàäèåíò 3" cx="90.54" cy="23.64" r="80.53" gradientUnits="userSpaceOnUse">
      <stop offset="0" stop-color="#ed2e29"/>
      <stop offset="0.16" stop-color="#ea2e29"/>
      <stop offset="0.27" stop-color="#e12c28"/>
      <stop offset="0.35" stop-color="#d52a26"/>
      <stop offset="0.47" stop-color="#bc2623"/>
      <stop offset="0.75" stop-color="#871d1d"/>
      <stop offset="0.88" stop-color="#721a1a"/>
    </radialGradient>
    <filter id="ad45067d-a07b-4f88-8843-62d1b263e018" x="25.83" y="2.23" width="105.18" height="64.83" filterUnits="userSpaceOnUse" color-interpolation-filters="sRGB">
      <feFlood flood-color="#fff" result="bg"/>
      <feBlend in="SourceGraphic" in2="bg"/>
    </filter>
    <mask id="e51ccbac-07d3-4271-a9b5-774821f60acb" x="25.83" y="2.23" width="105.18" height="64.83" maskUnits="userSpaceOnUse">
      <g style="mask: url(#a966d278-0d72-4aaf-a440-10b8d5e22b05);filter: url(#ad45067d-a07b-4f88-8843-62d1b263e018)">
        <path d="M26.33,37.94C22.65,24.75,39.14,2.25,75.6,2.23s53.05,38.18,55.13,45.82S124.14,72.83,75,65.11,26.33,37.94,26.33,37.94Z" style="mix-blend-mode: multiply;fill: url(#b7d645c0-ebcd-4ca3-9a4d-0e700c9ccf94)"/>
      </g>
    </mask>
    <radialGradient id="ab917d9d-dcff-4fd6-9d87-99c2dafb9936" data-name="Áåçûìÿííûé ãðàäèåíò 7" cx="332.31" cy="146.85" r="65.66" gradientTransform="translate(-267.42 -126.67) rotate(-3.89)" gradientUnits="userSpaceOnUse">
      <stop offset="0" stop-color="#83bdf4"/>
      <stop offset="0.26" stop-color="#84bbf2"/>
      <stop offset="0.4" stop-color="#89b6e9"/>
      <stop offset="0.52" stop-color="#91acdc"/>
      <stop offset="0.62" stop-color="#9d9ec8"/>
      <stop offset="0.72" stop-color="#ac8cae"/>
      <stop offset="0.8" stop-color="#bf758f"/>
      <stop offset="0.88" stop-color="#d55b6a"/>
      <stop offset="0.96" stop-color="#ee3d3f"/>
      <stop offset="1" stop-color="#ff2923"/>
    </radialGradient>
    <radialGradient id="a9c5d758-ed25-4b38-9f52-b51bcc604033" data-name="Áåçûìÿííûé ãðàäèåíò 185" cx="-2939.92" cy="3176.05" r="27.95" gradientTransform="matrix(0.67, 0, 0, 1.01, 2048.5, -3187.88)" gradientUnits="userSpaceOnUse">
      <stop offset="0" stop-color="#eebd58"/>
      <stop offset="0.29" stop-color="#a2803c"/>
      <stop offset="0.64" stop-color="#4b3c1c"/>
      <stop offset="0.88" stop-color="#151108"/>
      <stop offset="1"/>
    </radialGradient>
    <radialGradient id="ead173cb-7daf-462e-8b06-e924f554fd88" data-name="Áåçûìÿííûé ãðàäèåíò 58" cx="-537.96" cy="-2720.16" r="18.7" gradientTransform="matrix(0.79, 0.38, -0.2, 0.41, -31.17, 1347.93)" gradientUnits="userSpaceOnUse">
      <stop offset="0" stop-color="#4599ff"/>
      <stop offset="1"/>
    </radialGradient>
    <linearGradient id="b8208e6a-2edf-4e2f-97ba-a33398359133" data-name="Áåçûìÿííûé ãðàäèåíò 47" x1="111.48" y1="54.71" x2="91.27" y2="6.36" gradientUnits="userSpaceOnUse">
      <stop offset="0" stop-color="#f02420"/>
      <stop offset="0.27" stop-color="#ee2420"/>
      <stop offset="0.42" stop-color="#e52320"/>
      <stop offset="0.55" stop-color="#d8211f"/>
      <stop offset="0.66" stop-color="#c41f1f"/>
      <stop offset="0.75" stop-color="#aa1c1e"/>
      <stop offset="0.84" stop-color="#8b181d"/>
      <stop offset="0.93" stop-color="#66141b"/>
      <stop offset="1" stop-color="#3f0f1a"/>
    </linearGradient>
    <filter id="b21e79f8-2910-486b-976f-acfdc9a2909d" x="103.63" y="16.97" width="23" height="55.92" filterUnits="userSpaceOnUse" color-interpolation-filters="sRGB">
      <feFlood flood-color="#fff" result="bg"/>
      <feBlend in="SourceGraphic" in2="bg"/>
    </filter>
    <mask id="fdf7077f-cf9d-4ef9-a72b-c5bf53653b71" x="103.63" y="16.97" width="23" height="55.92" maskUnits="userSpaceOnUse">
      <g style="mask: url(#a4ba878a-cdfb-435a-8c85-ce5865aa3a48);filter: url(#b21e79f8-2910-486b-976f-acfdc9a2909d)">
        <path d="M125.21,69.23c.5-.32,1-.63,1.38-1l-.32,2-12.15,2.6c.13,0,8.23-3.16,9.37-8.69s-2.1-17-4.92-24.12S103.81,17.22,103.63,17c13.82,14.58,22.85,35.19,23,45.64a14.79,14.79,0,0,1-1,5.78C125.47,68.68,125.34,69,125.21,69.23Z" style="mix-blend-mode: multiply;fill: url(#aef8ffb1-ac52-4dcf-86cd-0a607c8467f9)"/>
      </g>
    </mask>
    <radialGradient id="b53f28cf-6362-4dc9-b457-0b4475ee4fbb" cx="165.55" cy="80.79" r="21.34" gradientTransform="translate(-51.4 -33.76) rotate(-0.75)" xlink:href="#ab917d9d-dcff-4fd6-9d87-99c2dafb9936"/>
    <linearGradient id="fb919a2f-4237-422b-b0d7-e94ce96039d0" data-name="Áåçûìÿííûé ãðàäèåíò 66" x1="-841.19" y1="127.91" x2="-807.41" y2="127.91" gradientTransform="matrix(0.97, 0.24, -0.24, 0.97, 945.35, 122.47)" gradientUnits="userSpaceOnUse">
      <stop offset="0" stop-color="#b8a6c6"/>
      <stop offset="1" stop-color="#fff"/>
    </linearGradient>
    <linearGradient id="b4b13b6c-b42b-4b93-b551-e5e000f94562" x1="2119.62" y1="274.02" x2="2108.16" y2="282.45" gradientTransform="matrix(-0.97, -0.24, -0.24, 0.97, 2256.86, 312.58)" xlink:href="#fb919a2f-4237-422b-b0d7-e94ce96039d0"/>
    <filter id="aa3cf04b-4c6b-428d-823b-67999a192908" x="111.02" y="46.48" width="30.04" height="33.14" filterUnits="userSpaceOnUse" color-interpolation-filters="sRGB">
      <feFlood flood-color="#fff" result="bg"/>
      <feBlend in="SourceGraphic" in2="bg"/>
    </filter>
    <mask id="afef6242-544d-4c32-84f9-6e1463408ce8" x="111.02" y="46.48" width="30.04" height="33.14" maskUnits="userSpaceOnUse">
      <g style="mask: url(#f0c2595a-b383-4bb9-a3ff-94c4d1ad9e5b);filter: url(#aa3cf04b-4c6b-428d-823b-67999a192908)">
        <path d="M111,51.37c3.42.88,6.45,1.53,8.27,1.14,6-1.27,9.36-2.88,12.83-4,1.25-.39,6.85,0,7.85,7.8a36.25,36.25,0,0,1-.42,12c-1.11,4.84-2.78,9.88-5.84,11.24a7.79,7.79,0,0,0,.81-.46,5.79,5.79,0,0,0,1-.75c2.22-2.12,4.43-7.6,5.2-13.21a33.48,33.48,0,0,0-.25-11.46c-1.69-7.67-7.31-7.57-8.53-7.06-3.35,1.38-6.55,3.3-12.41,5.1C117.7,52.34,114.56,52,111,51.37Z" style="mix-blend-mode: multiply;fill: url(#a2729265-11a3-4cbf-a127-a7fe9a30d555)"/>
      </g>
    </mask>
    <linearGradient id="bfa59c91-830f-43d4-a679-fcbbd32f79ce" data-name="Áåçûìÿííûé ãðàäèåíò 91" x1="2127.66" y1="278.51" x2="2121.71" y2="264.73" gradientTransform="matrix(-0.97, -0.24, -0.24, 0.97, 2256.86, 312.58)" gradientUnits="userSpaceOnUse">
      <stop offset="0"/>
      <stop offset="0.11" stop-color="#000912"/>
      <stop offset="0.72" stop-color="#003d79"/>
      <stop offset="1" stop-color="#0052a2"/>
    </linearGradient>
    <linearGradient id="e8180565-f35b-43e9-a2e9-c760abd3d2c7" x1="2128.86" y1="295.97" x2="2124.01" y2="299.52" gradientTransform="matrix(-0.97, -0.24, -0.24, 0.97, 2256.86, 312.58)" xlink:href="#fb919a2f-4237-422b-b0d7-e94ce96039d0"/>
    <linearGradient id="f6986707-70d0-4ece-b308-0d6e1d56c24a" x1="2116.33" y1="293.52" x2="2111.82" y2="296.84" gradientTransform="matrix(-0.97, -0.24, -0.24, 0.97, 2256.86, 312.58)" xlink:href="#fb919a2f-4237-422b-b0d7-e94ce96039d0"/>
    <filter id="ad5f1483-eb43-4b04-90fc-fb98a501a0cf" x="115.09" y="68.99" width="22.57" height="21.79" filterUnits="userSpaceOnUse" color-interpolation-filters="sRGB">
      <feFlood flood-color="#fff" result="bg"/>
      <feBlend in="SourceGraphic" in2="bg"/>
    </filter>
    <mask id="eb3b2f87-46a4-400c-9bb9-8a0b07b47b58" x="115.09" y="68.99" width="22.57" height="21.79" maskUnits="userSpaceOnUse">
      <g style="mask: url(#f13805be-9836-4ff2-b5fc-e57c64cdc2f1);filter: url(#ad5f1483-eb43-4b04-90fc-fb98a501a0cf)">
        <path d="M115.09,72.08a30,30,0,0,1,17.2-1.53c8.06,1.77,1.2,17.14-1.64,20.24a4.78,4.78,0,0,0,1.08-.5c2.39-1.5,10.71-18.79,2.13-20.68C125.79,67.84,117.25,70.24,115.09,72.08Z" style="mix-blend-mode: multiply;fill: url(#f6ef15de-ddb5-4874-a75e-34a33c261227)"/>
      </g>
    </mask>
    <linearGradient id="e731482c-cdd8-4d22-b6c3-bd28efa95e46" x1="2125.38" y1="298.31" x2="2113.96" y2="284.91" xlink:href="#bfa59c91-830f-43d4-a679-fcbbd32f79ce"/>
    <linearGradient id="a92c3c37-bf1a-45cc-afeb-336e5193ce13" x1="2146.24" y1="295.49" x2="2144.35" y2="284.54" gradientTransform="matrix(-0.97, -0.24, -0.24, 0.97, 2256.86, 312.58)" xlink:href="#fb919a2f-4237-422b-b0d7-e94ce96039d0"/>
    <filter id="eb18be92-436c-4f89-8c24-35717fcf2c2f" x="93.75" y="51.51" width="44.77" height="25.98" filterUnits="userSpaceOnUse" color-interpolation-filters="sRGB">
      <feFlood flood-color="#fff" result="bg"/>
      <feBlend in="SourceGraphic" in2="bg"/>
    </filter>
    <mask id="acb5409a-4cca-4793-b4b9-c28c97a066fd" x="93.75" y="51.51" width="44.77" height="25.98" maskUnits="userSpaceOnUse">
      <g style="mask: url(#b67a1ee1-c1cc-45c5-a921-ce3a35cec74c);filter: url(#eb18be92-436c-4f89-8c24-35717fcf2c2f)">
        <path d="M135.92,53.05c-3.64-2.88-10.55,2.15-17.77,1.47S96.8,49,94.71,53.17s-1.29,14,7.87,20.53,10,2.89,9.56,1.6-2.18-7.4,1.08-9.93c10.49-8.16,23,1.87,24.59-.93S138.22,54.87,135.92,53.05Z" style="mix-blend-mode: multiply;fill: url(#bf2787f1-a0af-4730-9409-89b32a55e460)"/>
      </g>
    </mask>
    <linearGradient id="ab3383d3-4bb6-425a-b2cc-efb112a3a774" data-name="Áåçûìÿííûé ãðàäèåíò 80" x1="-533.23" y1="122.33" x2="-532.96" y2="101.54" gradientTransform="matrix(0.99, 0.15, -0.15, 0.99, 659.11, 35.01)" gradientUnits="userSpaceOnUse">
      <stop offset="0"/>
      <stop offset="0.66" stop-color="#195a53"/>
      <stop offset="1" stop-color="#248379"/>
    </linearGradient>
    <filter id="a831cce0-5a9a-42b9-b381-b77e335fb786" x="116.8" y="70.51" width="15.27" height="17.75" filterUnits="userSpaceOnUse" color-interpolation-filters="sRGB">
      <feFlood flood-color="#fff" result="bg"/>
      <feBlend in="SourceGraphic" in2="bg"/>
    </filter>
    <mask id="ef3fc49c-ff36-47a6-8a82-649f73ca1f9d" x="116.8" y="70.51" width="15.27" height="17.75" maskUnits="userSpaceOnUse">
      <g style="mask: url(#ab469a13-29ba-419c-92b4-30e295485817);filter: url(#a831cce0-5a9a-42b9-b381-b77e335fb786)">
        <path d="M129.78,88.22c-1.38.72-13.85-8.22-12.94-12.94s7.67-5.12,9.79-4.59C133.35,72.39,133.13,86.45,129.78,88.22Z" style="mix-blend-mode: multiply;fill: url(#b38c35e1-bf59-48d8-b2e3-80a7a285e2cb)"/>
      </g>
    </mask>
    <linearGradient id="bb4cbc29-c4d0-4773-bbad-86548741c8ca" x1="2128.83" y1="312.98" x2="2122.53" y2="288.78" gradientTransform="matrix(-0.97, -0.24, -0.24, 0.97, 2256.86, 312.58)" xlink:href="#ab3383d3-4bb6-425a-b2cc-efb112a3a774"/>
  </defs>
  <g style="isolation: isolate">
    <g id="bf304a12-0402-4408-970c-f95ff7ec522d" data-name="Layer 2">
      <g id="f52ac4de-a4e6-476f-8c10-afb98c45f55c" data-name="Ñëîé 1">
        <g>
          <g>
            <path d="M113.42,98.83c-3.38-3-4.89-3.58-5.72-3.16s-.23,4.83-1.06,2.21c0-.41,0-.83,0-1.26a37,37,0,0,0-3.12-10.85c-1.54-3.57-3.06-6.25-3.06-6.25l1.31.1,3,4.71c1.74,2.75,3.92,6.22,5.68,9.09.58,1,1.12,1.83,1.58,2.6,0,0,0,0,0,0h0v0C113.15,98,113.79,99.16,113.42,98.83Z" style="fill: #1d182d"/>
            <path d="M112,96.05h0l0,0Z" style="fill: #241c3a"/>
            <path d="M104.73,84.33c-.65-.49-1.31-.93-1.48-.87-.37.14.61,1.8,2.54,7.06,1.13,3.09,1.06,5,.81,6.1a37,37,0,0,0-3.12-10.85c-1.54-3.57-3.06-6.25-3.06-6.25l1.31.1Z" style="fill: #3f0f1a;opacity: 0.43;mix-blend-mode: multiply"/>
            <path d="M94.92,37.31s-1,11.2-2.83,20c-1,4.74-2.12,8.81-3.44,10.12-.39.38-2.07.5-4.56-2.14A15.77,15.77,0,0,1,83,64.1C80,60.21,91.68,37.25,91.68,37.25Z" style="fill: #241c3a"/>
            <path d="M84.91,65.17c-.07-.19-2-5,.35-5.51s2.52,1.48,3.38,1.16,3.26-7.94,3.26-7.94-.66,12-3.57,13.57S84.91,65.17,84.91,65.17Z" style="fill: #248379;mix-blend-mode: color-dodge"/>
            <path d="M108,82.9l-.17-.05c-.92-.28-5.08-1.48-5.7-.2-.7,1.44-3.16-1.44-3.16-1.44S83.74,67.33,84.92,63.26c0,0,0-.1,0-.14A.23.23,0,0,1,85.2,63h0C87.71,62.88,108,82.9,108,82.9Z" style="fill: #1d182d"/>
            <polygon points="85.2 62.98 85.2 62.98 85.2 62.98 85.2 62.98" style="fill: #3f0f1a;opacity: 0.43;mix-blend-mode: multiply"/>
            <path d="M107.84,82.85c-.92-.28-5.08-1.48-5.7-.2-.7,1.44-3.16-1.44-3.16-1.44S83.74,67.33,84.92,63.26L85.2,63s-.92,1.57,2.68,5.59S99.76,82,100.77,81.89s1.72-.79,2.84-.59A32.21,32.21,0,0,1,107.84,82.85Z" style="fill: #3f0f1a;opacity: 0.43;mix-blend-mode: multiply"/>
            <path d="M94.92,37.31s-1,11.2-2.83,20h0c0-.12,1.29-11-2-10.26s-7.26,12.67-6.93,15.55a5.56,5.56,0,0,0,1,2.69A15.77,15.77,0,0,1,83,64.1C80,60.21,91.68,37.25,91.68,37.25Z" style="fill: #3f0f1a;opacity: 0.43;mix-blend-mode: multiply"/>
          </g>
          <g>
            <path d="M79.09,102.53c-2.4-3.8-3.68-4.81-4.6-4.64s-1.57,4.57-1.63,1.82c.12-.39.23-.8.32-1.22a36.81,36.81,0,0,0,0-11.29c-.47-3.86-1.17-6.86-1.17-6.86l1.23.47,1.55,5.36c.89,3.12,2,7.07,2.89,10.32.3,1.07.56,2.07.78,2.94a0,0,0,0,1,0,0h0C79.08,101.64,79.36,103,79.09,102.53Z" style="fill: #1d182d"/>
            <path d="M78.52,99.47h0v0Z" style="fill: #241c3a"/>
            <path d="M74.84,86.17c-.49-.65-1-1.26-1.18-1.25-.39,0,.08,1.89.45,7.49.22,3.28-.39,5.12-.93,6.08a36.81,36.81,0,0,0,0-11.29c-.47-3.86-1.17-6.86-1.17-6.86l1.23.47Z" style="fill: #3f0f1a;opacity: 0.43;mix-blend-mode: multiply"/>
            <path d="M78.65,38.29S74.5,48.74,70.3,56.73c-2.25,4.28-4.51,7.85-6.15,8.74-.48.26-2.12-.11-3.77-3.34a15,15,0,0,1-.67-1.48c-1.85-4.59,15.85-23.33,15.85-23.33Z" style="fill: #241c3a"/>
            <path d="M61.21,62.2c0-.19-.55-5.38,1.89-5.18s2,2.13,2.91,2.06,5.36-6.7,5.36-6.7-4,11.37-7.24,12S61.21,62.2,61.21,62.2Z" style="fill: #248379;mix-blend-mode: color-dodge"/>
            <path d="M78.39,85.73l-.15-.11c-.8-.53-4.46-2.85-5.42-1.79s-2.63-2.27-2.63-2.27S59.48,64,61.76,60.38l.09-.12a.22.22,0,0,1,.26-.07h0C64.54,60.8,78.39,85.73,78.39,85.73Z" style="fill: #1d182d"/>
            <polygon points="62.11 60.19 62.11 60.19 62.1 60.19 62.11 60.19" style="fill: #3f0f1a;opacity: 0.43;mix-blend-mode: multiply"/>
            <path d="M78.24,85.62c-.8-.53-4.46-2.85-5.42-1.79s-2.63-2.27-2.63-2.27S59.48,64,61.76,60.38l.35-.19s-1.33,1.25,1,6.12,7.61,16.22,8.61,16.41,1.88-.28,2.9.23A32.72,32.72,0,0,1,78.24,85.62Z" style="fill: #3f0f1a;opacity: 0.43;mix-blend-mode: multiply"/>
            <path d="M78.65,38.29S74.5,48.74,70.3,56.73h0c0-.12,4.33-10.17.93-10.43s-10.53,10.12-11,13a5.61,5.61,0,0,0,.18,2.86,15,15,0,0,1-.67-1.48c-1.85-4.59,15.85-23.33,15.85-23.33Z" style="fill: #3f0f1a;opacity: 0.43;mix-blend-mode: multiply"/>
          </g>
          <g>
            <path d="M65.61,133.09c-2.1-4-3.3-5.08-4.23-5s-1.92,4.43-1.77,1.68A11.83,11.83,0,0,0,60,128.6,36.8,36.8,0,0,0,61,117.35c-.17-3.89-.64-6.93-.64-6.93l1.19.56s.49,2.33,1.13,5.47,1.46,7.21,2.08,10.51c.21,1.1.4,2.12.55,3,0,0,0,0,0,0h0v0C65.66,132.21,65.84,133.54,65.61,133.09Z" style="fill: #00428b"/>
            <path d="M62.67,118.83v9.07a1.71,1.71,0,0,1,1.31,1,16.12,16.12,0,0,1,1,2.22Z" style="fill: #248379;mix-blend-mode: color-dodge"/>
            <path d="M62.64,116.45c-.43-.69-.89-1.34-1.08-1.34-.39,0-.06,1.9-.13,7.51,0,3.28-.79,5.07-1.41,6A36.8,36.8,0,0,0,61,117.35c-.17-3.89-.64-6.93-.64-6.93l1.19.56S62,113.31,62.64,116.45Z" style="fill: #3f0f1a;opacity: 0.43;mix-blend-mode: multiply"/>
            <path d="M70.18,69s-5,10.09-9.76,17.72c-2.58,4.1-5.11,7.48-6.82,8.24-.5.22-2.11-.27-3.5-3.62-.19-.45-.37-1-.55-1.53-1.48-4.73,17.62-22,17.62-22Z" style="fill: #1a152b"/>
            <path d="M50.93,91.5c0-.2-.13-5.42,2.28-5S55,88.75,56,88.75s5.87-6.26,5.87-6.26-4.89,11-8.15,11.42S50.93,91.5,50.93,91.5Z" style="fill: #248379;mix-blend-mode: color-dodge"/>
            <path d="M66.22,116.28l-.15-.11c-.75-.59-4.21-3.19-5.25-2.21s-2.45-2.47-2.45-2.47S49.06,93.1,51.62,89.72l.09-.12a.24.24,0,0,1,.26,0h0C54.35,90.35,66.22,116.28,66.22,116.28Z" style="fill: #241c3a"/>
            <path d="M61.37,112l2.74,1.63S58,99.85,57.39,99.85,61.37,112,61.37,112Z" style="fill: #248379;mix-blend-mode: color-dodge"/>
            <path d="M66.07,116.17c-.75-.59-4.21-3.19-5.25-2.21s-2.45-2.47-2.45-2.47S49.06,93.1,51.62,89.72l.35-.17s-1.42,1.14.52,6.19,6.33,16.76,7.31,17,1.89-.13,2.87.46A32.34,32.34,0,0,1,66.07,116.17Z" style="fill: #3f0f1a;opacity: 0.43;mix-blend-mode: multiply"/>
            <path d="M70.18,69s-5,10.09-9.76,17.72h0c.06-.11,5.11-9.8,1.74-10.32s-11.29,9.27-12,12.07a5.6,5.6,0,0,0,0,2.87c-.19-.45-.37-1-.55-1.53-1.48-4.73,17.62-22,17.62-22Z" style="fill: #3f0f1a;opacity: 0.43;mix-blend-mode: multiply"/>
          </g>
          <g>
            <path d="M4,116.28c-1.52-11.67.46-3-4-3.45l.15-.26h0c7-12.19,1.54-21,1.54-21a47.72,47.72,0,0,0,3.84,3.56c.36.27.51,1.43.52,3.08C6.09,104.48,4.16,117.73,4,116.28Z" style="fill: #241c3a"/>
            <polygon points="4.02 114.07 3.56 109.44 5.52 102.46 4.02 114.07" style="fill: #248379;mix-blend-mode: color-dodge"/>
            <path d="M6.05,98.24c-.43-1.28-.91-2.4-1.25-2.37-.78.06.07,2.28-.26,6.59-.29,3.76-3.57,8.88-4.39,10.1,7-12.19,1.54-21,1.54-21a47.72,47.72,0,0,0,3.84,3.56C5.89,95.43,6,96.59,6.05,98.24Z" style="fill: #3f0f1a;opacity: 0.43;mix-blend-mode: multiply"/>
            <path d="M36,71.47S34,72.55,31.18,74c-3.87,2-9.34,4.8-13.64,6.6-2.83,1.19-5.16,2-6.16,1.79-3.65-.59-3.89-4.51-1.42-7.31S27.27,69,27.27,69Z" style="fill: #1d182d"/>
            <path d="M11,76.61a5.64,5.64,0,0,1,5.31-2.8c3.89.13,2.48,2.29,3.65,2.81s10.84-3.78,10.84-3.78-8.95,6.65-13,7.3S11,76.61,11,76.61Z" style="fill: #248379;mix-blend-mode: color-dodge"/>
            <path d="M31.18,74c.42-.87.65-1.92-.37-2.31-1.89-.72-11.19-.4-15.43,1.17s-5.77,2.48-5.65,5.49c.08,2.09,4.89,2.31,7.81,2.25-2.83,1.19-5.16,2-6.16,1.79-3.65-.59-3.89-4.51-1.42-7.31S27.27,69,27.27,69L36,71.47S34,72.55,31.18,74Z" style="fill: #3f0f1a;opacity: 0.43;mix-blend-mode: multiply"/>
            <path d="M12.87,80.46C11.57,86.88,7,98.38,7,98.38a4.34,4.34,0,0,0,0-.57c-.13-1.09-.62-3.32-2.53-2.94A9.64,9.64,0,0,0,.18,97s-.59-.37.42-3.28c.88-2.51,9.66-17.15,9.66-17.15s1.09-2.68,2.72,0C13.35,77.13,13.25,78.58,12.87,80.46Z" style="fill: #241c3a"/>
            <path d="M10,83.14s-6.13,9.33-5.09,9.79,2.48,2.94,2.48,2.94S12.76,80.34,10,83.14Z" style="fill: #248379;mix-blend-mode: color-dodge"/>
            <path d="M12.87,80.46c-.22-1.68-.56-3.4-1-3.84-1-.91-12,17-8.29,16.82S7,97.81,7,97.81c-.13-1.09-.62-3.32-2.53-2.94A9.64,9.64,0,0,0,.18,97s-.59-.37.42-3.28c.88-2.51,9.66-17.15,9.66-17.15s1.09-2.68,2.72,0C13.35,77.13,13.25,78.58,12.87,80.46Z" style="fill: #3f0f1a;opacity: 0.43;mix-blend-mode: multiply"/>
          </g>
          <path d="M62.25,76.31s51.84,7.08,72.64-7.65S98.45,15.82,98.45,15.82Z" style="fill: #3d1414"/>
          <path d="M139.85,58.15a7.27,7.27,0,0,1-.51,2.18,9.21,9.21,0,0,1-.67,1.4,16.45,16.45,0,0,1-4.83,5c-6.32,4.53-19.27,9.3-45.75,10.48-53.74,2.42-72-14.7-74.36-25-1.83-7.88,1.41-16.55,5.89-23.61h0c.2-.31.39-.62.59-.92l.16-.23c.05-.08.1-.16.16-.24l0,0a53.22,53.22,0,0,1,7.59-9c.5-.46,1-.89,1.44-1.28s.92-.75,1.45-1.17C37.46,10.69,52.42.84,71.68.05c1.18,0,2.37-.06,3.58,0A60.28,60.28,0,0,1,92,2.71a56,56,0,0,1,19.69,11.06h0c19.93,16.91,28.19,43.92,28.19,43.92A3.26,3.26,0,0,1,139.85,58.15Z" style="fill: url(#bed9466b-c36e-4089-b896-07e19d0208e6)"/>
          <path d="M31.69,40.19a8.28,8.28,0,0,1,8.71-3.3c1.86.46,4.5,2.76,4.5,3.86a8.32,8.32,0,0,1-3,6.13c-2.5,1.93-7.67,3.38-9.58,2.26S30,42.42,31.69,40.19Z" style="fill: #241c3a"/>
          <g style="mask: url(#e51ccbac-07d3-4271-a9b5-774821f60acb)">
            <path d="M26.33,37.94C22.65,24.75,39.14,2.25,75.6,2.23s53.05,38.18,55.13,45.82S124.14,72.83,75,65.11,26.33,37.94,26.33,37.94Z" style="opacity: 0.22;mix-blend-mode: color-dodge;fill: url(#ab917d9d-dcff-4fd6-9d87-99c2dafb9936)"/>
          </g>
          <path d="M139.34,60.33c-1.9,4.91-10.74,15.11-51.25,16.92-53.74,2.42-72-14.7-74.36-25-1.83-7.88,1.41-16.55,5.89-23.61-.22.36-10,16.64-.31,27.41s47,24.64,89.76,18.22C126.5,71.65,135.18,66.05,139.34,60.33Z" style="fill: #8390f4;opacity: 0.51;mix-blend-mode: multiply"/>
          <ellipse cx="92.31" cy="25.76" rx="18.6" ry="28.29" transform="translate(19.63 88.23) rotate(-56.27)" style="mix-blend-mode: color-dodge;fill: url(#a9c5d758-ed25-4b38-9f52-b51bcc604033)"/>
          <path d="M109.81,28.77c-2.08,4.25-10.34,4.48-18.45.5s-13-10.64-10.91-14.89,10.35-4.47,18.45-.5S111.89,24.52,109.81,28.77Z" style="opacity: 0.74;mix-blend-mode: color-dodge;fill: url(#ead173cb-7daf-462e-8b06-e924f554fd88)"/>
          <path d="M130.31,64.46a15.37,15.37,0,0,1-3.72,3.82c-.43.32-.88.63-1.38,1,.13-.27.26-.55.37-.84a14.79,14.79,0,0,0,1-5.78c-.13-10.45-9.17-31-23-45.63h0A62.41,62.41,0,0,0,89.93,5.87h0c-.65-.38-1.31-.73-2-1.07l0,0h0a40.28,40.28,0,0,0-5.43-2.32A50.77,50.77,0,0,0,71.68.05c1.18,0,2.37-.06,3.58,0A55.82,55.82,0,0,1,82.9,1.82a53.23,53.23,0,0,1,8.34,3.37C118.7,19.11,127.78,53.25,129,60.57A11.4,11.4,0,0,0,130.31,64.46Z" style="opacity: 0.53;mix-blend-mode: multiply;fill: url(#b8208e6a-2edf-4e2f-97ba-a33398359133)"/>
          <g style="mask: url(#fdf7077f-cf9d-4ef9-a72b-c5bf53653b71)">
            <path d="M125.21,69.23c.5-.32,1-.63,1.38-1l-.32,2-12.15,2.6c.13,0,8.23-3.16,9.37-8.69s-2.1-17-4.92-24.12S103.81,17.22,103.63,17c13.82,14.58,22.85,35.19,23,45.64a14.79,14.79,0,0,1-1,5.78C125.47,68.68,125.34,69,125.21,69.23Z" style="opacity: 0.22;mix-blend-mode: color-dodge;fill: url(#b53f28cf-6362-4dc9-b457-0b4475ee4fbb)"/>
          </g>
          <g>
            <path d="M161.08,111.76c-2-4-3.21-5.14-4.14-5.06s-2,4.41-1.8,1.66a11,11,0,0,0,.43-1.18,37,37,0,0,0,1.13-11.24c-.11-3.89-.53-6.93-.53-6.93l1.18.57s.45,2.33,1,5.49,1.34,7.23,1.91,10.54c.19,1.1.36,2.12.5,3a0,0,0,0,0,0,0h0v0C161.16,110.87,161.31,112.2,161.08,111.76Z" style="fill: #241c3a"/>
            <path d="M160.81,108.65h0v0Z" style="fill: #241c3a"/>
            <path d="M158.39,95.07c-.42-.7-.87-1.35-1-1.36-.4,0-.1,1.89-.26,7.5-.09,3.29-.87,5.06-1.51,6a37,37,0,0,0,1.13-11.24c-.11-3.89-.53-6.93-.53-6.93l1.18.57S157.8,91.91,158.39,95.07Z" style="fill: #3f0f1a;opacity: 0.43;mix-blend-mode: multiply"/>
            <path d="M162.3,91.26l-.18-.06c-.91-.28-5.07-1.48-5.7-.2-.7,1.44-3.16-1.44-3.16-1.44s-15.24-13.88-14-18a.78.78,0,0,1,0-.14.21.21,0,0,1,.22-.14h0C142,71.23,162.3,91.26,162.3,91.26Z" style="fill: #13101e"/>
            <polygon points="137.4 68 137.4 68 137.4 68 137.4 68" style="fill: #3f0f1a;opacity: 0.43;mix-blend-mode: multiply"/>
            <path d="M162.12,91.2c-.91-.28-5.07-1.48-5.7-.2-.7,1.44-3.16-1.44-3.16-1.44s-15.24-13.88-14-18l.27-.28s-.92,1.57,2.69,5.59S154,90.35,155.05,90.25s1.72-.8,2.84-.6A33.14,33.14,0,0,1,162.12,91.2Z" style="fill: #3f0f1a;opacity: 0.43;mix-blend-mode: multiply"/>
          </g>
          <polygon points="59.8 84.07 59.8 84.07 59.8 84.07 59.8 84.07" style="fill: #3f0f1a;opacity: 0.43;mix-blend-mode: multiply"/>
          <path d="M77.55,17.92a12,12,0,0,1-11.38,3.81c-2.42-.49-5.83-3.05-5.82-4.28a9.08,9.08,0,0,1,4-6.92c3.29-2.19,10-3.88,12.51-2.65S79.76,15.4,77.55,17.92Z" style="fill: #241c3a"/>
          <path d="M73.5,43c3.1-1.59,8.08-.86,9.45,1.37s-.36,5.41-4.76,6-4.4-1.73-5.34-3.46S73.5,43,73.5,43Z" style="fill: #241c3a"/>
          <g>
            <path d="M113.41,129.38c-2.5-3.3-3.75-4.12-4.58-3.89s-1.08,4.31-1.35,1.79c.08-.36.14-.74.19-1.14a33.74,33.74,0,0,0-.83-10.34c-.73-3.5-1.61-6.19-1.61-6.19l1.16.33s.79,2,1.84,4.79,2.4,6.32,3.46,9.22c.35,1,.67,1.86.94,2.63v0h0C113.33,128.57,113.68,129.74,113.41,129.38Z" style="fill: #00428b"/>
            <path d="M112.65,126.62h0v0Z" style="fill: #241c3a"/>
            <path d="M108.61,116.89l1.36,8.22a1.56,1.56,0,0,1,1.33.69,14,14,0,0,1,1.28,1.86Z" style="fill: #248379;mix-blend-mode: color-dodge"/>
            <path d="M108.23,114.73c-.5-.56-1-1.08-1.18-1-.35.06.23,1.73,1,6.82.45,3,0,4.72-.39,5.64a33.74,33.74,0,0,0-.83-10.34c-.73-3.5-1.61-6.19-1.61-6.19l1.16.33S107.18,112,108.23,114.73Z" style="fill: #3f0f1a;opacity: 0.43;mix-blend-mode: multiply"/>
            <path d="M108,70.6s-3,9.89-6.21,17.53c-1.72,4.09-3.51,7.54-5,8.48-.41.28-1.95.07-3.71-2.75-.24-.39-.48-.82-.73-1.31-2-4.06,12.68-22.6,12.68-22.6Z" style="fill: #241c3a"/>
            <path d="M93.88,93.86c0-.18-.93-4.9,1.32-4.9s2,1.8,2.83,1.66,4.38-6.56,4.38-6.56-2.78,10.73-5.68,11.57S93.88,93.86,93.88,93.86Z" style="fill: #248379;mix-blend-mode: color-dodge"/>
            <path d="M106.2,112.75c.8-1,4.33.79,5.1,1.21l.15.09s-8-11.92-13.11-18.25c-1.78-2.23-3.21-3.77-3.8-3.86h0a.21.21,0,0,0-.23.08.75.75,0,0,0-.07.12c-1,1.85,1.78,7.08,4.55,11.55,2.41,3.88,4.83,7.18,4.83,7.18S105.31,113.92,106.2,112.75Z" style="fill: #2f264f"/>
            <path d="M106.41,110.87l2.73,1.07s-7.62-11.57-8.15-11.48S106.41,110.87,106.41,110.87Z" style="fill: #248379;mix-blend-mode: color-dodge"/>
            <polygon points="94.54 91.94 94.54 91.94 94.54 91.94 94.54 91.94" style="fill: #3f0f1a;opacity: 0.43;mix-blend-mode: multiply"/>
            <path d="M108,70.6s-3,9.89-6.21,17.53h0c0-.11,3.17-9.65,0-9.62S93,88.6,92.72,91.25a5.21,5.21,0,0,0,.39,2.61c-.24-.39-.48-.82-.73-1.31-2-4.06,12.68-22.6,12.68-22.6Z" style="fill: #3f0f1a;opacity: 0.43;mix-blend-mode: multiply"/>
          </g>
          <path d="M114.42,56s-19.59-9.5-15.6-16.39,18.7,4.18,20.49,3.66,6.35-8.48,8.32-6.65,7.27,10.67.76,16.47C124.66,56.45,114.42,56,114.42,56Z" style="fill: url(#fb919a2f-4237-422b-b0d7-e94ce96039d0)"/>
          <path d="M115.94,31.27c3.14-.57,10,6.72,9.4,8.93s-4.58,3-4.9,4.39S125.37,57,125.37,57l-6.26,1s.34-12.68-.35-13.46-7.21-1.4-7.89-2.79S113.28,31.75,115.94,31.27Z" style="fill: #1c182b"/>
          <path d="M132.09,50.52,120,70l-.93.47-.29.14-.22.11-.18.08-.25.12-.34.15-1.13.51c-.62.27-1.26.53-1.93.79l-.38.15-.39.15-.31.11-.48.18-.25.09-.25.08-.26.09-.26.09h0l-.55.19-1.17.37A86.8,86.8,0,0,1,93.2,77.19a124.65,124.65,0,0,1-13.72.54h1s9.44-.62,10.79-4.71S85.55,50.83,93.36,49s16.13,4,27.3,2.51S132.09,50.52,132.09,50.52Z" style="fill: #241c3a"/>
          <path d="M116.68,71.56c-.62.27-1.26.53-1.93.79l-.38.15-.39.15-.31.11-.48.18-.25.09-.25.08-.26.09-.26.09h0l-.55.19-1.17.37A86.8,86.8,0,0,1,93.2,77.19s2.22-1.45,2.16-5.33-3.7-12.47-3.7-12.47l24.51-1Z" style="fill: #3f0f1a;opacity: 0.62;mix-blend-mode: multiply"/>
          <path d="M88.43,16.14c-1,1.38-3.53,1.24-5.76-.31s-3.25-3.91-2.3-5.28,3.53-1.23,5.75.31S89.38,14.77,88.43,16.14Z" style="fill: #fff"/>
          <ellipse cx="97.11" cy="25.59" rx="5.42" ry="8.79" transform="translate(9.25 74.23) rotate(-43.73)" style="fill: #fff"/>
          <path d="M139.85,58.15l-26.52.69s6.74-1,14.5-10.27S115.3,17,111.65,13.77c19.93,16.91,28.19,43.92,28.19,43.92A3.26,3.26,0,0,1,139.85,58.15Z" style="fill: #8390f4;opacity: 0.51;mix-blend-mode: multiply"/>
          <g>
            <g>
              <path d="M114.78,98.28a17.23,17.23,0,0,1-1.45,2.74,3.16,3.16,0,0,1,2.43.14,4.34,4.34,0,0,1,1.22,2.35c0-.23-1-8.46.46-10.25A20.28,20.28,0,0,1,122,90c1.94-1.15,3.73-2.08,3.73-2.08l-.09-.87-7,1.56-.2,0,2.1.55L117,90.83l2-.16-5.47,2.6,2.66-.42-2.73,3.25,2-.83S114.88,97.7,114.78,98.28Z" style="fill: #2f264f"/>
              <path d="M122.38,88.83c.13.17-.08.64-.37,1.14,1.94-1.15,3.73-2.08,3.73-2.08l-.09-.87-7,1.56C120.1,88.55,122.17,88.56,122.38,88.83Z" style="fill: #3f0f1a;opacity: 0.43;mix-blend-mode: multiply"/>
              <path d="M132.83,85.94l.23.85s2.43.26,4.91.69a18.08,18.08,0,0,1,4.77,1.3c2,1.15,4.09,9.11,4.16,9.38a4.29,4.29,0,0,1,.29-2.64,3.13,3.13,0,0,1,2.21-1,17.16,17.16,0,0,1-2.35-2c-.3-.51-1.69-2.57-1.69-2.57l2.13.06-3.73-2,2.63-.58-6-.43,2-.6-3.62-.21h0l-.32,0,1.75-1.27Z" style="fill: #13101e"/>
              <path d="M132.83,85.94l.23.85s2.43.26,4.91.69a1.49,1.49,0,0,1,0-.9,1,1,0,0,1,.68-.46l-.32,0,1.75-1.27Z" style="fill: #3f0f1a;opacity: 0.43;mix-blend-mode: multiply"/>
              <path d="M91.43,54.65c-2,11,15.77,24.43,19.07,26.46l.27.15h0a10.06,10.06,0,0,0,2.52.67h0l.12,0h.15l.14,0,.29,0h.17l.14,0h.18l.32,0H115l.3,0h.13l.71,0h.12c.61,0,1.25,0,1.9.06h2l.89,0h.2l1,0,.19,0c.83-.06,1.66-.13,2.48-.23l.2,0h.09l.16,0,.32,0,.32,0,.16,0,.32,0,.16,0,.16,0,.47-.08.16,0,.15,0,.16,0,.46-.09.29-.06.31-.06.15,0,.15,0,.29-.07.3-.07.43-.11.14,0,.28-.07.14,0,.27-.08.14,0,.4-.13.13,0,.38-.14.13,0,.09,0h0a11.35,11.35,0,0,0,2.29-1.11,6.33,6.33,0,0,0,1-.74c1.52-1.45,3-4.49,4.09-8.06a35.49,35.49,0,0,0,1.11-5.16,39.38,39.38,0,0,0,.37-5.42,28.83,28.83,0,0,0-.62-6c-1.7-7.66-7.31-7.56-8.53-7.06-3.35,1.39-6.55,3.3-12.41,5.11-3.71,1.14-13-1.71-20-2.06a11.14,11.14,0,0,0-4.68.59,5.75,5.75,0,0,0-1.29.71h0A5.5,5.5,0,0,0,91.43,54.65Z" style="fill: #1c182b"/>
              <path d="M110.77,81.26a10.06,10.06,0,0,0,2.52.67c4.79.76,13.64.37,18.93-1.62a11.35,11.35,0,0,0,2.29-1.11c-2.44.11,2.21-7.15,1.6-9.54-1.06-4.13-4.43-4.65-11-4.63s-11.09,1.87-12.22,4.78,1.72,4,1.9,7.43C114.88,78.54,114.09,82,110.77,81.26Z" style="fill: #3f0f1a;opacity: 0.43;mix-blend-mode: multiply"/>
              <path d="M138,70a2.53,2.53,0,0,0,1.57.41,35.49,35.49,0,0,0,1.11-5.16,39.38,39.38,0,0,0,.37-5.42c-1.41-1.57-3.5-3.37-5.19-2.66C133,58.35,137.05,68.91,138,70Z" style="fill: url(#b4b13b6c-b42b-4b93-b551-e5e000f94562)"/>
              <g style="mask: url(#afef6242-544d-4c32-84f9-6e1463408ce8)">
                <path d="M111,51.37c3.42.88,6.45,1.53,8.27,1.14,6-1.27,9.36-2.88,12.83-4,1.25-.39,6.85,0,7.85,7.8a36.25,36.25,0,0,1-.42,12c-1.11,4.84-2.78,9.88-5.84,11.24a7.79,7.79,0,0,0,.81-.46,5.79,5.79,0,0,0,1-.75c2.22-2.12,4.43-7.6,5.2-13.21a33.48,33.48,0,0,0-.25-11.46c-1.69-7.67-7.31-7.57-8.53-7.06-3.35,1.38-6.55,3.3-12.41,5.1C117.7,52.34,114.56,52,111,51.37Z" style="mix-blend-mode: color-dodge;fill: url(#bfa59c91-830f-43d4-a679-fcbbd32f79ce)"/>
              </g>
              <path d="M118.54,83.07a2,2,0,0,1,.17.23h0l.4.54a23.24,23.24,0,0,0,6.38,6,9.51,9.51,0,0,0,1.59.75,5.13,5.13,0,0,0,4.65-.29,2.55,2.55,0,0,0,.46-.4,8.86,8.86,0,0,0,.86-1.13c.12-.17.25-.36.37-.57a28.63,28.63,0,0,0,1.76-3.36h0c.11-.25.22-.5.32-.75v0h0c2.39-5.66,3.85-13.23-1.66-14.44-8.58-1.88-17.68,1-19.11,2.8C113.56,74,115.44,78.75,118.54,83.07Z" style="fill: #1c182b"/>
              <path d="M122.09,83c1.16.29,2.11-4.38,1.27-5s-4.5.25-4.46,1.26A6,6,0,0,0,122.09,83Z" style="fill: url(#e8180565-f35b-43e9-a2e9-c760abd3d2c7)"/>
              <path d="M136.64,79.37c-.95-.81-2.21-1.65-3.13-1.22s-.08,5.42.78,5.59S137.18,79.84,136.64,79.37Z" style="fill: url(#f6986707-70d0-4ece-b308-0d6e1d56c24a)"/>
              <g style="mask: url(#eb3b2f87-46a4-400c-9bb9-8a0b07b47b58)">
                <path d="M115.09,72.08a30,30,0,0,1,17.2-1.53c8.06,1.77,1.2,17.14-1.64,20.24a4.78,4.78,0,0,0,1.08-.5c2.39-1.5,10.71-18.79,2.13-20.68C125.79,67.84,117.25,70.24,115.09,72.08Z" style="mix-blend-mode: color-dodge;fill: url(#e731482c-cdd8-4d22-b6c3-bd28efa95e46)"/>
              </g>
              <path d="M128.54,93.29s-1.53-2-1.46-2.71a.2.2,0,0,1,0-.13,6.46,6.46,0,0,1,2.76-.51h0l.24,0h0c.72,0,1.45,0,2.06,0a3.4,3.4,0,0,1,1.4.2c.52.41-.26,3.32-.26,3.32s2.11-2.9,1.91-4c-.06-.34-1-.55-2.19-.65l-.55,0a21.45,21.45,0,0,0-5.69.49,3,3,0,0,0-1.32.61.94.94,0,0,0-.12.18C124.7,91.51,128.54,93.29,128.54,93.29Z" style="fill: #1c182b"/>
              <path d="M119.11,83.84a23.24,23.24,0,0,0,6.38,6,.94.94,0,0,0-.12.18c-.67,1.5,3.17,3.28,3.17,3.28s-1.53-2-1.46-2.71a5.13,5.13,0,0,0,4.65-.29,2.55,2.55,0,0,0,.46-.4,3.4,3.4,0,0,1,1.4.2c.52.41-.26,3.32-.26,3.32s2.11-2.9,1.91-4c-.06-.34-1-.55-2.19-.65a27,27,0,0,0,2.13-3.93,13,13,0,0,1-2.68,3.9,4.2,4.2,0,0,1-2.37,1.19h0l-.24,0h0a8.25,8.25,0,0,1-3.07-.72A22.88,22.88,0,0,1,119.11,83.84Z" style="fill: #3f0f1a;opacity: 0.43;mix-blend-mode: multiply"/>
              <path d="M116.32,100.93a1.5,1.5,0,0,0-1.35-.68l-.85.12a8.84,8.84,0,0,0,1.55-2.9c.12-1.06.63-3.27.63-3.27Z" style="fill: #248379;mix-blend-mode: color-dodge"/>
              <path d="M128.12,86.78c.61-2.06-3.68-2.6-3.83-1.41S127.11,90.19,128.12,86.78Z" style="fill: #3f0f1a;opacity: 0.43;mix-blend-mode: multiply"/>
              <path d="M132.66,87.9a1.21,1.21,0,0,0,.76.29,28.63,28.63,0,0,0,1.76-3.36h0C133.84,84.49,130.08,85.8,132.66,87.9Z" style="fill: #3f0f1a;opacity: 0.43;mix-blend-mode: multiply"/>
              <path d="M111.61,68c-.31-4.63-1-9.08-4.18-9.11s-9,6.83-7.17,9.34,9,7.23,9.69,6.35S111.89,72.12,111.61,68Z" style="fill: url(#a92c3c37-bf1a-45cc-afeb-336e5193ce13)"/>
              <g style="mask: url(#acb5409a-4cca-4793-b4b9-c28c97a066fd)">
                <path d="M135.92,53.05c-3.64-2.88-10.55,2.15-17.77,1.47S96.8,49,94.71,53.17s-1.29,14,7.87,20.53,10,2.89,9.56,1.6-2.18-7.4,1.08-9.93c10.49-8.16,23,1.87,24.59-.93S138.22,54.87,135.92,53.05Z" style="mix-blend-mode: color-dodge;fill: url(#ab3383d3-4bb6-425a-b2cc-efb112a3a774)"/>
              </g>
            </g>
            <g style="mask: url(#ef3fc49c-ff36-47a6-8a82-649f73ca1f9d)">
              <path d="M129.78,88.22c-1.38.72-13.85-8.22-12.94-12.94s7.67-5.12,9.79-4.59C133.35,72.39,133.13,86.45,129.78,88.22Z" style="mix-blend-mode: color-dodge;fill: url(#bb4cbc29-c4d0-4773-bbad-86548741c8ca)"/>
            </g>
          </g>
        </g>
      </g>
    </g>
  </g>
</svg>
