<svg xmlns="http://www.w3.org/2000/svg" xmlns:xlink="http://www.w3.org/1999/xlink" viewBox="0 0 146.34 119.27">
  <defs>
    <filter id="f3083ed9-b3b4-43a9-afb1-5ac4204cdae4" x="14.99" y="-8332.75" width="9.13" height="32766" filterUnits="userSpaceOnUse" color-interpolation-filters="sRGB">
      <feFlood flood-color="#fff" result="bg"/>
      <feBlend in="SourceGraphic" in2="bg"/>
    </filter>
    <mask id="f03433c0-b67e-4d2a-b755-005037cdc1b1" x="14.99" y="-8332.75" width="9.13" height="32766" maskUnits="userSpaceOnUse">
      <g style="filter: url(#f3083ed9-b3b4-43a9-afb1-5ac4204cdae4)"/>
    </mask>
    <linearGradient id="ffd67f75-95b3-446e-ac2b-94f40981e32a" data-name="Áåçûìÿííûé ãðàäèåíò 242" x1="21.5" y1="50.1" x2="24.3" y2="40.21" gradientTransform="translate(-3.91 -11.82) rotate(-0.28)" gradientUnits="userSpaceOnUse">
      <stop offset="0"/>
      <stop offset="0.41" stop-color="#6e6e6e"/>
      <stop offset="0.82" stop-color="#d6d6d6"/>
      <stop offset="1" stop-color="#fff"/>
    </linearGradient>
    <filter id="a5909237-2bf2-4460-8908-88837ad67853" x="20.52" y="-8332.75" width="20.91" height="32766" filterUnits="userSpaceOnUse" color-interpolation-filters="sRGB">
      <feFlood flood-color="#fff" result="bg"/>
      <feBlend in="SourceGraphic" in2="bg"/>
    </filter>
    <mask id="e2a12efa-6983-4513-a463-591b79d6fa7c" x="20.52" y="-8332.75" width="20.91" height="32766" maskUnits="userSpaceOnUse">
      <g style="filter: url(#a5909237-2bf2-4460-8908-88837ad67853)"/>
    </mask>
    <radialGradient id="e50b6f20-a090-4f7f-895a-f0419831b318" data-name="Áåçûìÿííûé ãðàäèåíò 241" cx="25.36" cy="33.6" r="44.12" gradientUnits="userSpaceOnUse">
      <stop offset="0" stop-color="#3d3d3d"/>
      <stop offset="0.38" stop-color="#3b3b3b"/>
      <stop offset="0.59" stop-color="#323232"/>
      <stop offset="0.76" stop-color="#252525"/>
      <stop offset="0.91" stop-color="#111"/>
      <stop offset="1"/>
    </radialGradient>
    <filter id="fb52d48c-020b-4a8a-aee0-fa538d21039d" x="52.1" y="-8332.75" width="86.73" height="32766" filterUnits="userSpaceOnUse" color-interpolation-filters="sRGB">
      <feFlood flood-color="#fff" result="bg"/>
      <feBlend in="SourceGraphic" in2="bg"/>
    </filter>
    <mask id="a23168e8-fbb3-4eed-907b-09293f93a015" x="52.1" y="-8332.75" width="86.73" height="32766" maskUnits="userSpaceOnUse">
      <g style="filter: url(#fb52d48c-020b-4a8a-aee0-fa538d21039d)"/>
    </mask>
    <radialGradient id="e6e57c84-7cc8-4c6c-8191-651181a968ff" data-name="Áåçûìÿííûé ãðàäèåíò 28" cx="94.41" cy="-1.77" r="54.8" gradientUnits="userSpaceOnUse">
      <stop offset="0" stop-color="#fff"/>
      <stop offset="0.24" stop-color="#fdfdfd"/>
      <stop offset="0.38" stop-color="#f4f4f4"/>
      <stop offset="0.49" stop-color="#e7e7e7"/>
      <stop offset="0.59" stop-color="#d3d3d3"/>
      <stop offset="0.67" stop-color="#b9b9b9"/>
      <stop offset="0.76" stop-color="#9a9a9a"/>
      <stop offset="0.83" stop-color="#747474"/>
      <stop offset="0.9" stop-color="#494949"/>
      <stop offset="0.97" stop-color="#191919"/>
      <stop offset="1"/>
    </radialGradient>
    <filter id="af6cd788-7ef9-4393-afe0-ce38c54ec22a" x="123.39" y="-8332.75" width="18.69" height="32766" filterUnits="userSpaceOnUse" color-interpolation-filters="sRGB">
      <feFlood flood-color="#fff" result="bg"/>
      <feBlend in="SourceGraphic" in2="bg"/>
    </filter>
    <mask id="acc4a7f4-9dac-4eb6-8367-8deb0993455e" x="123.39" y="-8332.75" width="18.69" height="32766" maskUnits="userSpaceOnUse">
      <g style="filter: url(#af6cd788-7ef9-4393-afe0-ce38c54ec22a)"/>
    </mask>
    <radialGradient id="e2fa9535-ac82-4c98-9a95-fb7ac36bba75" cx="132.74" cy="38.64" r="17.81" xlink:href="#e6e57c84-7cc8-4c6c-8191-651181a968ff"/>
    <filter id="ff48404b-6788-43d4-a956-16243a5fc543" x="14.99" y="28.56" width="9.13" height="8.35" filterUnits="userSpaceOnUse" color-interpolation-filters="sRGB">
      <feFlood flood-color="#fff" result="bg"/>
      <feBlend in="SourceGraphic" in2="bg"/>
    </filter>
    <mask id="b1fd1932-6d0f-4b06-b0dd-82785a15ec90" x="14.99" y="28.56" width="9.13" height="8.35" maskUnits="userSpaceOnUse">
      <g style="mask: url(#f03433c0-b67e-4d2a-b755-005037cdc1b1);filter: url(#ff48404b-6788-43d4-a956-16243a5fc543)">
        <path d="M22.91,32.44c-1.54,1-2.37,4.46-4.34,4.47A3.44,3.44,0,0,1,15,33.64a5.45,5.45,0,0,1,3.51-4.59C23.86,27.26,25.52,30.78,22.91,32.44Z" style="mix-blend-mode: multiply;fill: url(#ffd67f75-95b3-446e-ac2b-94f40981e32a)"/>
      </g>
    </mask>
    <linearGradient id="af3c5eab-602e-4f35-8f26-529881d44437" data-name="Áåçûìÿííûé ãðàäèåíò 80" x1="21.5" y1="50.1" x2="24.3" y2="40.21" gradientTransform="translate(-3.91 -11.82) rotate(-0.28)" gradientUnits="userSpaceOnUse">
      <stop offset="0"/>
      <stop offset="0.66" stop-color="#195a53"/>
      <stop offset="1" stop-color="#248379"/>
    </linearGradient>
    <radialGradient id="b0fa7089-58b3-451e-9c86-402c33abd70d" data-name="Áåçûìÿííûé ãðàäèåíò 58" cx="1985.41" cy="6595.86" r="9.28" gradientTransform="matrix(0.09, -0.34, 0.44, 0.12, -3079.53, -76.53)" gradientUnits="userSpaceOnUse">
      <stop offset="0" stop-color="#4599ff"/>
      <stop offset="1"/>
    </radialGradient>
    <filter id="aad6f1a3-64c8-4e05-9141-6050c94aa358" x="20.52" y="25.56" width="20.91" height="20.96" filterUnits="userSpaceOnUse" color-interpolation-filters="sRGB">
      <feFlood flood-color="#fff" result="bg"/>
      <feBlend in="SourceGraphic" in2="bg"/>
    </filter>
    <mask id="af8353fd-6e02-429b-9b69-bd8f76816531" x="20.52" y="25.56" width="20.91" height="20.96" maskUnits="userSpaceOnUse">
      <g style="mask: url(#e2a12efa-6983-4513-a463-591b79d6fa7c);filter: url(#aad6f1a3-64c8-4e05-9141-6050c94aa358)">
        <path d="M41.43,45c-.17,2.48-7,1.7-13.46-.85C20,40.81,20.53,38,20.53,38s5.79-4.69,7.07-8.77a6.22,6.22,0,0,0,.07-3.67,8.73,8.73,0,0,1,.84,4.28c-.3,4.63-8.22,8.16-7.06,9.5C25.16,43.67,41.75,40.19,41.43,45Z" style="mix-blend-mode: multiply;fill: url(#e50b6f20-a090-4f7f-895a-f0419831b318)"/>
      </g>
    </mask>
    <radialGradient id="b2514091-7bf1-4541-b46b-7a6df340ebaa" data-name="Áåçûìÿííûé ãðàäèåíò 7" cx="25.36" cy="33.6" r="44.12" gradientUnits="userSpaceOnUse">
      <stop offset="0" stop-color="#83bdf4"/>
      <stop offset="0.26" stop-color="#84bbf2"/>
      <stop offset="0.4" stop-color="#89b6e9"/>
      <stop offset="0.52" stop-color="#91acdc"/>
      <stop offset="0.62" stop-color="#9d9ec8"/>
      <stop offset="0.72" stop-color="#ac8cae"/>
      <stop offset="0.8" stop-color="#bf758f"/>
      <stop offset="0.88" stop-color="#d55b6a"/>
      <stop offset="0.96" stop-color="#ee3d3f"/>
      <stop offset="1" stop-color="#ff2923"/>
    </radialGradient>
    <linearGradient id="b00f09a0-e3bb-45da-a228-31c1d966e5e2" data-name="Áåçûìÿííûé ãðàäèåíò 66" x1="19.17" y1="33.81" x2="22.92" y2="33.81" gradientUnits="userSpaceOnUse">
      <stop offset="0" stop-color="#b8a6c6"/>
      <stop offset="1" stop-color="#fff"/>
    </linearGradient>
    <linearGradient id="a8e3953b-558c-4c1d-93a7-756d42343c46" x1="22.94" y1="37.33" x2="31.85" y2="37.33" xlink:href="#b00f09a0-e3bb-45da-a228-31c1d966e5e2"/>
    <radialGradient id="b17e6a19-4498-4577-833e-e94a3c839cc4" data-name="Áåçûìÿííûé ãðàäèåíò 3" cx="105.48" cy="19.92" r="67.34" gradientUnits="userSpaceOnUse">
      <stop offset="0" stop-color="#ed2e29"/>
      <stop offset="0.16" stop-color="#ea2e29"/>
      <stop offset="0.27" stop-color="#e12c28"/>
      <stop offset="0.35" stop-color="#d52a26"/>
      <stop offset="0.47" stop-color="#bc2623"/>
      <stop offset="0.75" stop-color="#871d1d"/>
      <stop offset="0.88" stop-color="#721a1a"/>
    </radialGradient>
    <linearGradient id="ba7d78f9-9551-48e4-ba0e-7bd2f533e64c" x1="48.4" y1="18.1" x2="59.51" y2="18.1" xlink:href="#b00f09a0-e3bb-45da-a228-31c1d966e5e2"/>
    <filter id="a3975c23-236a-4604-a089-5da1a505b1f1" x="52.1" y="2.25" width="86.73" height="55.56" filterUnits="userSpaceOnUse" color-interpolation-filters="sRGB">
      <feFlood flood-color="#fff" result="bg"/>
      <feBlend in="SourceGraphic" in2="bg"/>
    </filter>
    <mask id="fb0f2fee-38c7-4acb-b2bf-b680cf4b8138" x="52.1" y="2.25" width="86.73" height="55.56" maskUnits="userSpaceOnUse">
      <g style="mask: url(#a23168e8-fbb3-4eed-907b-09293f93a015);filter: url(#a3975c23-236a-4604-a089-5da1a505b1f1)">
        <path d="M52.33,29.36C50,18.18,65,.37,95.38,2.42s42,34.79,43.32,41.27S131.81,64,91.29,54.74,52.33,29.36,52.33,29.36Z" style="mix-blend-mode: multiply;fill: url(#e6e57c84-7cc8-4c6c-8191-651181a968ff)"/>
      </g>
    </mask>
    <radialGradient id="b6001c6a-b6ce-4ded-b58a-1eda249f7910" cx="94.41" cy="-1.77" r="54.8" xlink:href="#b2514091-7bf1-4541-b46b-7a6df340ebaa"/>
    <radialGradient id="b9e9240a-a6b2-4f77-9249-c2a93c2542f4" data-name="Áåçûìÿííûé ãðàäèåíò 185" cx="-2825.41" cy="2855.63" r="23.33" gradientTransform="matrix(0.67, 0, 0, 1.01, 1987.97, -2866.76)" gradientUnits="userSpaceOnUse">
      <stop offset="0" stop-color="#eebd58"/>
      <stop offset="0.29" stop-color="#a2803c"/>
      <stop offset="0.64" stop-color="#4b3c1c"/>
      <stop offset="0.88" stop-color="#151108"/>
      <stop offset="1"/>
    </radialGradient>
    <radialGradient id="b3b8b1a3-fe42-4284-9abc-f72b56d41c72" cx="-931.43" cy="-2731.83" r="15.61" gradientTransform="matrix(0.76, 0.44, -0.23, 0.4, 189.7, 1510.84)" xlink:href="#b0fa7089-58b3-451e-9c86-402c33abd70d"/>
    <linearGradient id="a8a8051c-f025-4679-8369-a9a874961f79" data-name="Áåçûìÿííûé ãðàäèåíò 47" x1="63.11" y1="13.23" x2="124.51" y2="31" gradientUnits="userSpaceOnUse">
      <stop offset="0" stop-color="#f02420"/>
      <stop offset="0.27" stop-color="#ee2420"/>
      <stop offset="0.42" stop-color="#e52320"/>
      <stop offset="0.55" stop-color="#d8211f"/>
      <stop offset="0.66" stop-color="#c41f1f"/>
      <stop offset="0.75" stop-color="#aa1c1e"/>
      <stop offset="0.84" stop-color="#8b181d"/>
      <stop offset="0.93" stop-color="#66141b"/>
      <stop offset="1" stop-color="#3f0f1a"/>
    </linearGradient>
    <filter id="a52ff083-7d8c-492e-a43c-306b255b37e8" x="123.39" y="15.25" width="18.69" height="46.79" filterUnits="userSpaceOnUse" color-interpolation-filters="sRGB">
      <feFlood flood-color="#fff" result="bg"/>
      <feBlend in="SourceGraphic" in2="bg"/>
    </filter>
    <mask id="bd5d2424-1490-4f32-9fa4-1691fb6d3e0c" x="123.39" y="15.25" width="18.69" height="46.79" maskUnits="userSpaceOnUse">
      <g style="mask: url(#acc4a7f4-9dac-4eb6-8367-8deb0993455e);filter: url(#a52ff083-7d8c-492e-a43c-306b255b37e8)">
        <path d="M140.83,59.1c.42-.26.8-.52,1.16-.78L141.7,60l-10.16,2c.1,0,6.9-2.55,7.91-7.15s-1.57-14.19-3.84-20.18-12.07-19.25-12.22-19.45c11.38,12.32,18.69,29.61,18.69,38.34a12.31,12.31,0,0,1-.93,4.81C141.05,58.64,140.94,58.87,140.83,59.1Z" style="mix-blend-mode: multiply;fill: url(#e2fa9535-ac82-4c98-9a95-fb7ac36bba75)"/>
      </g>
    </mask>
    <radialGradient id="fa5aabf3-316c-44d3-b502-d4909a598773" cx="132.74" cy="38.64" r="17.81" xlink:href="#b2514091-7bf1-4541-b46b-7a6df340ebaa"/>
  </defs>
  <g style="isolation: isolate">
    <g id="e4250425-557b-40df-850f-83c09934f632" data-name="Layer 2">
      <g id="a4c8f9a6-565d-478a-9a7a-57fe3e3e4a28" data-name="Ñëîé 1">
        <g>
          <g>
            <path d="M104,119.19c-2-3.71-3.08-4.74-3.94-4.65s-1.8,4.14-1.66,1.57q.21-.52.39-1.11a34.25,34.25,0,0,0,.87-10.51c-.16-3.63-.59-6.47-.59-6.47l1.11.52s.45,2.17,1,5.11,1.36,6.73,2,9.82c.19,1,.36,2,.51,2.79v0h0C104.05,118.36,104.22,119.6,104,119.19Z" style="fill: #241c3a"/>
            <path d="M101.26,105.87v8.47s.67,0,1.22.92a13.72,13.72,0,0,1,1,2.07Z" style="fill: #248379;mix-blend-mode: color-dodge"/>
            <path d="M101.23,103.65c-.41-.64-.83-1.25-1-1.25-.36,0-.06,1.77-.12,7A10.17,10.17,0,0,1,98.79,115a34.25,34.25,0,0,0,.87-10.51c-.16-3.63-.59-6.47-.59-6.47l1.11.52S100.63,100.71,101.23,103.65Z" style="fill: #3f0f1a;opacity: 0.43;mix-blend-mode: multiply"/>
            <path d="M108.27,59.35s-4.63,9.43-9.12,16.56c-2.4,3.82-4.77,7-6.36,7.69-.47.2-2-.25-3.27-3.38A13.75,13.75,0,0,1,89,78.79c-1.39-4.41,16.45-20.56,16.45-20.56Z" style="fill: #241c3a"/>
            <path d="M90.29,80.35c0-.19-.12-5.06,2.14-4.69s1.7,2.13,2.55,2.13,5.49-5.85,5.49-5.85S95.9,82.24,92.85,82.6,90.29,80.35,90.29,80.35Z" style="fill: #248379;mix-blend-mode: color-dodge"/>
            <path d="M104.57,103.5l-.13-.11c-.71-.55-3.94-3-4.91-2.07S97.24,99,97.24,99s-8.69-17.17-6.3-20.33a.44.44,0,0,1,.08-.11.23.23,0,0,1,.25,0h0C93.49,79.28,104.57,103.5,104.57,103.5Z" style="fill: #241c3a"/>
            <path d="M100,99.48,102.6,101s-5.73-12.85-6.28-12.85S100,99.48,100,99.48Z" style="fill: #248379;mix-blend-mode: color-dodge"/>
            <polygon points="91.27 78.53 91.27 78.53 91.27 78.53 91.27 78.53" style="fill: #3f0f1a;opacity: 0.43;mix-blend-mode: multiply"/>
            <path d="M104.44,103.39c-.71-.55-3.94-3-4.91-2.07S97.24,99,97.24,99s-8.69-17.17-6.3-20.33l.33-.16s-1.33,1.07.49,5.78,5.91,15.65,6.82,15.9,1.77-.12,2.68.43A30,30,0,0,1,104.44,103.39Z" style="fill: #3f0f1a;opacity: 0.43;mix-blend-mode: multiply"/>
            <path d="M108.27,59.35s-4.63,9.43-9.12,16.56h0c.06-.11,4.77-9.15,1.62-9.64S90.23,74.92,89.56,77.54a5.29,5.29,0,0,0,0,2.68A13.75,13.75,0,0,1,89,78.79c-1.39-4.41,16.45-20.56,16.45-20.56Z" style="fill: #3f0f1a;opacity: 0.43;mix-blend-mode: multiply"/>
          </g>
          <g>
            <path d="M139.87,87c-3.15-2.78-4.56-3.35-5.34-3s-.21,4.51-1,2.06a11.57,11.57,0,0,0,0-1.17,34.39,34.39,0,0,0-2.92-10.13,64.64,64.64,0,0,0-2.85-5.84L129,69s1.2,1.87,2.8,4.4,3.67,5.81,5.31,8.49c.54.88,1,1.71,1.47,2.43,0,0,0,0,0,0h0C139.63,86.16,140.22,87.26,139.87,87Z" style="fill: #241c3a"/>
            <path d="M138.56,84.36h0v0Z" style="fill: #241c3a"/>
            <path d="M132.58,75.48l3,7.92a1.58,1.58,0,0,1,1.46.42,14.32,14.32,0,0,1,1.65,1.59Z" style="fill: #248379;mix-blend-mode: color-dodge"/>
            <path d="M131.76,73.41c-.61-.45-1.22-.87-1.38-.81-.35.13.57,1.68,2.37,6.6a10.12,10.12,0,0,1,.76,5.69,34.39,34.39,0,0,0-2.92-10.13,64.64,64.64,0,0,0-2.85-5.84L129,69S130.16,70.88,131.76,73.41Z" style="fill: #3f0f1a;opacity: 0.43;mix-blend-mode: multiply"/>
            <path d="M122.6,29.51S121.62,40,120,48.22c-.89,4.43-2,8.22-3.22,9.45-.36.36-1.93.46-4.25-2a13.54,13.54,0,0,1-1-1.15c-2.86-3.63,8.07-25.07,8.07-25.07Z" style="fill: #241c3a"/>
            <path d="M113.26,55.52c-.07-.18-1.91-4.69.32-5.15s2.35,1.39,3.15,1.09,3-7.42,3-7.42-.61,11.25-3.33,12.67S113.26,55.52,113.26,55.52Z" style="fill: #248379;mix-blend-mode: color-dodge"/>
            <path d="M134.83,72.08l-.17,0c-.85-.26-4.74-1.39-5.32-.19s-3-1.34-3-1.34-14.23-13-13.12-16.77a.93.93,0,0,1,0-.13.24.24,0,0,1,.21-.13h0C115.87,53.38,134.83,72.08,134.83,72.08Z" style="fill: #1d182d"/>
            <polygon points="113.53 53.47 113.53 53.47 113.52 53.47 113.53 53.47" style="fill: #3f0f1a;opacity: 0.43;mix-blend-mode: multiply"/>
            <path d="M134.66,72c-.85-.26-4.74-1.39-5.32-.19s-3-1.34-3-1.34-14.23-13-13.12-16.77l.25-.26s-.86,1.47,2.51,5.23,11.09,12.53,12,12.44,1.61-.74,2.66-.56A30.27,30.27,0,0,1,134.66,72Z" style="fill: #3f0f1a;opacity: 0.43;mix-blend-mode: multiply"/>
            <path d="M122.6,29.51S121.62,40,120,48.22h0c0-.12,1.21-10.25-1.91-9.58s-6.78,11.83-6.47,14.52a5.18,5.18,0,0,0,.91,2.51,13.54,13.54,0,0,1-1-1.15c-2.86-3.63,8.07-25.07,8.07-25.07Z" style="fill: #3f0f1a;opacity: 0.43;mix-blend-mode: multiply"/>
          </g>
          <g>
            <path d="M21.92,62.47c-2.62,5.38-9.26,15.27-8.72,14,2.23-5.07,1.58-2.34-2-4.49a24.1,24.1,0,0,0,7.34-7.64,16.86,16.86,0,0,0,2.51-9.64,41,41,0,0,0,1.84,4.54C23.11,59.69,22.69,60.88,21.92,62.47Z" style="fill: #241c3a"/>
            <path d="M12.12,71.94l2.26.79,5.24-8.41s-5.18,6.83-6,7.13S12.12,71.94,12.12,71.94Z" style="fill: #248379;mix-blend-mode: color-dodge"/>
            <path d="M21.92,62.47c0-1,0-2-.17-2.11-.43-.18-.61.79-1.77,2.44a13.32,13.32,0,0,1-1.42,1.59,16.86,16.86,0,0,0,2.51-9.64,41,41,0,0,0,1.84,4.54C23.11,59.69,22.69,60.88,21.92,62.47Z" style="fill: #3f0f1a;opacity: 0.43;mix-blend-mode: multiply"/>
            <path d="M49.77,48.33c-3.94.38-9.5,2.82-14.66,5.56A124.56,124.56,0,0,0,22.3,61.7c0-.05,0-3-1.83-4.14-2-1.28-3.11-.55-3.11-.55s-.18-.62,2.35-2c.92-.5,5.3-2.39,10.07-4.41h0l5.53-2.33h0l8.3-3.47S52.65,48.05,49.77,48.33Z" style="fill: #1d182d"/>
            <path d="M49.77,48.33c-3.94.38-9.5,2.82-14.66,5.56l7.29-4.25s1.41-2.8.25-3.53c-.61-.39-4.12.87-7.33,2.15l8.3-3.47S52.65,48.05,49.77,48.33Z" style="fill: #3f0f1a;opacity: 0.43;mix-blend-mode: multiply"/>
            <path d="M18.52,56.59s3.47-.92,4.39,0,.18,1.52.61,1.64,8.34-3.47,8.34-3.47-8.52,6.4-9.26,5.85S23,57.38,22.18,57A12.74,12.74,0,0,0,18.52,56.59Z" style="fill: #248379;mix-blend-mode: color-dodge"/>
          </g>
          <g>
            <path d="M57,103.36c-1.41-10.89.44-2.78-3.7-3.22,0-.08.09-.16.14-.24h0C60,88.52,54.85,80.32,54.85,80.32a42.6,42.6,0,0,0,3.59,3.32c.34.26.47,1.34.48,2.88C59,92.35,57.16,104.73,57,103.36Z" style="fill: #241c3a"/>
            <polygon points="57.03 101.31 56.6 96.98 58.43 90.46 57.03 101.31" style="fill: #248379;mix-blend-mode: color-dodge"/>
            <path d="M58.92,86.52c-.4-1.19-.84-2.24-1.16-2.21-.73.06.06,2.13-.25,6.15-.26,3.52-3.33,8.3-4.09,9.44C60,88.52,54.85,80.32,54.85,80.32a42.6,42.6,0,0,0,3.59,3.32C58.78,83.9,58.91,85,58.92,86.52Z" style="fill: #3f0f1a;opacity: 0.43;mix-blend-mode: multiply"/>
            <path d="M75.37,61.52s-1,1-2.49,2.41c-2,1.89-4.84,4.48-7.06,6.16-1.47,1.11-2.67,1.82-3.19,1.67-1.89-.55-2-4.21-.73-6.83s9-5.72,9-5.72Z" style="fill: #1d182d"/>
            <path d="M62.44,66.32s.74-2.73,2.75-2.61,1.28,2.14,1.89,2.62,5.61-3.53,5.61-3.53S68.06,69,66,69.62,62.44,66.32,62.44,66.32Z" style="fill: #248379;mix-blend-mode: color-dodge"/>
            <path d="M72.88,63.93c.22-.82.34-1.8-.19-2.17-1-.67-5.79-.36-8,1.1s-3,2.32-2.92,5.13c0,2,2.53,2.15,4,2.1-1.47,1.11-2.67,1.82-3.19,1.67-1.89-.55-2-4.21-.73-6.83s9-5.72,9-5.72l4.51,2.31S74.35,62.53,72.88,63.93Z" style="fill: #3f0f1a;opacity: 0.43;mix-blend-mode: multiply"/>
            <path d="M65.29,69.92c-1.21,6-5.46,16.73-5.46,16.73a4.73,4.73,0,0,0,0-.53c-.12-1-.59-3.1-2.37-2.74a9.11,9.11,0,0,0-4,2s-.55-.34.4-3.05c.82-2.35,9-16,9-16s1-2.5,2.54,0C65.75,66.81,65.65,68.16,65.29,69.92Z" style="fill: #241c3a"/>
            <path d="M62.63,72.43s-5.72,8.71-4.75,9.14,2.32,2.74,2.32,2.74S65.19,69.81,62.63,72.43Z" style="fill: #248379;mix-blend-mode: color-dodge"/>
            <path d="M65.29,69.92c-.2-1.57-.51-3.18-1-3.59C63.42,65.48,53.13,82.24,56.6,82s3.19,4.08,3.19,4.08c-.12-1-.59-3.1-2.37-2.74a9.11,9.11,0,0,0-4,2s-.55-.34.4-3.05c.82-2.35,9-16,9-16s1-2.5,2.54,0C65.75,66.81,65.65,68.16,65.29,69.92Z" style="fill: #3f0f1a;opacity: 0.43;mix-blend-mode: multiply"/>
          </g>
          <path d="M80.67,63s42.77,8.83,60.92-2.26-27.35-46.06-27.35-46.06Z" style="fill: #3d1414"/>
          <path d="M14.07,35.08l-.54,2-.13-.67-1.34,2.8v-.79l-1.35.77-1.63.93.79-1.4-2.32,1,.31-.55a23.52,23.52,0,0,1-3.05.49c-1.15.06-1.4-.49-1.4-.49s-3.84.61-3,0S0,37.76,0,37.76s5.06,1.58,8.16.67a6,6,0,0,0,2.87-2,9.71,9.71,0,0,0,1.58-2.7,6.13,6.13,0,0,1-2.37.18c-.71-.24-1.36-2-1.4-2.13,0,.11.77,1.68,2.19.91s.18-2.68.18-2.68H9.44l3.17-1.1,1.28,4.76Z" style="fill: #241c3a"/>
          <path d="M14.5,28.61l-.35,1.68-.65,1-1.72,1.93a7.58,7.58,0,0,1-.58-1.36,1,1,0,0,0-.17-.91h0v-.1a2,2,0,0,1,.29-.95,7.29,7.29,0,0,1,1.26.87,8.13,8.13,0,0,0-.1-2.26c0-.1,0-.2-.07-.31a4.87,4.87,0,0,0-1.36-2.52c-2-1.83-6.26-2.54-6.26-2.54s1.17-.2.81-.94,2.24,1.13,2.24,1.13.39-.31,1.22.16a21.7,21.7,0,0,1,2.06,1.49l0-.52L12.41,26l-.06-1.32L13.21,26l.71,1.07.29-.58v.6l0,2Z" style="fill: #241c3a"/>
          <path d="M14.07,35.08l-.54,2-.13-.67-1.34,2.8v-.79l-1.35.77.87-1,.61-1.89L11,36.44a9.71,9.71,0,0,0,1.58-2.7,6.13,6.13,0,0,1-2.37.18c-.71-.24-1.36-2-1.4-2.13,0,.11.77,1.68,2.19.91s.18-2.68.18-2.68H9.44l3.17-1.1,1.28,4.76Z" style="fill: #3f0f1a;opacity: 0.43;mix-blend-mode: multiply"/>
          <path d="M26.32,40.68a8.38,8.38,0,0,1-2.83.39c-3.25-.11-6.41-2-8.74-4.15h0a17.93,17.93,0,0,1-1.53-1.64,13.45,13.45,0,0,1-1.43-2.09,7.58,7.58,0,0,1-.58-1.36,3.61,3.61,0,0,1-.17-.91v-.1a2,2,0,0,1,.29-.95,6.27,6.27,0,0,1,1.16-1.39A16.41,16.41,0,0,1,14.2,27.1c3.74-2.63,9.78-5,12.3-4.15,3.78,1.34,3.29,8.29,3.29,8.29s.1.18.24.5C30.74,33.41,32.46,38.74,26.32,40.68Z" style="fill: #241c3a"/>
          <path d="M25.22,34.1c.05-.08,4.13-7.68.37-9.2s-13.71,2.88-14.13,5.34c-.25,1.39.8,3.48,1.75,5A8.25,8.25,0,0,1,11,30.81c0-3.1,11.7-9.2,15.47-7.86s3.29,8.29,3.29,8.29.1.18.24.5Z" style="fill: #3f0f1a;opacity: 0.43;mix-blend-mode: multiply"/>
          <g style="mask: url(#b1fd1932-6d0f-4b06-b0dd-82785a15ec90)">
            <path d="M22.91,32.44c-1.54,1-2.37,4.46-4.34,4.47A3.44,3.44,0,0,1,15,33.64a5.45,5.45,0,0,1,3.51-4.59C23.86,27.26,25.52,30.78,22.91,32.44Z" style="mix-blend-mode: color-dodge;fill: url(#af3c5eab-602e-4f35-8f26-529881d44437)"/>
          </g>
          <path d="M21.37,30.14c2.27.61,3.73,2.51,3.27,4.24S22,37,19.69,36.42s-3.73-2.5-3.26-4.24S19.11,29.53,21.37,30.14Z" style="opacity: 0.74;mix-blend-mode: color-dodge;fill: url(#b0fa7089-58b3-451e-9c86-402c33abd70d)"/>
          <path d="M24.55,35.26l-1.06,5.81c-3.25-.11-6.41-2-8.74-4.15.2.17,3.77,3.19,5.78,2.48S24.55,35.26,24.55,35.26Z" style="fill: #3f0f1a;opacity: 0.43;mix-blend-mode: multiply"/>
          <path d="M66,17.32,52.73,35.64,46,44.92l-.89.31c-2.67.9-10.85,3.19-17.24.33l-1-.47C20.2,41.73,20.53,38,20.53,38s5.79-4.69,7.07-8.77a6.22,6.22,0,0,0,.07-3.67c-.45-1.72-1.3-2.89-.1-4.16a8.57,8.57,0,0,1,1.22-1A34.53,34.53,0,0,1,44.12,15a41.49,41.49,0,0,1,6.6-.26,77,77,0,0,1,8.59.75C64.57,16.24,66,17.32,66,17.32Z" style="fill: #241c3a"/>
          <g style="mask: url(#af8353fd-6e02-429b-9b69-bd8f76816531)">
            <path d="M41.43,45c-.17,2.48-7,1.7-13.46-.85C20,40.81,20.53,38,20.53,38s5.79-4.69,7.07-8.77a6.22,6.22,0,0,0,.07-3.67,8.73,8.73,0,0,1,.84,4.28c-.3,4.63-8.22,8.16-7.06,9.5C25.16,43.67,41.75,40.19,41.43,45Z" style="mix-blend-mode: color-dodge;fill: url(#b2514091-7bf1-4541-b46b-7a6df340ebaa)"/>
          </g>
          <path d="M59.31,15.45,52.73,35.64l-3.93,12s-1.63-1-3.66-2.46c-3.39-2.51-7.9-6.52-7.67-10,.37-5.61,9.93-13.53,9.69-17.55C47,14.7,34,17.53,28.79,20.37A34.53,34.53,0,0,1,44.12,15a41.49,41.49,0,0,1,6.6-.26A77,77,0,0,1,59.31,15.45Z" style="fill: #3f0f1a;opacity: 0.43;mix-blend-mode: multiply"/>
          <path d="M32.6,22.1c3.43-2.82,13.58-5.3,13.46-3.05s-8,7-9.26,11.09,3.23,10.48,0,10.48-6.09-.91-7.25-2.8S27.11,26.61,32.6,22.1Z" style="fill: #241c3a"/>
          <path d="M20.9,35.44c-1.65-.33-2.26-.79-1.22-2.49s2.8-.31,3.05.24A1.54,1.54,0,0,1,20.9,35.44Z" style="fill: url(#b00f09a0-e3bb-45da-a228-31c1d966e5e2)"/>
          <path d="M29.63,41.41S22.33,39.72,23,38s5.18-4.89,5.6-4.69,3.11,1.44,3.24,1.84S31.58,41.45,29.63,41.41Z" style="fill: url(#a8e3953b-558c-4c1d-93a7-756d42343c46)"/>
          <path d="M145.77,54.05a9.51,9.51,0,0,1-.63,1.12,13.84,13.84,0,0,1-4.31,3.93c-5.53,3.41-16.58,6.65-38.7,6.14-44.88-1-59.1-16.32-60.51-25-1.07-6.67,2.12-13.7,6.25-19.33h0l.54-.73.14-.18.15-.19,0,0a45,45,0,0,1,6.83-7.06c.44-.36.87-.69,1.28-1l1.27-.89c7.48-5.13,28-16.44,51.46-7.42,28,10.77,36.77,48.5,36.77,48.5A5.1,5.1,0,0,1,145.77,54.05Z" style="fill: url(#b17e6a19-4498-4577-833e-e94a3c839cc4)"/>
          <path d="M57.27,31.18a6.92,6.92,0,0,1,7.43-2.26c1.53.49,3.6,2.56,3.54,3.48a6.93,6.93,0,0,1-2.87,4.93c-2.19,1.46-6.58,2.38-8.1,1.34S55.75,33,57.27,31.18Z" style="fill: #241c3a"/>
          <path d="M114.54,46.17a10.12,10.12,0,0,1-9.61,3.22c-2-.42-4.92-2.58-4.91-3.62a7.65,7.65,0,0,1,3.38-5.84c2.78-1.85,8.48-3.28,10.56-2.24S116.41,44,114.54,46.17Z" style="fill: #241c3a"/>
          <path d="M80.54,8.27c2.62-1.34,6.83-.73,8,1.16s-.31,4.57-4,5.05S80.79,13,80,11.56,80.54,8.27,80.54,8.27Z" style="fill: #241c3a"/>
          <path d="M48.41,20.16h0l0-.06.12-.12h0l.14-.18,0,0a45,45,0,0,1,6.83-7.06c-1.15,1.25-2,2.41-1.76,2.9.44,1,3,1.75,4.54,2.74a2.22,2.22,0,0,1,1.12,1.28C60.38,24.72,48.07,24.72,48.41,20.16Z" style="fill: url(#ba7d78f9-9551-48e4-ba0e-7bd2f533e64c)"/>
          <g style="mask: url(#fb0f2fee-38c7-4acb-b2bf-b680cf4b8138)">
            <path d="M52.33,29.36C50,18.18,65,.37,95.38,2.42s42,34.79,43.32,41.27S131.81,64,91.29,54.74,52.33,29.36,52.33,29.36Z" style="opacity: 0.22;mix-blend-mode: color-dodge;fill: url(#b6001c6a-b6ce-4ded-b58a-1eda249f7910)"/>
          </g>
          <path d="M58.34,18.32c-.63.79-4-1.64-5.15-1.82-1-.16-3.87,2.68-4.63,3.46l.14-.18,0,0a42.93,42.93,0,0,1,8.11-8l1.27-.89c.59-.2,1-.25,1.17,0C59.83,11.62,59,17.53,58.34,18.32Z" style="fill: #241c3a"/>
          <polygon points="47.87 20.88 47.87 20.88 47.87 20.88 47.87 20.88" style="fill: #8390f4;mix-blend-mode: multiply"/>
          <path d="M145.77,54.05c-1.85,4-9.8,12-43.64,11.19-44.88-1-59.1-16.32-60.51-25-1.07-6.67,2.12-13.7,6.25-19.33-.21.29-9.23,13.3-1.81,22.81S83.8,66.86,119.78,63.94C134.44,62.75,142,58.57,145.77,54.05Z" style="fill: #8390f4;opacity: 0.51;mix-blend-mode: multiply"/>
          <path d="M103.91,15.65c-.7,1.21-2.85,1.27-4.81.14s-3-3-2.28-4.23,2.85-1.27,4.8-.14S104.6,14.44,103.91,15.65Z" style="fill: #fff"/>
          <path d="M117.28,27.76c-1.65,1.87-5.46,1.21-8.49-1.47s-4.15-6.38-2.5-8.25,5.46-1.21,8.49,1.48S118.94,25.89,117.28,27.76Z" style="fill: #fff"/>
          <ellipse cx="107.97" cy="22.95" rx="15.53" ry="23.61" transform="translate(23.89 94.47) rotate(-52.39)" style="mix-blend-mode: color-dodge;fill: url(#b9e9240a-a6b2-4f77-9249-c2a93c2542f4)"/>
          <path d="M122.37,26.45c-2,3.42-8.86,3.14-15.39-.63s-10.22-9.59-8.24-13,8.87-3.14,15.39.63S124.35,23,122.37,26.45Z" style="opacity: 0.74;mix-blend-mode: color-dodge;fill: url(#b3b8b1a3-fe42-4284-9abc-f72b56d41c72)"/>
          <path d="M145.14,55.17A12.91,12.91,0,0,1,142,58.32c-.36.26-.74.52-1.16.78.11-.23.22-.46.32-.7a12.31,12.31,0,0,0,.93-4.81c0-8.73-7.31-26-18.69-38.34h0a52.08,52.08,0,0,0-11.31-9.41h0c-.54-.32-1.08-.63-1.62-.92l0,0h0a34.63,34.63,0,0,0-4.51-2c-20.52-7.3-40.43,4-41.17,4.45.72-.46,19.47-12.14,41.54-5a45.58,45.58,0,0,1,6.92,2.91c22.77,11.91,30,40.5,30.91,46.63A9.53,9.53,0,0,0,145.14,55.17Z" style="opacity: 0.53;mix-blend-mode: multiply;fill: url(#a8a8051c-f025-4679-8369-a9a874961f79)"/>
          <g style="mask: url(#bd5d2424-1490-4f32-9fa4-1691fb6d3e0c)">
            <path d="M140.83,59.1c.42-.26.8-.52,1.16-.78L141.7,60l-10.16,2c.1,0,6.9-2.55,7.91-7.15s-1.57-14.19-3.84-20.18-12.07-19.25-12.22-19.45c11.38,12.32,18.69,29.61,18.69,38.34a12.31,12.31,0,0,1-.93,4.81C141.05,58.64,140.94,58.87,140.83,59.1Z" style="opacity: 0.22;mix-blend-mode: color-dodge;fill: url(#fa5aabf3-316c-44d3-b502-d4909a598773)"/>
          </g>
        </g>
      </g>
    </g>
  </g>
</svg>
