<svg xmlns="http://www.w3.org/2000/svg" xmlns:xlink="http://www.w3.org/1999/xlink" viewBox="0 0 333.73 446.86">
  <defs>
    <linearGradient id="linear-gradient" x1="-1359.4" y1="378.4" x2="-1277.18" y2="378.4" gradientTransform="matrix(-1, 0, 0, 1, -1165.82, 0)" gradientUnits="userSpaceOnUse">
      <stop offset="0"/>
      <stop offset="1" stop-color="#fff"/>
    </linearGradient>
    <linearGradient id="linear-gradient-2" x1="-1358.02" y1="350.78" x2="-1312.82" y2="350.78" xlink:href="#linear-gradient"/>
    <linearGradient id="linear-gradient-3" x1="-1399.04" y1="348.92" x2="-1349" y2="348.92" xlink:href="#linear-gradient"/>
    <linearGradient id="linear-gradient-4" x1="-1304.21" y1="240.11" x2="-1247.22" y2="240.11" gradientTransform="matrix(-1, 0, 0, 1, -1165.82, 0)" gradientUnits="userSpaceOnUse">
      <stop offset="0" stop-color="#fff"/>
      <stop offset="1"/>
    </linearGradient>
    <linearGradient id="linear-gradient-5" x1="-1301.7" y1="245.6" x2="-1247.22" y2="245.6" xlink:href="#linear-gradient"/>
    <linearGradient id="linear-gradient-6" x1="-1288.35" y1="205.7" x2="-1228.39" y2="205.7" xlink:href="#linear-gradient"/>
    <linearGradient id="linear-gradient-7" x1="-1451.49" y1="259.17" x2="-1374.42" y2="259.17" xlink:href="#linear-gradient-4"/>
    <linearGradient id="linear-gradient-8" x1="-1451.94" y1="255.02" x2="-1372.53" y2="255.02" xlink:href="#linear-gradient"/>
    <linearGradient id="linear-gradient-9" x1="-1485.43" y1="74.91" x2="-1360.28" y2="74.91" xlink:href="#linear-gradient-4"/>
    <linearGradient id="linear-gradient-10" x1="-1485.25" y1="77.05" x2="-1360.6" y2="77.05" xlink:href="#linear-gradient-4"/>
    <linearGradient id="linear-gradient-11" x1="-1429.59" y1="70.72" x2="-1321.8" y2="70.72" xlink:href="#linear-gradient-4"/>
    <linearGradient id="linear-gradient-12" x1="-1297.42" y1="150.28" x2="-1297.42" y2="4.23" xlink:href="#linear-gradient"/>
    <linearGradient id="linear-gradient-13" x1="-1316.66" y1="77.25" x2="-1266.38" y2="77.25" xlink:href="#linear-gradient"/>
    <linearGradient id="linear-gradient-14" x1="-1350.26" y1="101.65" x2="-1295.07" y2="101.65" xlink:href="#linear-gradient-4"/>
    <linearGradient id="linear-gradient-15" x1="-1357.77" y1="132.35" x2="-1357.77" y2="0.36" xlink:href="#linear-gradient"/>
    <linearGradient id="linear-gradient-16" x1="-1364.99" y1="190.34" x2="-1270.37" y2="190.34" xlink:href="#linear-gradient"/>
    <linearGradient id="linear-gradient-17" x1="-1391.31" y1="204.43" x2="-1353.26" y2="204.43" xlink:href="#linear-gradient"/>
    <linearGradient id="linear-gradient-18" x1="-1421.04" y1="330.82" x2="-1353.17" y2="330.82" xlink:href="#linear-gradient-4"/>
    <linearGradient id="linear-gradient-19" x1="-1290.38" y1="323.29" x2="-1218.62" y2="323.29" xlink:href="#linear-gradient-4"/>
    <linearGradient id="linear-gradient-20" x1="-1291.39" y1="325.49" x2="-1232.65" y2="325.49" xlink:href="#linear-gradient-4"/>
    <linearGradient id="linear-gradient-21" x1="-1339.44" y1="355.04" x2="-1339.44" y2="259.03" xlink:href="#linear-gradient-4"/>
    <linearGradient id="linear-gradient-22" x1="-1499.55" y1="187.11" x2="-1376.25" y2="187.11" xlink:href="#linear-gradient-4"/>
  </defs>
  <g style="isolation: isolate">
    <g id="OBJECTS">
      <g>
        <path d="M12.69,425.47c0,11.81,51.45,21.39,114.9,21.39s114.91-9.58,114.91-21.39-51.45-21.4-114.91-21.4S12.69,413.65,12.69,425.47Z" style="fill: #000100;opacity: 0.35000000000000003"/>
        <g>
          <g>
            <path d="M111.36,325.5c0,58.43,27.28,105.82,60.93,105.82,24,0,44.71-24,54.65-59a171.69,171.69,0,0,0,6.29-46.84Z" style="fill: #22252b"/>
            <path d="M138.93,325.49c1.7,52,25,94,54.65,99.17a38.91,38.91,0,0,1-21.28,6.65c-33.66,0-60.94-47.38-60.94-105.82Z" style="opacity: 0.5;mix-blend-mode: multiply;fill: url(#linear-gradient)"/>
            <path d="M111.36,325.5c0,1.91,3,3.73,8.21,5.28,10.55,3.14,30.21,5.27,52.72,5.27s42.17-2.13,52.72-5.27c5.22-1.55,8.22-3.37,8.22-5.28,0-5.83-27.29-10.57-60.94-10.57S111.36,319.67,111.36,325.5Z" style="fill: #2d3139"/>
            <path d="M119.57,330.78c10.55,3.14,30.21,5.27,52.72,5.27s42.17-2.13,52.72-5.27c-10.55-3.15-30.2-5.28-52.72-5.28S130.12,327.63,119.57,330.78Z" style="fill: #22252b"/>
            <path d="M111.36,325.5c0,4.33,15.1,8.06,36.71,9.68,7.43.56,15.62.87,24.22.87,4.11,0,8.14-.07,12-.22,2.16-.07,4.27-.17,6.35-.29,24.66-1.33,42.57-5.35,42.57-10,0-5.83-27.29-10.57-60.94-10.57S111.36,319.67,111.36,325.5Zm7.25,0c7.53-2.61,25.53-5.73,53.68-5.73s46.16,3.12,53.69,5.73c-5.58,1.94-16.88,4.14-33.77,5.13-2.84.17-5.86.31-9,.41-3.45.12-7.07.17-10.9.17-9.62,0-18.06-.36-25.29-.94C133.07,329.15,123.56,327.22,118.61,325.5Z" style="fill: #4b4e55"/>
            <path d="M147,330.27c.1.67.22,1.35.36,2.05s.36,1.55.71,2.86c1.79,7.26,6.14,24.34,6.72,36.12.22-.17.43-.34.65-.49,3.7-2.73,7.83-4.86,10-6.34,8.07-5.46,17.7-12.43,22.47-22.3a61.52,61.52,0,0,0,2.74-6.63c.58-1.6,1.08-3.24,1.55-4.91-5.94.36-12.59.58-19.92.58C162.67,331.21,154.23,330.85,147,330.27Z" style="opacity: 0.5;mix-blend-mode: multiply;fill: url(#linear-gradient-2)"/>
            <path d="M183.19,331a40.76,40.76,0,0,0,1.12,4.79,32.71,32.71,0,0,0,4,8.86c4.37,6.58,10.33,8.44,16.41,11.44,8.06,4,15.07,10.45,22.19,16.21a171.69,171.69,0,0,0,6.29-46.84H226c-5.58,1.94-16.88,4.14-33.77,5.13C189.37,330.8,186.35,330.94,183.19,331Z" style="opacity: 0.5;mix-blend-mode: multiply;fill: url(#linear-gradient-3)"/>
            <path d="M73.12,242.63c6.23-4.37,13.61-4.06,20-8,7.27-4.49,12.22-4.36,20.45-3.4,17.64,2.07,32.41,17.76,41.63,35.48,4.91,9.44,8.28,20.14,12.09,30.21a144.51,144.51,0,0,1,5,13.91c1,3.81,1.35,13.6,5.93,12.53" style="fill: none;stroke: #37311f;stroke-miterlimit: 10"/>
            <g>
              <path d="M.2,301.24c1.07-.34,2.07-.58,3-.78C10,299,14.2,297.8,20.32,294c6.7-4.17,13.31-8.3,19.13-13.89,6.1-5.85,11.66-11.08,19.15-14.73,6.66-3.27,12.95-5.11,19.15-9.48,6-4.24,12.2-8.45,16-15.44a60.47,60.47,0,0,0,3.86-8.81c-6.08,1.94-12,5.57-17.9,7.87-7.81,3-16,3.5-23.94,7.28-15.55,7.45-24.07,26.68-36.27,38.58-4.87,4.72-10.59,7.19-15.46,11.71A42.2,42.2,0,0,0,.2,301.24Z" style="fill: #5f7808"/>
              <path d="M0,301.29a.58.58,0,0,1,.2-.05,42.2,42.2,0,0,1,3.87-4.12c4.87-4.52,10.59-7,15.46-11.71,12.2-11.9,20.72-31.13,36.27-38.58,7.89-3.78,16.13-4.26,23.94-7.28,5.94-2.3,11.82-5.93,17.9-7.87.13-.33.27-.7.39-1.06-.53-.31-1.07-.65-1.65-1-5.1-3.34-12.47-7.43-18.25-7.77-7.21-.41-16.13,2.93-22.73,6.24-9.19,4.58-16,10.72-21.93,20.13-7.61,12-16.23,23.08-23.9,35C5.88,288.82,3.14,295.24,0,301.29Z" style="fill: #7fa00a"/>
            </g>
            <path d="M102.33,107.28c11.91,4.38,22.06,23.62,26.81,36.48A239.53,239.53,0,0,1,140.62,187c2.25,13.23,3.1,26.56,5.53,39.7,2.73,14.8,5.36,28.85,8.67,43.53,2,8.82,3.66,17.8,5.61,26.66a140,140,0,0,1,2.51,16.41c.39,3.91,3.74,13.4,1.57,16.57" style="fill: none;stroke: #37311f;stroke-miterlimit: 10"/>
            <path d="M157,93.24c5.65,4.59,6.76,17.11,7.09,24.57a129.87,129.87,0,0,0,3.35,23.56c2.44,11.08,2.42,23.19,2,34.94-.5,13.46.1,26.87.1,40.38,0,30.65-4.11,60.46-3.34,91.11" style="fill: none;stroke: #37311f;stroke-miterlimit: 10"/>
            <path d="M184.12,95.25c.79,9-.23,19.15,1.57,27.68,1.65,7.83,2.33,15.35,1,23.45-2,11.6-.46,22.23.48,34,.57,7.07,1.8,14.89,1.16,22.08-.5,5.68-2.63,11.36-4.48,16.62-5.95,16.86-10.77,30.75-11.37,49.24-.41,12.6-.13,30.9,3.75,42" style="fill: none;stroke: #37311f;stroke-miterlimit: 10"/>
            <path d="M161.16,163.43c-.24,2.71-1.62,5-2.4,7.6-1.73,5.78-2.28,12.09-3.74,18a68.76,68.76,0,0,0-2.2,17.4c0,12.34,1.87,23.3,3.76,35.21,3.77,23.65,8.62,47.75,10.41,71.79.61,8.08-.33,15.84-.4,24" style="fill: none;stroke: #37311f;stroke-miterlimit: 10"/>
            <path d="M116.93,235.12c11.62,6.93,19.83,17.2,28,29.06a83,83,0,0,1,10.93,20.93c2.06,6,3.18,12,4.89,18.05,1.11,4,2.48,7.71,3.35,11.76,1.14,5.26.94,11.52,2.92,16.45" style="fill: none;stroke: #37311f;stroke-miterlimit: 10"/>
            <path d="M110.67,273.22c10.06-9.92,20.34-13.68,33.39-10.53,7.84,1.89,14.93,7.16,20.35,14.68,4.05,5.62,6.86,12.43,9.36,19,1.65,4.35,3.48,10.92,6.17,14.42" style="fill: none;stroke: #37311f;stroke-miterlimit: 10"/>
            <path d="M179.49,328.67c3.46-12.47,10.66-21.16,17.65-29.56,4.34-5.22,8.83-10.63,12.22-16.78,2.43-4.41,6.27-7.8,10-11.07a76.92,76.92,0,0,0,5.71-5.38c1.33-1.44,2.79-3.25,4.34-5.16,5.16-6.4,11.59-14.35,18.41-14.83l.11,2.42c-6,.42-12.16,8-17.08,14.09-1.57,2-3.06,3.79-4.43,5.28-1.81,1.95-3.87,3.77-5.87,5.53-3.57,3.15-7.26,6.4-9.49,10.45-3.5,6.36-8.07,11.85-12.48,17.16-6.78,8.15-13.76,16.6-17.1,28.42C180.8,329.07,180.14,328.88,179.49,328.67Z" style="fill: #37311f"/>
            <path d="M182.16,211.56c.58,8.18,1.17,16.64.56,25-.35,4.72-1,9.41-1.61,14-.76,5.57-1.54,11.33-1.78,17.1a193.76,193.76,0,0,0,.7,21.51c.39,5.63.8,11.45.8,17.33,0,6.13-.25,12.29-.5,18.24-.06,1.38-.11,2.8-.16,4.2-.67-.2-1.33-.41-2-.63,0-1.23.09-2.48.14-3.69.24-5.92.5-12,.5-18.12,0-5.78-.41-11.55-.8-17.13a194,194,0,0,1-.7-21.83c.24-5.91,1-11.74,1.8-17.37.61-4.51,1.25-9.15,1.59-13.79.6-8.13,0-16.48-.56-24.55-.41-5.79-.83-11.77-.83-17.72,0-23.39,4.42-43.13,15.26-68.13a150.86,150.86,0,0,1,11.09-21.38,131.39,131.39,0,0,0,6.55-12.15c2.67-5.37,5.43-10.93,8.87-15.56l1.51,1.61c-3.32,4.46-6,9.92-8.65,15.2A135.73,135.73,0,0,1,207.27,106a150,150,0,0,0-10.91,21c-10.67,24.64-15,44.05-15,67C181.33,199.9,181.75,205.83,182.16,211.56Z" style="fill: #37311f"/>
            <path d="M207.84,199c-3.16,11.79-6.52,22.11-6,34.85.42,10.12-.21,17.42-3.12,27-3.32,11-9.11,20.37-13.25,30.78a76,76,0,0,0-4.25,16.1c-1.64,9.83-3.75,21.72-3.39,31.85" style="fill: none;stroke: #37311f;stroke-miterlimit: 10"/>
            <g>
              <path d="M82.82,254.5c3.41,5.68,10.11,8.05,15.41,9.67,6.08,1.87,11,.73,16.75-2.2,5.06-2.59,8.9-7.47,14.1-9.51a11.81,11.81,0,0,1,6.64-.31c.06-.26.1-.55.16-.82a97.65,97.65,0,0,0,2-15.05c.24-6.68,2.33-16.33-3.55-19.4-12.26-6.46-22.19,7-33.42,9.07-1.8.31-5.8,1.21-8.62.46a4,4,0,0,1-.93-.29c-.26,3.65-4.61,10.16-5.58,11.76C82.82,242.74,79.42,248.81,82.82,254.5Z" style="fill: #7fa00a"/>
              <path d="M82.82,254.5c3.41,5.68,10.11,8.05,15.41,9.67,6.08,1.87,11,.73,16.75-2.2,5.06-2.59,8.9-7.47,14.1-9.51a11.81,11.81,0,0,1,6.64-.31c.06-.26.1-.55.16-.82a31.43,31.43,0,0,0-6.08-6.82c-4.21-3.34-10.85-3.66-15.79-3.95s-10.47.27-15.06-2.39-5.31-7.07-6.7-11.76a4,4,0,0,1-.93-.29c-.26,3.65-4.61,10.16-5.58,11.76C82.82,242.74,79.42,248.81,82.82,254.5Z" style="fill: #7fa00a"/>
            </g>
            <g style="opacity: 0.5;mix-blend-mode: multiply">
              <path d="M82.82,254.5c3.41,5.68,10.11,8.05,15.41,9.67,6.08,1.87,11,.73,16.75-2.2,5.06-2.59,8.9-7.47,14.1-9.51a11.81,11.81,0,0,1,6.64-.31c.06-.26.1-.55.16-.82a97.65,97.65,0,0,0,2-15.05c.24-6.68,2.33-16.33-3.55-19.4-12.26-6.46-22.19,7-33.42,9.07-1.8.31-5.8,1.21-8.62.46a4,4,0,0,1-.93-.29c-.26,3.65-4.61,10.16-5.58,11.76C82.82,242.74,79.42,248.81,82.82,254.5Z" style="fill: url(#linear-gradient-4)"/>
              <path d="M82.82,254.5c3.41,5.68,10.11,8.05,15.41,9.67,6.08,1.87,11,.73,16.75-2.2,5.06-2.59,8.9-7.47,14.1-9.51a11.81,11.81,0,0,1,6.64-.31c.06-.26.1-.55.16-.82a31.43,31.43,0,0,0-6.08-6.82c-4.21-3.34-10.85-3.66-15.79-3.95s-10.47.27-15.06-2.39-5.31-7.07-6.7-11.76a4,4,0,0,1-.93-.29c-.26,3.65-4.61,10.16-5.58,11.76C82.82,242.74,79.42,248.81,82.82,254.5Z" style="fill: url(#linear-gradient-5)"/>
            </g>
            <path d="M63,233.81c.28,2.3,2,9.51,2.88,16.19,3.2-7.6,8.7-14.93,11.8-20.54a181.79,181.79,0,0,0,8.68-17.2c.7-1.6,1.33-3.22,1.89-4.81,2.74-7.77,4.67-16.07,9.57-22.41,5.09-6.63,11.07-8,17.82-10.64,6.22-2.42,7-6,6.94-11.37,0-.08-.06-.15-.08-.22-.18-.48-.36-.94-.56-1.41-6,2.91-11.74,1.07-18.25,1.51A40.18,40.18,0,0,0,85,169.7c-7.88,5.54-11.16,16.31-15.14,25.65C64.86,207,61.4,220.58,63,233.81Z" style="fill: #7fa00a"/>
            <path d="M63,233.81c.28,2.3,2,9.51,2.88,16.19,3.2-7.6,8.7-14.93,11.8-20.54a181.79,181.79,0,0,0,8.68-17.2c.7-1.6,1.33-3.22,1.89-4.81,2.74-7.77,4.67-16.07,9.57-22.41,5.09-6.63,11.07-8,17.82-10.64,6.22-2.42,7-6,6.94-11.37,0-.08-.06-.15-.08-.22-.18-.48-.36-.94-.56-1.41-6,2.91-11.74,1.07-18.25,1.51A40.18,40.18,0,0,0,85,169.7c-7.88,5.54-11.16,16.31-15.14,25.65C64.86,207,61.4,220.58,63,233.81Z" style="opacity: 0.8;mix-blend-mode: multiply;fill: url(#linear-gradient-6)"/>
            <path d="M86.31,212.26l.7-.87c3.22-4.21,5.08-9.46,8-14,6.32-10,15.74-10.11,23.52-16.62,5.41-4.57,6.54-10.89,4-17.73,0,5.34-.72,8.95-6.94,11.37-6.75,2.61-12.73,4-17.82,10.64-4.9,6.34-6.83,14.64-9.57,22.41C87.64,209,87,210.66,86.31,212.26Z" style="fill: #5f7808"/>
            <g>
              <path d="M208.6,282c.14.88.27,1.76.35,2.63,1.9-.82,3.71-1.51,5.22-2.14,6.2-2.48,11.89-6.18,17.88-9.45,3.95-2.15,8-2.78,12-4.57,3.35-1.46,6.22-4.25,9.18-6.66,6.69-5.45,14.5-10,21.73-14.24,2.93-1.74,6.78-4.6,10.67-6.87-2.15-.49-4.2-1.21-5.66-1.67-5.84-1.81-11.07-5.67-17.16-5.28-6.66.41-13.62,4.4-19.26,8.94a183.9,183.9,0,0,0-20.47,19.68A111.2,111.2,0,0,0,208.6,282Z" style="fill: #7fa00a"/>
              <path d="M208.6,282c.14.88.27,1.76.35,2.63,1.9-.82,3.71-1.51,5.22-2.14,6.2-2.48,11.89-6.18,17.88-9.45,3.95-2.15,8-2.78,12-4.57,3.35-1.46,6.22-4.25,9.18-6.66,6.69-5.45,14.5-10,21.73-14.24,2.93-1.74,6.78-4.6,10.67-6.87-2.15-.49-4.2-1.21-5.66-1.67-5.84-1.81-11.07-5.67-17.16-5.28-6.66.41-13.62,4.4-19.26,8.94a183.9,183.9,0,0,0-20.47,19.68A111.2,111.2,0,0,0,208.6,282Z" style="opacity: 0.5;mix-blend-mode: multiply;fill: url(#linear-gradient-7)"/>
              <path d="M207.46,253.51a81.5,81.5,0,0,0-.16,20.64c.35,2.69.92,5.28,1.3,7.84a111.2,111.2,0,0,1,14.52-19.63,183.9,183.9,0,0,1,20.47-19.68c5.64-4.54,12.6-8.53,19.26-8.94,6.09-.39,11.32,3.47,17.16,5.28,1.46.46,3.51,1.18,5.66,1.67a2.85,2.85,0,0,1,.45-.25c-4.53-3-9.44-5.43-13.73-8.17a25.08,25.08,0,0,0-15.78-4.19c-7.37.29-12.08,3.35-18.72,6.53-6.32,3-12.21-1.67-18.58,1.37C213.2,238.89,208.47,245.71,207.46,253.51Z" style="fill: #5f7808"/>
              <path d="M207.46,253.51a81.5,81.5,0,0,0-.16,20.64c.35,2.69.92,5.28,1.3,7.84a111.2,111.2,0,0,1,14.52-19.63,183.9,183.9,0,0,1,20.47-19.68c5.64-4.54,12.6-8.53,19.26-8.94,6.09-.39,11.32,3.47,17.16,5.28,1.46.46,3.51,1.18,5.66,1.67a2.85,2.85,0,0,1,.45-.25c-4.53-3-9.44-5.43-13.73-8.17a25.08,25.08,0,0,0-15.78-4.19c-7.37.29-12.08,3.35-18.72,6.53-6.32,3-12.21-1.67-18.58,1.37C213.2,238.89,208.47,245.71,207.46,253.51Z" style="opacity: 0.5;mix-blend-mode: multiply;fill: url(#linear-gradient-8)"/>
            </g>
            <path d="M194.79,126.33a22.67,22.67,0,0,1,.78-2.23c2-5,4.69-9.7,6.71-14.75,5.41-13.46,14-25.14,22.65-35.88,16-19.86,33.53-35.71,56.81-38.3,8.19-.92,16.35-1.69,24.42-3.27,4.55-.89,8.88-2.78,13.27-4.37l.19-.37c-1.6-.48-3.23-1-5-1.38-20.22-4.71-39.19-1.78-58.72,5.33C241.42,36.38,224.25,41.75,212.79,54s-18.33,26.8-18.33,45.24C194.46,108.28,194.4,117.28,194.79,126.33Z" style="fill: #5f7808"/>
            <path d="M194.79,126.33a22.67,22.67,0,0,1,.78-2.23c2-5,4.69-9.7,6.71-14.75,5.41-13.46,14-25.14,22.65-35.88,16-19.86,33.53-35.71,56.81-38.3,8.19-.92,16.35-1.69,24.42-3.27,4.55-.89,8.88-2.78,13.27-4.37l.19-.37c-1.6-.48-3.23-1-5-1.38-20.22-4.71-39.19-1.78-58.72,5.33C241.42,36.38,224.25,41.75,212.79,54s-18.33,26.8-18.33,45.24C194.46,108.28,194.4,117.28,194.79,126.33Z" style="opacity: 0.30000000000000004;mix-blend-mode: multiply;fill: url(#linear-gradient-9)"/>
            <path d="M194.79,126.33v.24a88.17,88.17,0,0,1,10.51-8.64c4-2.85,9.24-4.84,12.66-8.56a91.44,91.44,0,0,1,11.8-10.91c8.7-6.75,15.37-17,24.49-23.66,6.61-4.82,13.27-10,20.68-13,7.77-3.19,15-5.3,22-10.81,7.53-5.95,17.38-13.28,22.49-23.44C315,29.12,310.71,31,306.16,31.9c-8.07,1.58-16.23,2.35-24.42,3.27-23.28,2.59-40.82,18.44-56.81,38.3-8.66,10.74-17.24,22.42-22.65,35.88-2,5.05-4.7,9.77-6.71,14.75A22.67,22.67,0,0,0,194.79,126.33Z" style="fill: #7fa00a"/>
            <path d="M194.79,126.33v.24a88.17,88.17,0,0,1,10.51-8.64c4-2.85,9.24-4.84,12.66-8.56a91.44,91.44,0,0,1,11.8-10.91c8.7-6.75,15.37-17,24.49-23.66,6.61-4.82,13.27-10,20.68-13,7.77-3.19,15-5.3,22-10.81,7.53-5.95,17.38-13.28,22.49-23.44C315,29.12,310.71,31,306.16,31.9c-8.07,1.58-16.23,2.35-24.42,3.27-23.28,2.59-40.82,18.44-56.81,38.3-8.66,10.74-17.24,22.42-22.65,35.88-2,5.05-4.7,9.77-6.71,14.75A22.67,22.67,0,0,0,194.79,126.33Z" style="opacity: 0.30000000000000004;mix-blend-mode: multiply;fill: url(#linear-gradient-10)"/>
            <path d="M156.81,102.84c1.31,6.43,4,12.65,6.7,18.33,1.05,2.25,2.38,4.43,3.65,6.66.8-2,1.63-4,2.49-6,1.13-2.69,2.32-5.32,3.53-7.89,7.11-15.29,17.92-30.55,28.37-42.77,14.78-17.28,27.61-36.34,46.52-47.42,4-2.34,8.19-3.7,11.86-6.51.86-.65,2.25-2.08,3.84-3.55l-.18-.07c-.74.07-1.43.17-2,.26a91.42,91.42,0,0,1-11.22.92c-9.28.48-18.58.29-27.7,2.52-11,2.71-20.89,9.82-30.29,17-6.63,5-11.06,12.29-16.53,18.82-.93,1.08-1.9,2.17-2.88,3.26-5,5.52-10.45,11.08-13.17,18.44C156.48,83.63,154.89,93.52,156.81,102.84Z" style="fill: #7fa00a"/>
            <path d="M156.81,102.84c1.31,6.43,4,12.65,6.7,18.33,1.05,2.25,2.38,4.43,3.65,6.66.8-2,1.63-4,2.49-6,1.13-2.69,2.32-5.32,3.53-7.89,7.11-15.29,17.92-30.55,28.37-42.77,14.78-17.28,27.61-36.34,46.52-47.42,4-2.34,8.19-3.7,11.86-6.51.86-.65,2.25-2.08,3.84-3.55l-.18-.07c-.74.07-1.43.17-2,.26a91.42,91.42,0,0,1-11.22.92c-9.28.48-18.58.29-27.7,2.52-11,2.71-20.89,9.82-30.29,17-6.63,5-11.06,12.29-16.53,18.82-.93,1.08-1.9,2.17-2.88,3.26-5,5.52-10.45,11.08-13.17,18.44C156.48,83.63,154.89,93.52,156.81,102.84Z" style="opacity: 0.5;mix-blend-mode: multiply;fill: url(#linear-gradient-11)"/>
            <path d="M172.94,56.36c1-1.09,1.95-2.18,2.88-3.26,5.47-6.53,9.9-13.84,16.53-18.82,9.4-7.14,19.27-14.25,30.29-17,9.12-2.23,18.42-2,27.7-2.52a91.42,91.42,0,0,0,11.22-.92c.6-.09,1.29-.19,2-.26l-1.26-.44c-4.39-1.5-9.61-1.33-14.26-1.64-11.94-.85-24.19-3.66-36,.89-12.36,4.79-23.94,12.27-31.49,25.23A79.73,79.73,0,0,0,172.94,56.36Z" style="fill: #5f7808"/>
            <path d="M100.56,4.23a27.11,27.11,0,0,1,.31,2.95c1.1,20.76,1.2,39.1,7.16,58.52,2.8,9.1,7.25,17.45,10.07,26.61,2.76,9,6.59,15.12,10.84,23.27,2.07,4,3.1,8.55,5.27,12.59,2.44,4.5,5.88,7.06,8.56,11.32,1.49,2.42,4.51,6.43,7.33,10.79.26-.9.51-1.79.75-2.69,3.7-13.42,6.5-27.45,9.42-40.74,5.3-24.11,1.65-51.55-10.47-71.24-2.68-4.36-4.73-8.91-8.64-11.67-3.34-2.36-7.19-3.55-10.59-5.75-6.85-4.4-13.9-7-21.15-10.4-1.39-.63-3.7-1.46-6.28-2.5C102.3,5,101.43,4.62,100.56,4.23Z" style="fill: #7fa00a"/>
            <g style="opacity: 0.5;mix-blend-mode: multiply">
              <path d="M100.56,4.23a27.11,27.11,0,0,1,.31,2.95c1.1,20.76,1.2,39.1,7.16,58.52,2.8,9.1,7.25,17.45,10.07,26.61,2.76,9,6.59,15.12,10.84,23.27,2.07,4,3.1,8.55,5.27,12.59,2.44,4.5,5.88,7.06,8.56,11.32,1.49,2.42,4.51,6.43,7.33,10.79.26-.9.51-1.79.75-2.69,3.7-13.42,6.5-27.45,9.42-40.74,5.3-24.11,1.65-51.55-10.47-71.24-2.68-4.36-4.73-8.91-8.64-11.67-3.34-2.36-7.19-3.55-10.59-5.75-6.85-4.4-13.9-7-21.15-10.4-1.39-.63-3.7-1.46-6.28-2.5C102.3,5,101.43,4.62,100.56,4.23Z" style="fill: url(#linear-gradient-12)"/>
            </g>
            <path d="M100.56,4.23a27.11,27.11,0,0,1,.31,2.95c1.1,20.76,1.2,39.1,7.16,58.52,2.8,9.1,7.25,17.45,10.07,26.61,2.76,9,6.59,15.12,10.84,23.27,2.07,4,3.1,8.55,5.27,12.59,2.44,4.5,5.88,7.06,8.56,11.32,1.49,2.42,4.51,6.43,7.33,10.79.26-.9.51-1.79.75-2.69-.31-6.05-1.25-12.41-1.64-15.84-1.34-11.76-4.36-23.4-6.68-35.06C138,73.9,129.46,51.45,119.61,31.37c-4.49-9.17-10.69-18.19-16.47-26.08C102.3,5,101.43,4.62,100.56,4.23Z" style="fill: #5f7808"/>
            <path d="M100.56,4.23a27.11,27.11,0,0,1,.31,2.95c1.1,20.76,1.2,39.1,7.16,58.52,2.8,9.1,7.25,17.45,10.07,26.61,2.76,9,6.59,15.12,10.84,23.27,2.07,4,3.1,8.55,5.27,12.59,2.44,4.5,5.88,7.06,8.56,11.32,1.49,2.42,4.51,6.43,7.33,10.79.26-.9.51-1.79.75-2.69-.31-6.05-1.25-12.41-1.64-15.84-1.34-11.76-4.36-23.4-6.68-35.06C138,73.9,129.46,51.45,119.61,31.37c-4.49-9.17-10.69-18.19-16.47-26.08C102.3,5,101.43,4.62,100.56,4.23Z" style="opacity: 0.5;mix-blend-mode: multiply;fill: url(#linear-gradient-13)"/>
            <path d="M129.26,74.43c5.54,5.93,11,12.29,15.89,18.61a96,96,0,0,1,13.49,22.54c1.63,3.88,4.17,8,6.24,12.42a46.55,46.55,0,0,1,5.46.72c9.14,1.09,13.77-3.84,14.1-15.09.32-10.89-7.54-20.25-16.48-26.52a48.84,48.84,0,0,0-16.87-7.81C144.22,77.85,136,77.05,129.26,74.43Z" style="fill: #5f7808"/>
            <path d="M129.26,74.43c5.54,5.93,11,12.29,15.89,18.61a96,96,0,0,1,13.49,22.54c1.63,3.88,4.17,8,6.24,12.42a46.55,46.55,0,0,1,5.46.72c9.14,1.09,13.77-3.84,14.1-15.09.32-10.89-7.54-20.25-16.48-26.52a48.84,48.84,0,0,0-16.87-7.81C144.22,77.85,136,77.05,129.26,74.43Z" style="opacity: 0.30000000000000004;mix-blend-mode: multiply;fill: url(#linear-gradient-14)"/>
            <path d="M24.26,76.11a62.31,62.31,0,0,1,8.64-4.36c8-3.51,14.58-3.51,23.16-2.88,8.22.6,16.21,1.21,24.67,1.21s16-3,24.67-2.42c7.65.46,15,2.78,22.13,6a18.57,18.57,0,0,0,1.73.72c6.71,2.62,15,3.42,21.83,4.87A48.84,48.84,0,0,1,168,87.11c-2.29-5.78-5.74-8.93-11.09-13.55C150.48,68.05,143.64,69,137,64.18c-14.48-10.57-27-30.39-44.2-33.44C77.91,28.08,58,30.74,45,39.38c-8.64,5.73-14.32,11.85-17.75,23.3C26.5,65.14,25.67,70.9,24.26,76.11Z" style="fill: #7fa00a"/>
            <path d="M172.74,67.64c.3,8.2-.53,16.79.78,24.87a127.5,127.5,0,0,0,5.08,19.32,107.26,107.26,0,0,0,6.72,15.63c.85,1.65,1.71,3.27,2.6,4.89.1-2.39.18-4.79.28-7.19.38-10.66,1.21-21.48,1.65-32.34.71-17.54,1.47-34.81,4.83-51.63a158.91,158.91,0,0,1,6.63-22.66c2.54-7.09,6.16-11.93,10-17.71a7,7,0,0,0-.81-.27l-.84-.19C198.61,2.29,188,13,181.39,23.12a54.3,54.3,0,0,0-7.47,20.52A120.07,120.07,0,0,0,172.74,67.64Z" style="fill: #5f7808"/>
            <path d="M172.74,67.64c.3,8.2-.53,16.79.78,24.87a127.5,127.5,0,0,0,5.08,19.32,107.26,107.26,0,0,0,6.72,15.63c.85,1.65,1.71,3.27,2.6,4.89.1-2.39.18-4.79.28-7.19.38-10.66,1.21-21.48,1.65-32.34.71-17.54,1.47-34.81,4.83-51.63a158.91,158.91,0,0,1,6.63-22.66c2.54-7.09,6.16-11.93,10-17.71a7,7,0,0,0-.81-.27l-.84-.19C198.61,2.29,188,13,181.39,23.12a54.3,54.3,0,0,0-7.47,20.52A120.07,120.07,0,0,0,172.74,67.64Z" style="opacity: 0.5;mix-blend-mode: multiply;fill: url(#linear-gradient-15)"/>
            <path d="M173.92,43.64a54.3,54.3,0,0,1,7.47-20.52C188,13,198.61,2.29,209.65.36c-10.43-2.06-22.11,5-29,14C174.73,22.11,173.66,33.09,173.92,43.64Z" style="fill: #7fa00a"/>
            <path d="M156.87,199.85c3.2,11,3.46,20.78,4.43,32.61.32,3.92.66,7.81,1,11.73v.05c.27.56.51,1.09.73,1.64.06.18.12.34.18.51a97,97,0,0,1,4.47-11.59c3.42-7.69,8.1-14.82,11.2-22.83s7.57-14.66,10.27-23.15c2.37-7.48,3.28-14.86,5.76-22.31,1.47-4.43,6.42-15.58,3.24-20s-11.88.58-15.19,2.42c-5.21,2.93-10.49,7.74-15.94,9.31a6.93,6.93,0,0,1-6.71-1.06,12.66,12.66,0,0,1-2.48,4.72C150,172.56,153.28,187.48,156.87,199.85Z" style="fill: #7fa00a"/>
            <path d="M104.55,168.06a66.91,66.91,0,0,0,5.68,27.72c3.46,7.6,7.31,13.36,13.25,18.34,7,5.81,14.18,8.27,21.71,12.31,6.24,3.32,13.55,10.31,17.09,17.76-.32-3.92-.66-7.81-1-11.73-1-11.83-1.23-21.58-4.43-32.61-3.59-12.37-6.89-27.29.94-37.91a12.66,12.66,0,0,0,2.48-4.72c.66-3.24-2-4.89-5.94-7.84-4.37-3.31-7.83-7.3-11.88-11.39-4.95-5-10.25-4.58-15.51-.82-4.69,3.33-9.52,5.68-13.57,10.2C108,153.37,104.55,158.84,104.55,168.06Z" style="fill: #5f7808"/>
            <path d="M113.39,147.37c4-4.52,8.88-6.87,13.57-10.2,5.26-3.76,10.56-4.21,15.51.82,4.05,4.09,7.51,8.08,11.88,11.39,3.89,3,6.6,4.6,5.94,7.84a6.93,6.93,0,0,0,6.71,1.06c5.45-1.57,10.73-6.38,15.94-9.31,3.31-1.84,11.89-6.94,15.19-2.42s-1.77,15.53-3.24,20c-2.48,7.45-3.39,14.83-5.76,22.31C186.43,197.31,182,204,178.86,212s-7.78,15.14-11.2,22.83a97,97,0,0,0-4.47,11.59c-.06-.17-.12-.33-.18-.51-.22-.55-.46-1.08-.73-1.64v-.05c-3.54-7.45-10.85-14.44-17.09-17.76-7.53-4-14.76-6.5-21.71-12.31-5.94-5-9.79-10.74-13.25-18.34a66.91,66.91,0,0,1-5.68-27.72C104.55,158.84,108,153.37,113.39,147.37Z" style="opacity: 0.5;mix-blend-mode: multiply;fill: url(#linear-gradient-16)"/>
            <path d="M198.77,236.47a45.56,45.56,0,0,1,2.34,5.16c.28.75.54,1.62.8,2.59l12.07-29c3.8-4.77,7.73-9.46,11.66-14.27,5.43-6.68,9.78-14.28,14.7-21.44,5.07-7.43,11.35-12.12,17.09-18.38-6.54,6.5-14.8,3.72-22.53,5.54-4.29,1-6.85,3.12-9.39,6.21h0c-1,1.21-2,2.54-3.06,4-5.19,7.11-12.18,12.85-15.62,21.53-4.57,11.59-6.93,24.27-8,37.09C198.81,235.84,198.79,236.16,198.77,236.47Z" style="fill: #7fa00a"/>
            <path d="M191.83,223.22c1.85,4.4,4.49,8.54,6.7,12.77.1-.15.2-.31.32-.46,1-12.82,3.39-25.5,8-37.09,3.44-8.68,10.43-14.42,15.62-21.53,1.09-1.5,2.08-2.83,3.06-4a39,39,0,0,0-5.55,1.07c-4.86,1.28-6.77,4.81-10.72,8.25-6.8,5.92-20.46,5.42-21.66,18.75C186.91,207.88,189.21,217,191.83,223.22Z" style="fill: #5f7808"/>
            <path d="M191.83,223.22c1.85,4.4,4.49,8.54,6.7,12.77.1-.15.2-.31.32-.46,1-12.82,3.39-25.5,8-37.09,3.44-8.68,10.43-14.42,15.62-21.53,1.09-1.5,2.08-2.83,3.06-4a39,39,0,0,0-5.55,1.07c-4.86,1.28-6.77,4.81-10.72,8.25-6.8,5.92-20.46,5.42-21.66,18.75C186.91,207.88,189.21,217,191.83,223.22Z" style="opacity: 0.5;mix-blend-mode: multiply;fill: url(#linear-gradient-17)"/>
            <path d="M210.43,206.33c7.84-.51,19.43,1.72,21.61,1.89a303.59,303.59,0,0,0,35.06.85c15-.63,28.63-4.31,43.31-7.6,7.8-1.74,15.35-3,22.8-5.11l.52-.14a60.71,60.71,0,0,0-11.9-17.56C311.22,168,295.29,166.1,282,165.37c-19.09-1-39.73-1.64-53.14,17.13-2.9,4.09-5.26,9.41-8.26,13.67a21.23,21.23,0,0,1-4.23,4.67A34,34,0,0,0,210.43,206.33Z" style="fill: #7fa00a"/>
            <path d="M187.74,289.31a31.32,31.32,0,0,0,10.51,14.35c6,4.79,12.12,8.83,17.3,15.09,5.59,6.75,11.33,13.38,17.19,19.62a76.91,76.91,0,0,1,18.79,33.92c.14.1.26.22.4.34,2.38-14,5.14-27.82,1.62-42.39C249.13,312,233.87,300,218.83,298.19c-6.32-.75-12.75-.39-18.87-2.15C195.25,294.7,191.54,292.24,187.74,289.31Z" style="fill: #7fa00a"/>
            <path d="M187.48,293.47c0,13.11-.79,28.11,6.4,39,4.37,6.58,10.33,8.44,16.41,11.44,9.37,4.65,17.3,12.61,25.68,19,4.35,3.31,11.17,5.47,15.56,9.41a76.91,76.91,0,0,0-18.79-33.92c-5.86-6.24-11.6-12.87-17.19-19.62-5.18-6.26-11.28-10.3-17.3-15.09a31.32,31.32,0,0,1-10.51-14.35,1.92,1.92,0,0,1-.38-.29C187.44,290.81,187.48,292.36,187.48,293.47Z" style="fill: #5f7808"/>
            <path d="M187.36,289a1.92,1.92,0,0,0,.38.29c3.8,2.93,7.51,5.39,12.22,6.73,6.12,1.76,12.55,1.4,18.87,2.15,15,1.81,30.3,13.84,34.72,32.05,3.52,14.57.76,28.41-1.62,42.39-.14-.12-.26-.24-.4-.34-4.39-3.94-11.21-6.1-15.56-9.41-8.38-6.36-16.31-14.32-25.68-19-6.08-3-12-4.86-16.41-11.44-7.19-10.89-6.4-25.89-6.4-39C187.48,292.36,187.44,290.81,187.36,289Z" style="opacity: 0.5;mix-blend-mode: multiply;fill: url(#linear-gradient-18)"/>
            <path d="M7.13,110.82A118.06,118.06,0,0,1,25.9,99.23c16.83-8.08,38.86-2.8,55.8,2.74,10.39,3.38,22.09,8.8,31.11,15.82,3.28,2.54,6.1,6.14,8.8,9.77.4.12.84.27,1.33.44a44.05,44.05,0,0,1,1.12-6.17c1.35-4.58,3.69-9.46,3.91-14.47.2-4.86-2-7.43-4.39-11-4.75-7.06-10.49-9.29-17.24-12.34C99,80.68,93,76.66,85,75.74a94.62,94.62,0,0,0-23.22.49c-6.59,1-12.69,5.53-18.73,8.61-7.31,3.72-15.52,7-22.33,11.64a55.4,55.4,0,0,0-9.56,8A25.86,25.86,0,0,0,7.13,110.82Z" style="fill: #7fa00a"/>
            <path d="M5.86,113.55c7.89-2.85,16-2.51,24.14-1.88,8.58.65,16.76,4.11,25.3,4.79s16.07,2.92,24.3,4.91c13.25,3.17,26.72,2.58,40,5.64.45.09,1.13.29,2,.55-2.7-3.63-5.52-7.23-8.8-9.77-9-7-20.72-12.44-31.11-15.82-16.94-5.54-39-10.82-55.8-2.74A118.06,118.06,0,0,0,7.13,110.82C6.68,111.72,6.28,112.63,5.86,113.55Z" style="fill: #5f7808"/>
            <g>
              <path d="M53,346.69c1.09,15.17,10.37,27.61,13.83,41.69a101.69,101.69,0,0,0,1.33-17.13c0-17.54.32-34.06,6-50.66,6.71-19.72,20.1-30,34.28-41.42,6.44-5.22,11.37-9.7,16.15-17a10.68,10.68,0,0,1-2.6-.51c-3.71-1.57-7-3.22-11.16-3.46-8.64-.51-17,7.82-24.32,12.56C65.41,284.33,51,318.07,53,346.69Z" style="fill: #7fa00a"/>
              <g style="opacity: 0.5;mix-blend-mode: multiply">
                <path d="M53,346.69c1.09,15.17,10.37,27.61,13.83,41.69a101.69,101.69,0,0,0,1.33-17.13c0-17.54.32-34.06,6-50.66,6.71-19.72,20.1-30,34.28-41.42,6.44-5.22,11.37-9.7,16.15-17a10.68,10.68,0,0,1-2.6-.51c-3.71-1.57-7-3.22-11.16-3.46-8.64-.51-17,7.82-24.32,12.56C65.41,284.33,51,318.07,53,346.69Z" style="fill: url(#linear-gradient-19)"/>
              </g>
              <path d="M66.83,388.38c0,.14.06.26.11.41a58.27,58.27,0,0,1,4.43-6c4.87-5.79,9.9-9.9,13.25-17.32,3.84-8.57,7.93-16.58,10.65-25.91,4.61-15.9,14.42-27.49,20.84-42.12,4.71-10.77,7.73-23.08,9.46-35.2-.34,0-.68-.05-1-.1-4.78,7.28-9.71,11.76-16.15,17-14.18,11.45-27.57,21.7-34.28,41.42-5.66,16.6-6,33.12-6,50.66A101.69,101.69,0,0,1,66.83,388.38Z" style="fill: #5f7808"/>
              <path d="M66.83,388.38c0,.14.06.26.11.41a58.27,58.27,0,0,1,4.43-6c4.87-5.79,9.9-9.9,13.25-17.32,3.84-8.57,7.93-16.58,10.65-25.91,4.61-15.9,14.42-27.49,20.84-42.12,4.71-10.77,7.73-23.08,9.46-35.2-.34,0-.68-.05-1-.1-4.78,7.28-9.71,11.76-16.15,17-14.18,11.45-27.57,21.7-34.28,41.42-5.66,16.6-6,33.12-6,50.66A101.69,101.69,0,0,1,66.83,388.38Z" style="opacity: 0.5;mix-blend-mode: multiply;fill: url(#linear-gradient-20)"/>
            </g>
            <path d="M247.1,195.56c-15.57,6.5-34.1,3.52-45.64,18.66-10.74,14.1-10.43,36.09-15.76,53.59-2.23,7.33-4.2,14.8-6.63,22.07-3.76,11.28-9.28,24.83-10.5,36.69" style="fill: none;stroke: #37311f;stroke-miterlimit: 10"/>
            <path d="M210.43,206.33c7.84-.51,19.43,1.72,21.61,1.89a303.59,303.59,0,0,0,35.06.85c15-.63,28.63-4.31,43.31-7.6,7.8-1.74,15.35-3,22.8-5.11-3.26-.75-6.59-1.45-9.95-2.39-18.1-5.06-36.15-6-54.57-8-12.79-1.41-24.29,4.18-36.29,7.25-4,1.05-8,1.7-11.82,3a21.23,21.23,0,0,1-4.23,4.67A34,34,0,0,0,210.43,206.33Z" style="fill: #5f7808"/>
            <g>
              <path d="M158.56,354.56c3.7-2.74,7.83-4.86,10-6.34,8.07-5.47,17.7-12.44,22.47-22.31,4.27-8.78,6.42-19,7.55-28.91s2.56-17.95-1.93-27.09c-3.85-7.82-8.22-11.74-16-10.72a8.88,8.88,0,0,0-3.59,1.5c1.37,2.44-.86,11.44-1.3,14-1.13,6.39-2.4,13-3.93,19.26-2.78,11.36-4.75,22.81-7.31,34.18-1.57,7-3.71,13.86-4.83,20.73C159.4,350.73,159,352.67,158.56,354.56Z" style="fill: #7fa00a"/>
              <path d="M149.32,298.6c.26,6.1-.09,11.54,1.16,17.47.83,3.84,6.75,25.08,7.43,39,.23-.17.43-.34.65-.48.46-1.89.84-3.83,1.17-5.74,1.12-6.87,3.26-13.76,4.83-20.73,2.56-11.37,4.53-22.82,7.31-34.18,1.53-6.29,2.8-12.87,3.93-19.26.44-2.52,2.67-11.52,1.3-14,0-.05,0-.07-.06-.12-2.27-3.41-13.49-.12-16.33,1.19-7,3.28-12.76,9.79-13.19,19.37C147.26,287.09,149.05,292.72,149.32,298.6Z" style="fill: #5f7808"/>
            </g>
            <path d="M147.52,281.13c.43-9.58,6.17-16.09,13.19-19.37,2.84-1.31,14.06-4.6,16.33-1.19,0,.05.06.07.06.12a8.88,8.88,0,0,1,3.59-1.5c7.75-1,12.12,2.9,16,10.72,4.49,9.14,3.1,17.1,1.93,27.09s-3.28,20.13-7.55,28.91c-4.77,9.87-14.4,16.84-22.47,22.31-2.18,1.48-6.31,3.6-10,6.34-.22.14-.42.31-.65.48-.68-13.89-6.6-35.13-7.43-39-1.25-5.93-.9-11.37-1.16-17.47C149.05,292.72,147.26,287.09,147.52,281.13Z" style="opacity: 0.5;mix-blend-mode: multiply;fill: url(#linear-gradient-21)"/>
          </g>
          <g style="opacity: 0.5;mix-blend-mode: multiply">
            <path d="M210.43,206.33c7.84-.51,19.43,1.72,21.61,1.89a303.59,303.59,0,0,0,35.06.85c15-.63,28.63-4.31,43.31-7.6,7.8-1.74,15.35-3,22.8-5.11l.52-.14a60.71,60.71,0,0,0-11.9-17.56C311.22,168,295.29,166.1,282,165.37c-19.09-1-39.73-1.64-53.14,17.13-2.9,4.09-5.26,9.41-8.26,13.67a21.23,21.23,0,0,1-4.23,4.67A34,34,0,0,0,210.43,206.33Z" style="fill: url(#linear-gradient-22)"/>
          </g>
        </g>
      </g>
    </g>
  </g>
</svg>
