<svg xmlns="http://www.w3.org/2000/svg" xmlns:xlink="http://www.w3.org/1999/xlink" viewBox="0 0 1920 963">
  <defs>
    <linearGradient id="linear-gradient" x1="1354.59" y1="621.12" x2="1777.05" y2="621.12" gradientTransform="matrix(-1, 0, 0, 1, 1920, 0)" gradientUnits="userSpaceOnUse">
      <stop offset="0"/>
      <stop offset="1"/>
    </linearGradient>
    <linearGradient id="linear-gradient-2" x1="1661.32" y1="571.65" x2="1689.98" y2="571.65" gradientTransform="matrix(-1, 0, 0, 1, 1920, 0)" gradientUnits="userSpaceOnUse">
      <stop offset="0"/>
      <stop offset="0.13" stop-color="#040404"/>
      <stop offset="0.25" stop-color="#101010"/>
      <stop offset="0.38" stop-color="#242424"/>
      <stop offset="0.5" stop-color="#404040"/>
      <stop offset="0.63" stop-color="#646464"/>
      <stop offset="0.75" stop-color="#909090"/>
      <stop offset="0.88" stop-color="#c4c4c4"/>
      <stop offset="1" stop-color="#fff"/>
    </linearGradient>
    <linearGradient id="linear-gradient-3" x1="1622.65" y1="571.65" x2="1646.47" y2="571.65" xlink:href="#linear-gradient-2"/>
    <linearGradient id="linear-gradient-4" x1="1417.85" y1="571.65" x2="1446.51" y2="571.65" xlink:href="#linear-gradient-2"/>
    <linearGradient id="linear-gradient-5" x1="1461.36" y1="571.65" x2="1485.19" y2="571.65" xlink:href="#linear-gradient-2"/>
    <linearGradient id="linear-gradient-6" x1="1300.63" y1="103.27" x2="1364.88" y2="103.27" gradientTransform="matrix(-1, 0, 0, 1, 1920, 0)" gradientUnits="userSpaceOnUse">
      <stop offset="0"/>
      <stop offset="1" stop-color="#fff"/>
    </linearGradient>
    <linearGradient id="linear-gradient-7" x1="1405.2" y1="129.09" x2="1442.46" y2="129.09" xlink:href="#linear-gradient-6"/>
    <linearGradient id="linear-gradient-8" x1="1400.76" y1="91.45" x2="1443.35" y2="91.45" xlink:href="#linear-gradient-6"/>
    <linearGradient id="linear-gradient-9" x1="1363.66" y1="113.9" x2="1395.92" y2="113.9" xlink:href="#linear-gradient-6"/>
    <linearGradient id="linear-gradient-10" x1="1336.17" y1="47.78" x2="1389.48" y2="47.78" xlink:href="#linear-gradient-6"/>
    <linearGradient id="linear-gradient-11" x1="1390.35" y1="55.76" x2="1434.64" y2="55.76" xlink:href="#linear-gradient-6"/>
    <linearGradient id="linear-gradient-12" x1="1339.48" y1="704.28" x2="1339.48" y2="225.8" gradientTransform="matrix(-1, 0, 0, 1, 1920, 0)" gradientUnits="userSpaceOnUse">
      <stop offset="0" stop-color="#fff" stop-opacity="0"/>
      <stop offset="0.63" stop-color="#fff" stop-opacity="0.64"/>
      <stop offset="1" stop-color="#fff"/>
    </linearGradient>
    <linearGradient id="linear-gradient-13" x1="1375.13" y1="694.74" x2="1678.5" y2="694.74" gradientTransform="matrix(-1, 0, 0, 1, 1920, 0)" gradientUnits="userSpaceOnUse">
      <stop offset="0"/>
      <stop offset="0.99" stop-color="#000100"/>
    </linearGradient>
    <linearGradient id="linear-gradient-14" x1="1477.38" y1="686.11" x2="1572.1" y2="686.11" xlink:href="#linear-gradient-2"/>
    <linearGradient id="linear-gradient-15" x1="1275.9" y1="262.26" x2="1405.44" y2="262.26" gradientTransform="matrix(-1, 0, 0, 1, 1920, 0)" gradientUnits="userSpaceOnUse">
      <stop offset="0" stop-color="#fff"/>
      <stop offset="1"/>
    </linearGradient>
  </defs>
  <g style="isolation: isolate">
    <g id="BACKGROUND">
      <path d="M0,0V963H1920V0ZM1742.13,499.6h-601V96h601Z" transform="translate(0)" style="fill: #aaabb3"/>
      <rect y="602.79" width="1920" height="360.21" style="fill: #f3c5ad"/>
      <rect y="602.79" width="1920" height="15.11" style="fill: #e6b092"/>
      <rect y="582.11" width="1920" height="20.68" style="fill: #88898f"/>
    </g>
    <g id="OBJECTS">
      <g>
        <path d="M178.41,602.79H529.84a13,13,0,0,1,9.33,3.93l25,25.55a4.22,4.22,0,0,1-3,7.17H147.61a4.65,4.65,0,0,1-3.2-8l27.36-26A9.65,9.65,0,0,1,178.41,602.79Z" transform="translate(0)" style="opacity: 0.5;mix-blend-mode: multiply;fill: url(#linear-gradient)"/>
        <g>
          <g>
            <g>
              <g>
                <polygon points="210.76 623.62 220.66 623.62 251.52 577.05 258.68 566.24 261.97 561.27 236.55 561.27 234.49 566.24 230.02 577.05 210.76 623.62" style="fill: #3d3d3d"/>
                <polygon points="230.02 577.05 251.52 577.05 258.68 566.24 234.49 566.24 230.02 577.05" style="opacity: 0.5;mix-blend-mode: multiply;fill: url(#linear-gradient-2)"/>
                <polygon points="259.2 611.74 267.19 611.74 290.19 577.05 297.35 566.24 300.65 561.27 280.06 561.27 278 566.24 273.53 577.05 259.2 611.74" style="fill: #313131"/>
                <polygon points="278 566.24 273.53 577.05 290.19 577.05 297.35 566.24 278 566.24" style="opacity: 0.5;mix-blend-mode: multiply;fill: url(#linear-gradient-3)"/>
              </g>
              <g>
                <polygon points="470.19 561.27 473.49 566.24 480.65 577.05 511.51 623.62 521.41 623.62 502.15 577.05 497.68 566.24 495.62 561.27 470.19 561.27" style="fill: #3d3d3d"/>
                <polygon points="497.68 566.24 473.49 566.24 480.65 577.05 502.15 577.05 497.68 566.24" style="opacity: 0.5;mix-blend-mode: multiply;fill: url(#linear-gradient-4)"/>
                <polygon points="431.52 561.27 434.81 566.24 441.98 577.05 464.97 611.74 472.97 611.74 458.64 577.05 454.17 566.24 452.11 561.27 431.52 561.27" style="fill: #313131"/>
                <polygon points="454.17 566.24 434.81 566.24 441.98 577.05 458.64 577.05 454.17 566.24" style="opacity: 0.5;mix-blend-mode: multiply;fill: url(#linear-gradient-5)"/>
              </g>
            </g>
            <g>
              <g>
                <path d="M173,61.52v499H559.16V228H430.44V61.52Zm198.42,447h182v46.21H371.43Zm0-52h182v40.43H371.43Zm0-57.78h182v46.22H371.43ZM178.79,508.48H359.87v46.21H178.79Zm0-52H359.87v40.43H178.79Zm0-57.78H359.87v46.22H178.79Z" transform="translate(0)" style="fill: #222"/>
                <polygon points="301.73 107.03 430.44 181.24 430.44 61.52 301.73 61.52 301.73 107.03" style="fill: #1b1b1b"/>
                <polygon points="173.01 107.03 301.73 181.24 301.73 61.52 173.01 61.52 173.01 107.03" style="fill: #1b1b1b"/>
                <polygon points="301.73 273.48 430.44 347.69 430.44 227.97 301.73 227.97 301.73 273.48" style="fill: #1b1b1b"/>
                <polygon points="173.01 273.48 301.73 347.69 301.73 227.97 173.01 227.97 173.01 273.48" style="fill: #1b1b1b"/>
                <polygon points="429.14 273.48 557.86 347.69 557.86 227.97 429.14 227.97 429.14 273.48" style="fill: #1b1b1b"/>
                <g>
                  <g>
                    <rect x="397.68" y="86.65" width="26.6" height="135.3" style="fill: #898585"/>
                    <rect x="417.2" y="86.65" width="7.08" height="135.3" style="fill: #1b1b1b;opacity: 0.4;mix-blend-mode: multiply"/>
                  </g>
                  <g>
                    <rect x="352.42" y="110.82" width="17.8" height="111.13" style="fill: #676464"/>
                    <rect x="365.48" y="110.82" width="4.74" height="111.13" style="fill: #1b1b1b;opacity: 0.4;mix-blend-mode: multiply"/>
                  </g>
                  <g>
                    <rect x="334.62" y="86.65" width="17.8" height="135.3" style="fill: #46455a"/>
                    <rect x="347.68" y="86.65" width="4.74" height="135.3" style="fill: #1b1b1b;opacity: 0.4;mix-blend-mode: multiply"/>
                  </g>
                  <g>
                    <rect x="370.22" y="100.83" width="27.45" height="121.12" style="fill: #bd542b"/>
                    <g>
                      <rect x="370.22" y="125.17" width="27.45" height="3.32" style="fill: #4c4c4c"/>
                      <rect x="370.22" y="194.3" width="27.45" height="3.31" style="fill: #4c4c4c"/>
                    </g>
                    <rect x="390.37" y="100.83" width="7.31" height="121.12" style="fill: #1b1b1b;opacity: 0.4;mix-blend-mode: multiply"/>
                  </g>
                </g>
                <g>
                  <g>
                    <rect x="533.2" y="284.91" width="20.18" height="102.48" style="fill: #898585"/>
                    <g>
                      <rect x="533.2" y="305.51" width="20.18" height="2.8" style="fill: #4c4c4c"/>
                      <rect x="533.2" y="364" width="20.18" height="2.8" style="fill: #4c4c4c"/>
                    </g>
                    <rect x="548.01" y="284.91" width="5.37" height="102.48" style="fill: #1b1b1b;opacity: 0.4;mix-blend-mode: multiply"/>
                  </g>
                  <g>
                    <rect x="513.02" y="293.76" width="20.18" height="93.64" style="fill: #676464"/>
                    <g>
                      <rect x="513.02" y="312.58" width="20.18" height="2.56" style="fill: #4c4c4c"/>
                      <rect x="513.02" y="366.02" width="20.18" height="2.56" style="fill: #4c4c4c"/>
                    </g>
                    <rect x="527.83" y="293.76" width="5.37" height="93.64" style="fill: #1b1b1b;opacity: 0.4;mix-blend-mode: multiply"/>
                  </g>
                  <g>
                    <rect x="492.84" y="301.49" width="20.18" height="85.9" style="fill: #bd542b"/>
                    <g>
                      <rect x="492.84" y="318.76" width="20.18" height="2.35" style="fill: #4c4c4c"/>
                      <rect x="492.84" y="367.78" width="20.18" height="2.35" style="fill: #4c4c4c"/>
                    </g>
                    <rect x="507.65" y="301.49" width="5.37" height="85.9" style="fill: #1b1b1b;opacity: 0.4;mix-blend-mode: multiply"/>
                  </g>
                  <g>
                    <rect x="472.66" y="291.91" width="20.18" height="95.48" style="fill: #46455a"/>
                    <g>
                      <rect x="472.66" y="311.1" width="20.18" height="2.61" style="fill: #353444"/>
                      <rect x="472.66" y="365.59" width="20.18" height="2.61" style="fill: #353444"/>
                    </g>
                    <rect x="487.47" y="291.91" width="5.37" height="95.48" style="fill: #1b1b1b;opacity: 0.4;mix-blend-mode: multiply"/>
                  </g>
                  <g>
                    <rect x="452.48" y="270.18" width="20.18" height="117.22" style="fill: #676464"/>
                    <g>
                      <rect x="452.48" y="293.73" width="20.18" height="3.21" style="fill: #4c4c4c"/>
                      <rect x="452.48" y="360.63" width="20.18" height="3.21" style="fill: #4c4c4c"/>
                    </g>
                    <rect x="467.29" y="270.18" width="5.37" height="117.22" style="fill: #1b1b1b;opacity: 0.4;mix-blend-mode: multiply"/>
                  </g>
                </g>
                <g>
                  <g>
                    <rect x="277.83" y="284.21" width="17.98" height="103.19" style="fill: #bd542b"/>
                    <rect x="293.2" y="284.21" width="2.61" height="103.19" style="fill: #1b1b1b;opacity: 0.4;mix-blend-mode: multiply"/>
                  </g>
                  <g>
                    <rect x="241.93" y="295.01" width="17.98" height="92.39" style="fill: #46455a"/>
                    <rect x="257.3" y="295.01" width="2.61" height="92.39" style="fill: #1b1b1b;opacity: 0.4;mix-blend-mode: multiply"/>
                  </g>
                  <g>
                    <rect x="223.95" y="273.75" width="17.98" height="113.64" style="fill: #46455a"/>
                    <rect x="239.32" y="273.75" width="2.61" height="113.64" style="fill: #1b1b1b;opacity: 0.4;mix-blend-mode: multiply"/>
                  </g>
                  <g>
                    <rect x="205.98" y="273.75" width="17.98" height="113.64" style="fill: #bd542b"/>
                    <rect x="221.34" y="273.75" width="2.61" height="113.64" style="fill: #1b1b1b;opacity: 0.4;mix-blend-mode: multiply"/>
                  </g>
                  <g>
                    <rect x="259.91" y="261.65" width="17.98" height="125.74" style="fill: #726f6e"/>
                    <rect x="275.27" y="261.65" width="2.61" height="125.74" style="fill: #1b1b1b;opacity: 0.4;mix-blend-mode: multiply"/>
                  </g>
                </g>
                <g>
                  <g>
                    <rect x="314.06" y="369.42" width="103.19" height="17.98" style="fill: #bd542b"/>
                    <rect x="314.06" y="384.78" width="103.19" height="2.61" style="fill: #8e3f20"/>
                    <path d="M365.65,370.94c-13.33,0-24.14,2.69-24.14,6s10.81,6,24.14,6,24.14-2.68,24.14-6S379,370.94,365.65,370.94Z" transform="translate(0)" style="fill: #ca7655"/>
                  </g>
                  <g>
                    <rect x="314.06" y="351.44" width="80.58" height="17.98" style="fill: #46455a"/>
                    <rect x="314.06" y="366.81" width="80.58" height="2.61" style="fill: #1b1b1b;opacity: 0.4;mix-blend-mode: multiply"/>
                    <path d="M354.35,353c-10.41,0-18.86,2.68-18.86,6s8.45,6,18.86,6,18.85-2.68,18.85-6S364.76,353,354.35,353Z" transform="translate(0)" style="fill: #1b1b1b;opacity: 0.4;mix-blend-mode: multiply"/>
                  </g>
                  <g>
                    <rect x="314.06" y="333.46" width="103.19" height="17.98" style="fill: #bd542b"/>
                    <rect x="314.06" y="348.83" width="103.19" height="2.61" style="fill: #8e3f20"/>
                    <path d="M365.65,335c-13.33,0-24.14,2.68-24.14,6s10.81,6,24.14,6,24.14-2.69,24.14-6S379,335,365.65,335Z" transform="translate(0)" style="fill: #ca7655"/>
                  </g>
                  <g>
                    <rect x="332.27" y="315.49" width="84.98" height="17.98" style="fill: #726f6e"/>
                    <rect x="332.27" y="330.85" width="84.98" height="2.61" style="fill: #1b1b1b;opacity: 0.4;mix-blend-mode: multiply"/>
                    <path d="M374.75,317c-11,0-19.88,2.69-19.88,6s8.91,6,19.88,6,19.89-2.68,19.89-6S385.74,317,374.75,317Z" transform="translate(0)" style="fill: #353444"/>
                  </g>
                </g>
                <g>
                  <g>
                    <rect x="241.88" y="138.66" width="17.98" height="83.29" style="fill: #898585"/>
                    <rect x="257.24" y="138.66" width="2.61" height="83.29" style="fill: #726f6e;mix-blend-mode: multiply"/>
                    <path d="M243.41,180.31c0,10.76,2.68,19.49,6,19.49s6-8.73,6-19.49-2.68-19.49-6-19.49S243.41,169.54,243.41,180.31Z" transform="translate(0)" style="fill: #726f6e"/>
                  </g>
                  <g>
                    <rect x="277.83" y="118.77" width="17.98" height="103.18" style="fill: #898585"/>
                    <rect x="293.2" y="118.77" width="2.61" height="103.18" style="fill: #726f6e;mix-blend-mode: multiply"/>
                    <path d="M279.36,170.36c0,13.34,2.68,24.15,6,24.15s6-10.81,6-24.15-2.68-24.14-6-24.14S279.36,157,279.36,170.36Z" transform="translate(0)" style="fill: #9a9597"/>
                  </g>
                  <g>
                    <rect x="259.86" y="125.17" width="17.98" height="96.78" style="fill: #46455a"/>
                    <rect x="275.22" y="125.17" width="2.61" height="96.78" style="fill: #1b1b1b;opacity: 0.4;mix-blend-mode: multiply"/>
                    <path d="M261.38,173.57c0,12.5,2.69,22.64,6,22.64s6-10.14,6-22.64-2.68-22.65-6-22.65S261.38,161.06,261.38,173.57Z" transform="translate(0)" style="fill: #898585"/>
                  </g>
                  <g>
                    <rect x="223.9" y="138.66" width="17.98" height="83.29" style="fill: #726f6e"/>
                    <rect x="239.27" y="138.66" width="2.61" height="83.29" style="fill: #726f6e;mix-blend-mode: multiply"/>
                    <path d="M225.43,180.31c0,10.76,2.68,19.49,6,19.49s6-8.73,6-19.49-2.69-19.49-6-19.49S225.43,169.54,225.43,180.31Z" transform="translate(0)" style="fill: #9a9597"/>
                  </g>
                </g>
              </g>
              <line x1="301.73" y1="61.51" x2="301.73" y2="560.47" style="fill: #222"/>
              <line x1="173.01" y1="392.95" x2="558.29" y2="392.95" style="fill: #222"/>
            </g>
            <path d="M167.23,55.74v510.5h397.7V222.18H436.22V55.74Zm192.64,343v46.22H178.79V398.72ZM178.79,387.16V233.74H296V387.16Zm0,109.77V456.5H359.87v40.43Zm181.08,11.55v46.21H178.79V508.48ZM307.5,67.29H424.66V222.18H307.5ZM424.66,233.74V387.16H307.5V233.74Zm128.72,165v46.22H371.43V398.72Zm0,57.78v40.43H371.43V456.5ZM436.22,233.74H553.38V387.16H436.22Zm117.16,321H371.43V508.48h182ZM178.79,67.29H296V222.18H178.79Z" transform="translate(0)" style="fill: #464646"/>
            <path d="M178.79,508.48v46.21H359.87V508.48H296.14c-.6,9.09-12.36,16.34-26.81,16.34s-26.21-7.25-26.81-16.34Z" transform="translate(0)" style="fill: #383838"/>
            <path d="M371.43,508.48v46.21h182V508.48H489.2c-.59,9.09-12.36,16.34-26.81,16.34s-26.19-7.25-26.79-16.34Z" transform="translate(0)" style="fill: #383838"/>
            <path d="M371.43,456.5v40.43h182V456.5H489.24c0,9.44-12,17.08-26.85,17.08s-26.83-7.64-26.83-17.08Z" transform="translate(0)" style="fill: #383838"/>
            <path d="M178.79,456.5v40.43H359.87V456.5H296.18c0,9.44-12,17.08-26.85,17.08s-26.85-7.64-26.85-17.08Z" transform="translate(0)" style="fill: #383838"/>
            <path d="M178.79,398.72v46.22H359.87V398.72H296.18c0,9.44-12,17.08-26.85,17.08s-26.85-7.64-26.85-17.08Z" transform="translate(0)" style="fill: #383838"/>
            <path d="M371.43,398.72v46.22h182V398.72H489.24c0,9.44-12,17.08-26.85,17.08s-26.83-7.64-26.83-17.08Z" transform="translate(0)" style="fill: #383838"/>
            <path d="M435.56,398.72c0,9.44,12,17.08,26.83,17.08s26.85-7.64,26.85-17.08Z" transform="translate(0)" style="fill: #222"/>
            <path d="M435.56,456.5c0,9.44,12,17.08,26.83,17.08s26.85-7.64,26.85-17.08Z" transform="translate(0)" style="fill: #222"/>
            <path d="M435.6,508.48c.6,9.09,12.37,16.34,26.79,16.34s26.22-7.25,26.81-16.34Z" transform="translate(0)" style="fill: #222"/>
            <path d="M242.48,398.72c0,9.44,12,17.08,26.85,17.08s26.85-7.64,26.85-17.08Z" transform="translate(0)" style="fill: #222"/>
            <path d="M242.48,456.5c0,9.44,12,17.08,26.85,17.08s26.85-7.64,26.85-17.08Z" transform="translate(0)" style="fill: #222"/>
            <path d="M242.52,508.48c.6,9.09,12.37,16.34,26.81,16.34s26.21-7.25,26.81-16.34Z" transform="translate(0)" style="fill: #222"/>
            <g>
              <rect x="371.43" y="398.87" width="181.95" height="5.68" style="fill: #383838;opacity: 0.30000000000000004;mix-blend-mode: multiply"/>
              <rect x="371.43" y="456.5" width="181.95" height="5.68" style="fill: #383838;opacity: 0.30000000000000004;mix-blend-mode: multiply"/>
              <rect x="371.43" y="508.48" width="181.95" height="5.68" style="fill: #383838;opacity: 0.30000000000000004;mix-blend-mode: multiply"/>
              <rect x="177.92" y="398.72" width="181.95" height="5.68" style="fill: #383838;opacity: 0.30000000000000004;mix-blend-mode: multiply"/>
              <rect x="177.92" y="456.5" width="181.95" height="5.68" style="fill: #383838;opacity: 0.30000000000000004;mix-blend-mode: multiply"/>
              <rect x="177.92" y="508.48" width="181.95" height="5.68" style="fill: #383838;opacity: 0.30000000000000004;mix-blend-mode: multiply"/>
            </g>
          </g>
          <g>
            <g>
              <g>
                <path d="M619.37,82.93a10.77,10.77,0,0,1-1.48,3.33s0,0,0,0c-7.16,11.3-35.52,26.46-35.52,26.46-16.28,10.16-22.9,11-24.81,10.94a3.36,3.36,0,0,1-.62-.07l2.32-1.33,0,0,2.26-1.3.05,0c10.32-6,34.77-20.13,42.47-24.82C604.07,96.08,614.11,89.35,619.37,82.93Z" transform="translate(0)" style="fill: #6b862b"/>
                <path d="M619.37,82.93c-5.26,6.42-15.3,13.15-15.3,13.15-7.7,4.69-32.15,18.85-42.47,24.82l-.05,0-2.26,1.3,0,0-2.32,1.33a9.42,9.42,0,0,1-.46-.89c-6.37-13.27,12.06-24.79,12.06-24.79a76.2,76.2,0,0,1,14-7.44L584.75,95l.54-5.54a102.49,102.49,0,0,1,15.25-4.3l-2.43,6.62L603,84.69c3.74-.67,7.2-1.1,10.19-1.38l-1,3.67,2.7-3.8c1.31-.1,2.51-.17,3.57-.21Z" transform="translate(0)" style="fill: #84a33d"/>
                <path d="M619.37,82.93c-5.26,6.42-15.3,13.15-15.3,13.15-7.7,4.69-32.15,18.85-42.47,24.82l-.05,0-2.26,1.3,0,0-2.32,1.33a9.42,9.42,0,0,1-.46-.89c-6.37-13.27,12.06-24.79,12.06-24.79a76.2,76.2,0,0,1,14-7.44L584.75,95l.54-5.54a102.49,102.49,0,0,1,15.25-4.3l-2.43,6.62L603,84.69c3.74-.67,7.2-1.1,10.19-1.38l-1,3.67,2.7-3.8c1.31-.1,2.51-.17,3.57-.21Z" transform="translate(0)" style="opacity: 0.5;mix-blend-mode: multiply;fill: url(#linear-gradient-6)"/>
                <path d="M619.37,82.93a10.77,10.77,0,0,1-1.48,3.33s0,0,0,0a24.94,24.94,0,0,1-3.4,3c-3.07,2.39-5.74,4.37-8.17,6-3.33,2.31-6.82,4.34-10.22,6.31-2.26,1.32-4.62,2.68-6.88,4.11-3.85,2.43-7.88,4.62-11.77,6.75-2.35,1.29-4.71,2.56-7,3.91-2.68,1.53-5.48,2.89-8.19,4.21l-.62.3-.05,0-.59.29a10.61,10.61,0,0,0-1.67,1l0,0a16.12,16.12,0,0,0-1.7,1.4,46.78,46.78,0,0,0-3.45,3.45,23.69,23.69,0,0,0-3.76,6.46c-.49,1.1-1,2.22-1.58,3.29l-1.33,2.47c-1.47,2.75-2.93,5.47-4.32,8.2a107.68,107.68,0,0,0-9.46,25.86,63,63,0,0,0-1.11,8.66c-.1,1.09-.19,2.2-.29,3.32,0,.35-.06,1-.09,1.71-.16,4-.33,5.83-1,6.38a1,1,0,0,1-.62.23h-.09l.15-1.39a.55.55,0,0,0-.47.16c.37-.54.5-4,.56-5.44,0-.77.06-1.43.09-1.77.11-1.13.2-2.22.29-3.31a64.9,64.9,0,0,1,1.14-8.83A109,109,0,0,1,541.75,147c1.41-2.75,2.87-5.49,4.35-8.24l1.32-2.46c.55-1,1.05-2.13,1.54-3.2a24.33,24.33,0,0,1,4-6.84c1.14-1.21,2.3-2.44,3.5-3.5a17.18,17.18,0,0,1,3.82-2.73l1.26-.61c2.69-1.31,5.46-2.67,8.09-4.17,2.34-1.34,4.69-2.64,7.06-3.93,3.87-2.11,7.87-4.3,11.67-6.7,2.3-1.45,4.66-2.82,6.94-4.14,3.36-2,6.84-4,10.13-6.24,2.4-1.67,5-3.63,8.09-6a19.18,19.18,0,0,0,3.84-3.57,15.17,15.17,0,0,0,1-1.57s0-.07.06-.09Z" transform="translate(0)" style="fill: #37311f"/>
                <path d="M514.8,150.48a6.09,6.09,0,0,1-.71.17c-3.7.75-8.86-.53-11.23-1.6a44.65,44.65,0,0,1-16.92-13.91c-.48-.65-.93-1.33-1.36-2l3.28-4.06L483.32,131a45.14,45.14,0,0,1-3-7l4.3-2.57h-5.09c-.48-1.78-.88-3.57-1.19-5.33-.06-.33-.15-.8-.25-1.35l2.81-.44s-1.54-.37-3-.76c-.37-2.2-.63-4.92.4-5.81a1.88,1.88,0,0,1,.18-.12,1.93,1.93,0,0,1,.8-.24c.84.78,1.66,1.57,2.45,2.27,2.86,2.52,4.94,5.69,7.49,8.55,5.87,6.62,11.29,13.61,16.95,20.32A66.53,66.53,0,0,1,514.8,150.48Z" transform="translate(0)" style="fill: #84a33d"/>
                <path d="M514.8,150.48a6.09,6.09,0,0,1-.71.17c-3.7.75-8.86-.53-11.23-1.6a44.65,44.65,0,0,1-16.92-13.91c-.48-.65-.93-1.33-1.36-2l3.28-4.06L483.32,131a45.14,45.14,0,0,1-3-7l4.3-2.57h-5.09c-.48-1.78-.88-3.57-1.19-5.33-.06-.33-.15-.8-.25-1.35l2.81-.44s-1.54-.37-3-.76c-.37-2.2-.63-4.92.4-5.81a1.88,1.88,0,0,1,.18-.12,1.93,1.93,0,0,1,.8-.24c.84.78,1.66,1.57,2.45,2.27,2.86,2.52,4.94,5.69,7.49,8.55,5.87,6.62,11.29,13.61,16.95,20.32A66.53,66.53,0,0,1,514.8,150.48Z" transform="translate(0)" style="opacity: 0.5;mix-blend-mode: multiply;fill: url(#linear-gradient-7)"/>
                <path d="M518.21,147.28a4.14,4.14,0,0,1-2.68,2.95l0,0a7.17,7.17,0,0,1-.7.23,66.53,66.53,0,0,0-8.66-12c-5.66-6.71-11.08-13.7-16.95-20.32-2.55-2.86-4.63-6-7.49-8.55-.79-.7-1.61-1.49-2.45-2.27a4.75,4.75,0,0,1,1,0,20.88,20.88,0,0,1,5.82,1.52,79.6,79.6,0,0,1,9.09,4.57l-.21,3,2-1.94a45.65,45.65,0,0,1,5.51,3.64L501,122.43l4.09-2a67.67,67.67,0,0,1,10.8,14.15,48.56,48.56,0,0,1,3.27,6.63C519.54,142.36,520.12,146.82,518.21,147.28Z" transform="translate(0)" style="fill: #6b862b"/>
                <path d="M524.33,195.91a6,6,0,0,1-.37-.62,6,6,0,0,1-.41-1.09l-.06-.21c-.06-.27-.13-.54-.18-.83a2.93,2.93,0,0,0,0-.29c0-.28-.08-.58-.12-.88l0-.23c0-.41-.07-.83-.1-1.26,0-.22,0-.44,0-.67,0-.43-.05-.87-.05-1.3,0-.67,0-1.31,0-1.9,0-.27,0-.51,0-.76,0-.46,0-.89,0-1.29,0-.22,0-.46,0-.66-.05-.75-.14-1.5-.23-2.26,0-.08,0-.17,0-.25-.1-.69-.2-1.38-.33-2.07l0-.19c-.14-.75-.28-1.5-.44-2.24,0-.15-.07-.29-.1-.44-.13-.62-.26-1.23-.4-1.84-.35-1.61-.71-3.27-1-4.87-.31-1.78-.64-3.54-1-5.29,0,0,0,0,0,0a.17.17,0,0,1,0-.07c-.34-1.8-.66-3.61-1-5.42l-.18-1.09c0-.32-.11-.62-.19-.93s-.1-.45-.16-.68l-.12-.48a25.24,25.24,0,0,0-2.15-5.53A69.5,69.5,0,0,0,506.71,138c-2.19-2.61-4.35-5.26-6.53-7.92-3.36-4.12-6.83-8.36-10.41-12.42-.89-1-1.71-2-2.53-3a45.36,45.36,0,0,0-5-5.56l-1.81-1.67-.13-.12a4.75,4.75,0,0,0-1,0,1.93,1.93,0,0,0-.8.24l.89.83c.64.6,1.24,1.18,1.84,1.7a42.13,42.13,0,0,1,4.87,5.41c.85,1,1.67,2.08,2.58,3.08,3.57,4,7,8.27,10.38,12.37,2.17,2.66,4.34,5.33,6.55,7.94a68.51,68.51,0,0,1,8.53,11.77.34.34,0,0,1,.06.12h0a25.37,25.37,0,0,1,2.15,5.48h0a.08.08,0,0,0,0,0c.15.58.27,1.17.37,1.75,0,.2.07.4.1.6a.36.36,0,0,1,0,.1c.25,1.47.5,2.9.77,4.33.08.37.14.75.21,1.12,0,.15.06.3.08.45.33,1.75.66,3.52,1,5.31.23,1.32.51,2.67.8,4,.06.31.12.62.19.93.24,1,.46,2.07.67,3.13,0,.16.07.32.1.48.13.65.24,1.3.34,2,.05.32.11.63.15.94.13.87.23,1.74.28,2.6,0,.6,0,1.32.06,2.09v.54c0,3.52.06,7.89,1.68,10.08l.6-.39.61-.39Z" transform="translate(0)" style="fill: #37311f"/>
                <path d="M515.78,105.56c-1.82,1.73-4.56,2.09-6.43,3.79a4.12,4.12,0,0,0-.41.43c-.33.34-.62.68-.91,1a9.22,9.22,0,0,0-1.26-1.13c-4.25-3-10.07-2-14.91-4.06-2.58-1.08-5.51-2.18-7.28-4.27a53.71,53.71,0,0,1-4.81-7.44L479,92.68l3.88-1.23h-4.59a10.24,10.24,0,0,1-1.63-6c.3-2.69,2.35-4.73,4.08-6.67l.12-.13,4.48.29L482,77.51c1.43-1.33,3-2.44,4.35-3.88a6.65,6.65,0,0,0,1.14-1.55,2.55,2.55,0,0,0,.28.21,6.9,6.9,0,0,0,1.05.53,5.59,5.59,0,0,0,1.74.39,20.53,20.53,0,0,0,2.57,0c4.42-.21,9.28,1.83,12.8,4.2a33,33,0,0,1,11.84,13.38C520,95.49,519.9,101.71,515.78,105.56Z" transform="translate(0)" style="fill: #84a33d"/>
                <path d="M515.78,105.56c-1.82,1.73-4.56,2.09-6.43,3.79a4.12,4.12,0,0,0-.41.43c-.33.34-.62.68-.91,1a9.22,9.22,0,0,0-1.26-1.13c-4.25-3-10.07-2-14.91-4.06-2.58-1.08-5.51-2.18-7.28-4.27a53.71,53.71,0,0,1-4.81-7.44L479,92.68l3.88-1.23h-4.59a10.24,10.24,0,0,1-1.63-6c.3-2.69,2.35-4.73,4.08-6.67l.12-.13,4.48.29L482,77.51c1.43-1.33,3-2.44,4.35-3.88a6.65,6.65,0,0,0,1.14-1.55,2.55,2.55,0,0,0,.28.21,6.9,6.9,0,0,0,1.05.53,5.59,5.59,0,0,0,1.74.39,20.53,20.53,0,0,0,2.57,0c4.42-.21,9.28,1.83,12.8,4.2a33,33,0,0,1,11.84,13.38C520,95.49,519.9,101.71,515.78,105.56Z" transform="translate(0)" style="opacity: 0.5;mix-blend-mode: multiply;fill: url(#linear-gradient-8)"/>
                <path d="M529.85,201.13l-1.42.42a14.52,14.52,0,0,1-.43-4.76c0-.42,0-.85,0-1.27,0-1.86,0-3.76.06-5.66.16-10.58.32-21.51-4.34-30.65-.89-1.73-2-3.44-3-5.11-1.93-3-3.9-6-4.84-9.5a54.55,54.55,0,0,1-1.3-7.18,39.35,39.35,0,0,0-1.95-9.15,115.16,115.16,0,0,1-4-13.8c-.34-1.37-.68-2.76-1-4.14a76,76,0,0,0-4.34-12.82,84.15,84.15,0,0,0-6.63-11.09c-2.89-4.34-5.88-8.81-7.71-13.6a5.59,5.59,0,0,0,1.74.39,75.68,75.68,0,0,0,7.23,12.48A82.93,82.93,0,0,1,504.55,97a75.36,75.36,0,0,1,4.39,12.82c.37,1.48.74,2.93,1.09,4.39a115.57,115.57,0,0,0,4,13.64,40.41,40.41,0,0,1,2,9.43,52.26,52.26,0,0,0,1.26,7c.89,3.27,2.82,6.25,4.67,9.14,1.08,1.68,2.2,3.43,3.12,5.21,4.83,9.43,4.65,20.54,4.49,31.27,0,1.9-.06,3.78-.06,5.64,0,.43,0,.86,0,1.31A12.87,12.87,0,0,0,529.85,201.13Z" transform="translate(0)" style="fill: #37311f"/>
                <path d="M556.12,94.24c-1,6.22-2.22,12.52-3.14,18.72l-.51,3.1-3.67.33,3,3.4a107.25,107.25,0,0,1-3,11.9c-1.33,4.15-1.48,11.27-7.2,12.3-2.21.4-5.61-1.81-6.76-4.24-.08-.21-.17-.4-.23-.61-.39.06-.77.11-1.16.15a12.16,12.16,0,0,1-3.46-.11c-3.28-.62-4.58-3.59-5.29-6.41A23,23,0,0,1,527.85,115c3.69-5.62,6.49-11.48,10.67-16.82.61-.78,1.21-1.57,1.81-2.38l1.31,2.67V94c1.26-1.68,2.55-3.34,4-4.9l2.07,6V87a25.14,25.14,0,0,1,2.14-1.83c1.48-1.14,2.65-1.51,3.57-1.35a2.26,2.26,0,0,1,1.33.75C556.53,86.52,556.53,91.66,556.12,94.24Z" transform="translate(0)" style="fill: #6b862b"/>
                <path d="M556.12,94.24c-1,6.22-2.22,12.52-3.14,18.72l-.51,3.1-3.67.33,3,3.4a107.25,107.25,0,0,1-3,11.9c-1.33,4.15-1.48,11.27-7.2,12.3-2.21.4-5.61-1.81-6.76-4.24-.08-.21-.17-.4-.23-.61-.39.06-.77.11-1.16.15a12.16,12.16,0,0,1-3.46-.11c-3.28-.62-4.58-3.59-5.29-6.41A23,23,0,0,1,527.85,115c3.69-5.62,6.49-11.48,10.67-16.82.61-.78,1.21-1.57,1.81-2.38l1.31,2.67V94c1.26-1.68,2.55-3.34,4-4.9l2.07,6V87a25.14,25.14,0,0,1,2.14-1.83c1.48-1.14,2.65-1.51,3.57-1.35a2.26,2.26,0,0,1,1.33.75C556.53,86.52,556.53,91.66,556.12,94.24Z" transform="translate(0)" style="opacity: 0.5;mix-blend-mode: multiply;fill: url(#linear-gradient-9)"/>
                <path d="M554.71,84.56c-.34,1.29-.64,2.6-1,3.88-.46,1.9-.92,3.87-1.48,5.77a85.07,85.07,0,0,1-4,10.22l-.46,1a66.88,66.88,0,0,1-4.23,7.7c-.39.64-.78,1.28-1.16,1.93a17.83,17.83,0,0,0-1.79,6.08c-.2,1.11-.39,2.27-.68,3.36-.68,2.53-1.6,5-2.51,7.48a81.08,81.08,0,0,0-2.58,7.76,29.85,29.85,0,0,0-.85,4.94c-.38,4.53-1.06,9-1.71,13.27-.46,3-.92,6-1.27,9-.42,3.54-.58,7-.76,10.61l-.08,2.09c-.06,1.06-.14,2.13-.23,3.2s-.15,2-.21,3a20,20,0,0,0,.06,2,10,10,0,0,1-.31,4.18l-1.39-.48a9.08,9.08,0,0,0,.22-3.63c0-.71-.09-1.46-.06-2.14.06-1,.14-2,.21-3s.16-2.13.22-3.15l.11-2.1c.16-3.66.32-7.12.75-10.7.36-3,.82-6.09,1.27-9,.66-4.28,1.32-8.7,1.69-13.19a30.73,30.73,0,0,1,1-5.29,79.88,79.88,0,0,1,2.56-7.75c.89-2.41,1.81-4.89,2.48-7.36.28-1,.47-2.17.65-3.25a18.72,18.72,0,0,1,2-6.54c.39-.65.78-1.3,1.18-1.94a68.55,68.55,0,0,0,4.15-7.54l.46-1a82.6,82.6,0,0,0,4-10c.55-1.86,1-3.81,1.45-5.7.34-1.43.68-2.89,1.07-4.32A2.26,2.26,0,0,1,554.71,84.56Z" transform="translate(0)" style="fill: #37311f"/>
                <g>
                  <path d="M579.32,42.41c-1.9,2.77-4.67,5-6.91,7.58a33.92,33.92,0,0,0-2.83,3.76h-6l3.57,4c-.59,1-1.17,2.08-1.78,3.15-.47.83-1,1.61-1.49,2.35l-4-1.88,2.56,3.74A33.35,33.35,0,0,1,551,73.42a22.94,22.94,0,0,1-8.21,1.77c-.54,0-1.11.07-1.65.1,0,0,0,0,0,0H541c-3-3.45-7.88-5.69-9.72-10.45-3.14-8.12,3.77-16.13,9.07-21.75a75.79,75.79,0,0,1,9.32-8.38l3.78,2.59-.55-4.9a72.57,72.57,0,0,1,8.38-4.86l.12-.06.68,4.27,1.36-5.38c4.8-2.72,13.54-7.88,17.48-5.53a3.15,3.15,0,0,1,1.09,1c.06.05.08.12.13.18C585.76,27.93,583,37.09,579.32,42.41Z" transform="translate(0)" style="fill: #84a33d"/>
                  <path d="M579.32,42.41c-1.9,2.77-4.67,5-6.91,7.58a33.92,33.92,0,0,0-2.83,3.76h-6l3.57,4c-.59,1-1.17,2.08-1.78,3.15-.47.83-1,1.61-1.49,2.35l-4-1.88,2.56,3.74A33.35,33.35,0,0,1,551,73.42a22.94,22.94,0,0,1-8.21,1.77c-.54,0-1.11.07-1.65.1,0,0,0,0,0,0H541c-3-3.45-7.88-5.69-9.72-10.45-3.14-8.12,3.77-16.13,9.07-21.75a75.79,75.79,0,0,1,9.32-8.38l3.78,2.59-.55-4.9a72.57,72.57,0,0,1,8.38-4.86l.12-.06.68,4.27,1.36-5.38c4.8-2.72,13.54-7.88,17.48-5.53a3.15,3.15,0,0,1,1.09,1c.06.05.08.12.13.18C585.76,27.93,583,37.09,579.32,42.41Z" transform="translate(0)" style="opacity: 0.5;mix-blend-mode: multiply;fill: url(#linear-gradient-10)"/>
                  <path d="M582,21.88c-5,8.34-11.56,16-17.93,23.39-8,9.37-16.29,19-21.32,29.92a56,56,0,0,0-2.69,7c-3.71,12-5.47,23.72-7.35,36.17-.49,3.31-1,6.64-1.54,10-.21,1.33-.43,2.64-.64,3.93a152.93,152.93,0,0,0-2.28,18.21c-.19,3.65-.61,7.44-1,11.09s-.8,7.46-1,11.12c-.37,7-.24,14.27-.12,21.25.06,3.56.12,7.11.12,10.63h-1.48c0-3.52-.06-7.06-.12-10.6-.12-7-.25-14.27.12-21.35.19-3.71.6-7.51,1-11.19s.8-7.4,1-11a152.44,152.44,0,0,1,2.3-18.35c.2-1.29.43-2.59.65-3.93q.79-5,1.53-10c1.88-12.49,3.65-24.31,7.39-36.37a56.22,56.22,0,0,1,2.46-6.47s0,0,0,0C546.21,63.91,554.69,54,563,44.39c6.41-7.48,13-15.16,18-23.54A3.15,3.15,0,0,1,582,21.88Z" transform="translate(0)" style="fill: #37311f"/>
                </g>
                <g>
                  <path d="M526.06,77.16c-2,1.86-4.77,2.93-6.43,5a13.39,13.39,0,0,0-1.81,3.19l0,0a9.79,9.79,0,0,0-1.95-1.25,6.49,6.49,0,0,0-1.39-.58c-4.15-1.23-8.45.29-12.6.29-9.81,0-13.22-8.91-15.06-16.65a55.43,55.43,0,0,1-.38-23.28l6.08,3.9L486.8,41.7c.12-.56.27-1.19.45-1.87l5.24,3.65-4.65-5.72c1.25-3.95,3.4-8.68,6.73-10.66a6.22,6.22,0,0,1,1.36-.63,6.28,6.28,0,0,1,3-.26c2.47.36,5.21,2.44,7.39,4.29l-.49,3,1.63-2L508,32c1.68,1.46,3.41,2.93,5.1,4.43l-1.39,8.05,4-5.59.82.77C522.45,45.45,527.36,53,529,60.91,530.09,66.06,530.19,73.24,526.06,77.16Z" transform="translate(0)" style="fill: #6b862b"/>
                  <path d="M526.06,77.16c-2,1.86-4.77,2.93-6.43,5a13.39,13.39,0,0,0-1.81,3.19l0,0a9.79,9.79,0,0,0-1.95-1.25,6.49,6.49,0,0,0-1.39-.58c-4.15-1.23-8.45.29-12.6.29-9.81,0-13.22-8.91-15.06-16.65a55.43,55.43,0,0,1-.38-23.28l6.08,3.9L486.8,41.7c.12-.56.27-1.19.45-1.87l5.24,3.65-4.65-5.72c1.25-3.95,3.4-8.68,6.73-10.66a6.22,6.22,0,0,1,1.36-.63,6.28,6.28,0,0,1,3-.26c2.47.36,5.21,2.44,7.39,4.29l-.49,3,1.63-2L508,32c1.68,1.46,3.41,2.93,5.1,4.43l-1.39,8.05,4-5.59.82.77C522.45,45.45,527.36,53,529,60.91,530.09,66.06,530.19,73.24,526.06,77.16Z" transform="translate(0)" style="opacity: 0.5;mix-blend-mode: multiply;fill: url(#linear-gradient-11)"/>
                  <path d="M529.63,200.48l-1,1c-1.89-1.59-2.11-5.7-2.29-9-.05-1-.09-1.82-.18-2.47-.15-1.16-.33-2.29-.49-3.45a88.5,88.5,0,0,1-1-8.84c-.2-4-.7-8-1.2-11.87-.39-3-.79-6.15-1-9.27-.21-2.66-.57-5.25-.89-7.74-.39-2.89-.79-5.88-1-8.93a100.09,100.09,0,0,1,.14-10.56c.11-2.33.24-4.76.24-7.18,0-11.22-.43-23-3.59-33.2-.5-1.64-1-3.26-1.57-4.92-2.55-7.85-5.48-16-9.24-25.84-.74-1.94-1.53-3.86-2.3-5.78-1.64-4.12-3.35-8.37-4.73-12.67-.56-1.72-1.37-3.64-2.25-5.66a73.66,73.66,0,0,1-2.75-7,6.22,6.22,0,0,1,1.36-.63,73.33,73.33,0,0,0,2.77,7.15c.87,2.07,1.72,4,2.28,5.79,1.36,4.25,3.07,8.48,4.71,12.58q1.15,2.88,2.3,5.8c4,10.53,7.14,19.18,9.8,27.56.36,1.1.7,2.18,1,3.28,3.2,10.38,3.65,22.28,3.65,33.59,0,2.46-.12,4.89-.24,7.25a102.9,102.9,0,0,0-.14,10.41c.17,3,.57,6,.95,8.83.34,2.52.68,5.12.89,7.81.24,3.1.64,6.22,1,9.22.49,3.88,1,7.88,1.2,12a87,87,0,0,0,1,8.7c.17,1.16.34,2.32.49,3.47.08.68.13,1.57.19,2.57C528,195.16,528.21,199.27,529.63,200.48Z" transform="translate(0)" style="fill: #37311f"/>
                </g>
                <path d="M549.33,128.09l2.86,1.44a9.07,9.07,0,0,1-2,3.33c-1.76,1.88-4.24,2.8-6.66,3.63s-4.73,2.12-7.16,3.13c-3.4,1.41-7.07,2.75-9.78,4.9a14.74,14.74,0,0,0-1.24,1.12c-.11-.35-.23-.71-.37-1a8.14,8.14,0,0,0-1.47-2.48c-2.13-2.41-4.81-3.09-7.57-4.54-2.18-1.13-4.36-2.51-3.69-5.12s3.46-5.16,5.81-6.44,4.93-2.12,7.33-3.25c2.66-1.25,5-.52,7.86-.69,2.57-.16,5-2.07,7.49-2.56a10.61,10.61,0,0,1,4.41.15,12.69,12.69,0,0,1,1.66.47,11.75,11.75,0,0,1,1.26.48l.21.1-2,2.19,3.32-1.41a6.7,6.7,0,0,1,3,6.24Z" transform="translate(0)" style="fill: #84a33d"/>
                <path d="M546.78,120.13,545,121.58c-1,.83-2,1.66-3,2.59a83.9,83.9,0,0,0-5.73,6.53l-.55.67c-.81,1-1.7,1.94-2.55,2.85a39.52,39.52,0,0,0-3.07,3.53,29.11,29.11,0,0,0-3.06,5.58l-.48,1c0,.06,0,.1-.07.15-1.79,4-2.07,8.8-2.36,13.47-.05.85-.11,1.68-.17,2.51-.09,1.32-.13,2.64-.18,3.95-.05,1.54-.12,3.14-.25,4.73a15.77,15.77,0,0,1-1.56,5.19c-.37.88-.77,1.79-1.08,2.79-1.48,4.72-2,10.58-2.37,15.18l-1.47-.1c.33-4.67.91-10.62,2.42-15.48a28,28,0,0,1,1.13-2.91,14.67,14.67,0,0,0,1.45-4.79c.13-1.55.2-3.13.25-4.66,0-1.33.09-2.66.18-4,.06-.82.12-1.65.17-2.5.28-4.56.56-9.27,2.23-13.32a7.35,7.35,0,0,1,.32-.77l.48-1a29.82,29.82,0,0,1,3.19-5.82,44.6,44.6,0,0,1,3.19-3.67c.84-.89,1.71-1.81,2.49-2.78l.55-.67a85.34,85.34,0,0,1,5.82-6.64c1-1,2-1.83,3.07-2.67.37-.29.71-.59,1.06-.88A12.69,12.69,0,0,1,546.78,120.13Z" transform="translate(0)" style="fill: #37311f"/>
              </g>
              <g>
                <polygon points="497.76 159.86 498.53 165.44 499.3 171.05 500.28 178.35 500.61 180.66 501.07 184.01 501.38 186.34 501.82 189.67 502.15 192 502.61 195.34 502.92 197.66 503.38 201.02 503.69 203.35 504.15 206.68 504.46 209.01 506.25 222.09 549.01 222.09 550.8 209.01 551.11 206.68 551.47 203.98 551.57 203.35 551.88 201.02 552.34 197.66 552.65 195.34 553.11 192 553.42 189.67 553.88 186.34 554.21 184.01 554.67 180.66 554.98 178.35 555.96 171.05 556.73 165.44 557.52 159.86 497.76 159.86" style="fill: #bd542b"/>
                <polygon points="556.74 165.45 555.97 171.05 499.3 171.05 498.52 165.45 556.74 165.45" style="fill: #1b1b1b;opacity: 0.4;mix-blend-mode: multiply"/>
                <g>
                  <polygon points="554.98 178.34 554.66 180.66 500.6 180.66 500.29 178.34 554.98 178.34" style="fill: #1b1b1b;opacity: 0.4;mix-blend-mode: multiply"/>
                  <polygon points="554.2 184.01 553.89 186.34 501.37 186.34 501.06 184.01 554.2 184.01" style="fill: #1b1b1b;opacity: 0.4;mix-blend-mode: multiply"/>
                  <polygon points="553.43 189.67 553.11 192 502.15 192 501.83 189.67 553.43 189.67" style="fill: #1b1b1b;opacity: 0.4;mix-blend-mode: multiply"/>
                  <polygon points="552.66 195.34 552.34 197.67 502.92 197.67 502.6 195.34 552.66 195.34" style="fill: #1b1b1b;opacity: 0.4;mix-blend-mode: multiply"/>
                  <polygon points="551.88 201.02 551.57 203.35 503.69 203.35 503.38 201.02 551.88 201.02" style="fill: #1b1b1b;opacity: 0.4;mix-blend-mode: multiply"/>
                  <polygon points="551.11 206.69 550.79 209.02 504.46 209.02 504.15 206.69 551.11 206.69" style="fill: #1b1b1b;opacity: 0.4;mix-blend-mode: multiply"/>
                </g>
              </g>
            </g>
            <path d="M497.76,159.86l.77,5.58.77,5.61,1,7.3.33,2.31.46,3.35.31,2.33.44,3.33.33,2.33.46,3.33.31,2.34.46,3.35.31,2.33.46,3.33.31,2.33,1.79,13.08H549L550.8,209l.31-2.33.36-2.7c-29.08-4.89-45.93-35.51-50.13-44.12Z" transform="translate(0)" style="fill: #1b1b1b;opacity: 0.30000000000000004;mix-blend-mode: multiply"/>
            <path d="M561.83,162.65a2.9,2.9,0,0,1-3,2.8h-61.5a2.9,2.9,0,0,1-3-2.8h0a2.9,2.9,0,0,1,3-2.79h61.5a2.9,2.9,0,0,1,3,2.79Z" transform="translate(0)" style="fill: #bd542b"/>
          </g>
        </g>
      </g>
      <g>
        <rect x="724.95" y="62.8" width="185.39" height="237.5" style="fill: #000100;opacity: 0.30000000000000004;mix-blend-mode: multiply"/>
        <g>
          <rect x="739.61" y="62.81" width="168.87" height="223.45" style="fill: #d2d3d7"/>
          <rect x="769.95" y="104.15" width="108.18" height="140.77" style="fill: #f7f7f8"/>
          <path d="M860.35,193.4l8.13,6.91L853.56,217.2l-9.12-7.9a52.65,52.65,0,0,1-28.84,8.26c-20.71,0-36-10.6-36-25,0-10.85,5.3-18.49,16.77-24.9-5.06-5.43-7.4-10.85-7.4-16.52,0-13.81,12.33-23.3,31.07-23.3,17.13,0,28.59,8.51,28.59,21.82,0,8.75-4.8,15.41-14.91,21.08l9.12,7.77a49.75,49.75,0,0,0,3.33-11.22l22.31,6.65A58.12,58.12,0,0,1,860.35,193.4Zm-32.92,1.36L811.65,181.2c-3.45,2.46-4.8,5.05-4.8,8.26,0,4.07,3.94,7.39,10.84,7.39A24.36,24.36,0,0,0,827.43,194.76Zm-13.19-44c0,2.1.87,3.7,4.32,6.9,5.05-2.71,6.78-5.05,6.78-7.39,0-2.59-1.73-4.44-5.18-4.44C816.34,145.82,814.24,147.92,814.24,150.75Z" transform="translate(0)" style="fill: #222"/>
          <g style="opacity: 0.2">
            <polygon points="840.83 59.29 912.62 120.34 912.62 73.87 895.47 59.29 840.83 59.29" style="fill: #fff"/>
            <polygon points="796.59 59.29 912.62 157.93 912.62 134.71 823.92 59.29 796.59 59.29" style="fill: #fff"/>
            <polygon points="735.48 101.36 735.48 138.93 912.62 289.55 912.62 252.01 735.48 101.36" style="fill: #fff"/>
            <polygon points="739.61 62.81 739.61 74.83 908.48 218.39 912.62 221.91 912.62 184.38 908.48 180.85 769.68 62.81 739.61 62.81" style="fill: #fff"/>
            <polygon points="735.48 244.05 735.48 262.82 767.16 289.77 789.24 289.77 735.48 244.05" style="fill: #fff"/>
            <polygon points="735.48 150.02 735.48 209.71 829.62 289.77 899.82 289.77 735.48 150.02" style="fill: #fff"/>
          </g>
          <path d="M731.35,55.78v237.5H916.74V55.78Zm4.13,3.51H912.61V289.77H735.48Z" transform="translate(0)" style="fill: #464646"/>
          <path d="M735.48,59.29V289.77H912.61V59.29Zm4.13,3.51H908.49V286.25H739.61Z" transform="translate(0)" style="fill: #1b1b1b"/>
        </g>
      </g>
      <g>
        <g>
          <polygon points="374.71 896.4 569.81 896.4 613.69 829.18 786.85 829.18 839.86 666.74 599.57 666.74 374.71 896.4" style="fill: #9c7854"/>
          <polygon points="569.81 896.4 1155.08 896.4 1133.16 829.18 613.69 829.18 569.81 896.4" style="fill: #3d3d3d"/>
          <path d="M839.86,666.74l-53,162.44h346.31l21.92,67.22h364.55a10.78,10.78,0,0,0,7.7-18.33L1288.52,634.14h-657l-31.92,32.6Z" transform="translate(0)" style="fill: #8b6238"/>
          <polygon points="1069.52 634.14 1133.16 829.18 1155.08 896.4 1545.28 896.4 1288.52 634.14 1069.52 634.14" style="fill: #9c7854"/>
        </g>
        <path d="M642.22,659.66h635.57l206.8,211.22H435.4L642.22,659.66m-3.44-8.16L416,879.05H1504L1281.22,651.5Z" transform="translate(0)" style="fill: #bda58d"/>
      </g>
      <path d="M575.74,716.34H1344.3a4.38,4.38,0,0,0,3.13-7.44L1290.74,651a22.13,22.13,0,0,0-15.82-6.65H644.48a20.67,20.67,0,0,0-14.79,6.22L572.6,708.88A4.39,4.39,0,0,0,575.74,716.34Z" transform="translate(0)" style="fill: #000100;opacity: 0.5;mix-blend-mode: multiply"/>
      <g>
        <g style="opacity: 0.30000000000000004;mix-blend-mode: multiply">
          <path d="M648.42,655.38l-49,50a6.43,6.43,0,0,0,4.6,10.93h712.71a6.09,6.09,0,0,0,4.35-10.36l-49.7-50.78a21.92,21.92,0,0,0-15.64-6.57H664.49A22.5,22.5,0,0,0,648.42,655.38Z" transform="translate(0)" style="fill: #000100"/>
        </g>
        <g>
          <g>
            <g>
              <g>
                <polygon points="1218.46 604.14 1250.1 695.28 1237.96 695.28 1187.25 604.14 1218.46 604.14" style="fill: #3d3d3d"/>
                <polygon points="1170.17 604.14 1192.93 669.7 1184.2 669.7 1147.72 604.14 1170.17 604.14" style="fill: #282828"/>
              </g>
              <g>
                <polygon points="699.43 604.14 667.79 695.28 679.93 695.28 730.64 604.14 699.43 604.14" style="fill: #3d3d3d"/>
                <polygon points="747.73 604.14 724.97 669.7 733.7 669.7 770.17 604.14 747.73 604.14" style="fill: #282828"/>
              </g>
            </g>
            <path d="M1318.74,445.83l6.69,9,6.75-12.3a38.81,38.81,0,0,0-2.43-19.28,33.72,33.72,0,0,0-4.8-8.14C1325.76,422.67,1325.06,433.47,1318.74,445.83Z" transform="translate(0)" style="fill: #cea674"/>
            <g>
              <rect x="709.86" y="464.83" width="500.29" height="81.99" style="fill: #858477"/>
              <rect x="865.09" y="356.12" width="189.83" height="169.59" rx="21.59" style="fill: #d3d1bd"/>
              <path d="M865.09,438v66.12a21.64,21.64,0,0,0,21.58,21.59h146.66a21.65,21.65,0,0,0,21.59-21.59V430.34c-6.05,1.94-95.81,29.9-189.51,7.5Z" transform="translate(0)" style="fill: #b4b2a1"/>
              <path d="M587.82,442.54l6.75,12.3L683,617H1237l88.46-162.14,6.75-12.3a38.81,38.81,0,0,0-2.43-19.28,33.72,33.72,0,0,0-4.8-8.14c-4.32-5.46-11.23-10.31-21.92-12.9a21.53,21.53,0,0,0-2.69-.65l-66.56,141.68c-15.65,37.46-31.68,36.22-31.68,36.22H717.9s-16,1.24-31.68-36.22L619.66,401.57a21.53,21.53,0,0,0-2.69.65c-10.69,2.59-17.6,7.44-21.92,12.9a33.72,33.72,0,0,0-4.8,8.14A38.81,38.81,0,0,0,587.82,442.54Z" transform="translate(0)" style="fill: #e5b881"/>
              <path d="M617,402.22,686.22,556.8C701.87,594.26,717.9,593,717.9,593h484.2s16,1.25,31.68-36.21L1303,402.22a21.53,21.53,0,0,0-2.69-.65l-66.56,141.68c-15.65,37.46-31.68,36.22-31.68,36.22H717.9s-16,1.24-31.68-36.22L619.66,401.57A21.53,21.53,0,0,0,617,402.22Z" transform="translate(0)" style="fill: #cea674"/>
              <rect x="1054.92" y="356.12" width="189.83" height="169.59" rx="21.59" style="fill: #d3d1bd"/>
              <path d="M1054.92,474.76v29.36a21.65,21.65,0,0,0,21.59,21.59h141l27.26-24.56V383.6C1230.06,412.2,1182.24,478.37,1054.92,474.76Z" transform="translate(0)" style="fill: #b4b2a1"/>
              <path d="M1161.52,525.71h61.63a21.65,21.65,0,0,0,21.59-21.59V394.61C1227.26,418.52,1187.75,474.54,1161.52,525.71Z" transform="translate(0)" style="fill: #b4b2a1"/>
              <path d="M1175,501s-13.75,24.73-40.76,24.73h38.06Z" transform="translate(0)" style="fill: #b4b2a1"/>
              <path d="M1054.92,442.54v50.68h17.81l5.12-18.57S1054.92,478.65,1054.92,442.54Z" transform="translate(0)" style="fill: #b4b2a1"/>
              <rect x="892.67" y="616.98" width="356.68" height="13.76" style="fill: #3d3d3d"/>
              <rect x="892.67" y="626.15" width="356.68" height="4.6" style="fill: #282828"/>
              <path d="M587.82,442.54,683,617H1237l95.21-174.44a38.81,38.81,0,0,0-2.43-19.28c-15.92,33.58-45.34,90.3-99.31,184.82H689.56c-54-94.52-83.39-151.24-99.31-184.82A38.81,38.81,0,0,0,587.82,442.54Z" transform="translate(0)" style="fill: #cea674"/>
            </g>
            <g>
              <rect x="675.26" y="356.12" width="189.83" height="169.59" rx="21.59" style="fill: #d3d1bd"/>
              <path d="M675.26,474.76v29.36a21.65,21.65,0,0,0,21.59,21.59H843.49a21.65,21.65,0,0,0,21.6-21.59V383.6C850.41,412.2,802.59,478.37,675.26,474.76Z" transform="translate(0)" style="fill: #b4b2a1"/>
              <path d="M758.49,525.71H696.85a21.65,21.65,0,0,1-21.59-21.59V394.61C692.75,418.52,732.25,474.54,758.49,525.71Z" transform="translate(0)" style="fill: #b4b2a1"/>
              <path d="M745.05,501s13.75,24.73,40.76,24.73H747.75Z" transform="translate(0)" style="fill: #b4b2a1"/>
              <rect x="670.66" y="616.98" width="356.68" height="13.76" style="fill: #3d3d3d"/>
              <rect x="670.66" y="626.15" width="356.68" height="4.6" style="fill: #282828"/>
            </g>
            <g>
              <g>
                <g>
                  <path d="M991.71,415.12a11.7,11.7,0,0,1,11.7,11.69,11.69,11.69,0,0,1,11.69-11.69,11.69,11.69,0,0,1-11.69-11.7A11.7,11.7,0,0,1,991.71,415.12Z" transform="translate(0)" style="fill: #b4b2a1"/>
                  <path d="M1000.31,415.11a3.1,3.1,0,1,0,3.1-3.09A3.09,3.09,0,0,0,1000.31,415.11Z" transform="translate(0)" style="fill: #d3d1bd"/>
                </g>
                <g>
                  <path d="M904.9,415.12a11.69,11.69,0,0,1,11.69,11.69,11.7,11.7,0,0,1,11.7-11.69,11.7,11.7,0,0,1-11.7-11.7A11.69,11.69,0,0,1,904.9,415.12Z" transform="translate(0)" style="fill: #b4b2a1"/>
                  <path d="M913.5,415.11a3.1,3.1,0,1,0,3.1-3.09A3.09,3.09,0,0,0,913.5,415.11Z" transform="translate(0)" style="fill: #d3d1bd"/>
                </g>
              </g>
              <g>
                <g>
                  <path d="M991.71,485.6a11.7,11.7,0,0,1,11.7,11.7,11.69,11.69,0,0,1,11.69-11.7,11.69,11.69,0,0,1-11.69-11.69A11.7,11.7,0,0,1,991.71,485.6Z" transform="translate(0)" style="fill: #a2a091"/>
                  <path d="M1000.31,485.59a3.1,3.1,0,1,0,3.1-3.09A3.1,3.1,0,0,0,1000.31,485.59Z" transform="translate(0)" style="fill: #b4b2a1"/>
                </g>
                <g>
                  <path d="M904.9,485.6a11.69,11.69,0,0,1,11.69,11.7,11.7,11.7,0,0,1,11.7-11.7,11.7,11.7,0,0,1-11.7-11.69A11.69,11.69,0,0,1,904.9,485.6Z" transform="translate(0)" style="fill: #a2a091"/>
                  <path d="M913.5,485.59a3.1,3.1,0,1,0,3.1-3.09A3.1,3.1,0,0,0,913.5,485.59Z" transform="translate(0)" style="fill: #b4b2a1"/>
                </g>
              </g>
            </g>
            <g>
              <g>
                <g>
                  <path d="M1181.54,415.12a11.69,11.69,0,0,1,11.69,11.69,11.7,11.7,0,0,1,11.7-11.69,11.7,11.7,0,0,1-11.7-11.7A11.69,11.69,0,0,1,1181.54,415.12Z" transform="translate(0)" style="fill: #b4b2a1"/>
                  <path d="M1190.14,415.11a3.1,3.1,0,1,0,3.1-3.09A3.09,3.09,0,0,0,1190.14,415.11Z" transform="translate(0)" style="fill: #d3d1bd"/>
                </g>
                <g>
                  <path d="M1094.73,415.12a11.69,11.69,0,0,1,11.69,11.69,11.7,11.7,0,0,1,11.7-11.69,11.7,11.7,0,0,1-11.7-11.7A11.69,11.69,0,0,1,1094.73,415.12Z" transform="translate(0)" style="fill: #b4b2a1"/>
                  <path d="M1103.33,415.11a3.1,3.1,0,1,0,3.1-3.09A3.09,3.09,0,0,0,1103.33,415.11Z" transform="translate(0)" style="fill: #d3d1bd"/>
                </g>
              </g>
              <g>
                <g>
                  <path d="M1181.54,485.6a11.69,11.69,0,0,1,11.69,11.7,11.7,11.7,0,0,1,11.7-11.7,11.7,11.7,0,0,1-11.7-11.69A11.69,11.69,0,0,1,1181.54,485.6Z" transform="translate(0)" style="fill: #a2a091"/>
                  <path d="M1190.14,485.59a3.1,3.1,0,1,0,3.1-3.09A3.1,3.1,0,0,0,1190.14,485.59Z" transform="translate(0)" style="fill: #b4b2a1"/>
                </g>
                <g>
                  <path d="M1094.73,485.6a11.69,11.69,0,0,1,11.69,11.7,11.7,11.7,0,0,1,11.7-11.7,11.7,11.7,0,0,1-11.7-11.69A11.69,11.69,0,0,1,1094.73,485.6Z" transform="translate(0)" style="fill: #a2a091"/>
                  <path d="M1103.33,485.59a3.1,3.1,0,1,0,3.1-3.09A3.1,3.1,0,0,0,1103.33,485.59Z" transform="translate(0)" style="fill: #b4b2a1"/>
                </g>
              </g>
            </g>
            <g>
              <g>
                <g>
                  <path d="M801.88,415.12a11.7,11.7,0,0,1,11.7,11.69,11.69,11.69,0,0,1,11.69-11.69,11.69,11.69,0,0,1-11.69-11.7A11.7,11.7,0,0,1,801.88,415.12Z" transform="translate(0)" style="fill: #b4b2a1"/>
                  <path d="M810.48,415.11a3.1,3.1,0,1,0,3.1-3.09A3.1,3.1,0,0,0,810.48,415.11Z" transform="translate(0)" style="fill: #d3d1bd"/>
                </g>
                <g>
                  <path d="M715.07,415.12a11.69,11.69,0,0,1,11.69,11.69,11.7,11.7,0,0,1,11.7-11.69,11.7,11.7,0,0,1-11.7-11.7A11.69,11.69,0,0,1,715.07,415.12Z" transform="translate(0)" style="fill: #b4b2a1"/>
                  <path d="M723.67,415.11a3.1,3.1,0,1,0,3.1-3.09A3.1,3.1,0,0,0,723.67,415.11Z" transform="translate(0)" style="fill: #d3d1bd"/>
                </g>
              </g>
              <g>
                <g>
                  <path d="M801.88,485.6a11.7,11.7,0,0,1,11.7,11.7,11.69,11.69,0,0,1,11.69-11.7,11.69,11.69,0,0,1-11.69-11.69A11.7,11.7,0,0,1,801.88,485.6Z" transform="translate(0)" style="fill: #a2a091"/>
                  <path d="M810.48,485.59a3.1,3.1,0,1,0,3.1-3.09A3.1,3.1,0,0,0,810.48,485.59Z" transform="translate(0)" style="fill: #b4b2a1"/>
                </g>
                <g>
                  <path d="M715.07,485.6a11.69,11.69,0,0,1,11.69,11.7,11.7,11.7,0,0,1,11.7-11.7,11.7,11.7,0,0,1-11.7-11.69A11.69,11.69,0,0,1,715.07,485.6Z" transform="translate(0)" style="fill: #a2a091"/>
                  <path d="M723.67,485.59a3.1,3.1,0,1,0,3.1-3.09A3.1,3.1,0,0,0,723.67,485.59Z" transform="translate(0)" style="fill: #b4b2a1"/>
                </g>
              </g>
            </g>
          </g>
          <g>
            <g>
              <path d="M1069.57,509.54c.31-.09.65-.13.93-.2,5.55-1,9.43,1.44,14.39,2.46,9.62,1.93,18.67,4.95,28.43,7.12l4.23.93c11,2.4,22.46,4.68,33.94,6.34,7.08,1,14.17,1.8,21.15,2.24,6.79.42,12.88,1,19.71,1.13,3.66,0,9.74-1.11,14.3-.6.43-9.11,4.88-17.69,8.25-26.05,4.41-10.86,7.54-21,11.13-31.75,3.48-10.42,8.72-19.18,13.75-28.64,3.3-6.19,5.94-13.55,10.31-19.49a175.42,175.42,0,0,0-21.78-12.44c-7.82-3.88-15.83-7.45-23.45-11.06-17.54-8.32-36.76-13.75-55.41-19.49-17.64-5.43-37-2.57-54-10.13a60.25,60.25,0,0,1-.13,7.6c-.62,9.93-3.33,19.11-6.23,28.54-6.67,21.63-14.46,39.77-15.7,62.05-.15,2.71-.4,5.5-.68,8.34-.69,6.63-1.58,13.46-2,20C1070.41,500.69,1070.46,505.28,1069.57,509.54Z" transform="translate(0)" style="fill: #3e3a41"/>
              <path d="M1070.68,496.46c.42-6.56,1.31-13.39,2-20a63.16,63.16,0,0,0,5.34,5.39c2.64,2.37,5.28,3.39,8.2,5.16,5.46,3.33,11,6.56,16.61,9.8,3.37,1.93,6.32,3.61,10.24,4.15a57.83,57.83,0,0,0,8.84.08c.53-1.83,1.06-3.68,1.56-5.56,2.86-10.77,5.74-22.37,9.66-31.84l20.34-20.68c6.45.6,13.25-.49,19.82-.31-3.75,2.06-6.5,7.45-7.7,10.57a117.76,117.76,0,0,0-5.07,16.34c-1.47,6.21-1.67,12.68-3,18.87-1.15,5.46-3.32,11.07-4.33,16.53a57.28,57.28,0,0,0,10.22-.39c5.41-.77,10.38-3.12,15.23-5,4.68-1.79,8.69-4.61,12.93-7.4,5-3.29,6.63-6.94,9.53-11.91,5.77-9.82,9.54-21.35,14.5-31.75,4.77-10,10.73-21.77,21.64-26.34.22-2.94-6.45-8.8-8.42-11l-.54-.58A175.42,175.42,0,0,1,1250.09,423c-4.37,5.94-7,13.3-10.31,19.49-5,9.46-10.27,18.22-13.75,28.64-3.59,10.78-6.72,20.89-11.13,31.75-3.37,8.36-7.82,16.94-8.25,26.05-4.56-.51-10.64.62-14.3.6-6.83-.09-12.92-.71-19.71-1.13-7-.44-14.07-1.24-21.15-2.26v0l-1-.16-3.74-.59q-3.2-.51-6.38-1.06c-1.84-.33-3.69-.65-5.52-1l-3-.59c-1.72-.33-3.45-.67-5.16-1l-2.84-.6c-1.76-.37-3.52-.73-5.26-1.11l-1-.21h0l-4.23-.92c-9.76-2.17-18.81-5.19-28.43-7.12-5-1-8.84-3.46-14.39-2.46-.28.07-.62.11-.93.2C1070.46,505.28,1070.41,500.69,1070.68,496.46Z" transform="translate(0)" style="fill: #322f35"/>
            </g>
            <g>
              <path d="M1021.15,518.72c6.17.93,12.59,4.3,17.69,5.65a129.79,129.79,0,0,0,24.9,3.86c7.89.51,15.87.53,24.15.49,3.25,0,6.56,0,9.91,0,10.28,0,20-1.21,30.08-1.21,5.19,0,10.33-.14,15.37.62l.81.09c-4.14-13.53,1-43.28,2.73-49.38a230.55,230.55,0,0,1,11-29.37,30.37,30.37,0,0,1,10.51-12.69c-8.34-2.57-15.9-4.3-24.83-3.19-1.09.11-2.17.29-3.3.51-5.17,1-8.52,3.21-14.15,2.35-4.57-.71-9.58-2.86-14-4.3-9.27-3-19.06-3.75-28.4-6.63-5.52-1.71-26.58-10.71-35.94-20.22-.11.44-.2.87-.26,1.2-4.26,21.3-14,40.9-16,62.63-.94,9.58-2.38,19.2-4.1,28.69-.49,2.73-1,5.47-1.54,8.18C1025,510,1023.79,515.17,1021.15,518.72Z" transform="translate(0)" style="fill: #6c696e"/>
              <path d="M1021.15,518.72c2.64-3.55,3.81-8.69,4.63-12.75.54-2.71,1-5.45,1.54-8.18,4.94.55,9.77,1,14.85,3.19,6.07,2.57,12.08.46,18.38,3.79.91.48,1.85,1,2.8,1.4a139.52,139.52,0,0,1,3.81-22.72l8.38-13.84c2.92,1.73,8.93,3.64,12.35,3.32-5.06,10.45-5.75,23.62-4,35.3l.21,1.52a37.84,37.84,0,0,0,15.62-5.88c2.79-1.91,5.83-3.13,8.31-5.26,2.75-2.35,4-5.37,6-8.27,3.86-5.37,11.42-7.07,14.55-12.93,2.86-5.38,6-11.15,8.4-16.89,2.7-6.56,4.39-13,8-19.18,1.73-3,2.51-4-.49-6.94a7.08,7.08,0,0,0-1.06-.84c8.93-1.11,16.49.62,24.83,3.19a30.37,30.37,0,0,0-10.51,12.69,230.55,230.55,0,0,0-11,29.37c-1.77,6.1-6.87,35.85-2.73,49.38l-.81-.09c-5-.76-10.18-.62-15.37-.62-10.11,0-19.8,1.21-30.08,1.21-7.48,0-14.7.1-21.77,0h-.48c-1.81,0-3.61-.08-5.4-.14l-.92,0c-1.8-.07-3.6-.15-5.39-.27h-.1a128.36,128.36,0,0,1-24.9-3.86C1033.74,523,1027.32,519.65,1021.15,518.72Z" transform="translate(0)" style="fill: #565458"/>
            </g>
            <g>
              <path d="M985.74,528.72a66.35,66.35,0,0,1,9-.49c6.74,0,12.17,2.28,18.69,4.1,12,3.33,23.83,6.37,36.4,2.51,7.12-2.18,19.47-6.19,27.87-4.51-.11-2.34,0-4.63-.11-5.87-.55-10.46-1.42-21.37-.44-31.68.86-9.33,4-17.54,5.92-26.39a82.68,82.68,0,0,0-17.85-6.87c-7.6-2.08-15.43-3.45-22.7-4.83-7-1.33-31.71,1.33-40.09-4.9a139.77,139.77,0,0,1-1.75,16.6c-1.17,8.32-2,16.52-3.72,24.95a139.56,139.56,0,0,1-4.35,16.34c-.66,2-1.4,4.15-2.17,6.34C988.91,518.52,988.09,524.13,985.74,528.72Z" transform="translate(0)" style="fill: #97724e"/>
              <path d="M985.74,528.72a66.35,66.35,0,0,1,9-.49c6.74,0,12.17,2.28,18.69,4.1,12,3.33,23.83,6.37,36.4,2.51,7.12-2.18,19.47-6.19,27.87-4.51-.11-2.34,0-4.63-.11-5.87-.55-10.46-1.42-21.37-.44-31.68.86-9.33,4-17.54,5.92-26.39a82.68,82.68,0,0,0-17.85-6.87,19.44,19.44,0,0,1,4.41,2.42c2.93,2.3,1.87,3.46.89,7-1.77,6.34-1.53,12.41-2,18.93-.33,5-3.59,9.51-5.72,14-2.28,4.77-6.28,6.7-9.91,10.22-2.53,2.44-4.64,5.34-7.27,7.58-2.18,1.82-4,1.6-6.77,1.6-4.87,0-9.51-.86-14.25-1.35a48,48,0,0,0-13.75.2c-5,1-7.85,2-12.46-.67-3.9-2.24-5.14-7.09-5.83-11.79-.66,2-1.4,4.15-2.17,6.34C988.91,518.52,988.09,524.13,985.74,528.72Z" transform="translate(0)" style="fill: #806142"/>
            </g>
          </g>
          <g>
            <g>
              <path d="M677.9,412.25c1.76,3,3,6.81,3.9,8.65,5.15,10,10.29,19.53,14.68,29.93,7.39,17.52,14.95,35.81,21.49,53.77,1.59,4.34,1.81,7.53,2.21,12s3,8.47,3.79,13.11a31.6,31.6,0,0,1,.09,8.73c9.38-2.77,19.8-1.37,29.82-3,1.13-.18,2.26-.35,3.4-.48s2.23-.27,3.34-.41,2.26-.24,3.39-.35,2.22-.22,3.35-.36c3-.31,6.1-.68,9.23-1.28,8.66-1.64,17.38-2.7,26.13-4.17,9.12-1.55,18.3-3.61,27.5-4.34a90,90,0,0,1,12.21-.36c.53,0,1.69.09,2.82.22-1.46-4.56-1.64-12-2-14.5-.93-6.8-1.5-13.25-2.5-19.84q-.57-3.79-1.31-7.56c-2.44-12.66-6-25.08-8.91-38-.89-3.94-1.71-7.89-2.55-11.83-.91-4.22-1.82-8.43-2.8-12.64a112.83,112.83,0,0,0-5.1-17.14c-11.66.07-36.84-3.81-40.46-4.37-19.53-3-39.06,2.46-58.15,6.65-.71.16-1.77.42-3.15.78C709.45,407.89,688.37,413.63,677.9,412.25Z" transform="translate(0)" style="fill: #383436"/>
              <path d="M677.9,412.25c1.76,3,3,6.81,3.9,8.65,5.15,10,10.29,19.53,14.68,29.93,7.39,17.52,14.95,35.81,21.49,53.77,1.59,4.34,1.81,7.53,2.21,12s3,8.47,3.79,13.11a31.6,31.6,0,0,1,.09,8.73c9.38-2.77,19.8-1.37,29.82-3,1.13-.18,2.26-.35,3.4-.48s2.23-.27,3.34-.41,2.26-.24,3.39-.35,2.22-.22,3.35-.36c3-.31,6.1-.68,9.23-1.28,8.66-1.64,17.38-2.7,26.13-4.17,9.12-1.55,18.3-3.61,27.5-4.34a90,90,0,0,1,12.21-.36c.53,0,1.69.09,2.82.22-1.46-4.56-1.64-12-2-14.5-.93-6.8-1.5-13.25-2.5-19.84q-.57-3.79-1.31-7.56c-2.44-12.66-6-25.08-8.91-38-.89-3.94-1.71-7.89-2.55-11.83-5.7.59-12,.17-17.05,0-8-.33-15.92-1.31-23.9-1.31-11.73,0-22.42-3.41-33.35-4.17.56,3.6,2.75,7.21,3.79,10.76a62.93,62.93,0,0,1,2.27,14.94,195.69,195.69,0,0,1-.91,26.94c-.29,3-.62,6-.82,9a35.2,35.2,0,0,1-10-5.21,87.47,87.47,0,0,1-10.33-8.11c-3.46-3.44-4.25-7.52-6-12.16-4.1-10.66-8.6-21-11.88-32-2.08-7-4.39-17.62-1.42-25.38C709.45,407.89,688.37,413.63,677.9,412.25Z" transform="translate(0)" style="fill: #302c2e"/>
            </g>
            <g>
              <g>
                <path d="M771.15,445.71c.62,12.64-.53,24.41,1.27,36.69,1.91,13,6.21,25.37,9.29,38a25.22,25.22,0,0,1,.77,5.07c5.26.65,11.69,3.15,15.66,3.35,6.34.29,12.34,1,18.46,1.64L821,531a130.28,130.28,0,0,0,47.47-3.82c3.79-1,23-8.2,32.95-8.31-5-6.72-4.79-23.48-5.06-29.09-.09-1.82-.2-3.61-.33-5.39A174.87,174.87,0,0,0,890.61,453c-.78-3-1.64-6-2.57-9-2.55-8.27-7-15.1-8.21-23.53-.5-3.52-1.39-6.92-1.59-10.53a71.31,71.31,0,0,1,.49-7.61c-3.77.45-8,.72-9.43,1.18a89.22,89.22,0,0,0-16.36,6.94c-15.43,8.58-33.94,8.91-51,6.32-1.35-.2-2.68-.38-4-.51-5.67-.64-11.3-.82-17.07-1.24-3.43-.27-11.53-1.18-15.69-3.57C768.8,419,771,442.43,771.15,445.71Z" transform="translate(0)" style="fill: #1c181b"/>
                <path d="M765.15,411.48c4.16,2.39,12.26,3.3,15.69,3.57,5.77.42,11.4.6,17.07,1.24-2.41,1.24-4.74,2.55-7.11,3.84-4.44,2.39-5.32,2.74-6.23,8.46C783.08,438,783,448.75,786,457.77c2.26,6.76,4.13,18.6,8.47,24,2.09,2.57,5.21,3.32,8,5.68,3.06,2.54,6.63,4.17,10,6.11,3.93,2.25,7.54,4.79,11.36,6.69.26-2.23.51-4.46.76-6.71A220.7,220.7,0,0,0,826.09,468c0-8.45-3-17.52-1.81-25.7,7.44,1.28,16.42,2.75,23.92.86l42.41,9.8A174.87,174.87,0,0,1,896,484.35c.13,1.78.24,3.57.33,5.39.27,5.61,0,22.37,5.06,29.09-9.91.11-29.16,7.34-32.95,8.31A130.28,130.28,0,0,1,821,531l-4.39-.47h0c-6.11-.67-12.13-1.36-18.46-1.64-4-.2-10.4-2.7-15.66-3.35a25.22,25.22,0,0,0-.77-5.07c-3.08-12.66-7.38-25.06-9.29-38-1.8-12.28-.65-24-1.27-36.69C771,442.43,768.8,419,765.15,411.48Z" transform="translate(0)" style="fill: #181417"/>
              </g>
              <g>
                <path d="M832.12,434c1.29,4.76.82,11.48,1,14.72.93,15.58,3.9,32.28,6.3,47.67,1.22,7.78,1.93,15.89,3.39,23.56.29,1.53,1.8,8.85,1.38,13.66,7.33-2.51,23.08-.42,27.27-.16a199,199,0,0,0,43-2.19c7.45-1.22,14.74-3.5,22.33-4.66,5.45-.8,11.77-2.17,17.47-1.5.11-.52.2-1,.24-1.36a85.74,85.74,0,0,0,.55-20.13,94.58,94.58,0,0,0-6.54-25.91c-5.32-13.6-14.61-27.92-13-42.68-2.77-.69-5.52-1.47-8.42-1.91-4.88-.71-9.94-.8-14.77-1.29-15.12-1.5-31-4.41-46.36-1.13-.82.18-1.66.36-2.48.56-6.43,1.48-12.84,3.39-19.42,4A49.1,49.1,0,0,1,832.12,434Z" transform="translate(0)" style="fill: #322e31"/>
                <path d="M832.12,434c1.29,4.76.82,11.48,1,14.72.93,15.58,3.9,32.28,6.3,47.67,1.22,7.78,1.93,15.89,3.39,23.56.29,1.53,1.8,8.85,1.38,13.66,7.33-2.51,23.08-.42,27.27-.16a199,199,0,0,0,43-2.19c7.45-1.22,14.74-3.5,22.33-4.66,5.45-.8,11.77-2.17,17.47-1.5.11-.52.2-1,.24-1.36a85.74,85.74,0,0,0,.55-20.13c-9.46,10.07-24.78,6.67-38.2,6a67.77,67.77,0,0,0-23.43,2.62c-6.43,1.86-17.74,5.54-23.46.29-4.17-3.88-7-11.73-10.08-16.85-4.39-7.32-6.9-13.11-7.34-21.93-.78-15.1.13-31.59,10.95-42.52-6.43,1.48-12.84,3.39-19.42,4A49.1,49.1,0,0,1,832.12,434Z" transform="translate(0)" style="fill: #2b272a"/>
              </g>
            </g>
          </g>
          <g>
            <path d="M619.66,401.57l66.56,141.68c15.65,37.46,31.68,36.22,31.68,36.22h484.2s16,1.24,31.68-36.22l66.56-141.68s-.17-.54-.54-1.4c0-.06,0-.06-.06-.11-2.48-6.1-13.92-27.91-46.2-17.38l-75.56,143H742l-75.57-143c-32.28-10.53-43.72,11.28-46.2,17.38-.06.05-.06.05-.06.11C619.83,401,619.66,401.57,619.66,401.57Z" transform="translate(0)" style="fill: #dedcc7"/>
            <path d="M619.66,401.57l66.56,141.68c15.65,37.46,31.68,36.22,31.68,36.22h484.2s16,1.24,31.68-36.22l66.56-141.68s-.17-.54-.54-1.4c0-.06,0-.06-.06-.11-5-8.37-17.49-21.32-43.88-12.74l-75.56,143H739.7l-75.56-143c-26.39-8.58-38.86,4.37-43.88,12.74-.06.05-.06.05-.06.11C619.83,401,619.66,401.57,619.66,401.57Zm12.58,4.64A18.12,18.12,0,0,1,648,398a32.45,32.45,0,0,1,7,.81l76.64,145.08h456.9l76.64-145.08a32.45,32.45,0,0,1,7-.81,18.12,18.12,0,0,1,15.71,8.26l-64.12,136.5c-9.72,23.32-18.24,27.37-19.7,27.91H716.06c-1.46-.54-10-4.59-19.7-27.91Z" transform="translate(0)" style="fill: #b4b2a1"/>
            <path d="M619.66,401.57l66.56,141.68c15.65,37.46,31.68,36.22,31.68,36.22h484.2s16,1.24,31.68-36.22l66.56-141.68s-9.45-31-46.8-18.89l-75.56,143H742l-75.57-143C629.11,370.53,619.66,401.57,619.66,401.57Zm14.9,0a18.13,18.13,0,0,1,15.71-8.26,32.52,32.52,0,0,1,7,.81L733.88,539.2h452.24l76.65-145.08a32.45,32.45,0,0,1,7-.81,18.13,18.13,0,0,1,15.71,8.26l-64.12,136.5c-9.72,23.32-18.25,27.37-19.7,27.9H718.38c-1.45-.53-10-4.58-19.7-27.9Z" transform="translate(0)" style="fill: #dedcc7"/>
          </g>
        </g>
      </g>
      <g>
        <path d="M432.84,704.28H728.19L612.52,237l-2.41-9.74c-7.44-.79-16.68-1.33-26.81-1.45-1.62,0-3.24,0-4.89,0-10.13,0-19.55.41-27.39,1.08l-2.62,10.61Z" transform="translate(0)" style="opacity: 0.4;fill: url(#linear-gradient-12)"/>
        <ellipse cx="393.18" cy="694.74" rx="151.69" ry="21.6" style="opacity: 0.5;mix-blend-mode: multiply;fill: url(#linear-gradient-13)"/>
        <g>
          <g>
            <path d="M334.62,680.35c16-8,55.31-13.61,101.25-13.61s85.22,5.64,101.26,13.61h7.74v8c0,11.93-48.8,21.61-109,21.61s-109-9.68-109-21.61v-8Z" transform="translate(0)" style="fill: #28262a"/>
            <path d="M326.87,680.34c0,4.78,7.8,9.19,21,12.77a233.87,233.87,0,0,0,33.67,6A485.29,485.29,0,0,0,435.88,702c60.19,0,109-9.67,109-21.61s-48.8-21.59-109-21.59S326.87,668.42,326.87,680.34Z" transform="translate(0)" style="fill: #3e3a41"/>
            <path d="M347.9,693.11a233.87,233.87,0,0,0,33.67,6l61.05-18.74-13.48-7.2Z" transform="translate(0)" style="opacity: 0.5;mix-blend-mode: multiply;fill: url(#linear-gradient-14)"/>
          </g>
          <g>
            <path d="M432,612.36h7.7V187.69a67.88,67.88,0,0,1,135.76,0h7.7a75.58,75.58,0,1,0-151.16,0Z" transform="translate(0)" style="fill: #d3d1bd"/>
            <rect x="429.13" y="308.59" width="13.48" height="371.76" style="fill: #ffc68c"/>
          </g>
          <rect x="571.96" y="175.89" width="14.73" height="24.98" style="fill: #c8afb1"/>
          <path d="M598.86,208.17a14.48,14.48,0,0,1-14.48,14.48h-10.1a14.48,14.48,0,0,1-14.49-14.48h0a14.48,14.48,0,0,1,14.49-14.48h10.1a14.48,14.48,0,0,1,14.48,14.48Z" transform="translate(0)" style="fill: #3e3a41"/>
          <g>
            <path d="M514.56,305.89H644.1a147.65,147.65,0,0,0-1.42-20.42c-6.26-43.89-32.25-76.83-63.35-76.83-10.29,0-20,3.59-28.62,10C529.29,234.49,514.56,267.62,514.56,305.89Z" transform="translate(0)" style="fill: #fbf4f2"/>
            <path d="M514.56,305.89H644.1a147.65,147.65,0,0,0-1.42-20.42c-69.46-7-87.54-43.81-92-66.83C529.29,234.49,514.56,267.62,514.56,305.89Z" transform="translate(0)" style="opacity: 0.30000000000000004;mix-blend-mode: multiply;fill: url(#linear-gradient-15)"/>
          </g>
        </g>
      </g>
      <g>
        <g style="opacity: 0.30000000000000004;mix-blend-mode: multiply">
          <path d="M1236.15,811.8l-48.68-49.72a18.93,18.93,0,0,0-13.53-5.69H635.59a17.24,17.24,0,0,0-12.33,5.18l-51.1,52.19a4.92,4.92,0,0,0,3.51,8.36h656.14A6.07,6.07,0,0,0,1236.15,811.8Z" transform="translate(0)" style="fill: #000100"/>
        </g>
        <g>
          <g>
            <polygon points="1158.86 727.08 1158.96 727.37 1164.86 742.51 1193.21 815.3 1205.46 815.3 1185.48 742.51 1181.31 727.37 1181.23 727.08 1158.86 727.08" style="fill: #3d3d3d"/>
            <polygon points="714.55 815.3 726.8 815.3 755.13 742.51 761.03 727.37 761.13 727.08 738.78 727.08 738.7 727.37 734.53 742.51 714.55 815.3" style="fill: #3d3d3d"/>
          </g>
          <g>
            <polygon points="1117.2 727.07 1134.38 771.19 1146.92 771.19 1134.8 727.07 1117.2 727.07" style="fill: #282828"/>
            <polygon points="802.8 727.07 785.62 771.19 773.08 771.19 785.2 727.07 802.8 727.07" style="fill: #282828"/>
          </g>
          <polygon points="1158.96 727.37 1164.86 742.51 1185.48 742.51 1181.31 727.37 1158.96 727.37" style="fill: #2e2e2e"/>
          <polygon points="734.53 742.51 755.13 742.51 761.03 727.37 738.7 727.37 734.53 742.51" style="fill: #2e2e2e"/>
          <g>
            <path d="M1172.06,667.24H747.94L698.62,717.6h522.75Z" transform="translate(0)" style="fill: #ffc68c"/>
            <rect x="698.63" y="717.61" width="522.75" height="9.96" style="fill: #614a2d"/>
          </g>
        </g>
      </g>
      <g>
        <ellipse cx="1109.78" cy="695.28" rx="14.46" ry="7.2" style="opacity: 0.43"/>
        <path d="M1110.49,655.18a95.51,95.51,0,0,0-17.78-41.73l1.71-1.29a97,97,0,0,1,18.2,42.69l-2.13.33Z" transform="translate(0)" style="fill: #009245"/>
        <path d="M1135.53,610a22.61,22.61,0,0,1,20.25,1.34,33.19,33.19,0,0,1-31.17,11A21.68,21.68,0,0,1,1135.53,610Z" transform="translate(0)" style="fill: #ed1c24"/>
        <path d="M1089.13,602.92a22.74,22.74,0,0,0-20.2-2.21A33.27,33.27,0,0,0,1097.81,617,21.87,21.87,0,0,0,1089.13,602.92Z" transform="translate(0)" style="fill: #ed1c24"/>
        <path d="M1097.42,630c8.29.62,15.2,18.65,15.2,18.65C1100.08,645.88,1097.42,630,1097.42,630Z" transform="translate(0)" style="fill: #009245"/>
        <path d="M1121.67,633.67c.64,7.23-11.57,15.63-11.57,15.63C1107.5,639.86,1121.67,633.67,1121.67,633.67Z" transform="translate(0)" style="fill: #009245"/>
        <path d="M1090.69,631.29c12.75-.81,19.61,18.46,19.61,18.46C1098.7,635.6,1090.78,631.29,1090.69,631.29Z" transform="translate(0)" style="fill: #39b54a"/>
        <path d="M1129.65,637.48c-10,.45-16.52,11.2-16.52,11.2C1114.64,633.64,1129.65,637.48,1129.65,637.48Z" transform="translate(0)" style="fill: #39b54a"/>
        <path d="M1109.43,652a47.33,47.33,0,0,1,6.81-20.22,46.58,46.58,0,0,1,12.49-13.41l1.26,1.73a44.67,44.67,0,0,0-11.93,12.8,45.15,45.15,0,0,0-6.5,19.3Z" transform="translate(0)" style="fill: #009245"/>
        <path d="M1106,653.14c.5,6.86-2.1,11.42-2.8,21.79a89.91,89.91,0,0,0,.95,18.9c.21.88.6,2.09,1.51,2a19.08,19.08,0,0,0,6,1.25,20.27,20.27,0,0,0,6.24-1.43c.9,0,1.08-1,1.29-1.87a86.06,86.06,0,0,0,.95-18.9c-.78-10.37-3.39-14.93-2.8-21.79a18.7,18.7,0,0,1,2.8-8.71,26.83,26.83,0,0,1-17.11,0A18.69,18.69,0,0,1,1106,653.14Z" transform="translate(0)" style="fill: #e8ec7a"/>
      </g>
    </g>
  </g>
</svg>
