<svg xmlns="http://www.w3.org/2000/svg" xmlns:xlink="http://www.w3.org/1999/xlink" viewBox="0 0 691.45 497.06">
  <defs>
    <linearGradient id="linear-gradient" x1="-811.33" y1="497.06" x2="-811.33" y2="38.6" gradientTransform="matrix(-1, 0, 0, 1, -271.8, 0)" gradientUnits="userSpaceOnUse">
      <stop offset="0" stop-color="#fff"/>
      <stop offset="0.07" stop-color="#e3e3e3"/>
      <stop offset="0.27" stop-color="#9f9f9f"/>
      <stop offset="0.46" stop-color="#666"/>
      <stop offset="0.63" stop-color="#3a3a3a"/>
      <stop offset="0.78" stop-color="#1a1a1a"/>
      <stop offset="0.91" stop-color="#070707"/>
      <stop offset="1"/>
    </linearGradient>
    <linearGradient id="linear-gradient-2" x1="-1999.2" y1="497.06" x2="-1999.2" y2="38.6" gradientTransform="translate(2151.12)" xlink:href="#linear-gradient"/>
    <linearGradient id="linear-gradient-3" x1="-617.59" y1="54.68" x2="-317.02" y2="54.68" gradientTransform="matrix(-1, 0, 0, 1, -271.8, 0)" gradientUnits="userSpaceOnUse">
      <stop offset="0"/>
      <stop offset="1" stop-color="#fff"/>
    </linearGradient>
    <linearGradient id="linear-gradient-4" x1="-617.59" y1="175.08" x2="-317.02" y2="175.08" xlink:href="#linear-gradient-3"/>
    <linearGradient id="linear-gradient-5" x1="-918.03" y1="54.68" x2="-617.59" y2="54.68" xlink:href="#linear-gradient-3"/>
    <linearGradient id="linear-gradient-6" x1="-918.03" y1="175.08" x2="-617.59" y2="175.08" xlink:href="#linear-gradient-3"/>
  </defs>
  <g style="isolation: isolate">
    <g id="window">
      <polygon id="right-c-shadow" points="644.19 497.06 496.47 497.06 434.86 38.6 644.19 38.6 644.19 497.06" style="opacity: 0.5;mix-blend-mode: multiply;fill: url(#linear-gradient)"/>
      <polygon id="left-c-shadow" points="47.26 497.06 194.98 497.06 256.59 38.6 47.26 38.6 47.26 497.06" style="opacity: 0.5;mix-blend-mode: multiply;fill: url(#linear-gradient-2)"/>
      <g id="window-right">
        <polygon points="158.93 40.52 345.79 227.39 345.79 270.81 115.52 40.52 158.93 40.52" style="fill: #fff;opacity: 0.29"/>
        <polygon points="45.22 163.56 45.22 236.82 252.54 444.14 325.8 444.14 45.22 163.56" style="fill: #fff;opacity: 0.29"/>
        <polygon points="45.22 40.52 81.62 40.52 345.79 304.69 345.79 411.82 45.22 111.25 45.22 40.52" style="fill: #fff;opacity: 0.29"/>
        <polygon points="331.25 40.52 345.79 55.07 345.79 162.19 224.13 40.52 331.25 40.52" style="fill: #fff;opacity: 0.29"/>
        <rect x="45.22" y="40.52" width="300.57" height="28.32" style="opacity: 0.30000000000000004;mix-blend-mode: multiply;fill: url(#linear-gradient-3)"/>
        <rect x="45.22" y="160.92" width="300.57" height="28.32" style="opacity: 0.30000000000000004;mix-blend-mode: multiply;fill: url(#linear-gradient-4)"/>
        <polygon points="45.22 301.54 45.22 344.99 144.37 444.14 187.82 444.14 45.22 301.54" style="fill: #fff;opacity: 0.29"/>
        <polygon points="39.44 34.74 345.79 34.74 345.79 46.3 51 46.3 51 438.36 345.79 438.36 345.79 449.92 39.44 449.92 39.44 34.74" style="fill: #282828"/>
        <rect x="333.79" y="40.52" width="12" height="403.62" style="fill: #282828"/>
        <rect x="45.22" y="156.41" width="300.57" height="11.56" style="fill: #282828"/>
      </g>
      <g id="window-left">
        <polygon points="518.13 40.52 646.23 168.62 646.23 125.19 561.56 40.52 518.13 40.52" style="fill: #fff;opacity: 0.29"/>
        <polygon points="377.13 40.52 646.23 309.64 646.23 202.5 484.25 40.52 377.13 40.52" style="fill: #fff;opacity: 0.29"/>
        <polygon points="562.54 444.14 519.11 444.14 345.79 270.81 345.79 227.39 562.54 444.14" style="fill: #fff;opacity: 0.29"/>
        <polygon points="485.24 444.14 378.11 444.14 345.79 411.82 345.79 304.69 485.24 444.14" style="fill: #fff;opacity: 0.29"/>
        <polygon points="646.23 355.5 646.23 444.14 627.74 444.14 345.79 162.19 345.79 55.07 646.23 355.5" style="fill: #fff;opacity: 0.29"/>
        <rect x="345.79" y="40.52" width="300.44" height="28.32" style="opacity: 0.30000000000000004;mix-blend-mode: multiply;fill: url(#linear-gradient-5)"/>
        <rect x="345.79" y="160.92" width="300.44" height="28.32" style="opacity: 0.30000000000000004;mix-blend-mode: multiply;fill: url(#linear-gradient-6)"/>
        <polygon points="640.45 438.36 640.45 46.3 345.79 46.3 345.79 34.74 652.01 34.74 652.01 449.92 345.79 449.92 345.79 438.36 640.45 438.36" style="fill: #282828"/>
        <rect x="345.79" y="40.52" width="11.52" height="403.62" style="fill: #282828"/>
        <rect x="345.79" y="156.41" width="300.44" height="11.56" style="fill: #282828"/>
      </g>
      <g id="curtain-left">
        <g>
          <path d="M29,10.46V483.14h136.5L188.68,363l29.94-155.46,11.37-59,11.9-61.84,8.9-46.17,5.8-30.06ZM47.4,26.12a4.75,4.75,0,1,1-4.73-4.76A4.73,4.73,0,0,1,47.4,26.12Zm24.87,0a4.75,4.75,0,1,1-4.74-4.76A4.74,4.74,0,0,1,72.27,26.12Zm24.86,0a4.74,4.74,0,1,1-4.74-4.76A4.74,4.74,0,0,1,97.13,26.12Zm24.89,0a4.75,4.75,0,1,1-4.76-4.76A4.75,4.75,0,0,1,122,26.12Zm24.86,0a4.75,4.75,0,1,1-4.74-4.76A4.74,4.74,0,0,1,146.88,26.12Zm24.87,0A4.75,4.75,0,1,1,167,21.36,4.74,4.74,0,0,1,171.75,26.12Zm24.86,0a4.74,4.74,0,1,1-4.74-4.76A4.74,4.74,0,0,1,196.61,26.12Zm24.88,0a4.75,4.75,0,1,1-4.75-4.76A4.74,4.74,0,0,1,221.49,26.12Zm20.11,4.73a4.75,4.75,0,1,1,4.76-4.73A4.74,4.74,0,0,1,241.6,30.85Z" style="fill: #6c696e"/>
          <path d="M29,62.56v101c7.51-5.72,14.39-11,19.55-13.75,29.83-15.76,50.67-1.78,76,14.65,31.72,20.57,46.93,6.09,77.5-9.61,10.82-5.56,19.78-7.11,27.91-6.28l11.9-61.84c-22-9.75-35.34-15.6-65.56-8.82-29.68,6.68-48,14-76.42-4.16C77.64,59.47,56.47,45,30.2,61.8,29.82,62.06,29.41,62.31,29,62.56Z" style="fill: #7a777c"/>
          <path d="M29,10.46V40.52H250.79l5.8-30.06ZM42.67,30.85a4.75,4.75,0,1,1,4.74-4.73A4.75,4.75,0,0,1,42.67,30.85Zm24.86,0a4.75,4.75,0,1,1,4.74-4.73A4.74,4.74,0,0,1,67.53,30.85Zm24.87,0a4.75,4.75,0,1,1,4.74-4.73A4.74,4.74,0,0,1,92.4,30.85Zm24.86,0A4.75,4.75,0,1,1,122,26.12,4.74,4.74,0,0,1,117.26,30.85Zm24.89,0a4.75,4.75,0,1,1,4.73-4.73A4.74,4.74,0,0,1,142.15,30.85Zm24.86,0a4.75,4.75,0,1,1,4.74-4.73A4.75,4.75,0,0,1,167,30.85Zm24.86,0a4.75,4.75,0,1,1,4.74-4.73A4.73,4.73,0,0,1,191.87,30.85Zm24.87,0a4.75,4.75,0,1,1,4.76-4.73A4.74,4.74,0,0,1,216.74,30.85Zm24.86,0a4.75,4.75,0,1,1,4.76-4.73A4.73,4.73,0,0,1,241.6,30.85Z" style="fill: #575659"/>
          <path d="M218.63,207.52,188.68,363,165.53,483.13H29V249.87C70.35,253.38,155,253.57,218.63,207.52Z" style="fill: #615f63"/>
          <path d="M188.68,363,165.53,483.13H29V435.61c7-3.11,13.81-9.51,16.47-22.22,0,0,20.28,12.38,31.76-11.58,0,0,25.61,11.73,40.39-14.11,0,0,41.71,6.76,51.4-32.65C169.05,355.05,176.26,365.6,188.68,363Z" style="fill: #575659"/>
          <g>
            <polygon points="58.45 10.45 51.29 220.69 51.29 10.45 58.45 10.45" style="fill: #454447"/>
            <polygon points="52.88 483.13 41.65 483.13 41.65 297.35 52.88 483.13" style="fill: #454447"/>
            <polygon points="82.42 483.13 72.08 483.13 77.26 343.65 82.42 483.13" style="fill: #454447"/>
            <polygon points="121.85 316.44 117.86 483.13 107.13 483.13 121.85 316.44" style="fill: #454447"/>
            <polygon points="183.92 259.52 154.59 483.13 144.32 483.13 183.92 259.52" style="fill: #454447"/>
            <polygon points="84.81 10.45 77.72 174.04 77.72 10.45 84.81 10.45" style="fill: #454447"/>
            <polygon points="108.35 10.45 101.36 139.84 101.36 10.45 108.35 10.45" style="fill: #454447"/>
            <polygon points="133.11 10.45 125.99 192.48 125.99 10.45 133.11 10.45" style="fill: #454447"/>
            <polygon points="157.62 10.45 150.59 166.32 150.59 10.45 157.62 10.45" style="fill: #454447"/>
            <polygon points="184.46 10.45 177.51 147.86 177.51 10.45 184.46 10.45" style="fill: #454447"/>
            <polygon points="208.99 10.45 202.93 90.62 202.04 10.45 208.99 10.45" style="fill: #454447"/>
            <polygon points="235.54 10.45 208.99 199.05 226.22 10.45 235.54 10.45" style="fill: #454447"/>
          </g>
        </g>
        <g>
          <path d="M42.61,28.8a2.89,2.89,0,0,1-2.89-2.89v-23a2.89,2.89,0,0,1,5.78,0v23A2.89,2.89,0,0,1,42.61,28.8Z" style="fill: #282828"/>
          <path d="M67.78,28.8a2.88,2.88,0,0,1-2.88-2.89v-23a2.89,2.89,0,1,1,5.77,0v23A2.89,2.89,0,0,1,67.78,28.8Z" style="fill: #282828"/>
          <path d="M92.41,28.8a2.88,2.88,0,0,1-2.88-2.89v-23a2.89,2.89,0,1,1,5.77,0v23A2.89,2.89,0,0,1,92.41,28.8Z" style="fill: #282828"/>
          <path d="M117.23,28.8a2.89,2.89,0,0,1-2.89-2.89v-23a2.89,2.89,0,0,1,5.78,0v23A2.89,2.89,0,0,1,117.23,28.8Z" style="fill: #282828"/>
          <path d="M142.25,28.8a2.88,2.88,0,0,1-2.88-2.89v-23a2.89,2.89,0,1,1,5.77,0v23A2.89,2.89,0,0,1,142.25,28.8Z" style="fill: #282828"/>
          <path d="M167.07,28.8a2.89,2.89,0,0,1-2.89-2.89v-23a2.89,2.89,0,0,1,5.78,0v23A2.89,2.89,0,0,1,167.07,28.8Z" style="fill: #282828"/>
          <path d="M192.09,28.8a2.88,2.88,0,0,1-2.88-2.89v-23a2.89,2.89,0,1,1,5.77,0v23A2.89,2.89,0,0,1,192.09,28.8Z" style="fill: #282828"/>
          <path d="M216.71,28.8a2.89,2.89,0,0,1-2.89-2.89v-23a2.89,2.89,0,1,1,5.78,0v23A2.89,2.89,0,0,1,216.71,28.8Z" style="fill: #282828"/>
          <path d="M241.63,28.8a2.89,2.89,0,0,1-2.89-2.89v-23a2.89,2.89,0,0,1,5.78,0v23A2.89,2.89,0,0,1,241.63,28.8Z" style="fill: #282828"/>
        </g>
      </g>
      <g id="curtain-right">
        <g>
          <path d="M434.86,10.46l5.79,30.06,4.7,24.42,12,62.52,15.43,80.07L502.77,363l23.15,120.15H662.41V10.46Zm44.58,15.66a4.75,4.75,0,1,1-4.73-4.76A4.73,4.73,0,0,1,479.44,26.12Zm24.87,0a4.74,4.74,0,1,1-4.74-4.76A4.74,4.74,0,0,1,504.31,26.12Zm24.88,0a4.75,4.75,0,1,1-4.75-4.76A4.75,4.75,0,0,1,529.19,26.12Zm24.87,0a4.75,4.75,0,1,1-4.76-4.76A4.74,4.74,0,0,1,554.06,26.12Zm24.86,0a4.75,4.75,0,1,1-4.74-4.76A4.74,4.74,0,0,1,578.92,26.12Zm24.87,0a4.74,4.74,0,1,1-4.74-4.76A4.74,4.74,0,0,1,603.79,26.12Zm24.88,0a4.75,4.75,0,1,1-4.76-4.76A4.75,4.75,0,0,1,628.67,26.12Zm24.86,0a4.75,4.75,0,1,1-4.75-4.76A4.74,4.74,0,0,1,653.53,26.12Zm-208.45,0a4.75,4.75,0,1,1,4.76,4.73A4.77,4.77,0,0,1,445.08,26.12Z" style="fill: #6c696e"/>
          <path d="M449.24,65.06c-1.29-.06-2.6-.1-3.89-.12l12,62.52a80.56,80.56,0,0,1,8.34,4.91c25.44,17.18,33.67,48.85,67.78,49.91,15,.46,29.46-3.95,43.91.05,11.4,3.16,20.94,12.58,32.61,15,14.56,3,34.18-4.09,52.38-11v-65.5c-10.51,4.71-21.09,8.72-28.56,9.7-20.57,2.72-29.22-17.51-43.06-29.35-30.78-26.33-40.74,2.87-71.94.46C491.81,99.59,478.77,66.37,449.24,65.06Z" style="fill: #7a777c"/>
          <path d="M434.86,10.46l5.8,30.06H662.42V10.46ZM644,26.12a4.75,4.75,0,1,1,4.74,4.73A4.75,4.75,0,0,1,644,26.12Zm-24.86,0a4.75,4.75,0,1,1,4.74,4.73A4.75,4.75,0,0,1,619.18,26.12Zm-24.86,0a4.74,4.74,0,1,1,4.73,4.73A4.75,4.75,0,0,1,594.32,26.12Zm-24.89,0a4.75,4.75,0,1,1,4.76,4.73A4.77,4.77,0,0,1,569.43,26.12Zm-24.86,0a4.75,4.75,0,1,1,4.74,4.73A4.75,4.75,0,0,1,544.57,26.12Zm-24.87,0a4.75,4.75,0,1,1,4.74,4.73A4.75,4.75,0,0,1,519.7,26.12Zm-24.86,0a4.74,4.74,0,1,1,4.74,4.73A4.75,4.75,0,0,1,494.84,26.12Zm-24.89,0a4.75,4.75,0,1,1,4.76,4.73A4.77,4.77,0,0,1,470,26.12Zm-24.86,0a4.75,4.75,0,1,1,4.76,4.73A4.77,4.77,0,0,1,445.09,26.12Z" style="fill: #575659"/>
          <path d="M472.82,207.52,502.77,363l23.15,120.14h136.5V249.87C621.11,253.38,536.48,253.57,472.82,207.52Z" style="fill: #615f63"/>
          <path d="M502.77,363l23.15,120.14h136.5V435.61c-7-3.11-13.81-9.51-16.47-22.22,0,0-20.28,12.38-31.76-11.58,0,0-25.61,11.73-40.39-14.11,0,0-41.71,6.76-51.4-32.65C522.4,355.05,515.2,365.6,502.77,363Z" style="fill: #575659"/>
          <g>
            <polygon points="633 10.45 640.16 220.69 640.16 10.45 633 10.45" style="fill: #454447"/>
            <polygon points="638.58 483.13 649.8 483.13 649.8 297.35 638.58 483.13" style="fill: #454447"/>
            <polygon points="609.03 483.13 619.37 483.13 614.19 343.65 609.03 483.13" style="fill: #454447"/>
            <polygon points="569.61 316.44 573.59 483.13 584.32 483.13 569.61 316.44" style="fill: #454447"/>
            <polygon points="507.53 259.52 536.86 483.13 547.13 483.13 507.53 259.52" style="fill: #454447"/>
            <polygon points="606.64 10.45 613.73 174.04 613.73 10.45 606.64 10.45" style="fill: #454447"/>
            <polygon points="583.1 10.45 590.09 139.84 590.09 10.45 583.1 10.45" style="fill: #454447"/>
            <polygon points="558.34 10.45 565.46 192.48 565.46 10.45 558.34 10.45" style="fill: #454447"/>
            <polygon points="533.83 10.45 540.86 166.32 540.86 10.45 533.83 10.45" style="fill: #454447"/>
            <polygon points="506.99 10.45 513.95 147.86 513.95 10.45 506.99 10.45" style="fill: #454447"/>
            <polygon points="482.46 10.45 488.52 90.62 489.41 10.45 482.46 10.45" style="fill: #454447"/>
            <polygon points="455.91 10.45 482.46 199.05 465.24 10.45 455.91 10.45" style="fill: #454447"/>
          </g>
        </g>
        <g>
          <path d="M648.84,28.8a2.89,2.89,0,0,0,2.89-2.89v-23a2.89,2.89,0,0,0-5.78,0v23A2.89,2.89,0,0,0,648.84,28.8Z" style="fill: #282828"/>
          <path d="M623.67,28.8a2.89,2.89,0,0,0,2.89-2.89v-23a2.89,2.89,0,0,0-5.78,0v23A2.89,2.89,0,0,0,623.67,28.8Z" style="fill: #282828"/>
          <path d="M599,28.8a2.89,2.89,0,0,0,2.89-2.89v-23a2.89,2.89,0,1,0-5.78,0v23A2.89,2.89,0,0,0,599,28.8Z" style="fill: #282828"/>
          <path d="M574.22,28.8a2.89,2.89,0,0,0,2.89-2.89v-23a2.89,2.89,0,1,0-5.78,0v23A2.89,2.89,0,0,0,574.22,28.8Z" style="fill: #282828"/>
          <path d="M549.2,28.8a2.89,2.89,0,0,0,2.89-2.89v-23a2.89,2.89,0,1,0-5.78,0v23A2.89,2.89,0,0,0,549.2,28.8Z" style="fill: #282828"/>
          <path d="M524.38,28.8a2.89,2.89,0,0,0,2.89-2.89v-23a2.89,2.89,0,0,0-5.78,0v23A2.89,2.89,0,0,0,524.38,28.8Z" style="fill: #282828"/>
          <path d="M499.36,28.8a2.89,2.89,0,0,0,2.89-2.89v-23a2.89,2.89,0,1,0-5.78,0v23A2.89,2.89,0,0,0,499.36,28.8Z" style="fill: #282828"/>
          <path d="M474.74,28.8a2.89,2.89,0,0,0,2.89-2.89v-23a2.89,2.89,0,1,0-5.78,0v23A2.89,2.89,0,0,0,474.74,28.8Z" style="fill: #282828"/>
          <path d="M449.82,28.8a2.89,2.89,0,0,0,2.89-2.89v-23a2.89,2.89,0,1,0-5.78,0v23A2.89,2.89,0,0,0,449.82,28.8Z" style="fill: #282828"/>
        </g>
      </g>
      <g id="pole">
        <path d="M671.83,12.37a9.81,9.81,0,1,0,9.81-9.81A9.82,9.82,0,0,0,671.83,12.37Z" style="fill: #282828"/>
        <path d="M19.62,12.37A9.81,9.81,0,1,1,9.81,2.56,9.82,9.82,0,0,1,19.62,12.37Z" style="fill: #282828"/>
        <rect x="9.77" y="8.98" width="671.91" height="6.78" style="fill: #282828"/>
      </g>
    </g>
  </g>
</svg>
