<svg id="garden" xmlns="http://www.w3.org/2000/svg" xmlns:xlink="http://www.w3.org/1999/xlink" viewBox="0 0 761.28 395.29">
  <defs>
    <clipPath id="clip-path">
      <path d="M306.62,227.7l10.14-29.15C319.09,197.18,517.92,71.15,520.62,71l77.61,112.7c-4.25,4.88-93.79,23.76-90.66,26l9,6.46a1.17,1.17,0,0,1-.63,2.13L307.21,229.62A1,1,0,0,1,306.62,227.7Z" style="fill: none"/>
    </clipPath>
  </defs>
  <g>
    <rect width="761.28" height="395.29" style="fill: #e0f2ff"/>
    <path d="M22.3,114.46A156.45,156.45,0,0,0,0,122.08V395.29H761.28v-292C704.79,85.29,648.5,70.21,589.46,63,482.14,49.85,206.28,66,22.3,114.46Z" style="fill: #c4e6ff;opacity: 0.5"/>
    <path d="M0,137.94V278.56c104.73,4.9,571.69,25.6,761.28,14.08V245.92C433.93,167.78,27.54,139.77,0,137.94Z" style="fill: #94d7c4"/>
    <circle cx="154.82" cy="36.82" r="18.41" transform="translate(-4.26 40.97) rotate(-14.87)" style="fill: #ffd05c"/>
    <path d="M607.05,86.53a5.19,5.19,0,0,0-3.25,1.16,10.52,10.52,0,0,0-16.88-2.93A13.24,13.24,0,0,0,568.4,80.7a16.48,16.48,0,0,0-26.2.3,12.13,12.13,0,0,0-18,3.87A8.22,8.22,0,0,0,513,92h99.33c0-.07,0-.13,0-.19A5.26,5.26,0,0,0,607.05,86.53Z" style="fill: #fff"/>
    <g>
      <path d="M661.62,0c-2,3.39-3.09,8-2.21,14.36,0,0-20.15,1.48-16.9,20.12,0,0-13.27,11.07-9.5,32.52,3,17,22.15,20.84,22.15,20.84s-7.34,16.85,2,28.48c8.44,10.55,24.22,7.75,24.22,7.75s-.73,15.19,15,22.08,39.9-8.38,39.9-8.38L761.28,134V0Z" style="fill: #94d7a6"/>
      <path d="M734.19,78.87c-13.26,5.68-15-11.87-15-11.87-3.52,17.46-21.14,15.92-21.14,15.92-10.5,8.26-15.76-.78-15.76-.78-13.89,15.32-27.17,5.7-27.17,5.7s-7.34,16.85,2,28.48c8.44,10.55,24.22,7.75,24.22,7.75a23.88,23.88,0,0,0,3.7,12.64l33.81,9a82.55,82.55,0,0,0,17.38-7.9L761.28,134V79.43C747.08,87.27,734.19,78.87,734.19,78.87Z" style="fill: #81c892"/>
      <g>
        <path d="M751,31.12s-4.2,42.84-5,66.07-12.45,33.63-20.34,13.92-32.47-66.18-32.47-66.18,34.75,82.69,22.36,77.72-45.75-43.21-45.75-43.21c14.71,25,52.94,57.39,59,78.68s6.79,112,6.79,112l23.82,1.48s-5-140.41-6.88-155.22S751,31.12,751,31.12Z" style="fill: #d16850"/>
        <polygon points="721.66 114.41 729.62 71.96 719.23 102.65 721.66 114.41" style="fill: #d16850"/>
        <polygon points="687.46 98.5 688.11 82.14 685.09 96.04 687.46 98.5" style="fill: #d16850"/>
      </g>
      <path d="M661.63,0c-2,3.39-3.1,8-2.22,14.36,0,0-20.15,1.48-16.9,20.12,0,0-13.27,11.07-9.5,32.52,3,17,22.15,20.84,22.15,20.84s13.28,9.62,27.17-5.7c0,0,5.26,9,15.76.78,0,0,20.15,1.94,21.14-12.92,0,0,1.7,14.55,15,8.87,0,0,12.89,8.4,27.09.56V0Z" style="fill: #94d7a6"/>
      <path d="M659.42,60.16c-2.56-1.61-7.91-1.52-7.91-1.52s1.31,1.88,3.31,5.11,6.41.53,6.41.53A3.72,3.72,0,0,0,659.42,60.16Z" style="fill: #71ba7e"/>
      <path d="M729.77,38.73c-2.87,2.5.51,6.4.51,6.4a3.73,3.73,0,0,0,3.78-2.45c1.17-2.79.21-8,.21-8S732.63,36.22,729.77,38.73Z" style="fill: #71ba7e"/>
      <path d="M754.91,59.31a3.72,3.72,0,0,0,3.92,2.22,8.7,8.7,0,0,0,2.45-.68v-4.6l-.93-.36C756.8,54.5,754.91,59.31,754.91,59.31Z" style="fill: #71ba7e"/>
      <path d="M757.71,96c-2.87,2.5.52,6.4.52,6.4a3.7,3.7,0,0,0,3-1.26V92.75C760.52,93.47,759.31,94.57,757.71,96Z" style="fill: #71ba7e"/>
      <path d="M652.79,100.45c-2.92.78-6.5,4.75-6.5,4.75s2.26.32,6,1.06S657,102,657,102A3.72,3.72,0,0,0,652.79,100.45Z" style="fill: #71ba7e"/>
      <path d="M685.63,116.1c-2,.53-4.41,3.21-4.41,3.21s1.54.22,4.06.73,3.22-2.92,3.22-2.92A2.51,2.51,0,0,0,685.63,116.1Z" style="fill: #71ba7e"/>
      <path d="M660.37,14.28c-1.94-1.21-6-1.15-6-1.15s1,1.42,2.51,3.87,4.84.4,4.84.4A2.82,2.82,0,0,0,660.37,14.28Z" style="fill: #71ba7e"/>
      <path d="M751.89,7.1c-2.88-.09-3,3.81-3,3.81a2.82,2.82,0,0,0,3.36.59c2.08-.95,4.26-4.35,4.26-4.35S754.77,7.19,751.89,7.1Z" style="fill: #71ba7e"/>
      <path d="M695.29,60.06c-1.48,2.47,1.86,4.49,1.86,4.49a2.82,2.82,0,0,0,2.15-2.65c.19-2.27-1.72-5.84-1.72-5.84S696.77,57.59,695.29,60.06Z" style="fill: #71ba7e"/>
      <path d="M675.39,30.45c-2.15-.77-6.08.16-6.08.16s1.27,1.17,3.27,3.24,4.82-.65,4.82-.65A2.81,2.81,0,0,0,675.39,30.45Z" style="fill: #71ba7e"/>
      <path d="M697.49,11.27c-1.48,2.47,1.86,4.49,1.86,4.49a2.82,2.82,0,0,0,2.15-2.65c.19-2.27-1.72-5.84-1.72-5.84S699,8.8,697.49,11.27Z" style="fill: #71ba7e"/>
      <path d="M733.92,102.66c-1.48,2.47,1.86,4.49,1.86,4.49a2.82,2.82,0,0,0,2.15-2.64c.19-2.28-1.72-5.85-1.72-5.85S735.4,100.19,733.92,102.66Z" style="fill: #71ba7e"/>
    </g>
    <g>
      <path d="M28.77,153.2s22.3,8.37,34.24-6.28c0,0,22.7,4.13,27-19.13,0,0,25-6.28,21.18-30.66,0,0,23-10.25,5-40.14,0,0,10.13-14.71.78-29.85,0,0-9.17-17.69-25.59-27.14H.1V152.39C5.33,157.26,14.1,159.18,28.77,153.2Z" style="fill: #81c892"/>
      <path d="M7.45,170.29c-.51,20.93-4,99.19-4,99.19l24.22.67s-.8-111.9,8.8-128.25S59.31,112,81.62,100.29s24.49-25.2,24.49-25.2S97.82,89.5,77.75,96.53A139,139,0,0,1,79.34,74.3c-1.25,6.26-4.16,19.47-6.72,21.91C63,105.39,47,116.68,45,105.12c-1.91-10.92,12-67.4,12-67.4S48.05,71,44.43,71,31.29,55.64,31.29,55.64s7.55,14.3,8.05,19.45-1.52,30.79-6.62,35.26-15.13-43-17.26-70.47c0,0,1.52,53-1,53.05C12.81,93,5.36,87.83.1,84v2.81c3.44,4.52,7.42,10.23,8.3,13.44C10,106.18,8,149.37,7.45,170.29Z" style="fill: #d16850"/>
      <path d="M79.34,74.3c.41-2,.64-3.3.64-3.3C79.75,72.08,79.53,73.18,79.34,74.3Z" style="fill: #d16850"/>
      <path d="M4.69,80.1S17.45,86.36,24.37,71c0,0,14-.82,15-10.7,0,0,7,9.8,20.64,4.21,0,0-2.86,14.64,12.64,15.59,0,0,2.66,7.12,12.89,1.24,0,0,11.48,17.32,25.72,15.79,0,0,23-10.25,5-40.14,0,0,10.13-14.71.78-29.85,0,0,9.84-20-12.58-27.14H.1V97.79C3,94.26,5.84,88.54,4.69,80.1Z" style="fill: #94d7a6"/>
      <path d="M97.62,53.8a3.74,3.74,0,0,0-1.81,4.13s4.4,2.71,6.4-.53,3.32-5.11,3.32-5.11S100.18,52.2,97.62,53.8Z" style="fill: #71ba7e"/>
      <path d="M30.93,27.13s-.95,5.26.21,8.05a3.72,3.72,0,0,0,3.78,2.45s3.38-3.9.52-6.4S30.93,27.13,30.93,27.13Z" style="fill: #71ba7e"/>
      <path d="M8.4,59.31S6.51,54.5,3,55.89c-1.1.44-2,.79-2.86,1.09v2.9a11.86,11.86,0,0,0,4.38,1.65A3.73,3.73,0,0,0,8.4,59.31Z" style="fill: #71ba7e"/>
      <path d="M1.1,91.87s-1,5.26.21,8a3.7,3.7,0,0,0,3.77,2.45s3.39-3.9.52-6.4S1.1,91.87,1.1,91.87Z" style="fill: #71ba7e"/>
      <path d="M95.78,102.39a3.72,3.72,0,0,0-4.25,1.49s1,5.07,4.76,4.32,6-1.07,6-1.07S98.7,103.16,95.78,102.39Z" style="fill: #71ba7e"/>
      <path d="M65.81,119.32a2.51,2.51,0,0,0-2.87,1s.69,3.43,3.22,2.92,4.06-.72,4.06-.72S67.79,119.84,65.81,119.32Z" style="fill: #71ba7e"/>
      <path d="M94.64,26.29a2.81,2.81,0,0,0-1.37,3.12s3.33,2.05,4.84-.4,2.51-3.86,2.51-3.86S96.58,25.08,94.64,26.29Z" style="fill: #71ba7e"/>
      <path d="M11.42,7.1c-2.88.09-4.61.05-4.61.05S9,10.55,11.07,11.5a2.83,2.83,0,0,0,3.36-.59S14.3,7,11.42,7.1Z" style="fill: #71ba7e"/>
      <path d="M65.73,56.06S63.82,59.63,64,61.9a2.82,2.82,0,0,0,2.15,2.65s3.34-2,1.86-4.49S65.73,56.06,65.73,56.06Z" style="fill: #71ba7e"/>
      <path d="M73.18,34a2.81,2.81,0,0,0,.32,3.39s3.9.18,4-2.69.32-4.6.32-4.6S74.29,32,73.18,34Z" style="fill: #71ba7e"/>
      <path d="M63.53,7.27s-1.91,3.57-1.72,5.84A2.82,2.82,0,0,0,64,15.76s3.34-2,1.86-4.49S63.53,7.27,63.53,7.27Z" style="fill: #71ba7e"/>
      <path d="M57.79,87.63s-1.91,3.56-1.72,5.84a2.81,2.81,0,0,0,2.15,2.64s3.34-2,1.86-4.49S57.79,87.63,57.79,87.63Z" style="fill: #71ba7e"/>
    </g>
    <rect y="262.71" width="761.28" height="132.58" style="fill: #7cc27e"/>
    <ellipse cx="275.55" cy="334.66" rx="29.07" ry="7.86" style="fill: #4e9660"/>
    <ellipse cx="217.1" cy="319.78" rx="72.98" ry="13.54" style="fill: #4e9660"/>
    <ellipse cx="400.45" cy="334.35" rx="151.32" ry="11.91" style="fill: #4e9660"/>
    <ellipse cx="565.23" cy="332.44" rx="27.77" ry="7.22" style="fill: #4e9660"/>
    <g>
      <g>
        <path d="M112.72,124.83a13.59,13.59,0,0,0-13.6,13.59V260.83h27.19V138.42A13.58,13.58,0,0,0,112.72,124.83Z" style="fill: #fff"/>
        <path d="M147.45,126.27a13.59,13.59,0,0,0-13.6,13.59V262.27h27.2V139.86A13.59,13.59,0,0,0,147.45,126.27Z" style="fill: #fff"/>
        <path d="M182.1,126.27a13.59,13.59,0,0,0-13.6,13.59V262.27h27.2V139.86A13.59,13.59,0,0,0,182.1,126.27Z" style="fill: #fff"/>
        <path d="M217.46,126.27a13.59,13.59,0,0,0-13.6,13.59V262.27h27.19V139.86A13.59,13.59,0,0,0,217.46,126.27Z" style="fill: #fff"/>
        <path d="M252.1,126.27a13.58,13.58,0,0,0-13.59,13.59V262.27H265.7V139.86A13.59,13.59,0,0,0,252.1,126.27Z" style="fill: #fff"/>
        <path d="M286.84,126.27a13.59,13.59,0,0,0-13.6,13.59V262.27h27.19V139.86A13.58,13.58,0,0,0,286.84,126.27Z" style="fill: #fff"/>
        <path d="M321.48,126.27a13.58,13.58,0,0,0-13.59,13.59V262.27h27.19V139.86A13.59,13.59,0,0,0,321.48,126.27Z" style="fill: #fff"/>
        <path d="M356.29,126.27a13.59,13.59,0,0,0-13.6,13.59V262.27h27.2V139.86A13.59,13.59,0,0,0,356.29,126.27Z" style="fill: #fff"/>
        <path d="M390.94,126.27a13.59,13.59,0,0,0-13.6,13.59V262.27h27.2V139.86A13.59,13.59,0,0,0,390.94,126.27Z" style="fill: #fff"/>
        <path d="M425.67,126.27a13.59,13.59,0,0,0-13.6,13.59V262.27h27.2V139.86A13.59,13.59,0,0,0,425.67,126.27Z" style="fill: #fff"/>
        <path d="M460.32,126.27a13.59,13.59,0,0,0-13.6,13.59V262.27h27.2V139.86A13.59,13.59,0,0,0,460.32,126.27Z" style="fill: #fff"/>
        <path d="M495.68,126.27a13.59,13.59,0,0,0-13.6,13.59V262.27h27.19V139.86A13.58,13.58,0,0,0,495.68,126.27Z" style="fill: #fff"/>
        <path d="M530.32,126.27a13.58,13.58,0,0,0-13.59,13.59V262.27h27.19V139.86A13.59,13.59,0,0,0,530.32,126.27Z" style="fill: #fff"/>
        <path d="M565.06,126.27a13.59,13.59,0,0,0-13.6,13.59V262.27h27.19V139.86A13.58,13.58,0,0,0,565.06,126.27Z" style="fill: #fff"/>
        <path d="M599.7,126.27a13.58,13.58,0,0,0-13.59,13.59V262.27H613.3V139.86A13.59,13.59,0,0,0,599.7,126.27Z" style="fill: #fff"/>
        <path d="M635.12,126.27a13.59,13.59,0,0,0-13.6,13.59V262.27h27.2V139.86A13.59,13.59,0,0,0,635.12,126.27Z" style="fill: #fff"/>
        <path d="M757.54,140.6V263h3.74V131.25A13.55,13.55,0,0,0,757.54,140.6Z" style="fill: #fff"/>
        <path d="M669.6,126.27A13.59,13.59,0,0,0,656,139.86V262.27h27.2V139.86A13.59,13.59,0,0,0,669.6,126.27Z" style="fill: #fff"/>
        <path d="M703.92,126.27a13.59,13.59,0,0,0-13.6,13.59V262.27h27.2V139.86A13.59,13.59,0,0,0,703.92,126.27Z" style="fill: #fff"/>
        <path d="M78.07,124.53a13.6,13.6,0,0,0-13.6,13.6v122.4h27.2V138.13A13.6,13.6,0,0,0,78.07,124.53Z" style="fill: #fff"/>
        <path d="M43.6,124.83A13.59,13.59,0,0,0,30,138.42V260.83H57.19V138.42A13.58,13.58,0,0,0,43.6,124.83Z" style="fill: #fff"/>
        <path d="M22,139.86A13.59,13.59,0,0,0,0,129.19V262.27H22Z" style="fill: #fff"/>
        <path d="M737.94,127a13.6,13.6,0,0,0-13.6,13.6V263h27.2V140.6A13.6,13.6,0,0,0,737.94,127Z" style="fill: #fff"/>
      </g>
      <rect y="255.66" width="761.28" height="9.74" style="fill: #f2f2f2"/>
      <rect x="0.1" y="159.55" width="761.18" height="9.74" style="fill: #f2f2f2"/>
      <path d="M112.72,162.25a2.17,2.17,0,1,0,2.17,2.17A2.17,2.17,0,0,0,112.72,162.25Z" style="fill: #ceded2"/>
      <path d="M112.72,258.36a2.17,2.17,0,1,0,2.17,2.17A2.17,2.17,0,0,0,112.72,258.36Z" style="fill: #ceded2"/>
      <path d="M78.07,162.25a2.17,2.17,0,1,0,2.17,2.17A2.17,2.17,0,0,0,78.07,162.25Z" style="fill: #ceded2"/>
      <path d="M78.07,258.36a2.17,2.17,0,1,0,2.17,2.17A2.17,2.17,0,0,0,78.07,258.36Z" style="fill: #ceded2"/>
      <circle cx="181.66" cy="164.42" r="2.17" style="fill: #ceded2"/>
      <path d="M181.66,258.36a2.17,2.17,0,1,0,2.17,2.17A2.17,2.17,0,0,0,181.66,258.36Z" style="fill: #ceded2"/>
      <path d="M147,162.25a2.17,2.17,0,1,0,2.17,2.17A2.17,2.17,0,0,0,147,162.25Z" style="fill: #ceded2"/>
      <path d="M147,258.36a2.17,2.17,0,1,0,2.17,2.17A2.17,2.17,0,0,0,147,258.36Z" style="fill: #ceded2"/>
      <path d="M251.74,162.25a2.17,2.17,0,1,0,2.17,2.17A2.17,2.17,0,0,0,251.74,162.25Z" style="fill: #ceded2"/>
      <path d="M251.74,258.36a2.17,2.17,0,1,0,2.17,2.17A2.17,2.17,0,0,0,251.74,258.36Z" style="fill: #ceded2"/>
      <circle cx="217.1" cy="164.42" r="2.17" style="fill: #ceded2"/>
      <path d="M217.1,258.36a2.17,2.17,0,1,0,2.17,2.17A2.17,2.17,0,0,0,217.1,258.36Z" style="fill: #ceded2"/>
      <circle cx="320.68" cy="164.42" r="2.17" style="fill: #ceded2"/>
      <path d="M320.68,258.36a2.17,2.17,0,1,0,2.17,2.17A2.17,2.17,0,0,0,320.68,258.36Z" style="fill: #ceded2"/>
      <circle cx="286.04" cy="164.42" r="2.17" style="fill: #ceded2"/>
      <path d="M286,258.36a2.17,2.17,0,1,0,2.17,2.17A2.17,2.17,0,0,0,286,258.36Z" style="fill: #ceded2"/>
      <path d="M391.25,162.25a2.17,2.17,0,1,0,2.16,2.17A2.17,2.17,0,0,0,391.25,162.25Z" style="fill: #ceded2"/>
      <path d="M391.25,258.36a2.17,2.17,0,1,0,2.16,2.17A2.17,2.17,0,0,0,391.25,258.36Z" style="fill: #ceded2"/>
      <circle cx="356.6" cy="164.42" r="2.17" style="fill: #ceded2"/>
      <path d="M356.6,258.36a2.17,2.17,0,1,0,2.17,2.17A2.17,2.17,0,0,0,356.6,258.36Z" style="fill: #ceded2"/>
      <path d="M460.19,162.25a2.17,2.17,0,1,0,2.17,2.17A2.17,2.17,0,0,0,460.19,162.25Z" style="fill: #ceded2"/>
      <path d="M460.19,258.36a2.17,2.17,0,1,0,2.17,2.17A2.17,2.17,0,0,0,460.19,258.36Z" style="fill: #ceded2"/>
      <path d="M425.54,162.25a2.17,2.17,0,1,0,2.17,2.17A2.17,2.17,0,0,0,425.54,162.25Z" style="fill: #ceded2"/>
      <path d="M425.54,258.36a2.17,2.17,0,1,0,2.17,2.17A2.17,2.17,0,0,0,425.54,258.36Z" style="fill: #ceded2"/>
      <circle cx="530.12" cy="164.42" r="2.17" style="fill: #ceded2"/>
      <path d="M530.12,258.36a2.17,2.17,0,1,0,2.17,2.17A2.17,2.17,0,0,0,530.12,258.36Z" style="fill: #ceded2"/>
      <path d="M495.48,162.25a2.17,2.17,0,1,0,2.16,2.17A2.17,2.17,0,0,0,495.48,162.25Z" style="fill: #ceded2"/>
      <path d="M495.48,258.36a2.17,2.17,0,1,0,2.16,2.17A2.17,2.17,0,0,0,495.48,258.36Z" style="fill: #ceded2"/>
      <path d="M599.06,162.25a2.17,2.17,0,1,0,2.17,2.17A2.17,2.17,0,0,0,599.06,162.25Z" style="fill: #ceded2"/>
      <path d="M599.06,258.36a2.17,2.17,0,1,0,2.17,2.17A2.17,2.17,0,0,0,599.06,258.36Z" style="fill: #ceded2"/>
      <path d="M564.42,162.25a2.17,2.17,0,1,0,2.17,2.17A2.17,2.17,0,0,0,564.42,162.25Z" style="fill: #ceded2"/>
      <path d="M564.42,258.36a2.17,2.17,0,1,0,2.17,2.17A2.17,2.17,0,0,0,564.42,258.36Z" style="fill: #ceded2"/>
      <path d="M669.6,162.25a2.17,2.17,0,1,0,2.17,2.17A2.17,2.17,0,0,0,669.6,162.25Z" style="fill: #ceded2"/>
      <path d="M669.6,258.36a2.17,2.17,0,1,0,2.17,2.17A2.17,2.17,0,0,0,669.6,258.36Z" style="fill: #ceded2"/>
      <path d="M703.92,258.36a2.17,2.17,0,1,0,2.17,2.17A2.17,2.17,0,0,0,703.92,258.36Z" style="fill: #ceded2"/>
      <path d="M635,162.25a2.17,2.17,0,1,0,2.17,2.17A2.17,2.17,0,0,0,635,162.25Z" style="fill: #ceded2"/>
      <path d="M635,258.36a2.17,2.17,0,1,0,2.17,2.17A2.17,2.17,0,0,0,635,258.36Z" style="fill: #ceded2"/>
      <path d="M704.4,162.25a2.17,2.17,0,1,0,2.17,2.17A2.17,2.17,0,0,0,704.4,162.25Z" style="fill: #ceded2"/>
      <path d="M43.6,162.25a2.17,2.17,0,1,0,2.17,2.17A2.17,2.17,0,0,0,43.6,162.25Z" style="fill: #ceded2"/>
      <path d="M43.6,258.36a2.17,2.17,0,1,0,2.17,2.17A2.17,2.17,0,0,0,43.6,258.36Z" style="fill: #ceded2"/>
      <path d="M8.92,162.25a2.17,2.17,0,1,0,2.17,2.17A2.17,2.17,0,0,0,8.92,162.25Z" style="fill: #ceded2"/>
      <path d="M8.92,258.36a2.17,2.17,0,1,0,2.17,2.17A2.17,2.17,0,0,0,8.92,258.36Z" style="fill: #ceded2"/>
      <path d="M737.94,162.25a2.17,2.17,0,1,0,2.17,2.17A2.17,2.17,0,0,0,737.94,162.25Z" style="fill: #ceded2"/>
      <path d="M737.94,258.13a2.17,2.17,0,1,0,2.17,2.16A2.17,2.17,0,0,0,737.94,258.13Z" style="fill: #ceded2"/>
    </g>
    <path d="M231,51.15a5.2,5.2,0,0,0-1.77.33A9.74,9.74,0,0,0,221,46.94l-.44,0a15.34,15.34,0,0,0-12.76-6.79,15.19,15.19,0,0,0-9,3A16.92,16.92,0,0,0,169.14,45a11.82,11.82,0,0,0-18.69,9.63,12.38,12.38,0,0,0,.14,1.74h85.67A5.25,5.25,0,0,0,231,51.15Z" style="fill: #fff"/>
    <path d="M493.72,27.07c-1.35-2.36-4.77-3.77-8.17-3.77a10.9,10.9,0,0,0-5.79,1.64,11.32,11.32,0,0,0-9.18-4.37A11.07,11.07,0,0,0,460.77,26a8.43,8.43,0,0,0-4.4-1.22c-4.18,0-7.58,2.94-7.58,6.56a6,6,0,0,0,.09,1h46.84A43.58,43.58,0,0,0,493.72,27.07Z" style="fill: #fff"/>
    <path d="M332.69,92a6.88,6.88,0,0,0-5.23,2.44,13.12,13.12,0,0,0-18-5.73A17.69,17.69,0,0,0,280,87.35,13.81,13.81,0,0,0,260.49,92a8.74,8.74,0,0,0-14,6.93h93.13A6.92,6.92,0,0,0,332.69,92Z" style="fill: #fff"/>
    <path d="M117.43,388l0,.05Z" style="fill: #4e9660"/>
    <path d="M67.75,374.94C54.42,376.12,44.61,387.26,44,388l0,.05,0-.05c11-12.25,11.39-31.19,11.39-31.19-5.55,20.23-22.47,30.54-22.47,30.54,2.08-14,15.85-25.89,15.85-25.89C32,365.36,25.19,386.32,25.19,386.32,24.84,369.51,35.35,356,35.35,356c-12.22,7.58-16,18.16-17.19,24.7l-.49,5.94a27.39,27.39,0,0,1,.49-5.94l2.77-33.62L6.33,392.63c.4-5.87-3.07-18.73-6.33-29.3v32H50.94a4.62,4.62,0,0,0,.64-1.37C54.87,381.93,67.75,374.94,67.75,374.94Z" style="fill: #4e9660"/>
    <path d="M666.12,353.77a188.82,188.82,0,0,0-2.64,22.64C666.29,369.55,666.73,361.44,666.12,353.77Z" style="fill: #4e9660"/>
    <path d="M751.28,376.41a188.82,188.82,0,0,1,2.64-22.64,111.32,111.32,0,0,0-6-27.19c8.52,34.76-10.64,50.6-10.64,50.6,1-16.64,10.64-29.18,10.64-29.18-14,10-17.46,29.56-17.46,29.56a84.21,84.21,0,0,0-1.8-18.95,21.36,21.36,0,0,0-1.58,1.5c-.53,12.59-6.41,19.75-6.41,19.75-.16-10.35,3.25-16.39,6.41-19.75,0-.65,0-1.33,0-2-10.2,4.75-13.19,14.72-14,18.68-.08.57-.16,1.13-.27,1.68,0,0,.06-.63.27-1.68,1.73-12.42-2.68-29-2.68-29-.57,22.14-8.8,31.61-8.8,31.61,2.84-19.32-3.55-31.61-3.55-31.61,2.13,21-7,31-7,31-1.42-13.56,4.55-22.14,4.55-22.14-10.22,5.63-10.56,16.89-10.56,16.89-.76-25.08,9.28-30.58,9.28-30.58-10,3.6-15,15.92-17.28,24a39.05,39.05,0,0,1-1.64,7.44,64,64,0,0,1,1.64-7.44c1.68-13.09-1.74-27.49-1.74-27.49A62.41,62.41,0,0,1,666,375.64a43.41,43.41,0,0,0-1.73-19.48c-.27.33-.56.71-.87,1.13-.27,11-6.74,21-6.74,21,1.08-11.27,4.37-17.73,6.74-21,0-.56,0-1.12,0-1.69-8.72,5-12.11,17.76-13,21.6-.07.38-.14.74-.22,1.13,0,0,.07-.42.22-1.13,2.81-13.71-.62-20.88-.62-20.88.29,15.35-8.08,22.39-8.08,22.39,1.3-15.23,4.75-19.83,4.75-19.83-7,2.59-10.3,8.87-11.87,13.86a35.27,35.27,0,0,1-1.37,7,31.65,31.65,0,0,1,1.37-7c1.23-12.06-2.28-25.38-2.28-25.38a68.25,68.25,0,0,1-6.74,34c-2.06-6.91,1.63-29.82,1.63-29.82-9.52,12.93-8.93,35.58-10.43,27.77-.09-.47-.18-.94-.25-1.42a83.08,83.08,0,0,1-.73-15.47c-5.35,6.38-5.85,15.14-5.65,19.94.27,2.13.32,3.48.32,3.48a30.58,30.58,0,0,1-.32-3.48c-.52-4.18-1.87-11.37-5.33-17.38a34.22,34.22,0,0,0-6.23-8c-.12,1-.23,2-.32,3.05a43.89,43.89,0,0,1,3.4,8.14c3.18,10.36,1,17.53,1,17.53-4.71-7.46-5-17.8-4.39-25.67a34.07,34.07,0,0,0-2.68-4.19c-5.37,13.3-.24,30.37-.24,30.37-4.76-12.67-12.16-16.63-12.16-16.63,9.48,9.21,8.11,25.66,8.11,25.66h170V329.75c-3.55,6.71-5.86,15.72-7.36,24C754.53,361.44,754.09,369.55,751.28,376.41Z" style="fill: #4e9660"/>
    <path d="M562.62,377.2c-.15.71-.22,1.13-.22,1.13C562.48,377.94,562.55,377.58,562.62,377.2Z" style="fill: #4e9660"/>
    <path d="M625.28,376.78c-.21,1.05-.27,1.68-.27,1.68C625.12,377.91,625.2,377.35,625.28,376.78Z" style="fill: #4e9660"/>
    <path d="M274.62,319.1s-.73.21-2.32.51a2.55,2.55,0,0,0-.11-4.31l.27-.05a2.56,2.56,0,1,0-1.14-5l-.2.05a2.56,2.56,0,0,0-2.55-3.9c-.06,0-.74.12-2,.28a2.53,2.53,0,0,0,.64-2.06,2.56,2.56,0,0,0-2.89-2.18c-.1,0-2.14.29-5.66.67l1.55-.23a2.56,2.56,0,0,0-.83-5.06c-42.53,7-85.23-.93-85.65-1a2.55,2.55,0,0,0-2.19,4.41l-1.13-.22a2.56,2.56,0,1,0-1,5c1.14.23,2.3.43,3.46.65-2.31-.34-4.62-.7-6.93-1.11a2.55,2.55,0,0,0-2,4.51c-2.2-.46-3.25-.77-3.29-.78a2.56,2.56,0,0,0-1.51,4.89c.1,0,.59.18,1.5.4a1.64,1.64,0,0,0-.22.14c-4,1-17.73-.62-19.15,7.5-.56,3.17.48,8.73,14.15,15.58,10.57,5.29,27.07,6.06,39.75,6.43l.17.91a1.84,1.84,0,0,0,2.15,1.47l5.11-1h0l.82-.15.81-.15-.2-1.09.15.78a1.19,1.19,0,0,0,1.4,1l8.37-1.56a.42.42,0,0,0,.33-.47l0-.12.85-.16,0-.21a.74.74,0,0,0,.86.59l1-.19s6-2.66,7.36-3.16,6.49.05,6.81,1.77l1.32,7h0l.23,1.25c.13.68,8.74.58,13.06-.23s7.73-2,7.6-2.71l-.24-1.24-1.32-7a4.86,4.86,0,0,0-4.14-3.92,1.64,1.64,0,0,0,0-.22l-1.12-6a4.77,4.77,0,0,0-.48-1.31,3.63,3.63,0,0,1,.56.12.82.82,0,0,0,1-.81c21.19-1.23,28.21-3.28,28.61-3.41a2.56,2.56,0,0,0-1.49-4.89Zm-44.09,12.15-15.77,1.39-1,.18a.74.74,0,0,0-.59.86l1.69,9-1.73-9.22-.85.15,0-.09a.41.41,0,0,0-.47-.32l-8.38,1.57a1.2,1.2,0,0,0-1,1.4l-.05-.3-.82.16-.81.15-5.12,1a1.82,1.82,0,0,0-1.48,1.91c-11.9-.42-27.46-2.23-35.76-8.37-2-1.45-5.15-4.22-4.33-6.39a6.51,6.51,0,0,1,3.12-2.91,2.54,2.54,0,0,0,1.93,2.5c.73.18,18.27,4.42,52.75,4.42,7.8,0,14.72-.1,20.84-.27Zm6.72-.59-2.21.2,1.84-2.59a.87.87,0,0,0,.65.3A4.58,4.58,0,0,0,237.25,330.66Z" style="fill: #4e9660"/>
    <g>
      <g>
        <path d="M207.13,335.88c-.37,0-37.17,2.54-51.7-8.21-2-1.45-5.15-4.22-4.33-6.39,1.08-2.86,7.23-4.78,9.31-4.94a2.58,2.58,0,0,0,1,.29,2.55,2.55,0,0,0,2.74-2.36,2.79,2.79,0,0,0-2.16-2.91c-2.85-.77-12.7,1.87-15.41,7.49-1.41,2.91-1.54,7.51,5.8,12.94,11.05,8.17,32.24,9.5,44.9,9.5,5.74,0,9.73-.27,10.22-.31a2.56,2.56,0,1,0-.37-5.1Zm-48.08-22a2.35,2.35,0,0,0,0,.26A2.35,2.35,0,0,1,159.05,313.89Z" style="fill: #ee544d"/>
        <path d="M267.41,312c-.5.09-49.85,9-108.1-.72a2.56,2.56,0,1,0-.85,5.05,349.88,349.88,0,0,0,57.34,4.61c31,0,52.22-3.85,52.54-3.91a2.56,2.56,0,0,0-.93-5Z" style="fill: #ee544d"/>
        <path d="M268.32,307.25c-.2.05-20.82,4.59-58.61,4-37.62-.64-52-4.89-52.1-4.93a2.56,2.56,0,0,0-1.51,4.89c.59.18,15,4.5,53.52,5.16q3.88.07,7.51.07c33.64,0,51.53-4,52.33-4.15a2.56,2.56,0,1,0-1.14-5Z" style="fill: #f37d7e"/>
        <path d="M265.57,303.4c-.52.08-51.89,8-102.63-.85a2.56,2.56,0,0,0-.88,5.05,313.42,313.42,0,0,0,53.21,4.25,368.57,368.57,0,0,0,51.09-3.39,2.56,2.56,0,0,0-.79-5.06Z" style="fill: #ee544d"/>
        <path d="M271.62,316.1c-.14,0-14.23,4.07-62.72,4.07-33.77,0-51.34-4.22-51.52-4.27a2.56,2.56,0,0,0-1.23,5c.73.18,18.27,4.42,52.75,4.42,49.61,0,63.64-4.12,64.21-4.3a2.56,2.56,0,0,0-1.49-4.89Z" style="fill: #ca3434"/>
        <path d="M261.36,299.44c-.52.07-52.27,7.18-93.91-1.44a2.56,2.56,0,1,0-1,5c16.06,3.33,33.56,4.36,49.14,4.36a378.63,378.63,0,0,0,46.52-2.86,2.56,2.56,0,0,0-.71-5.07Z" style="fill: #f37d7e"/>
        <path d="M256.42,294.82c-42.53,7-85.23-.93-85.65-1a2.56,2.56,0,1,0-1,5,292.48,292.48,0,0,0,48.8,4,239.65,239.65,0,0,0,38.64-2.95,2.56,2.56,0,0,0-.83-5.06Z" style="fill: #ee544d"/>
        <g>
          <polygon points="227.23 328.69 230.64 329.83 234.93 323.79 232.85 320.47 227.23 328.69" style="fill: #02364c"/>
          <rect x="209.39" y="330.52" width="1.73" height="10.41" transform="translate(-58.22 44.46) rotate(-10.61)" style="fill: #02364c"/>
          <path d="M192.67,334.13a1.83,1.83,0,0,0-1.46,2.14l1.09,5.86a1.84,1.84,0,0,0,2.15,1.47l5.93-1.11L198.6,333Z" style="fill: #02364c"/>
          <path d="M196.82,340.31l-4.69.88.17.94,4.69-.88a.49.49,0,0,0,.39-.56A.48.48,0,0,0,196.82,340.31Z" style="fill: #39619d"/>
          <path d="M196.33,337.72l-4.69.87.18,1,4.69-.88a.48.48,0,1,0-.18-.94Z" style="fill: #39619d"/>
          <path d="M195.87,335.27l-4.69.88.18.94,4.69-.88a.47.47,0,0,0,.38-.56A.48.48,0,0,0,195.87,335.27Z" style="fill: #39619d"/>
          <rect x="198.67" y="333.01" width="0.83" height="9.64" transform="translate(-58.81 42.44) rotate(-10.61)" style="fill: #39619d"/>
          <rect x="199.48" y="332.86" width="0.83" height="9.64" transform="translate(-58.76 42.58) rotate(-10.61)" style="fill: #02364c"/>
          <path d="M208.81,330.19l-8.38,1.57a1.2,1.2,0,0,0-1,1.4l1.67,8.87a1.19,1.19,0,0,0,1.4,1l8.37-1.56a.42.42,0,0,0,.33-.47l-2-10.45A.41.41,0,0,0,208.81,330.19Z" style="fill: #ff3259"/>
          <path d="M210.78,329.82a.74.74,0,0,0-.59.86l1.83,9.79a.74.74,0,0,0,.86.59l1-.19-2.1-11.23Z" style="fill: #ff3259"/>
          <path d="M211.76,329.64l2.1,11.23a68.62,68.62,0,0,1,6.44-2.5c1.45-.34,4.52-.16,5.92-.66s4.17-1.92,5.61-2.29c1.65-.42,6.74-.86,6.74-.86l-1.34-7.16Z" style="fill: #02364c"/>
          <path d="M217.21,330.57l-.47.09a.68.68,0,0,0-.49,1l.8,1.7a.68.68,0,0,0,1.29-.42l-.34-1.79A.67.67,0,0,0,217.21,330.57Z" style="fill: #39619d"/>
          <path d="M223.62,329.88l-.48,0a.69.69,0,0,0-.62.88l.56,1.8a.69.69,0,0,0,.68.48.68.68,0,0,0,.65-.71l-.08-1.82A.68.68,0,0,0,223.62,329.88Z" style="fill: #39619d"/>
          <path d="M229.93,329.18l-.47,0a.68.68,0,0,0-.63.88l.56,1.79a.68.68,0,0,0,1.33-.23l-.08-1.81A.69.69,0,0,0,229.93,329.18Z" style="fill: #39619d"/>
          <path d="M243.4,326.4a4.64,4.64,0,0,0-9.12,1.71l1.13,6a2.68,2.68,0,0,0,3.13,2.14l3.84-.72a2.67,2.67,0,0,0,2.14-3.13Z" style="fill: #ff3259"/>
          <path d="M243,332.64l-6,1.13a4.89,4.89,0,0,0-3.9,5.71l1.4,7.47L250.08,344l-1.4-7.48A4.88,4.88,0,0,0,243,332.64Z" style="fill: #ff3259"/>
          <path d="M241.94,343.81c-4.32.81-7.72,2-7.59,2.71s3.74.59,8.06-.22,7.72-2,7.59-2.71S246.27,343,241.94,343.81Z" style="fill: #02364c"/>
          <rect x="234.33" y="345.04" width="15.93" height="1.27" transform="translate(-59.53 50.54) rotate(-10.61)" style="fill: #02364c"/>
          <path d="M242.18,345.05c-4.33.81-7.73,2-7.6,2.72s3.74.58,8.06-.23,7.73-2,7.6-2.71S246.5,344.24,242.18,345.05Z" style="fill: #39619d"/>
          <path d="M243.56,323.26c-1.47-.1-3.34-.69-2.33-1.32s2-2.33,1.28-2.94-2,1.63-2.88,1.41c-3.88-.92-2.65-3.57-7.38-8.69-2.67-2.89-6.37-4.77-8.08-3.83a2.05,2.05,0,0,0-1.26,2.35c1.79,4,6.65,0,10.57,13.59.47,1.62-.4,2.21,4.48,1.4a13.38,13.38,0,0,1,5.52,0,.82.82,0,0,0,1-.86C244.46,323.82,244.25,323.31,243.56,323.26Z" style="fill: #02364c"/>
          <polygon points="235 319.85 233.8 320.87 234.09 322.43 235.58 322.95 236.78 321.92 236.49 320.37 235 319.85" style="fill: #39619d"/>
        </g>
      </g>
      <g>
        <path d="M323.3,330.29c-2.12-1.78-1.33-11.08,2.37-27.64.17-.77.33-1.44.45-2,1.55-7.16-5-11.6-5.25-11.78l-1.3,1.95c.22.15,5.46,3.75,4.26,9.34-.12.56-.27,1.23-.44,2-3.6,16.09-5.21,27.38-1.37,30.13a1.94,1.94,0,0,0,1.39.38c3.22,0,14.38-2.8,60.6-20.31,28.76-10.91,57.35-22.34,57.64-22.45l-.88-2.18C398.16,304.75,328.85,331.32,323.3,330.29Z" style="fill: #127570"/>
        <path d="M340.64,330.29c-2.12-1.78-1.32-11.08,2.38-27.64.17-.77.32-1.44.44-2,1.55-7.16-5-11.6-5.24-11.78l-1.31,1.95c.23.15,5.47,3.75,4.26,9.34-.12.56-.27,1.23-.44,2-3.59,16.09-5.2,27.38-1.37,30.13a2,2,0,0,0,1.4.38c3.21,0,14.38-2.8,60.59-20.31C430.11,301.42,458.7,290,459,289.88l-.87-2.18C415.5,304.75,346.19,331.32,340.64,330.29Z" style="fill: #127570"/>
        <path d="M328.7,261c-6.27-2.13-27.46-22.25-44.49-38.41-14.75-14-27.48-26.09-33.79-30.14-14.53-9.31-44.32-13.3-45.59-13.47a3.82,3.82,0,0,0-1,7.57c.29,0,29.37,3.93,42.46,12.33C252,202.56,265.09,215,279,228.15c23.82,22.62,40,37.63,47.3,40.1a3.68,3.68,0,0,0,1.22.21A3.82,3.82,0,0,0,328.7,261Z" style="fill: #6c98d1"/>
        <path d="M228.07,182.77l-32.83-7.42a4.69,4.69,0,0,0-2.06,9.15L226,191.91a4.68,4.68,0,0,0,2.06-9.14Z" style="fill: #02364c"/>
        <path d="M323.64,274.54a19.44,19.44,0,0,0,17.6,12.37l93.17,2.92a19.48,19.48,0,0,0,15.87-7.51l69-64.2L304.87,229.85Z" style="fill: #ffdeb3"/>
        <path d="M516.6,216.17l-9-6.46a16.91,16.91,0,0,0-10.8-3.14l-166,9.14A16.94,16.94,0,0,0,323,218l-16.42,9.67a1,1,0,0,0,.59,1.92L516,218.3A1.17,1.17,0,0,0,516.6,216.17Z" style="fill: #f0be92"/>
        <path d="M518.66,213.3l-9-6.46A20.34,20.34,0,0,0,497.7,203l-1.13,0-166,9.14a20.62,20.62,0,0,0-9.27,2.8l-16.42,9.67a4.57,4.57,0,0,0,2.31,8.5h.26l208.76-11.31a4.71,4.71,0,0,0,2.5-8.53Zm-2.69,5L307.21,229.62h-.07a1,1,0,0,1-.52-1.92L323,218a16.94,16.94,0,0,1,7.68-2.32l166-9.14.93,0a17,17,0,0,1,9.87,3.17l9,6.46A1.17,1.17,0,0,1,516,218.3Z" style="fill: #ca976f"/>
        <g style="clip-path: url(#clip-path)">
          <g>
            <path d="M476.48,119a3.07,3.07,0,0,0,1,4.13l19.73,12.73,21.68,9a3.07,3.07,0,0,0,4-1.54c4.69-10.16,18.28-43.71,1.53-59.26C502.05,79.13,482.17,109.38,476.48,119Z" style="fill: #3eb3a7"/>
            <path d="M510.06,111.34a3,3,0,0,0-4,1.25L442.71,233.36a3,3,0,0,0,5.25,2.76l63.35-120.77A3,3,0,0,0,510.06,111.34Z" style="fill: #3eb3a7"/>
            <path d="M480.83,167.06a3,3,0,0,0-4,1.25l-34.12,65.05a3,3,0,0,0,5.25,2.76l34.12-65.06A3,3,0,0,0,480.83,167.06Z" style="fill: #ffdeb3"/>
            <path d="M511.73,108.15a1.61,1.61,0,0,0-1.33-.06c-4.71,1.57-15.14,23.4-16.32,25.88a.59.59,0,0,0,.29.79.6.6,0,0,0,.79-.28c3.12-6.62,12-24.07,15.61-25.27.27-.09.38,0,.41,0a.66.66,0,0,1,.3.44c1.09,3.84-8.28,20.87-12,27.11a.59.59,0,0,0,.21.81.54.54,0,0,0,.3.08.59.59,0,0,0,.51-.29c1.39-2.34,13.52-23,12.1-28A1.84,1.84,0,0,0,511.73,108.15Z" style="fill: #127570"/>
            <rect x="477.74" y="165.73" width="4.27" height="6.53" transform="translate(107.32 515.46) rotate(-62.32)" style="fill: #6c98d1"/>
            <path d="M443.71,239.5a1.79,1.79,0,0,0-.73-.36c-16.62-3.87-25.8,13.21-25.89,13.39a1.76,1.76,0,0,0-.12,1.35,1.78,1.78,0,0,0,.87,1.05l26.3,13.79a1.75,1.75,0,0,0,.82.21,1.78,1.78,0,0,0,1.58-.95C456.1,250.06,443.83,239.61,443.71,239.5Zm.48,25.23-23-12.08c2.41-3.67,9.47-12.46,20.56-10.14C443.26,244,450.24,251.78,444.19,264.73Z" style="fill: #3eb3a7"/>
            <rect x="427.67" y="244.33" width="7.59" height="33.19" rx="1.52" transform="translate(-0.01 521.82) rotate(-62.32)" style="fill: #3eb3a7"/>
            <path d="M450,225.93a3,3,0,0,0-4,1.25l-6,11.44a3,3,0,1,0,5.25,2.75l6-11.44A3,3,0,0,0,450,225.93Z" style="fill: #3eb3a7"/>
            <rect x="447.06" y="224.21" width="4.27" height="6.53" transform="translate(39.1 519.61) rotate(-62.32)" style="fill: #6c98d1"/>
            <path d="M448.2,264.74l-3.49-1.83a.59.59,0,0,0-.8.25.59.59,0,0,0,.25.8l3.49,1.83a.58.58,0,0,0,.28.07.59.59,0,0,0,.27-1.12Z" style="fill: #127570"/>
            <path d="M422.52,251.27l-3.5-1.84a.59.59,0,0,0-.55,1l3.5,1.84a.63.63,0,0,0,.27.06.6.6,0,0,0,.53-.31A.59.59,0,0,0,422.52,251.27Z" style="fill: #127570"/>
          </g>
          <g>
            <path d="M509.85,183.65,382.91,249.89a3.15,3.15,0,0,0,1.46,5.94,3.09,3.09,0,0,0,1.46-.36l126.93-66.24a3.15,3.15,0,1,0-2.91-5.58Z" style="fill: #ffdeb3"/>
            <path d="M552.89,127.71a78.11,78.11,0,0,0-7.39,4.54c-3.4,2.44-17.66,38.26-20.49,45.41a1.28,1.28,0,0,0,.71,1.64,1.31,1.31,0,0,0,.47.09,1.26,1.26,0,0,0,1.17-.8c8-20.26,17.58-42.66,19.61-44.29a73.9,73.9,0,0,1,7.1-4.36,1.26,1.26,0,0,0-1.18-2.23Z" style="fill: #2b7595"/>
            <path d="M581.88,183.23a74.11,74.11,0,0,1-7.63,3.33c-2.5.73-26.37-4.21-47.55-9.24a1.26,1.26,0,0,0-.59,2.45c6.94,1.65,39.7,9.32,47.59,9.32a4.6,4.6,0,0,0,1.38-.15,73.29,73.29,0,0,0,7.95-3.47,1.26,1.26,0,1,0-1.15-2.24Z" style="fill: #2b7595"/>
            <path d="M561.19,143.56,553,147.69a1.48,1.48,0,0,0-.37.29l-18.4,20.46L550,141.1l7.81-4.08a1.26,1.26,0,0,0-1.17-2.23L548.46,139a1.27,1.27,0,0,0-.51.49l-21.85,38a1.26,1.26,0,0,0,.35,1.65,1.3,1.3,0,0,0,.74.24,1.28,1.28,0,0,0,.94-.42l26.22-29.15,8-4a1.28,1.28,0,0,0,.56-1.7A1.25,1.25,0,0,0,561.19,143.56Z" style="fill: #2b7595"/>
            <path d="M578,175.85l-7.81,4.07-31.42-2.74,27.31-3.39a1.15,1.15,0,0,0,.44-.15l8.08-4.34a1.26,1.26,0,0,0-1.2-2.22l-7.86,4.23-38.91,4.84a1.26,1.26,0,0,0,0,2.5l43.67,3.81h.11a1.19,1.19,0,0,0,.58-.15l8.13-4.24a1.26,1.26,0,1,0-1.16-2.23Z" style="fill: #2b7595"/>
            <path d="M567.1,155,527.52,176a1.26,1.26,0,1,0,1.19,2.22l39.57-21.06A1.26,1.26,0,1,0,567.1,155Z" style="fill: #2b7595"/>
            <path d="M536.85,153.66a1.26,1.26,0,0,0-1.94,1.61c.11.13,11,13.35,15.27,29.26a1.26,1.26,0,0,0,1.22.93,1.24,1.24,0,0,0,1.21-1.59C548.17,167.41,537.31,154.21,536.85,153.66Z" style="fill: #2b7595"/>
            <path d="M524.45,175.32l-26,13.53a3.78,3.78,0,1,0,3.5,6.71L527.94,182a3.78,3.78,0,1,0-3.49-6.7Z" style="fill: #6dc7dd"/>
            <rect x="379.38" y="241.99" width="33.65" height="8.81" rx="2.48" transform="translate(-69.04 211.26) rotate(-27.56)" style="fill: #a04931"/>
          </g>
          <path d="M507.6,214c-3.49-4.55-10-4.19-18-3.81s-5.69-2.93-16.91-3.66-14.33,2.14-22.68-4.32-18.18,3.94-27.67-2.36c-10.28-6.82-25.08-11.61-32.61-8.64-9,3.56-9.5,12.05-23.58,11.26s-10.81,6.82-16.32,4.06-11.26,2-17.35,9.07-4.13,3.12-12.29,4.08-13,9.93-13,9.93l57.06,6.67s153.55-15.2,151.7-18S511.08,218.57,507.6,214Z" style="fill: #ac6340"/>
        </g>
        <path d="M381,200.26a4,4,0,0,0-3.4,4.32c.26,2.88,6.29.39,6.81-2.16S382,200,381,200.26Z" style="fill: #5a0109"/>
        <path d="M348.82,209.38c-.69-.11-3.32-.08-1.75,2.19s3,1.92,2.79,0S349.41,209.48,348.82,209.38Z" style="fill: #5a0109"/>
        <path d="M416.24,204.41c-.89.09-3.75.25-2.88,2.13s4,1.38,5.07,2.81,3.4,1.78,2.7-1.89S417.68,204.25,416.24,204.41Z" style="fill: #5a0109"/>
        <path d="M457.55,210.36c-.63-.08-2-.36-2.09,1.47s1.92,1.14,4.28,0S458.21,210.45,457.55,210.36Z" style="fill: #5a0109"/>
        <path d="M481.22,214.19c-.08,1.31,4-.28,3.76-1.23S481.31,212.88,481.22,214.19Z" style="fill: #5a0109"/>
        <path d="M366.28,215.32c-.72-.07-3.32.79-2.18,1.93s2.27.78,3.41,0S366.85,215.39,366.28,215.32Z" style="fill: #5a0109"/>
        <path d="M317.9,225.19c.61,1,1.92-.7,1.92-.7s.13-.58,0-.69C319.36,223.41,317.29,224.23,317.9,225.19Z" style="fill: #5a0109"/>
        <path d="M399.65,206.45c-.52-.23-2.62.14-1,.88S400.16,206.69,399.65,206.45Z" style="fill: #df9a82"/>
        <path d="M496.07,214.81c-.51-.24-2.62.14-1,.88S496.59,215,496.07,214.81Z" style="fill: #df9a82"/>
        <path d="M430.75,210.94c-.57-.05-2.42,1-.61,1.15S431.31,211,430.75,210.94Z" style="fill: #df9a82"/>
        <path d="M338.08,220.46c-.56-.05-2.41,1-.6,1.15S338.65,220.51,338.08,220.46Z" style="fill: #df9a82"/>
        <circle cx="481.29" cy="296.73" r="34.59" transform="translate(-17.51 30.48) rotate(-3.56)" style="fill: #02364c"/>
        <circle cx="481.29" cy="296.73" r="20.09" transform="translate(155.23 758.64) rotate(-86.44)" style="fill: #ff3259"/>
        <circle cx="481.29" cy="296.73" r="8.21" style="fill: #d71945"/>
        <path d="M481.29,293.06a3.67,3.67,0,1,0,3.67,3.67A3.67,3.67,0,0,0,481.29,293.06Z" style="fill: #02364c"/>
        <path d="M481.29,262.14c-1,0,0,6.2,0,6.2s6.13-4.89,5.69-5.73S482.26,262.16,481.29,262.14Z" style="fill: #39619d"/>
        <path d="M483.39,325.26c-.86-.41-5.49,5.93-5.49,5.93s6.25.71,6.2-.26S484.24,325.66,483.39,325.26Z" style="fill: #39619d"/>
        <path d="M447.14,292.22c-.84.45-.46,4.72-.47,5.7s6.2,0,6.2,0S448,291.78,447.14,292.22Z" style="fill: #39619d"/>
        <path d="M515.46,295.11c-1,.06-5.27-.15-5.67.71s5.93,5.48,5.93,5.48S516.43,295.05,515.46,295.11Z" style="fill: #39619d"/>
        <path d="M461.17,268.58c-.91-.28-3.66,3-4.36,3.69s4.38,4.39,4.38,4.39S462.07,268.86,461.17,268.58Z" style="fill: #39619d"/>
        <path d="M502.93,315.42c-.9.32.31,8.07.31,8.07s4.93-3.92,4.2-4.56S503.82,315.1,502.93,315.42Z" style="fill: #39619d"/>
        <path d="M453.93,317.69c-.28.91,3,3.66,3.7,4.36s4.38-4.38,4.38-4.38S454.22,316.79,453.93,317.69Z" style="fill: #39619d"/>
        <path d="M504.28,271.42c-.64.73-3.82,3.62-3.5,4.52s8.07-.32,8.07-.32S504.93,270.7,504.28,271.42Z" style="fill: #39619d"/>
        <path d="M514.75,272.82a3.82,3.82,0,0,0,0,7.63,14.86,14.86,0,0,1,5.33,1A8.54,8.54,0,0,1,519,283c-15.34,3.5-205.85,2.07-217.05-1.72-6.27-2.12-27.46-22.24-44.49-38.4-14.74-14-27.48-26.09-33.79-30.14-14.53-9.31-44.32-13.3-45.58-13.47a3.82,3.82,0,0,0-1,7.57c.29,0,29.35,3.92,42.45,12.32,5.7,3.66,18.8,16.09,32.66,29.25,23.82,22.62,40,37.63,47.3,40.1,9.69,3.28,103.81,4,114.51,4.06,8.6.06,17,.08,25.09.08,18,0,34.46-.13,47.7-.4,34.56-.71,35.7-1.89,37.14-3.38,3.62-3.74,4.78-7.23,3.46-10.36C525.15,273.24,517.15,272.83,514.75,272.82Z" style="fill: #6c98d1"/>
        <path d="M201.28,203l-32.84-7.42a4.69,4.69,0,0,0-2.06,9.15l32.83,7.41a4.69,4.69,0,1,0,2.07-9.14Z" style="fill: #02364c"/>
        <path d="M493.89,241.21l-180.21,9.15a.51.51,0,0,0,0,1h0L494,242.24a.52.52,0,0,0,.49-.54A.55.55,0,0,0,493.89,241.21Z" style="fill: #ca976f"/>
        <path d="M487.26,247.39,316,255.82a.52.52,0,0,0-.49.54.53.53,0,0,0,.52.49h0l171.29-8.44a.51.51,0,1,0-.05-1Z" style="fill: #ca976f"/>
        <path d="M449.86,197.08s11.14,2.33,17.79-27.35C467.65,169.73,446,179.29,449.86,197.08Z" style="fill: #278682"/>
        <path d="M441,192c7.41-9.59-4.14-24.64-4.14-24.64C432.85,193.17,441,192,441,192Z" style="fill: #278682"/>
        <path d="M463.12,173.89c-12.47,12.27-17,33.32-17,33.53a.61.61,0,0,0,.47.73h.13a.6.6,0,0,0,.6-.48c.05-.21,4.48-20.9,16.69-32.91a.62.62,0,0,0,0-.87A.62.62,0,0,0,463.12,173.89Z" style="fill: #3eb3a7"/>
        <path d="M438.66,174.55a.61.61,0,0,0-.48.72c0,.15,3,14.93,2.41,28.31a.62.62,0,0,0,.62.64.61.61,0,0,0,.61-.59c.58-13.53-2.4-28.45-2.43-28.6A.62.62,0,0,0,438.66,174.55Z" style="fill: #3eb3a7"/>
      </g>
      <g>
        <path d="M340.25,215.87a3.35,3.35,0,0,0,3.35,3.25h17.86a3.37,3.37,0,0,0,3.36-3.25l2.07-26.6H338.17Z" style="fill: #a04931"/>
        <g>
          <path d="M363.1,184.43a3.68,3.68,0,0,0-2.44-.93h-16a3.67,3.67,0,0,0-2.38.87L339,187.18a1.8,1.8,0,0,0,1.17,3.18H365a1.81,1.81,0,0,0,1.21-3.15Z" style="fill: #5a0109"/>
          <path d="M363.82,183.62a4.72,4.72,0,0,0-3.16-1.21h-16a4.74,4.74,0,0,0-3.08,1.13l-3.3,2.81a2.89,2.89,0,0,0,1.88,5.09H365a2.89,2.89,0,0,0,1.93-5Zm1.18,5.65H340.13a.72.72,0,0,1-.47-1.26l3.3-2.81a2.54,2.54,0,0,1,1.67-.62h16a2.53,2.53,0,0,1,1.71.66l3.11,2.78A.71.71,0,0,1,365,189.27Z" style="fill: #883422"/>
        </g>
        <path d="M344.32,189.73a1.1,1.1,0,0,0-1.05,1.13l1.1,26.95a1.08,1.08,0,0,0,1.08,1h.05a1.1,1.1,0,0,0,1-1.13l-1.1-26.95A1.1,1.1,0,0,0,344.32,189.73Z" style="fill: #883422"/>
        <path d="M360.82,189.73a1.08,1.08,0,0,0-1.13,1l-1.1,26.95a1.11,1.11,0,0,0,1.09,1.13,1.08,1.08,0,0,0,1.08-1l1.1-26.95A1.1,1.1,0,0,0,360.82,189.73Z" style="fill: #883422"/>
        <path d="M352.57,189.31a1.08,1.08,0,0,0-1.09,1.08v27.37a1.09,1.09,0,1,0,2.17,0V190.39A1.08,1.08,0,0,0,352.57,189.31Z" style="fill: #883422"/>
        <path d="M369,215.87a3.36,3.36,0,0,0,3.36,3.25h17.85a3.36,3.36,0,0,0,3.36-3.25l2.07-26.6H366.89Z" style="fill: #a04931"/>
        <g>
          <path d="M391.81,184.43a3.66,3.66,0,0,0-2.44-.93h-16a3.71,3.71,0,0,0-2.38.87l-3.29,2.81a1.81,1.81,0,0,0,1.17,3.18h24.88a1.81,1.81,0,0,0,1.2-3.15Z" style="fill: #5a0109"/>
          <path d="M392.53,183.62a4.72,4.72,0,0,0-3.16-1.21h-16a4.76,4.76,0,0,0-3.08,1.13l-3.3,2.81a2.89,2.89,0,0,0,1.88,5.09h24.88a2.88,2.88,0,0,0,1.92-5Zm1.19,5.65H368.84a.72.72,0,0,1-.47-1.26l3.3-2.81a2.56,2.56,0,0,1,1.67-.62h16a2.57,2.57,0,0,1,1.72.66L394.2,188A.72.72,0,0,1,393.72,189.27Z" style="fill: #883422"/>
        </g>
        <path d="M373,189.73a1.08,1.08,0,0,0-1,1.13l1.09,26.95a1.08,1.08,0,0,0,1.08,1h0a1.09,1.09,0,0,0,1-1.13l-1.09-26.95A1.11,1.11,0,0,0,373,189.73Z" style="fill: #883422"/>
        <path d="M389.53,189.73a1.1,1.1,0,0,0-1.13,1l-1.09,26.95a1.09,1.09,0,0,0,2.17.09l1.09-26.95A1.09,1.09,0,0,0,389.53,189.73Z" style="fill: #883422"/>
        <path d="M381.28,189.31a1.08,1.08,0,0,0-1.09,1.08v27.37a1.09,1.09,0,1,0,2.17,0V190.39A1.08,1.08,0,0,0,381.28,189.31Z" style="fill: #883422"/>
        <path d="M398.28,215.87a3.35,3.35,0,0,0,3.35,3.25h17.86a3.37,3.37,0,0,0,3.36-3.25l2.07-26.6H396.21Z" style="fill: #a04931"/>
        <g>
          <path d="M421.13,184.43a3.66,3.66,0,0,0-2.44-.93h-16a3.69,3.69,0,0,0-2.38.87l-3.3,2.81a1.81,1.81,0,0,0,1.18,3.18H423a1.81,1.81,0,0,0,1.21-3.15Z" style="fill: #5a0109"/>
          <path d="M421.85,183.62a4.72,4.72,0,0,0-3.16-1.21h-16a4.76,4.76,0,0,0-3.08,1.13l-3.3,2.81a2.89,2.89,0,0,0,1.88,5.09H423a2.88,2.88,0,0,0,1.93-5Zm1.18,5.65H398.16a.72.72,0,0,1-.47-1.26l3.3-2.81a2.54,2.54,0,0,1,1.67-.62h16a2.53,2.53,0,0,1,1.71.66l3.11,2.78A.71.71,0,0,1,423,189.27Z" style="fill: #883422"/>
        </g>
        <path d="M402.35,189.73a1.1,1.1,0,0,0-1.05,1.13l1.1,26.95a1.08,1.08,0,0,0,1.08,1h0a1.1,1.1,0,0,0,1-1.13l-1.1-26.95A1.09,1.09,0,0,0,402.35,189.73Z" style="fill: #883422"/>
        <path d="M418.85,189.73a1.1,1.1,0,0,0-1.13,1l-1.1,26.95a1.11,1.11,0,0,0,1.09,1.13,1.08,1.08,0,0,0,1.08-1l1.1-26.95A1.1,1.1,0,0,0,418.85,189.73Z" style="fill: #883422"/>
        <path d="M410.6,189.31a1.08,1.08,0,0,0-1.09,1.08v27.37a1.09,1.09,0,1,0,2.17,0V190.39A1.08,1.08,0,0,0,410.6,189.31Z" style="fill: #883422"/>
        <path d="M339.13,149a.48.48,0,0,0-.13.67C349.47,165,351.06,186.74,351.07,187a.49.49,0,0,0,.49.45h0a.5.5,0,0,0,.46-.52c0-.22-1.63-22.19-12.24-37.82A.48.48,0,0,0,339.13,149Z" style="fill: #3eb3a7"/>
        <path d="M348,146.76a.49.49,0,0,0-.47.5l1,25a.5.5,0,0,0,.49.47h0a.48.48,0,0,0,.47-.5l-1-24.95A.48.48,0,0,0,348,146.76Z" style="fill: #3eb3a7"/>
        <path d="M359.91,147.79a.49.49,0,0,0-.66.19c-.07.14-7.52,14.19-8.41,36.58a.49.49,0,0,0,.49.51.48.48,0,0,0,.48-.47c.88-22.15,8.22-36,8.3-36.15A.49.49,0,0,0,359.91,147.79Z" style="fill: #3eb3a7"/>
        <path d="M375.67,162c0-9.44-3.64-22.27-8.52-25.33a.49.49,0,1,0-.52.82c4.62,2.9,8.07,15.33,8.07,24.51,0,9.49,3.22,24.9,3.25,25.06a.48.48,0,0,0,.47.38h.1a.47.47,0,0,0,.38-.57C378.87,186.67,375.67,171.36,375.67,162Z" style="fill: #3eb3a7"/>
        <path d="M365.79,157a.48.48,0,0,0-.55.41.49.49,0,0,0,.42.55A11.48,11.48,0,0,1,375,168.2a.49.49,0,0,0,.48.42h.07a.49.49,0,0,0,.42-.55A12.63,12.63,0,0,0,365.79,157Z" style="fill: #3eb3a7"/>
        <path d="M375.55,137.86a.49.49,0,0,0-.52.45L374,153.92a.5.5,0,0,0,.49.52.48.48,0,0,0,.48-.45L376,138.38A.48.48,0,0,0,375.55,137.86Z" style="fill: #3eb3a7"/>
        <path d="M385.46,154.42a.48.48,0,0,0-.39.56c1.9,10.86-.95,31.67-1,31.88a.49.49,0,0,0,.42.55h.06a.49.49,0,0,0,.49-.42c0-.21,2.9-21.17,1-32.17A.48.48,0,0,0,385.46,154.42Z" style="fill: #3eb3a7"/>
        <path d="M390.78,154.47a.48.48,0,0,0-.65.21,53,53,0,0,0-4.7,18.5.49.49,0,0,0,1,.07A52.63,52.63,0,0,1,391,155.12.47.47,0,0,0,390.78,154.47Z" style="fill: #3eb3a7"/>
        <path d="M402.84,141.73a.48.48,0,1,0-.9.35c0,.12,4.5,11.53,5.45,20s2.67,24.77,2.69,24.94a.48.48,0,0,0,.48.43h.05a.5.5,0,0,0,.44-.53c0-.17-1.73-16.45-2.69-24.95S402.89,141.84,402.84,141.73Z" style="fill: #3eb3a7"/>
        <path d="M417.88,148.89a.48.48,0,0,0-.62.28c-.34.89-8.31,21.94-7.73,32.58a.48.48,0,0,0,.48.46h0a.48.48,0,0,0,.46-.51c-.57-10.44,7.58-32,7.66-32.18A.49.49,0,0,0,417.88,148.89Z" style="fill: #3eb3a7"/>
        <path d="M420.2,158l-7.68,6a.49.49,0,0,0-.08.68.47.47,0,0,0,.38.19.45.45,0,0,0,.3-.1l7.68-6a.48.48,0,1,0-.6-.76Z" style="fill: #3eb3a7"/>
        <path d="M338.51,146.38c-2.56-1.6-7.91-1.51-7.91-1.51s1.31,1.87,3.32,5.11,6.4.52,6.4.52A3.71,3.71,0,0,0,338.51,146.38Z" style="fill: #278682"/>
        <path d="M366.59,134c-2.56-1.6-7.91-1.51-7.91-1.51s1.31,1.87,3.32,5.11,6.4.52,6.4.52A3.72,3.72,0,0,0,366.59,134Z" style="fill: #278682"/>
        <path d="M384.91,161c-2.57-1.6-7.91-1.51-7.91-1.51s1.31,1.87,3.31,5.11,6.4.53,6.4.53A3.72,3.72,0,0,0,384.91,161Z" style="fill: #278682"/>
        <path d="M404.34,150.61c-2.56-1.6-7.91-1.51-7.91-1.51s1.32,1.87,3.32,5.11,6.4.53,6.4.53A3.72,3.72,0,0,0,404.34,150.61Z" style="fill: #278682"/>
        <path d="M406.48,165.57c-2.56-1.6-7.91-1.51-7.91-1.51s1.31,1.87,3.32,5.11,6.4.53,6.4.53A3.73,3.73,0,0,0,406.48,165.57Z" style="fill: #278682"/>
        <path d="M351.46,136.32s-4.27,3.89-5.1,7.05A4,4,0,0,0,348,148s5.47-1.12,4.65-5.15S351.46,136.32,351.46,136.32Z" style="fill: #278682"/>
        <path d="M357.9,147.11a4,4,0,0,0,.24,4.86s5.55.51,5.94-3.59.75-6.54.75-6.54S359.61,144.33,357.9,147.11Z" style="fill: #278682"/>
        <path d="M374.61,135.54a4,4,0,0,0,.23,4.86s5.56.51,6-3.59.75-6.54.75-6.54S376.32,132.76,374.61,135.54Z" style="fill: #278682"/>
        <path d="M416.6,147.11a4,4,0,0,0,.24,4.86s5.56.51,5.94-3.59.75-6.54.75-6.54S418.31,144.33,416.6,147.11Z" style="fill: #278682"/>
        <path d="M354,167.74s5.08,2.31,6.79-1.43,2.86-5.93,2.86-5.93-5.75.63-8.28,2.7A4,4,0,0,0,354,167.74Z" style="fill: #278682"/>
        <path d="M348.68,158.39a3.22,3.22,0,0,0,.49,3.86s4.45.06,4.51-3.23.19-5.25.19-5.25S349.87,156.07,348.68,158.39Z" style="fill: #278682"/>
        <path d="M374.61,150.77a3.2,3.2,0,0,0,.49,3.85s4.45.07,4.51-3.22.2-5.25.2-5.25S375.8,148.45,374.61,150.77Z" style="fill: #278682"/>
        <path d="M385.85,169.73a3.22,3.22,0,0,0,.49,3.86s4.46.06,4.51-3.23.2-5.25.2-5.25S387,167.41,385.85,169.73Z" style="fill: #278682"/>
        <path d="M420,156.25a3.21,3.21,0,0,0-1.73,3.48s3.69,2.51,5.54-.2,3.06-4.27,3.06-4.27S422.31,155,420,156.25Z" style="fill: #278682"/>
        <path d="M411.3,149.1s-1.14,4.47-.31,6.94a3.21,3.21,0,0,0,3.1,2.34s3.15-3.14.84-5.47S411.3,149.1,411.3,149.1Z" style="fill: #278682"/>
        <path d="M389.25,153.58a3.22,3.22,0,0,0,.48,3.86s4.46.06,4.51-3.22.2-5.26.2-5.26S390.44,151.26,389.25,153.58Z" style="fill: #278682"/>
        <path d="M340.89,155.85c-3-.52-7.9,1.57-7.9,1.57s1.92,1.25,5,3.49,6.13-1.92,6.13-1.92A3.72,3.72,0,0,0,340.89,155.85Z" style="fill: #278682"/>
        <path d="M346.49,168.37c-2.59-1.56-7.93-1.36-7.93-1.36s1.34,1.85,3.41,5,6.41.41,6.41.41A3.71,3.71,0,0,0,346.49,168.37Z" style="fill: #278682"/>
        <path d="M368.71,155.76c-2.6-1.55-7.94-1.35-7.94-1.35s1.35,1.84,3.41,5,6.41.4,6.41.4A3.72,3.72,0,0,0,368.71,155.76Z" style="fill: #278682"/>
        <path d="M382.32,145.8s-.29,2.27-1,6,4.39,4.69,4.39,4.69a3.71,3.71,0,0,0,1.43-4.27C386.34,149.32,382.32,145.8,382.32,145.8Z" style="fill: #278682"/>
        <path d="M399.36,132.48s-.29,2.27-1,6,4.38,4.69,4.38,4.69a3.72,3.72,0,0,0,1.44-4.27C403.38,136,399.36,132.48,399.36,132.48Z" style="fill: #278682"/>
        <path d="M665.11,222a.49.49,0,0,0-.91.36c0,.11,4.51,11.53,5.46,20s2.66,24.77,2.68,24.94a.49.49,0,0,0,.48.43h.06a.49.49,0,0,0,.43-.53c0-.17-1.73-16.45-2.69-24.95S665.15,222.16,665.11,222Z" style="fill: #3eb3a7"/>
        <path d="M682.46,238.35l-7.67,6a.48.48,0,0,0-.08.68.45.45,0,0,0,.38.19.49.49,0,0,0,.3-.1l7.67-6a.48.48,0,0,0,.09-.68A.49.49,0,0,0,682.46,238.35Z" style="fill: #3eb3a7"/>
        <path d="M668.75,245.89c-2.57-1.6-7.91-1.51-7.91-1.51s1.31,1.87,3.31,5.11,6.4.53,6.4.53A3.72,3.72,0,0,0,668.75,245.89Z" style="fill: #278682"/>
        <path d="M678.87,227.43a4,4,0,0,0,.23,4.86s5.56.51,5.94-3.59.75-6.54.75-6.54S680.58,224.65,678.87,227.43Z" style="fill: #278682"/>
        <path d="M673.57,229.42s-1.15,4.47-.32,6.94a3.21,3.21,0,0,0,3.1,2.34s3.16-3.14.84-5.47S673.57,229.42,673.57,229.42Z" style="fill: #278682"/>
        <g>
          <rect x="657.79" y="292.05" width="30.14" height="12.7" rx="4.08" style="fill: #4e9660"/>
          <path d="M660.54,296.19a3.36,3.36,0,0,0,3.36,3.25h17.86a3.36,3.36,0,0,0,3.35-3.25l2.07-26.6H658.47Z" style="fill: #a04931"/>
          <g>
            <path d="M683.39,264.75a3.62,3.62,0,0,0-2.44-.94h-16a3.62,3.62,0,0,0-2.37.88l-3.3,2.81a1.81,1.81,0,0,0,1.17,3.18H685.3a1.8,1.8,0,0,0,1.2-3.15Z" style="fill: #5a0109"/>
            <path d="M684.11,263.94a4.72,4.72,0,0,0-3.16-1.21h-16a4.76,4.76,0,0,0-3.08,1.13l-3.29,2.81a2.89,2.89,0,0,0,1.87,5.09H685.3a2.89,2.89,0,0,0,1.93-5Zm1.19,5.65H660.42a.72.72,0,0,1-.47-1.26l3.3-2.82a2.62,2.62,0,0,1,1.67-.61h16a2.59,2.59,0,0,1,1.72.65l3.11,2.79A.72.72,0,0,1,685.3,269.59Z" style="fill: #883422"/>
          </g>
          <path d="M664.61,270.05a1.08,1.08,0,0,0-1,1.13l1.09,26.94a1.1,1.1,0,0,0,1.08,1.05h0a1.08,1.08,0,0,0,1-1.13l-1.09-27A1.1,1.1,0,0,0,664.61,270.05Z" style="fill: #883422"/>
          <path d="M681.11,270.05a1.11,1.11,0,0,0-1.13,1l-1.09,27a1.09,1.09,0,1,0,2.17.08l1.09-26.94A1.08,1.08,0,0,0,681.11,270.05Z" style="fill: #883422"/>
          <path d="M672.86,269.63a1.08,1.08,0,0,0-1.09,1.08v27.37a1.09,1.09,0,1,0,2.18,0V270.71A1.08,1.08,0,0,0,672.86,269.63Z" style="fill: #883422"/>
          <path d="M680.15,229.21a.49.49,0,0,0-.63.28c-.34.89-8.31,21.94-7.73,32.58a.49.49,0,0,0,.49.46h0a.48.48,0,0,0,.46-.51c-.57-10.44,7.59-32,7.67-32.18A.5.5,0,0,0,680.15,229.21Z" style="fill: #3eb3a7"/>
          <path d="M666.61,230.93c-2.56-1.6-7.91-1.51-7.91-1.51s1.31,1.87,3.31,5.11,6.41.53,6.41.53A3.73,3.73,0,0,0,666.61,230.93Z" style="fill: #278682"/>
          <path d="M682.3,236.57a3.2,3.2,0,0,0-1.72,3.48s3.68,2.51,5.54-.2,3.06-4.27,3.06-4.27S684.57,235.29,682.3,236.57Z" style="fill: #278682"/>
          <path d="M661.62,212.8s-.29,2.27-1,6,4.39,4.69,4.39,4.69a3.72,3.72,0,0,0,1.43-4.27C665.64,216.33,661.62,212.8,661.62,212.8Z" style="fill: #278682"/>
        </g>
      </g>
      <g>
        <path d="M566.31,325.61c-9.76,0-17.67,2.26-17.67,5.05s7.91,5,17.67,5,17.67-2.26,17.67-5S576.07,325.61,566.31,325.61Z" style="fill: #ffd05c"/>
        <polygon points="548.64 330.66 583.98 330.66 590.34 290.98 542.29 290.98 548.64 330.66" style="fill: #ffd05c"/>
        <path d="M566.31,285.94c-13.27,0-24,2.26-24,5s10.75,5,24,5,24-2.26,24-5S579.58,285.94,566.31,285.94Z" style="fill: #e79329"/>
        <path d="M549,302.43a1.68,1.68,0,1,0,1.68,1.68A1.68,1.68,0,0,0,549,302.43Z" style="fill: #fff"/>
        <path d="M554.37,310.08a1.68,1.68,0,1,0,1.68,1.68A1.68,1.68,0,0,0,554.37,310.08Z" style="fill: #fff"/>
        <path d="M560.66,319.46a1.68,1.68,0,1,0,1.68,1.68A1.68,1.68,0,0,0,560.66,319.46Z" style="fill: #fff"/>
        <path d="M555.12,327.3A1.68,1.68,0,1,0,556.8,329,1.68,1.68,0,0,0,555.12,327.3Z" style="fill: #fff"/>
        <path d="M560.66,303.42a1.68,1.68,0,1,0,1.68,1.68A1.68,1.68,0,0,0,560.66,303.42Z" style="fill: #fff"/>
        <path d="M550.32,319.46a1.68,1.68,0,1,0,1.68,1.68A1.68,1.68,0,0,0,550.32,319.46Z" style="fill: #fff"/>
        <path d="M566.94,311a1.68,1.68,0,1,0,1.68,1.68A1.68,1.68,0,0,0,566.94,311Z" style="fill: #fff"/>
        <path d="M573,319.46a1.68,1.68,0,1,0,1.68,1.68A1.68,1.68,0,0,0,573,319.46Z" style="fill: #fff"/>
        <path d="M567.17,327.74a1.68,1.68,0,1,0,1.68,1.68A1.68,1.68,0,0,0,567.17,327.74Z" style="fill: #fff"/>
        <path d="M583.6,302a1.68,1.68,0,1,0,1.68,1.68A1.68,1.68,0,0,0,583.6,302Z" style="fill: #fff"/>
        <circle cx="573.65" cy="305.1" r="1.68" style="fill: #fff"/>
        <path d="M579.7,310.82a1.68,1.68,0,1,0,1.68,1.68A1.68,1.68,0,0,0,579.7,310.82Z" style="fill: #fff"/>
        <path d="M578.52,327.3A1.68,1.68,0,1,0,580.2,329,1.68,1.68,0,0,0,578.52,327.3Z" style="fill: #fff"/>
        <path d="M583,319a1.68,1.68,0,1,0,1.67,1.67A1.68,1.68,0,0,0,583,319Z" style="fill: #fff"/>
        <path d="M589.07,297.35s-3.53,2.81-22.76,2.81-22.7-2.76-22.75-2.81a.33.33,0,0,0-.45,0,.31.31,0,0,0,0,.45c.13.12,3.52,3,23.17,3s23-2.84,23.18-3a.31.31,0,0,0,0-.44A.32.32,0,0,0,589.07,297.35Z" style="fill: #d8ab3a"/>
        <path d="M571.33,288.81c-8.26.21-11.26-.42-17.89.43s-9.39,3.63-9.4,3.64c3.57,1.85,12.19,3.15,22.27,3.15,10.81,0,20-1.5,23-3.56C588.26,290.38,579.58,288.6,571.33,288.81Z" style="fill: #ab633e"/>
        <path d="M550.63,291c-.57.78,1.17.6,2.06,1.06s.58-1.36.24-1.6A2.11,2.11,0,0,0,550.63,291Z" style="fill: #5a0109"/>
        <path d="M565.26,291.9c-.46-.12-1.82,0-1.43,1.24s1.77.78,2.06,0A.89.89,0,0,0,565.26,291.9Z" style="fill: #5a0109"/>
        <path d="M574.69,291c-.78.78.63,1.16,1.49.88s1.14-.89.92-1.2C576.75,290.16,575.47,290.21,574.69,291Z" style="fill: #5a0109"/>
        <path d="M555.7,292.59c-.23-.08-1,.05-.28.3S555.94,292.66,555.7,292.59Z" style="fill: #df9a82"/>
        <path d="M562.79,289.85c-.23.08-.79.67,0,.41S563,289.77,562.79,289.85Z" style="fill: #df9a82"/>
        <path d="M581.46,291.91c-.24,0-1,.38-.17.38S581.71,291.91,581.46,291.91Z" style="fill: #df9a82"/>
        <path d="M573.54,293.31c-.23.08-.79.67,0,.41S573.77,293.23,573.54,293.31Z" style="fill: #df9a82"/>
        <g>
          <path d="M548.29,255.77v0Z" style="fill: #ff3259"/>
          <path d="M542.08,256.4c.85.6,1.5,1,1.5,1S543,257,542.08,256.4Z" style="fill: #ff3259"/>
          <path d="M546.31,254.29c.17.54.29.89.29.89S546.49,254.83,546.31,254.29Z" style="fill: #ff3259"/>
          <path d="M554.89,249.85c-2.66.34-4.86,7.29-4.86,7.29.46-3.41,4-8.49,1-7.56-2.64.8-2.73,5.11-2.71,6.19v0c-.06-1.43-.4-8.61-2-7.64-1.38.82-.46,4.46,0,6.16.18.54.29.89.29.89s-.12-.35-.29-.89c-.71-2.11-2.65-7.25-4.31-6.28-2.08,1.22,2.56,8.25,2.56,8.25s-4.78-7.3-6.39-5.19c-1.12,1.46,2,4,3.91,5.33.89.56,1.5,1,1.5,1s-.65-.39-1.5-1c-2.15-1.34-6-3.41-6.73-1.79-.65,1.33,1.94,2.59,4.23,3.41,1.67.42,3.14,1,3.14,1s-1.49-.37-3.14-1c-2-.51-4.38-.85-4.77.16-.48,1.22,3,2,5.41,2.33a18.82,18.82,0,0,1,2.22.28s-1-.09-2.22-.28c-2.06-.14-5,0-6.63,1.58-2.59,2.59,4.63,0,8.2.9l.91.23a7.67,7.67,0,0,0,8.94-4.6l0-.09C552.85,255.41,557.54,249.51,554.89,249.85Z" style="fill: #ff3259"/>
          <path d="M540.22,260.51c1.24.19,2.22.28,2.22.28A18.82,18.82,0,0,0,540.22,260.51Z" style="fill: #ff3259"/>
          <path d="M539.58,258c1.65.59,3.14,1,3.14,1S541.25,258.44,539.58,258Z" style="fill: #ff3259"/>
          <path d="M545.93,257.93l.05.07Z" style="fill: #d71945"/>
          <path d="M546.67,256.16c.17.64.34,1.14.34,1.14S546.89,256.8,546.67,256.16Z" style="fill: #d71945"/>
          <path d="M548.27,256.55c0,.48.07.84.07.84S548.32,257,548.27,256.55Z" style="fill: #d71945"/>
          <path d="M544.42,258.42l.66.51S544.81,258.71,544.42,258.42Z" style="fill: #d71945"/>
          <path d="M552.28,254.26c-1.25-.71-2.49,3.08-2.49,3.08.55-1.74.12-3.7-.88-3.36-.65.22-.69,1.63-.64,2.57.05.49.07.84.07.84s-.05-.36-.07-.84c-.14-1.3-.51-3.61-1.39-3.42s-.5,1.86-.21,3c.22.64.34,1.14.34,1.14s-.17-.5-.34-1.14c-.42-1.27-1.19-3.09-2.06-2.58-1.19.69,1,3.85,1.32,4.35l.05.07-.05-.07c-.36-.51-2.75-3.76-3.88-3-.92.63,1.23,2.55,2.37,3.48.39.29.66.51.66.51l-.66-.51c-.94-.7-2.64-1.82-3.3-1.32s1.83,2.23,2.76,2.78c.21.11.33.19.33.19l-.33-.19c-.89-.5-3.34-1.76-3.94-.79-.73,1.18,3.65,2.46,3.65,2.46s-2.63-.62-3.93,0-1.29,1.63.62,1.59a24,24,0,0,1,3.74.27c6,.22,6.93-3.44,7.62-4.79S553.53,255,552.28,254.26Z" style="fill: #d71945"/>
          <path d="M543.88,259.88l.33.19S544.09,260,543.88,259.88Z" style="fill: #d71945"/>
          <path d="M548.89,259.84a3,3,0,0,0-.39,1.72,8.45,8.45,0,0,0-.76-1.84,7.19,7.19,0,0,0,.09,2.07,4.15,4.15,0,0,0-1.66-1c.12.54,1,1.3,1,1.3a4.57,4.57,0,0,0-2-.32,3.18,3.18,0,0,0,1.51.81c-1.17.33-2.32.8-2.32.8a6.74,6.74,0,0,0,4.12-.75A5.71,5.71,0,0,0,551,260a10.74,10.74,0,0,0-1.88,1.54A12,12,0,0,0,548.89,259.84Z" style="fill: #3eb3a7"/>
        </g>
        <g>
          <path d="M591.28,259.65l-.46.64S591,260.05,591.28,259.65Z" style="fill: #ff3259"/>
          <path d="M591.27,261.75l-.16.13Z" style="fill: #ff3259"/>
          <path d="M587.69,257.83c0,.88.08,1.52.08,1.52S587.76,258.71,587.69,257.83Z" style="fill: #ff3259"/>
          <path d="M591.22,263.64c2.56-1.42,7.83-1.58,5.67-3.18-1.9-1.4-4.9.74-5.62,1.29l-.16.13.16-.13c.9-.72,5.7-4.64,4.2-5.26-1.26-.53-3.29,1.95-4.19,3.16-.27.4-.46.64-.46.64l.46-.64c1.08-1.56,3.61-5.5,2.1-6.14-1.88-.8-4.33,5.94-4.33,5.94s2.56-7,.3-7c-1.57,0-1.72,3.35-1.66,5.39.07.88.08,1.52.08,1.52s-.06-.64-.08-1.52c-.17-2.16-.69-5.81-2.2-5.52-1.24.23-.78,2.65-.18,4.63.56,1.35.94,2.63.94,2.63s-.51-1.21-.94-2.63c-.68-1.66-1.64-3.43-2.54-3.19-1.07.3.18,3.05,1.16,4.89a16.3,16.3,0,0,1,.93,1.66s-.43-.71-.93-1.66c-.95-1.48-2.54-3.45-4.44-3.73-3.1-.46,2.38,3.14,3.54,6.06.1.26.21.5.31.74a6.52,6.52,0,0,0,7.68,3.78l.08,0c2.74-.78,9.16-.57,7.58-2.21S591.22,263.64,591.22,263.64Z" style="fill: #ff3259"/>
          <path d="M583.93,258.64c.5.95.93,1.66.93,1.66A16.3,16.3,0,0,0,583.93,258.64Z" style="fill: #ff3259"/>
          <path d="M585.31,256.94c.43,1.42.94,2.63.94,2.63S585.87,258.29,585.31,256.94Z" style="fill: #ff3259"/>
          <path d="M588.6,261.23l0,.08Z" style="fill: #d71945"/>
          <path d="M591,263.57c1.47-.5,2.59-1.79,1.85-2.3-.49-.34-1.49.37-2.1.88-.3.28-.52.46-.52.46s.22-.21.52-.46c.81-.75,2.24-2.2,1.65-2.7s-1.52.6-2.17,1.4c-.33.46-.61.8-.61.8s.25-.36.61-.8c.65-.94,1.5-2.39.72-2.73-1.09-.46-2.15,2.63-2.31,3.11l0,.08,0-.08c.16-.5,1.18-3.78.07-4.17-.9-.3-1.12,2.14-1.17,3.39,0,.42,0,.71,0,.71s0-.29,0-.71c0-1-.1-2.73-.78-2.93s-.59,2.38-.5,3.3c0,.2,0,.32,0,.32s0-.12,0-.32c-.11-.86-.5-3.17-1.46-3.09-1.18.1.17,3.74.17,3.74s-.91-2.11-2-2.69-1.77,0-.78,1.24a20.22,20.22,0,0,1,1.71,2.69c2.9,4.2,5.88,3,7.15,2.78s3.46-.56,3.31-1.77S591,263.57,591,263.57Z" style="fill: #d71945"/>
          <path d="M590.71,262.15c-.3.25-.52.46-.52.46S590.41,262.43,590.71,262.15Z" style="fill: #d71945"/>
          <path d="M590.19,260.85c-.36.44-.61.8-.61.8S589.86,261.31,590.19,260.85Z" style="fill: #d71945"/>
          <path d="M586.22,260.82c0,.2,0,.32,0,.32S586.25,261,586.22,260.82Z" style="fill: #d71945"/>
          <path d="M587.5,260.45c0,.42,0,.71,0,.71S587.5,260.87,587.5,260.45Z" style="fill: #d71945"/>
          <path d="M588.8,264.23c-.56-.06-1.38.61-1.38.61a7.18,7.18,0,0,0,.87-1.45,6.09,6.09,0,0,0-1.37,1.11,3.59,3.59,0,0,0-.18-1.63,3,3,0,0,0-.38,1.36,3.87,3.87,0,0,0-.79-1.52,2.74,2.74,0,0,0,.21,1.45,20.27,20.27,0,0,0-1.73-1.19,5.84,5.84,0,0,0,2.61,2.44,4.86,4.86,0,0,0,3.1.33,9.53,9.53,0,0,0-2-.51A9.73,9.73,0,0,0,588.8,264.23Z" style="fill: #3eb3a7"/>
        </g>
        <g>
          <path d="M560.67,244.54c-.11.35-.17.59-.17.59S560.57,244.9,560.67,244.54Z" style="fill: #ff3259"/>
          <path d="M557.56,244.14c.25.64.46,1.09.46,1.09S557.84,244.77,557.56,244.14Z" style="fill: #ff3259"/>
          <path d="M561.21,246.08l-.08.14Z" style="fill: #ff3259"/>
          <path d="M567,245.26c-1.59-.8-5.37,2.22-5.37,2.22,1.51-1.71,5.34-3.2,3.33-3.81-1.76-.54-3.41,1.82-3.79,2.41l-.08.14.08-.14c.48-.76,3-4.89,1.71-5-1.06-.06-1.91,2.29-2.25,3.42-.1.36-.17.59-.17.59s.06-.24.17-.59c.39-1.43,1.22-5-.06-5.06C559,239.38,559,245,559,245s.06-5.79-1.6-5.22c-1.16.39-.39,2.9.18,4.39.28.63.46,1.09.46,1.09s-.21-.45-.46-1.09c-.69-1.54-2-4.09-3-3.48-.85.49.11,2.14,1.07,3.44.77.85,1.38,1.69,1.38,1.69s-.69-.75-1.38-1.69c-.93-1-2.1-2.09-2.69-1.68s.92,2.2,2.12,3.29a12.27,12.27,0,0,1,1.12,1s-.5-.41-1.12-1c-1.08-.84-2.77-1.87-4.24-1.58-2.39.47,2.57,1.69,4.19,3.53l.42.46a5.08,5.08,0,0,0,6.63.77l0,0C563.86,247.57,568.63,246.05,567,245.26Z" style="fill: #ff3259"/>
          <path d="M555,245.71c.62.57,1.12,1,1.12,1A12.27,12.27,0,0,0,555,245.71Z" style="fill: #ff3259"/>
          <path d="M555.58,244.1c.69.94,1.38,1.69,1.38,1.69S556.35,245,555.58,244.1Z" style="fill: #ff3259"/>
          <path d="M560.18,245.7c-.15.42-.24.75-.24.75S560.06,246.13,560.18,245.7Z" style="fill: #d71945"/>
          <path d="M559.12,246.4v0Z" style="fill: #d71945"/>
          <path d="M560.91,246.52c-.16.26-.26.47-.26.47Z" style="fill: #d71945"/>
          <path d="M558.1,246.11l.17.52S558.21,246.42,558.1,246.11Z" style="fill: #d71945"/>
          <path d="M561.46,247.5c.95-.75,1.43-2,.76-2.17-.45-.12-1,.66-1.31,1.19l-.26.47s.1-.21.26-.47c.4-.76,1.06-2.2.5-2.41s-1,.83-1.23,1.59c-.12.43-.24.75-.24.75s.09-.33.24-.75c.24-.86.48-2.14-.18-2.19-.92-.06-.89,2.49-.88,2.89v0c0-.41-.13-3.09-1-3.08-.74,0-.26,1.86,0,2.79.11.31.17.52.17.52l-.17-.52c-.26-.73-.78-2-1.33-2s.18,1.91.49,2.56l.11.22-.11-.22c-.3-.61-1.19-2.21-1.88-1.89s1.11,2.7,1.11,2.7a5.34,5.34,0,0,0-2.17-1.45c-1-.15-1.32.42-.25,1.11a15.39,15.39,0,0,1,2,1.53c3.22,2.33,5.1.66,6,.17s2.39-1.31,2-2.16S561.46,247.5,561.46,247.5Z" style="fill: #d71945"/>
          <path d="M557.26,246.72l.11.22Z" style="fill: #d71945"/>
          <path d="M559.54,249.56a9,9,0,0,0,.5-1c-.43.1-.85.8-.85.8a5.42,5.42,0,0,0,.26-1.29,5,5,0,0,0-.72,1.17,2.66,2.66,0,0,0-.55-1.14,2.33,2.33,0,0,0,.08,1.09,3,3,0,0,0-1-.91,2.11,2.11,0,0,0,.53,1c-.77-.25-1.58-.42-1.58-.42a4.53,4.53,0,0,0,2.55,1.11,3.76,3.76,0,0,0,2.36-.57A7.14,7.14,0,0,0,559.54,249.56Z" style="fill: #3eb3a7"/>
        </g>
        <g>
          <path d="M580.26,248.8l-.13.09Z" style="fill: #ff3259"/>
          <path d="M580.36,247.16l-.38.48Z" style="fill: #ff3259"/>
          <path d="M577.65,246.78s0-.5,0-1.19C577.63,246.28,577.65,246.78,577.65,246.78Z" style="fill: #ff3259"/>
          <path d="M580.14,250.26c2.06-1,6.17-.89,4.55-2.23-1.41-1.17-3.84.37-4.43.77l-.13.09.13-.09c.74-.53,4.64-3.37,3.5-3.92-1-.46-2.64,1.37-3.4,2.28l-.38.48.38-.48c.91-1.17,3-4.12,1.91-4.69-1.44-.7-3.63,4.44-3.63,4.44s2.29-5.32.54-5.44c-1.23-.08-1.49,2.53-1.53,4.12,0,.69,0,1.19,0,1.19s0-.5,0-1.19c0-1.68-.28-4.55-1.47-4.39-1,.13-.72,2-.34,3.59a21.48,21.48,0,0,1,.61,2.09s-.34-1-.61-2.09c-.46-1.31-1.13-2.74-1.84-2.58s0,2.37.69,3.85a11.37,11.37,0,0,1,.65,1.33s-.3-.57-.65-1.33c-.68-1.19-1.83-2.8-3.3-3.1-2.38-.49,1.72,2.55,2.5,4.87.07.21.14.4.21.59a5.07,5.07,0,0,0,5.81,3.27H580c2.16-.49,7.14,0,6-1.39S580.14,250.26,580.14,250.26Z" style="fill: #ff3259"/>
          <path d="M574.69,246.06c.35.76.65,1.33.65,1.33A11.37,11.37,0,0,0,574.69,246.06Z" style="fill: #ff3259"/>
          <path d="M575.84,244.79c.27,1.13.61,2.09.61,2.09A21.48,21.48,0,0,0,575.84,244.79Z" style="fill: #ff3259"/>
          <path d="M579.82,249.08c-.25.18-.43.34-.43.34Z" style="fill: #d71945"/>
          <path d="M579.46,248c-.3.33-.51.61-.51.61S579.19,248.39,579.46,248Z" style="fill: #d71945"/>
          <path d="M578.21,248.28l0,.05Z" style="fill: #d71945"/>
          <path d="M576.38,247.86c0,.15,0,.25,0,.25S576.39,248,576.38,247.86Z" style="fill: #d71945"/>
          <path d="M577.39,247.62l0,.55S577.37,247.94,577.39,247.62Z" style="fill: #d71945"/>
          <path d="M580,250.2c1.16-.33,2.09-1.28,1.54-1.71-.37-.29-1.18.22-1.67.59l-.43.34s.18-.16.43-.34c.66-.54,1.83-1.61,1.39-2s-1.21.4-1.75,1c-.27.35-.51.61-.51.61s.21-.28.51-.61c.55-.69,1.28-1.79.68-2.08-.82-.41-1.78,1.94-1.93,2.32l0,.05,0-.05c.15-.39,1.08-2.9.24-3.24s-1,1.61-1.06,2.58c0,.32,0,.55,0,.55l0-.55c0-.78,0-2.13-.48-2.31s-.57,1.83-.53,2.55c0,.15,0,.25,0,.25s0-.1,0-.25c0-.67-.25-2.5-1-2.48-.93,0,0,2.93,0,2.93a5.25,5.25,0,0,0-1.44-2.18c-.82-.5-1.37-.12-.66.93a15,15,0,0,1,1.22,2.17c2.07,3.39,4.45,2.58,5.44,2.46s2.72-.28,2.65-1.23S580,250.2,580,250.2Z" style="fill: #d71945"/>
          <path d="M578.24,250.62c-.44-.08-1.1.41-1.1.41a6,6,0,0,0,.74-1.09,4.57,4.57,0,0,0-1.12.8,2.66,2.66,0,0,0-.07-1.27,2.4,2.4,0,0,0-.35,1,2.94,2.94,0,0,0-.55-1.21,2.21,2.21,0,0,0,.1,1.13c-.61-.53-1.29-1-1.29-1a4.52,4.52,0,0,0,1.92,2,3.85,3.85,0,0,0,2.4.38,7.35,7.35,0,0,0-1.54-.48A7.08,7.08,0,0,0,578.24,250.62Z" style="fill: #3eb3a7"/>
        </g>
        <path d="M547.55,261.44a.45.45,0,0,0-.07.63c.08.1,8.07,10.44,11.06,30.56a.44.44,0,0,0,.44.39H559a.44.44,0,0,0,.38-.51c-3-20.38-11.15-30.88-11.24-31A.45.45,0,0,0,547.55,261.44Z" style="fill: #3eb3a7"/>
        <path d="M558.68,248.79a.44.44,0,0,0-.39.5c0,.33,4.27,33,3.63,43.65a.46.46,0,0,0,.45.47.44.44,0,0,0,.45-.42c.64-10.77-3.6-43.49-3.64-43.82A.44.44,0,0,0,558.68,248.79Z" style="fill: #3eb3a7"/>
        <path d="M566.46,265.73a.45.45,0,0,0-.49.4c0,.15-1.62,16-.81,27.44a.46.46,0,0,0,.45.42h0a.46.46,0,0,0,.42-.48c-.81-11.41.79-27.13.8-27.29A.44.44,0,0,0,566.46,265.73Z" style="fill: #3eb3a7"/>
        <path d="M576.61,251a.45.45,0,0,0-.53.35c0,.15-3,15.23-4.56,25.76s-1.8,16.34-1.81,16.4a.46.46,0,0,0,.45.47.45.45,0,0,0,.45-.43c0-.06.29-5.83,1.8-16.32s4.52-25.55,4.55-25.71A.44.44,0,0,0,576.61,251Z" style="fill: #3eb3a7"/>
        <path d="M586.38,264.48a.44.44,0,0,0-.62.13,104.85,104.85,0,0,0-11.59,28.57.45.45,0,0,0,.32.55h.11a.45.45,0,0,0,.43-.34,104.22,104.22,0,0,1,11.48-28.3A.44.44,0,0,0,586.38,264.48Z" style="fill: #3eb3a7"/>
        <path d="M547.85,285.16c-2.24-.07-7.83,1.25-10.92,15.22a.45.45,0,0,0,.34.53h.1a.45.45,0,0,0,.44-.35c2-9.23,5.78-14.65,10-14.51,3.59.12,9,6.91,9,7a.45.45,0,0,0,.63.08.46.46,0,0,0,.07-.63C557.33,292.19,551.86,285.3,547.85,285.16Z" style="fill: #3eb3a7"/>
        <path d="M598.15,274.19A42,42,0,0,0,580.88,291a.46.46,0,0,0,.41.65.46.46,0,0,0,.4-.26A41,41,0,0,1,598.56,275a.45.45,0,0,0,.19-.61A.44.44,0,0,0,598.15,274.19Z" style="fill: #3eb3a7"/>
        <path d="M578.17,269.29a.45.45,0,0,0-.57.27A141.76,141.76,0,0,0,571.52,294a.45.45,0,0,0,.39.5H572a.44.44,0,0,0,.44-.38,141.52,141.52,0,0,1,6-24.23A.44.44,0,0,0,578.17,269.29Z" style="fill: #3eb3a7"/>
        <g>
          <path d="M565.81,257.85c.23,1.08.46,1.86.46,1.86S566.1,258.93,565.81,257.85Z" style="fill: #ff3259"/>
          <path d="M571.07,261.83l-.16.19Z" style="fill: #ff3259"/>
          <path d="M570.61,259.26c-.26.53-.41.89-.41.89S570.37,259.81,570.61,259.26Z" style="fill: #ff3259"/>
          <path d="M580.45,262c-2.3-1.64-9,2.18-9,2.18,2.8-2.32,9.19-3.73,6.18-5.18-2.64-1.28-5.82,2-6.56,2.87l-.16.19.16-.19c.93-1.08,5.89-7,3.91-7.39-1.65-.34-3.55,3.13-4.37,4.82-.24.55-.41.89-.41.89s.15-.36.41-.89c1-2.15,3.14-7.53,1.15-8-2.48-.55-3.91,8.24-3.91,8.24s1.51-9.1-1.24-8.62c-1.92.34-1.33,4.45-.8,6.93.29,1.08.46,1.86.46,1.86s-.23-.78-.46-1.86c-.71-2.59-2.17-6.89-3.94-6.2-1.46.57-.34,3.4.84,5.68,1,1.53,1.75,3,1.75,3s-.89-1.35-1.75-3c-1.21-1.86-2.78-3.8-3.82-3.29-1.24.6.92,3.67,2.53,5.68a18.22,18.22,0,0,1,1.52,1.81s-.69-.77-1.52-1.81c-1.49-1.58-3.89-3.62-6.27-3.52-3.87.15,3.62,3.28,5.72,6.57.18.29.36.57.54.83a8.1,8.1,0,0,0,10.23,2.84l.09-.05C574.89,264.81,582.76,263.6,580.45,262Z" style="fill: #ff3259"/>
          <path d="M562.71,257.33c.86,1.64,1.75,3,1.75,3S563.71,258.86,562.71,257.33Z" style="fill: #ff3259"/>
          <path d="M561.42,259.72c.83,1,1.52,1.81,1.52,1.81A18.22,18.22,0,0,0,561.42,259.72Z" style="fill: #ff3259"/>
          <path d="M569.55,261c-.33.62-.55,1.13-.55,1.13S569.26,261.62,569.55,261Z" style="fill: #d71945"/>
          <path d="M567.71,261.81v0Z" style="fill: #d71945"/>
          <path d="M570.51,262.41c-.32.4-.54.71-.54.71S570.2,262.83,570.51,262.41Z" style="fill: #d71945"/>
          <path d="M571.13,264.12c1.67-.95,2.74-2.79,1.72-3.23-.66-.3-1.7.76-2.34,1.52-.31.42-.54.71-.54.71s.22-.31.54-.71c.82-1.1,2.19-3.16,1.37-3.64s-1.72,1.08-2.33,2.2c-.29.65-.55,1.13-.55,1.13s.22-.51.55-1.13c.59-1.29,1.29-3.25.26-3.48-1.43-.32-2,3.7-2.1,4.32v0c.08-.64.56-4.89-.87-5.1-1.17-.17-.87,2.86-.65,4.4.09.5.14.86.14.86s-.07-.34-.14-.86c-.23-1.22-.75-3.31-1.63-3.39s-.17,3,.16,4.13c.07.24.12.39.12.39s-.05-.15-.12-.39c-.34-1-1.34-3.75-2.49-3.43-1.42.39,1.07,4.53,1.07,4.53s-1.6-2.37-3-2.82-2.17.34-.67,1.68a25.14,25.14,0,0,1,2.71,2.89c4.49,4.45,7.85,2.29,9.35,1.74s4.08-1.48,3.62-2.92S571.13,264.12,571.13,264.12Z" style="fill: #d71945"/>
          <path d="M564.72,261.85c.07.24.12.39.12.39S564.79,262.09,564.72,261.85Z" style="fill: #d71945"/>
          <path d="M566.19,261.11c.07.52.14.86.14.86S566.28,261.61,566.19,261.11Z" style="fill: #d71945"/>
          <path d="M567.6,266.88a13.12,13.12,0,0,0,1-1.46c-.7,0-1.54,1.05-1.54,1.05a8.64,8.64,0,0,0,.73-2,7.72,7.72,0,0,0-1.41,1.67,4.38,4.38,0,0,0-.6-1.93,3.83,3.83,0,0,0-.15,1.74,4.73,4.73,0,0,0-1.31-1.68A3.45,3.45,0,0,0,565,266a24.47,24.47,0,0,0-2.38-1,7.22,7.22,0,0,0,3.74,2.38,6.09,6.09,0,0,0,3.85-.32A11.49,11.49,0,0,0,567.6,266.88Z" style="fill: #3eb3a7"/>
        </g>
        <path d="M535.58,295.93c-3.86,2.95-.77,11.43-.77,11.43s.23-.22,4.27-4.57a7.39,7.39,0,0,0,1.95-3.52A3.38,3.38,0,0,0,535.58,295.93Z" style="fill: #278682"/>
        <path d="M538.77,287.49c-4-1.76-9.36,4.38-9.36,4.38s.26.09,5.47,1.37a6.6,6.6,0,0,0,3.63,0A3,3,0,0,0,538.77,287.49Z" style="fill: #278682"/>
        <path d="M547.73,288a3.05,3.05,0,0,0-5.34,2.19c.1,4.38,7.92,6.64,7.92,6.64s0-.28-1.06-5.54A6.48,6.48,0,0,0,547.73,288Z" style="fill: #278682"/>
        <path d="M543,275.26s0,.28.16,5.64a6.53,6.53,0,0,0,1,3.49,3,3,0,0,0,5.61-1.3C550.32,278.74,543,275.26,543,275.26Z" style="fill: #278682"/>
        <path d="M550.66,280.32s0,.28.16,5.64a6.53,6.53,0,0,0,1,3.49,3,3,0,0,0,5.61-1.3C558,283.8,550.66,280.32,550.66,280.32Z" style="fill: #278682"/>
        <path d="M551.77,267.91c-3.4-2.78-10.2,1.7-10.2,1.7s.23.15,4.9,2.79a6.64,6.64,0,0,0,3.49,1A3.05,3.05,0,0,0,551.77,267.91Z" style="fill: #278682"/>
        <path d="M555.78,275.91a6.66,6.66,0,0,0-1.61,3.26,3,3,0,0,0,5.05,2.78c3.36-2.82.22-10.33.22-10.33S559.25,271.82,555.78,275.91Z" style="fill: #278682"/>
        <path d="M552.62,262.07s.12.26,2.6,5a6.7,6.7,0,0,0,2.4,2.72,3,3,0,0,0,4.49-3.62C560.76,262,552.62,262.07,552.62,262.07Z" style="fill: #278682"/>
        <path d="M565.83,272.87a6.5,6.5,0,0,0-2.17,2.91,3.05,3.05,0,0,0,4.47,3.65c3.81-2.18,2.07-10.13,2.07-10.13S570,269.46,565.83,272.87Z" style="fill: #278682"/>
        <path d="M568.79,281.6a6.55,6.55,0,0,0-1,3.48,3,3,0,0,0,5.44,1.91c2.84-3.34-1.5-10.23-1.5-10.23S571.53,277,568.79,281.6Z" style="fill: #278682"/>
        <path d="M576.8,268a6.49,6.49,0,0,0-2.14,2.93,3,3,0,0,0,4.49,3.6c3.79-2.21,2-10.14,2-10.14S580.91,264.57,576.8,268Z" style="fill: #278682"/>
        <path d="M583.61,270a3,3,0,0,0,1,5.68c4.3.87,8.22-6.26,8.22-6.26s-.28,0-5.64-.19A6.59,6.59,0,0,0,583.61,270Z" style="fill: #278682"/>
        <path d="M578.13,281.1a3,3,0,0,0,1,5.69c4.3.86,8.22-6.27,8.22-6.27s-.28,0-5.64-.18A6.6,6.6,0,0,0,578.13,281.1Z" style="fill: #278682"/>
        <path d="M595.13,272.77a3,3,0,0,0,1,5.68c4.3.87,8.22-6.27,8.22-6.27s-.28,0-5.63-.18A6.48,6.48,0,0,0,595.13,272.77Z" style="fill: #278682"/>
        <path d="M590.23,281.16a3,3,0,0,0-2,5.4c3.29,2.9,10.25-1.32,10.25-1.32s-.23-.16-4.79-3A6.59,6.59,0,0,0,590.23,281.16Z" style="fill: #278682"/>
      </g>
      <g>
        <path d="M274,328.4c-8.65,0-13.36,2-13.36,4.48s4.71,4.48,13.36,4.48,15.68-2,15.68-4.48S282.69,328.4,274,328.4Z" style="fill: #ac6340"/>
        <polygon points="260.67 332.88 289.71 332.88 295.35 296.52 255.03 296.52 260.67 332.88" style="fill: #ac6340"/>
        <path d="M274,292.05c-11.77,0-19,2-19,4.47s7.23,4.48,19,4.48,21.32-2,21.32-4.48S285.81,292.05,274,292.05Z" style="fill: #e79329"/>
        <path d="M274,298.57c-11.77,0-19,2-19,4.48s7.23,4.48,19,4.48,21.32-2,21.32-4.48S285.81,298.57,274,298.57Z" style="fill: #a04931"/>
        <rect x="255.03" y="296.52" width="40.32" height="6.53" style="fill: #a04931"/>
        <path d="M274,292.05c-11.77,0-19,2-19,4.47s7.23,4.48,19,4.48,21.32-2,21.32-4.48S285.81,292.05,274,292.05Z" style="fill: #5a0109"/>
        <path d="M282.9,296.64c16.72-18.61,28.61-47.35,28.61-47.35C290.14,268.13,282.9,296.64,282.9,296.64Z" style="fill: #278682"/>
        <path d="M246.63,269.31c-5.23,9,.4,28.78.4,28.78s-2.45-25.28,2.63-24.12,16,24.64,16,24.64C264.14,286.63,251.86,260.27,246.63,269.31Z" style="fill: #278682"/>
        <path d="M300,243.9c-16.37,19-19.65,55-19.65,55C288.26,290.24,300,243.9,300,243.9Z" style="fill: #278682"/>
        <path d="M292.9,226.94a.58.58,0,0,0-.8.2c-11.19,18.64-14.91,69-14.94,69.48a.58.58,0,1,0,1.15.08c0-.5,3.74-50.56,14.78-69A.57.57,0,0,0,292.9,226.94Z" style="fill: #3eb3a7"/>
        <path d="M262.48,249.47a.57.57,0,0,0-.43.69c.07.32,7.33,31.81,6.44,48.6a.59.59,0,0,0,.58.61.58.58,0,0,0,.58-.55c.9-16.95-6.41-48.6-6.48-48.92A.57.57,0,0,0,262.48,249.47Z" style="fill: #3eb3a7"/>
        <path d="M301.64,248.77a.58.58,0,0,0-.77.27c-8.19,16.78-19.56,49.32-19.67,49.65a.57.57,0,0,0,.36.73.58.58,0,0,0,.19,0,.57.57,0,0,0,.54-.38c.12-.33,11.46-32.81,19.62-49.53A.58.58,0,0,0,301.64,248.77Z" style="fill: #3eb3a7"/>
        <path d="M277.42,297.89c3.62-11.82-1.81-36.77-1.81-36.77C272.51,278.83,277.42,297.89,277.42,297.89Z" style="fill: #3eb3a7"/>
        <path d="M269,299.39c1.32-12.29-8.72-35.77-8.72-35.77C260.61,281.6,269,299.39,269,299.39Z" style="fill: #3eb3a7"/>
        <g>
          <path d="M262.67,248c-3.36-4.85-6.91-4.32-6.91-4.32,1.59,7.4,5.61,6.74,5.61,6.74a2.78,2.78,0,0,0,4.19-1.85c1.07-3.55-1.24-7.8-1.24-7.8A6.3,6.3,0,0,0,262.67,248Z" style="fill: #ffdf5a"/>
          <path d="M260.94,249.4c-3.56-1-7.78,1.34-7.78,1.34a6.27,6.27,0,0,0,7.24,1.55c-4.8,3.43-4.23,7-4.23,7,7.39-1.68,6.67-5.69,6.67-5.69A2.77,2.77,0,0,0,260.94,249.4Z" style="fill: #ffdf5a"/>
          <path d="M266.06,250c4.84-3.38,4.3-6.93,4.3-6.93-7.4,1.61-6.73,5.63-6.73,5.63a2.78,2.78,0,0,0,1.87,4.19c3.55,1.06,7.79-1.27,7.79-1.27A6.28,6.28,0,0,0,266.06,250Z" style="fill: #ffdf5a"/>
          <path d="M265.5,251a2.78,2.78,0,0,0-4.1,2.06c-.88,3.6,1.65,7.73,1.65,7.73a6.22,6.22,0,0,0,1.23-7.29c3.62,4.66,7.17,3.94,7.17,3.94C269.47,250.15,265.5,251,265.5,251Z" style="fill: #ffdf5a"/>
          <path d="M262.5,249.21a1.73,1.73,0,1,0,2.28.89A1.73,1.73,0,0,0,262.5,249.21Z" style="fill: #e79329"/>
        </g>
        <g>
          <path d="M292.3,224.71c-1.12-5.79-4.58-6.74-4.58-6.74-1.53,7.42,2.41,8.43,2.41,8.43a2.78,2.78,0,0,0,4.59,0c2.41-2.81,2-7.64,2-7.64A6.29,6.29,0,0,0,292.3,224.71Z" style="fill: #ffdf5a"/>
          <path d="M290.16,225.29c-2.85-2.38-7.67-1.92-7.67-1.92a6.28,6.28,0,0,0,6,4.35c-5.78,1.19-6.69,4.67-6.69,4.67,7.44,1.44,8.4-2.52,8.4-2.52A2.78,2.78,0,0,0,290.16,225.29Z" style="fill: #ffdf5a"/>
          <path d="M301.32,223.31c-7.42-1.51-8.42,2.43-8.42,2.43a2.79,2.79,0,0,0,0,4.59c2.82,2.4,7.65,2,7.65,2a6.3,6.3,0,0,0-6-4.41C300.38,226.77,301.32,223.31,301.32,223.31Z" style="fill: #ffdf5a"/>
          <path d="M293.67,228.6a2.78,2.78,0,0,0-4.58.24c-2.26,2.94-1.61,7.74-1.61,7.74a6.23,6.23,0,0,0,4.07-6.18c1.43,5.73,5,6.5,5,6.5C297.66,229.41,293.67,228.6,293.67,228.6Z" style="fill: #ffdf5a"/>
          <path d="M291.65,225.74a1.73,1.73,0,1,0,1.73,1.73A1.74,1.74,0,0,0,291.65,225.74Z" style="fill: #e79329"/>
        </g>
        <g>
          <path d="M282.55,246.12c-2.51-3.86-5.29-3.54-5.29-3.54,1.06,5.82,4.21,5.4,4.21,5.4a2.17,2.17,0,0,0,3.32-1.34c.92-2.74-.78-6.12-.78-6.12A4.91,4.91,0,0,0,282.55,246.12Z" style="fill: #ffdf5a"/>
          <path d="M281.17,247.17c-2.76-.89-6.12.85-6.12.85a4.9,4.9,0,0,0,5.62,1.39c-3.83,2.56-3.47,5.34-3.47,5.34,5.8-1.13,5.35-4.28,5.35-4.28A2.17,2.17,0,0,0,281.17,247.17Z" style="fill: #ffdf5a"/>
          <path d="M285.14,247.77c3.86-2.52,3.53-5.3,3.53-5.3-5.81,1.07-5.39,4.22-5.39,4.22a2.18,2.18,0,0,0,1.35,3.32c2.75.91,6.12-.8,6.12-.8A4.91,4.91,0,0,0,285.14,247.77Z" style="fill: #ffdf5a"/>
          <path d="M284.68,248.54a2.17,2.17,0,0,0-3.25,1.51c-.78,2.79,1.1,6.07,1.1,6.07a4.86,4.86,0,0,0,1.14-5.66c2.71,3.73,5.5,3.25,5.5,3.25C287.8,248,284.68,248.54,284.68,248.54Z" style="fill: #ffdf5a"/>
          <path d="M282.38,247.06a1.35,1.35,0,1,0,1.76.74A1.36,1.36,0,0,0,282.38,247.06Z" style="fill: #e79329"/>
        </g>
        <g>
          <path d="M268.71,277.83c-1-4.5-3.7-5.18-3.7-5.18-1.06,5.81,2,6.53,2,6.53a2.17,2.17,0,0,0,3.58-.08c1.84-2.24,1.44-6,1.44-6A4.92,4.92,0,0,0,268.71,277.83Z" style="fill: #ffdf5a"/>
          <path d="M267,278.32c-2.26-1.81-6-1.36-6-1.36a4.9,4.9,0,0,0,4.76,3.28c-4.49,1-5.13,3.77-5.13,3.77,5.83,1,6.51-2.12,6.51-2.12A2.16,2.16,0,0,0,267,278.32Z" style="fill: #ffdf5a"/>
          <path d="M275.73,276.56c-5.82-1-6.54,2.06-6.54,2.06a2.17,2.17,0,0,0,.1,3.58c2.24,1.82,6,1.41,6,1.41a4.92,4.92,0,0,0-4.74-3.33C275.05,279.29,275.73,276.56,275.73,276.56Z" style="fill: #ffdf5a"/>
          <path d="M269.85,280.84a2.17,2.17,0,0,0-3.57.27c-1.72,2.33-1.12,6.06-1.12,6.06a4.86,4.86,0,0,0,3.07-4.89c1.21,4.45,4,5,4,5C273,281.4,269.85,280.84,269.85,280.84Z" style="fill: #ffdf5a"/>
          <path d="M268.22,278.64a1.35,1.35,0,0,0,.06,2.7,1.35,1.35,0,1,0-.06-2.7Z" style="fill: #e79329"/>
        </g>
        <g>
          <path d="M302.63,246.34c.57-4.58-1.77-6.12-1.77-6.12-2.93,5.13-.25,6.84-.25,6.84a2.16,2.16,0,0,0,3.4,1.11c2.47-1.5,3.35-5.18,3.35-5.18A4.92,4.92,0,0,0,302.63,246.34Z" style="fill: #ffdf5a"/>
          <path d="M295.67,243a4.9,4.9,0,0,0,3.41,4.68c-4.58-.52-6.1,1.85-6.1,1.85,5.17,2.87,6.84.17,6.84.17a2.18,2.18,0,0,0,1.08-3.42C299.36,243.79,295.67,243,295.67,243Z" style="fill: #ffdf5a"/>
          <path d="M302.82,247.24a2.18,2.18,0,0,0-1.1,3.41c1.51,2.47,5.19,3.33,5.19,3.33a4.92,4.92,0,0,0-3.36-4.72c4.58.56,6.11-1.78,6.11-1.78C304.52,244.56,302.82,247.24,302.82,247.24Z" style="fill: #ffdf5a"/>
          <path d="M302.7,249.55a2.17,2.17,0,0,0-3.46-.93c-2.39,1.63-3.07,5.35-3.07,5.35a4.86,4.86,0,0,0,4.52-3.6c-.33,4.6,2.11,6,2.11,6C305.46,251.12,302.7,249.55,302.7,249.55Z" style="fill: #ffdf5a"/>
          <path d="M301.9,246.94a1.35,1.35,0,1,0-.84,2.57,1.35,1.35,0,0,0,.84-2.57Z" style="fill: #e79329"/>
        </g>
      </g>
      <g>
        <g>
          <path d="M385.11,361.39c-3-1.4-5.45,1.43-8.33-.17-3.73-2.08-6.17-4-10-3.38-5,.81-5.83,3.66-11.51,4.3-4.62.52-4.59,5.46-1.83,5.46h34.38S388.09,362.79,385.11,361.39Z" style="fill: #ac6340"/>
          <path d="M373.24,360.33a3.22,3.22,0,0,0-2.5-.67c-.31,0-1,0-.3,1.23s1.68.71,2.8,1.25S374.32,361.15,373.24,360.33Z" style="fill: #5a0109"/>
          <path d="M355.86,363.35c-.4-.18-1.59-.09-1.42,1S356.68,363.7,355.86,363.35Z" style="fill: #5a0109"/>
          <path d="M380.54,363.28c-.05.68,1.39-.29,1.26-.62S380.6,362.59,380.54,363.28Z" style="fill: #df9a82"/>
        </g>
        <path d="M460.48,359.67c-2.14-.31-2.57-5.25-5.19-7s-6.5-3.55-12.92-1.52-9.54-5.91-19.59-3.47-6.68,8.2-11.66,9.55-7.62.72-9.21,4.79-8.19,0-10.47,5.6h76.27S468.68,360.85,460.48,359.67Z" style="fill: #ac6340"/>
        <g>
          <path d="M430.91,337.69a68.71,68.71,0,0,0-6,5.17,63.87,63.87,0,0,0-5.22,5.95.79.79,0,0,0,.15,1.13c10.91,8,18,9.19,20.77,9.69a.8.8,0,0,0,.93-.92c-.48-2.78-1.56-9.88-9.52-20.85A.8.8,0,0,0,430.91,337.69Z" style="fill: #39619d"/>
          <path d="M425.79,342l-.86.83c-.29.28-.57.57-.84.85l4.74,4.78a1.19,1.19,0,1,0,1.69-1.68Z" style="fill: #39619d"/>
          <path d="M412.54,329a.94.94,0,0,0-1.33,1.32l17.7,17.85a.94.94,0,1,0,1.33-1.32Z" style="fill: #6dc7dd"/>
          <path d="M406.51,318.78a3.88,3.88,0,1,0-5.51,5.46l15.45,14.17a1.31,1.31,0,0,0,1.8,0l2.24-2.23a1.28,1.28,0,0,0,.05-1.79Z" style="fill: #ff3259"/>
          <path d="M418.89,332.51a15.61,15.61,0,0,0-4.26,4.23l4,3.63a1.47,1.47,0,0,0,2,0l1.78-1.76a1.47,1.47,0,0,0,.06-2Z" style="fill: #6dc7dd"/>
          <path d="M416.46,330.27a9.17,9.17,0,0,0-4,4,.32.32,0,0,0,.13.43l.14,0a.3.3,0,0,0,.28-.17,8.77,8.77,0,0,1,3.72-3.69.32.32,0,0,0,.16-.42A.31.31,0,0,0,416.46,330.27Z" style="fill: #ca3434"/>
          <path d="M414.73,328.53a9.22,9.22,0,0,0-4,4,.32.32,0,0,0,.13.43l.15,0a.32.32,0,0,0,.28-.17,8.71,8.71,0,0,1,3.72-3.69.32.32,0,1,0-.26-.58Z" style="fill: #ca3434"/>
          <path d="M406,318.71a7.23,7.23,0,0,0-5,4.9.31.31,0,0,0,.2.4l.1,0a.33.33,0,0,0,.3-.22,6.58,6.58,0,0,1,4.49-4.48.32.32,0,0,0-.13-.62Z" style="fill: #ca3434"/>
        </g>
        <path d="M418.74,355.57c-.8.18-1.13.54-2.47,2.15s1.59,2.16,2.47,0S419.27,355.45,418.74,355.57Z" style="fill: #5a0109"/>
        <path d="M451.64,355.12c-.6,1.12,1.6,2.87,2.6,2.27s.1-1.88-.32-2.27S452.23,354,451.64,355.12Z" style="fill: #5a0109"/>
        <path d="M431.85,363.52c-.38,1.48,1.93-.37,1.82-.86S432.22,362,431.85,363.52Z" style="fill: #5a0109"/>
        <path d="M399.73,365.52c.36.71,1.15-.56,1-.81S399.37,364.81,399.73,365.52Z" style="fill: #5a0109"/>
        <path d="M447.76,361c.11.88,1.33-.71,1.12-1S447.65,360.06,447.76,361Z" style="fill: #df9a82"/>
        <path d="M409.49,362.32c.26,1.11,1.6-.34,1.45-.71S409.23,361.21,409.49,362.32Z" style="fill: #df9a82"/>
        <path d="M441.57,357.34c-2.2.8-2.87-.24-5.29,0a5.59,5.59,0,0,0-3.54,1.51s6.82,2.09,10.32,1S443.77,356.54,441.57,357.34Z" style="fill: #ac6340"/>
      </g>
      <g>
        <ellipse cx="119.72" cy="305.77" rx="23.32" ry="5.99" style="fill: #4e9660"/>
        <path d="M119.17,297.73c-8.66,0-13.36,2-13.36,4.48s4.7,4.48,13.36,4.48,15.68-2,15.68-4.48S127.83,297.73,119.17,297.73Z" style="fill: #ac6340"/>
        <polygon points="105.81 302.21 134.85 302.21 140.49 265.85 100.17 265.85 105.81 302.21" style="fill: #ac6340"/>
        <path d="M119.17,261.37c-11.77,0-19,2-19,4.48s7.23,4.48,19,4.48,21.32-2,21.32-4.48S130.94,261.37,119.17,261.37Z" style="fill: #e79329"/>
        <path d="M119.17,267.9c-11.77,0-19,2-19,4.48s7.23,4.47,19,4.47,21.32-2,21.32-4.47S130.94,267.9,119.17,267.9Z" style="fill: #a04931"/>
        <rect x="100.17" y="265.85" width="40.32" height="6.53" style="fill: #a04931"/>
        <path d="M119.17,261.37c-11.77,0-19,2-19,4.48s7.23,4.48,19,4.48,21.32-2,21.32-4.48S130.94,261.37,119.17,261.37Z" style="fill: #5a0109"/>
        <path d="M128,266c16.72-18.61,28.61-47.35,28.61-47.35C135.28,237.46,128,266,128,266Z" style="fill: #278682"/>
        <path d="M91.76,238.64c-5.22,9,.41,28.78.41,28.78s-2.45-25.28,2.62-24.12,16,24.64,16,24.64C109.28,256,97,229.6,91.76,238.64Z" style="fill: #278682"/>
        <path d="M145.1,213.23c-16.36,19-19.65,55-19.65,55C133.39,259.57,145.1,213.23,145.1,213.23Z" style="fill: #278682"/>
        <path d="M138,196.27a.56.56,0,0,0-.79.2c-11.19,18.64-14.91,69-15,69.48a.6.6,0,0,0,.58.62.58.58,0,0,0,.57-.54c0-.5,3.74-50.56,14.79-69A.58.58,0,0,0,138,196.27Z" style="fill: #3eb3a7"/>
        <path d="M107.61,218.8a.57.57,0,0,0-.43.69c.07.32,7.34,31.81,6.45,48.6a.59.59,0,0,0,.58.61.57.57,0,0,0,.57-.55c.9-16.95-6.4-48.6-6.47-48.92A.58.58,0,0,0,107.61,218.8Z" style="fill: #3eb3a7"/>
        <path d="M146.78,218.1a.58.58,0,0,0-.78.27c-8.19,16.78-19.55,49.32-19.66,49.64a.57.57,0,0,0,.35.74.63.63,0,0,0,.19,0,.59.59,0,0,0,.55-.39c.11-.32,11.45-32.8,19.61-49.52A.58.58,0,0,0,146.78,218.1Z" style="fill: #3eb3a7"/>
        <path d="M122.55,267.22c3.62-11.82-1.81-36.77-1.81-36.77C117.64,248.16,122.55,267.22,122.55,267.22Z" style="fill: #3eb3a7"/>
        <path d="M114.16,268.72c1.33-12.29-8.71-35.77-8.71-35.77C105.74,250.93,114.16,268.72,114.16,268.72Z" style="fill: #3eb3a7"/>
        <g>
          <path d="M107.81,217.34c-3.37-4.85-6.92-4.32-6.92-4.32,1.6,7.4,5.61,6.74,5.61,6.74a2.78,2.78,0,0,0,4.2-1.85c1.07-3.55-1.24-7.8-1.24-7.8A6.28,6.28,0,0,0,107.81,217.34Z" style="fill: #bf00ac"/>
          <path d="M106.08,218.73c-3.56-1-7.79,1.34-7.79,1.34a6.28,6.28,0,0,0,7.25,1.55c-4.8,3.42-4.23,7-4.23,7,7.38-1.68,6.67-5.69,6.67-5.69A2.78,2.78,0,0,0,106.08,218.73Z" style="fill: #bf00ac"/>
          <path d="M111.19,219.34c4.84-3.38,4.3-6.93,4.3-6.93-7.39,1.61-6.72,5.63-6.72,5.63a2.78,2.78,0,0,0,1.86,4.19c3.55,1.06,7.8-1.27,7.8-1.27A6.3,6.3,0,0,0,111.19,219.34Z" style="fill: #bf00ac"/>
          <path d="M110.63,220.34a2.78,2.78,0,0,0-4.09,2.07c-.89,3.6,1.64,7.73,1.64,7.73a6.24,6.24,0,0,0,1.24-7.3c3.61,4.67,7.16,3.94,7.16,3.94C114.61,219.47,110.63,220.34,110.63,220.34Z" style="fill: #bf00ac"/>
          <path d="M107.63,218.54a1.73,1.73,0,1,0,2.28.88A1.73,1.73,0,0,0,107.63,218.54Z" style="fill: #9f8f00"/>
        </g>
        <g>
          <path d="M137.44,194c-1.13-5.79-4.59-6.74-4.59-6.74-1.53,7.42,2.42,8.43,2.42,8.43a2.77,2.77,0,0,0,4.58,0c2.41-2.81,2-7.64,2-7.64A6.29,6.29,0,0,0,137.44,194Z" style="fill: #bf00ac"/>
          <path d="M135.29,194.62c-2.84-2.38-7.66-1.92-7.66-1.92a6.25,6.25,0,0,0,6,4.34c-5.77,1.2-6.68,4.68-6.68,4.68,7.43,1.44,8.4-2.52,8.4-2.52A2.77,2.77,0,0,0,135.29,194.62Z" style="fill: #bf00ac"/>
          <path d="M146.46,192.63c-7.42-1.5-8.43,2.44-8.43,2.44a2.78,2.78,0,0,0,0,4.59c2.82,2.4,7.64,2,7.64,2a6.27,6.27,0,0,0-6-4.4C145.52,196.1,146.46,192.63,146.46,192.63Z" style="fill: #bf00ac"/>
          <path d="M138.81,197.93a2.78,2.78,0,0,0-4.58.24c-2.27,2.94-1.61,7.73-1.61,7.73a6.23,6.23,0,0,0,4.07-6.17c1.42,5.73,5,6.5,5,6.5C142.8,198.74,138.81,197.93,138.81,197.93Z" style="fill: #bf00ac"/>
          <path d="M136.79,195.07a1.73,1.73,0,1,0,1.73,1.73A1.73,1.73,0,0,0,136.79,195.07Z" style="fill: #9f8f00"/>
        </g>
        <g>
          <path d="M127.69,215.45c-2.51-3.86-5.3-3.54-5.3-3.54,1.07,5.82,4.22,5.4,4.22,5.4a2.17,2.17,0,0,0,3.32-1.34c.92-2.75-.78-6.12-.78-6.12A4.91,4.91,0,0,0,127.69,215.45Z" style="fill: #bf00ac"/>
          <path d="M126.3,216.5c-2.75-.89-6.11.85-6.11.85a4.9,4.9,0,0,0,5.62,1.39c-3.83,2.55-3.47,5.34-3.47,5.34,5.8-1.13,5.34-4.28,5.34-4.28A2.17,2.17,0,0,0,126.3,216.5Z" style="fill: #bf00ac"/>
          <path d="M130.28,217.1c3.86-2.52,3.52-5.31,3.52-5.31-5.81,1.08-5.38,4.23-5.38,4.23a2.17,2.17,0,0,0,1.35,3.32c2.74.91,6.12-.8,6.12-.8A4.91,4.91,0,0,0,130.28,217.1Z" style="fill: #bf00ac"/>
          <path d="M129.81,217.87a2.16,2.16,0,0,0-3.24,1.51c-.78,2.79,1.09,6.07,1.09,6.07a4.87,4.87,0,0,0,1.15-5.66c2.7,3.73,5.49,3.25,5.49,3.25C132.94,217.29,129.81,217.87,129.81,217.87Z" style="fill: #bf00ac"/>
          <path d="M127.52,216.39a1.35,1.35,0,1,0,1,2.5,1.35,1.35,0,0,0,.74-1.76A1.34,1.34,0,0,0,127.52,216.39Z" style="fill: #9f8f00"/>
        </g>
        <g>
          <path d="M113.84,247.16c-1-4.51-3.7-5.19-3.7-5.19-1.06,5.82,2,6.54,2,6.54a2.17,2.17,0,0,0,3.58-.08c1.83-2.24,1.43-6,1.43-6A4.92,4.92,0,0,0,113.84,247.16Z" style="fill: #bf00ac"/>
          <path d="M112.18,247.64c-2.26-1.8-6-1.35-6-1.35a4.91,4.91,0,0,0,4.77,3.28c-4.49,1-5.14,3.77-5.14,3.77,5.83,1,6.52-2.12,6.52-2.12A2.18,2.18,0,0,0,112.18,247.64Z" style="fill: #bf00ac"/>
          <path d="M120.86,245.89c-5.82-1-6.53,2.06-6.53,2.06a2.17,2.17,0,0,0,.09,3.58c2.25,1.82,6,1.41,6,1.41a4.93,4.93,0,0,0-4.74-3.33C120.19,248.61,120.86,245.89,120.86,245.89Z" style="fill: #bf00ac"/>
          <path d="M115,250.17a2.17,2.17,0,0,0-3.57.27c-1.71,2.33-1.12,6.06-1.12,6.06a4.86,4.86,0,0,0,3.07-4.89c1.22,4.44,4,5,4,5C118.11,250.73,115,250.17,115,250.17Z" style="fill: #bf00ac"/>
          <path d="M113.36,248a1.35,1.35,0,1,0,1.38,1.32A1.35,1.35,0,0,0,113.36,248Z" style="fill: #9f8f00"/>
        </g>
        <g>
          <path d="M147.76,215.66c.57-4.57-1.76-6.11-1.76-6.11-2.94,5.13-.26,6.84-.26,6.84a2.17,2.17,0,0,0,3.4,1.11c2.48-1.5,3.35-5.18,3.35-5.18A4.92,4.92,0,0,0,147.76,215.66Z" style="fill: #bf00ac"/>
          <path d="M140.81,212.29a4.9,4.9,0,0,0,3.4,4.68c-4.58-.52-6.1,1.84-6.1,1.84,5.17,2.88,6.85.18,6.85.18a2.18,2.18,0,0,0,1.07-3.42C144.5,213.12,140.81,212.29,140.81,212.29Z" style="fill: #bf00ac"/>
          <path d="M148,216.57a2.18,2.18,0,0,0-1.11,3.41c1.51,2.47,5.19,3.33,5.19,3.33a4.91,4.91,0,0,0-3.35-4.72c4.57.56,6.11-1.78,6.11-1.78C149.66,213.89,148,216.57,148,216.57Z" style="fill: #bf00ac"/>
          <path d="M147.83,218.88a2.17,2.17,0,0,0-3.45-.93c-2.39,1.63-3.08,5.35-3.08,5.35a4.88,4.88,0,0,0,4.53-3.6c-.34,4.6,2.1,6,2.1,6C150.6,220.45,147.83,218.88,147.83,218.88Z" style="fill: #bf00ac"/>
          <path d="M147,216.27a1.35,1.35,0,0,0-.84,2.57,1.36,1.36,0,0,0,1.71-.87A1.35,1.35,0,0,0,147,216.27Z" style="fill: #9f8f00"/>
        </g>
      </g>
    </g>
    <path d="M582,330.47c0-3.69-1.82-10-1.82-10-1.18,8-2.46,11-2.46,11-2.73-3.37,0-12.46,0-12.46-5.23,8.33-3.6,13.65-3.6,13.65-1.5-3.51-7.2-7-7.2-7,6.28,6.16,4.39,11.85,4.39,11.85s14.38-2.41,13.95-4.41,3.46-14.67,3.46-14.67C583.33,320.61,582,330.47,582,330.47Z" style="fill: #4e9660"/>
    <path d="M169,317.76a6.94,6.94,0,0,0-.51,1.43A13,13,0,0,0,169,317.76Z" style="fill: #4e9660"/>
    <path d="M180.73,313c-7.82-1-10.71,2.64-11.72,4.74a13,13,0,0,1-.51,1.43,6.94,6.94,0,0,1,.51-1.43,11.6,11.6,0,0,0-.51-8.44A16.16,16.16,0,0,1,164,320.47c-1.5-2.53-.55-8.35-.55-8.35-4.17,4.88-2.38,9.28-2.38,9.28a15,15,0,0,0-6.23-5.32c4.21,2.95,4.31,8.29,4.31,8.29s18.72,8,16.47,2.38,3.89-9.13,3.89-9.13c-5.12,0-5.76,1.89-5.76,1.89C174.73,313.76,180.73,313,180.73,313Z" style="fill: #4e9660"/>
    <path d="M483.49,326.91A5.31,5.31,0,0,0,484,325C482.75,326,483.49,326.91,483.49,326.91Z" style="fill: #4e9660"/>
    <path d="M477,330.07a10.66,10.66,0,0,0-.67-.88A1.15,1.15,0,0,0,477,330.07Z" style="fill: #4e9660"/>
    <path d="M489.93,325.79c-4.34.5-3.87,2.72-3.87,2.72-1.4-2.56,1.17-5.05,1.17-5.05A8.92,8.92,0,0,0,484,325a5.31,5.31,0,0,1-.5,1.93s-.74-.87.5-1.93a4.74,4.74,0,0,0-1.89-3.87c1.55,4.37-3.18,7.4-3.18,7.4-.64-1.81,1.74-4.74,1.74-4.74-3.82,2.92-4.5,4.55-4.38,5.42a10.66,10.66,0,0,1,.67.88,1.15,1.15,0,0,1-.67-.88c-2.32-2.86-4.5-3.2-4.5-3.2,6.15,5.25,3.7,8.16,3.7,8.16l14.45-2.24a10.82,10.82,0,0,1-1.7-3.16C487.47,326.67,489.93,325.79,489.93,325.79Z" style="fill: #4e9660"/>
    <path d="M429.8,76.09c-9-.49-13,.59-13,.59a68.31,68.31,0,0,0-8-6.18C404.67,67.83,396.09,67,396.09,67A57.47,57.47,0,0,1,407,71.84c5,3,9.78,11.34,9.78,11.34s2-5.34,10.92-5.67a26.33,26.33,0,0,1,15.62,4.83A19.25,19.25,0,0,0,429.8,76.09Z" style="fill: #5b8eaa;opacity: 0.5"/>
    <path d="M465.3,64.89s-2.11-3-7-1.67a11.66,11.66,0,0,1,3.74.52,13.86,13.86,0,0,1,3,2.4,6.86,6.86,0,0,1,3.41-.87,13.2,13.2,0,0,1,3.87.87,13.52,13.52,0,0,0-3.94-1.63A8.66,8.66,0,0,0,465.3,64.89Z" style="fill: #5b8eaa;opacity: 0.5"/>
    <path d="M384.71,31.82s-4.92-.62-7.84.38a23.62,23.62,0,0,0-7.37,3.88s6.37-2.31,10.12-2.16,7.71,2.9,7.71,2.9-.08-4.67,3.09-6.12a51.31,51.31,0,0,1,8.7-2.75S388.41,26.17,384.71,31.82Z" style="fill: #5b8eaa;opacity: 0.5"/>
    <path d="M310.52,46.77c-9-.49-13,.59-13,.59a67.91,67.91,0,0,0-8-6.18c-4.15-2.67-12.73-3.49-12.73-3.49a57.41,57.41,0,0,1,10.94,4.83c5,3,9.78,11.34,9.78,11.34s2-5.34,10.91-5.67A26.34,26.34,0,0,1,324.06,53,19.25,19.25,0,0,0,310.52,46.77Z" style="fill: #5b8eaa;opacity: 0.5"/>
    <path d="M599.06,38.07s-2.11-3-7-1.67a11.66,11.66,0,0,1,3.74.52,13.86,13.86,0,0,1,3,2.4,6.84,6.84,0,0,1,3.4-.87,13.21,13.21,0,0,1,3.88.87,13.52,13.52,0,0,0-3.94-1.63A8.73,8.73,0,0,0,599.06,38.07Z" style="fill: #5b8eaa;opacity: 0.5"/>
  </g>
</svg>
